<svg width="5" height="8" viewBox="0 0 5 8" fill="none" xmlns="http://www.w3.org/2000/svg">
<path fill-rule="evenodd" clip-rule="evenodd" d="M0.292958 0.464997C0.105487 0.652525 0.000171724 0.906833 0.000171724 1.172C0.000171724 1.43716 0.105487 1.69147 0.292958 1.879L2.41396 4L0.292958 6.121C0.105318 6.30851 -0.000150313 6.56287 -0.000244078 6.82814C-0.000337843 7.09341 0.10495 7.34786 0.292458 7.5355C0.479966 7.72314 0.734334 7.82861 0.999604 7.8287C1.26487 7.82879 1.51932 7.72351 1.70696 7.536L4.53596 4.707C4.72343 4.51947 4.82874 4.26516 4.82874 4C4.82874 3.73483 4.72343 3.48053 4.53596 3.293L1.70696 0.464997C1.51943 0.277526 1.26512 0.172211 0.999958 0.172211C0.734794 0.172211 0.480486 0.277526 0.292958 0.464997Z" fill="#D3D2D6"/>
</svg>
