<svg width="16" height="16" viewBox="0 0 16 16" fill="none" xmlns="http://www.w3.org/2000/svg">
<g clip-path="url(#clip0_4_213)">
<path fill-rule="evenodd" clip-rule="evenodd" d="M10 3.66667C9.99994 3.12556 10.188 2.60126 10.5319 2.18349C10.8758 1.76572 11.3542 1.48047 11.8852 1.37654C12.4162 1.27262 12.9669 1.35649 13.4429 1.61379C13.9189 1.8711 14.2907 2.28585 14.4946 2.78706C14.6985 3.28827 14.7219 3.84477 14.5608 4.36133C14.3996 4.87788 14.064 5.32237 13.6112 5.61872C13.1585 5.91507 12.6168 6.04485 12.079 5.98586C11.5411 5.92687 11.0404 5.68277 10.6627 5.29534L7.78 6.80667C7.922 7.17667 8 7.58 8 8C8.00045 8.40791 7.92587 8.81241 7.78 9.19334L10.6627 10.7047C11.0542 10.3036 11.5769 10.0569 12.1354 10.0096C12.6939 9.96228 13.2507 10.1176 13.7041 10.4471C14.1575 10.7765 14.4771 11.2582 14.6045 11.804C14.732 12.3498 14.6587 12.9232 14.3982 13.4194C14.1376 13.9156 13.7071 14.3014 13.1855 14.5064C12.6638 14.7113 12.0858 14.7216 11.5572 14.5354C11.0286 14.3492 10.5846 13.979 10.3065 13.4924C10.0284 13.0058 9.93476 12.4353 10.0427 11.8853L7.05933 10.3213C6.59728 10.7976 6.00359 11.1252 5.35428 11.262C4.70497 11.3989 4.02959 11.3388 3.41461 11.0895C2.79964 10.8402 2.27306 10.4131 1.90231 9.86274C1.53155 9.31239 1.3335 8.66392 1.3335 8.00034C1.3335 7.33676 1.53155 6.68828 1.90231 6.13794C2.27306 5.5876 2.79964 5.16044 3.41461 4.91115C4.02959 4.66187 4.70497 4.60181 5.35428 4.73866C6.00359 4.87552 6.59728 5.20305 7.05933 5.67934L10.0427 4.11467C10.0141 3.96705 9.99985 3.81703 10 3.66667Z" fill="#6F27FF"/>
</g>
<defs>
<clipPath id="clip0_4_213">
<rect width="16" height="16" fill="white"/>
</clipPath>
</defs>
</svg>
