<svg width="146" height="100" viewBox="0 0 146 100" fill="none" xmlns="http://www.w3.org/2000/svg">
<path d="M141.427 67.6816C135.824 73.8795 119.812 89.0827 98.4751 92.9595C71.7253 97.8198 54.5969 87.912 43.8336 81.724C33.0703 75.5361 15.1914 61.9448 15.1942 37.6273C15.1971 13.3098 30.2524 14.4917 34.6507 16.9598C39.049 19.4278 46.0567 31.5158 35.2555 43.1011C24.4543 54.6864 15.6213 55.3648 9.11271 55.8647C2.60414 56.3646 -7.44435 53.3952 -14.1664 45.0264C-20.8885 36.6575 -24.6419 24.3195 -21.6019 21.2802C-18.5619 18.2408 -13.3766 18.7779 -11.8755 26.1448C-10.3744 33.5118 -18.7076 40.6987 -21.8547 42.3434C-25.0019 43.988 -35.6953 50.8886 -52.0731 44.6643C-68.4509 38.4399 -86.1148 21.5586 -90.0103 1.28164" stroke="#7AE0EF" stroke-width="10"/>
</svg>
