<svg width="132" height="265" viewBox="0 0 132 265" fill="none" xmlns="http://www.w3.org/2000/svg">
<path d="M409.474 33.6388C396.105 24.5751 359.054 3.38388 317.208 5.90705C264.746 9.07033 237.136 35.5439 219.768 52.1081C202.401 68.6724 175.073 102.407 186.251 148.068C197.428 193.728 225.155 184.592 232.28 177.937C239.405 171.282 247.01 145.364 221.406 128.573C195.801 111.781 178.903 114.565 166.452 116.617C154.001 118.668 136.497 128.861 127.72 147.663C118.943 166.466 117.563 191.358 124.668 195.668C131.773 199.979 141.262 196.588 140.696 182.065C140.13 167.543 121.181 157.876 114.516 156.234C107.851 154.591 84.6013 146.547 56.7078 165.759C28.8144 184.971 3.40208 224.785 5.40314 264.649" stroke="#FF7632" stroke-width="10"/>
</svg>
