<svg width="131" height="35" viewBox="0 0 131 35" fill="none" xmlns="http://www.w3.org/2000/svg">
<path d="M26.9278 20.695C23.8058 27.3653 14.4543 33.2611 7.78402 30.1391C1.11371 27.0171 -1.88327 14.796 1.23875 8.12573C4.36078 1.45544 12.4196 2.86181 19.0899 5.98383C27.3799 9.86395 30.0499 14.0247 26.9278 20.695Z" fill="#6C27FF"/>
<path d="M8.51373 13.4266C7.12436 12.1946 6.19398 10.7042 5.57568 10.0791L5.57205 12.4137C5.56914 14.2886 7.11744 15.7944 8.9915 15.7393L12.0015 15.6507C11.0263 15.2147 10.199 14.921 8.51373 13.4266Z" fill="url(#paint0_linear_3590_2309)"/>
<path d="M18.5149 12.6303L8.74613 12.5932L10.8273 14.237C11.6561 14.8916 12.6861 15.2388 13.7421 15.2195L22.3505 15.0617L21.932 14.4467C21.162 13.315 19.8837 12.6355 18.5149 12.6303Z" fill="white"/>
<path d="M17.1007 15.8358L15.1551 15.8841C14.4388 15.9019 13.7823 16.2878 13.4183 16.905L9.97212 22.7489L10.5203 22.7512C11.9708 22.7571 13.3193 22.0055 14.0773 20.7688L17.1007 15.8358Z" fill="white"/>
<path d="M16.1324 11.8665L14.185 11.8568C13.4431 11.853 12.7277 11.5804 12.1716 11.0893L13.7926 11.0732C14.6256 11.0649 15.4374 11.3353 16.0993 11.8412L16.1324 11.8665Z" fill="#9868FF"/>
<path d="M43.1402 28.2873C42.2017 28.2873 41.3973 28.1915 40.727 28C40.0567 27.8085 39.5109 27.5116 39.0895 27.1094C38.6682 26.7072 38.3522 26.1901 38.1415 25.5581C37.95 24.907 37.8542 24.1409 37.8542 23.2599V11.0792C37.8542 10.7345 37.8829 10.4376 37.9404 10.1886C38.017 9.93966 38.1702 9.74814 38.4 9.61408C38.649 9.46086 39.0321 9.38425 39.5492 9.38425C40.0854 9.38425 40.4685 9.46086 40.6983 9.61408C40.9473 9.76729 41.1005 9.97797 41.1579 10.2461C41.2345 10.4951 41.2728 10.7728 41.2728 11.0792V23.145C41.2728 23.5472 41.3016 23.8727 41.359 24.1217C41.4356 24.3707 41.541 24.5622 41.675 24.6963C41.8283 24.8112 42.0198 24.8974 42.2496 24.9548C42.4986 24.9931 42.7954 25.0123 43.1402 25.0123C43.5041 25.0123 43.8105 25.041 44.0595 25.0985C44.3276 25.1559 44.5287 25.2996 44.6628 25.5294C44.7968 25.7401 44.8638 26.0944 44.8638 26.5923C44.8638 27.1286 44.7777 27.5212 44.6053 27.7702C44.4521 28 44.2414 28.1436 43.9733 28.2011C43.7243 28.2586 43.4466 28.2873 43.1402 28.2873ZM36.6764 14.4117L39.6353 14.4404L43.5998 14.3255C43.9254 14.3255 44.2127 14.3638 44.4617 14.4404C44.7298 14.4978 44.9405 14.6511 45.0937 14.9C45.2469 15.1299 45.3235 15.5129 45.3235 16.0492C45.3235 16.5471 45.2469 16.9206 45.0937 17.1695C44.9405 17.4185 44.7394 17.5813 44.4904 17.6579C44.2414 17.7154 43.9541 17.7441 43.6285 17.7441L39.779 17.6866L36.5902 17.7154C36.1114 17.6962 35.7762 17.5622 35.5847 17.3132C35.4123 17.0451 35.3261 16.6141 35.3261 16.0204C35.3261 15.465 35.4315 15.0628 35.6422 14.8138C35.872 14.5457 36.2167 14.4117 36.6764 14.4117ZM49.1603 28.2873C48.6431 28.2873 48.2601 28.2011 48.0111 28.0287C47.7813 27.8755 47.6377 27.6648 47.5802 27.3967C47.5228 27.1286 47.494 26.8317 47.494 26.5061V15.8481C47.494 15.5033 47.5228 15.2065 47.5802 14.9575C47.6377 14.6894 47.7813 14.4883 48.0111 14.3542C48.2601 14.201 48.6527 14.1244 49.189 14.1244C49.7061 14.1244 50.0795 14.1914 50.3094 14.3255C50.5583 14.4595 50.7116 14.6319 50.769 14.8426C50.8456 15.0341 50.8839 15.2256 50.8839 15.4171L50.6541 15.9342C50.7499 15.781 50.8839 15.5991 51.0563 15.3884C51.2287 15.1586 51.4585 14.9383 51.7458 14.7277C52.0331 14.4978 52.3778 14.3159 52.78 14.1818C53.1822 14.0286 53.661 13.952 54.2164 13.952C54.4462 13.952 54.6856 13.9807 54.9346 14.0382C55.2027 14.0765 55.4613 14.1435 55.7102 14.2393C55.9784 14.3159 56.2178 14.4212 56.4284 14.5553C56.6391 14.6894 56.8019 14.8522 56.9168 15.0437C57.0317 15.216 57.0892 15.4171 57.0892 15.647C57.0892 16.2598 56.936 16.7769 56.6295 17.1983C56.3231 17.6196 55.9592 17.8303 55.5379 17.8303C55.2506 17.8303 55.0399 17.8016 54.9059 17.7441C54.7718 17.6866 54.6569 17.6196 54.5611 17.543C54.4845 17.4664 54.36 17.3994 54.1877 17.3419C54.0344 17.2845 53.7855 17.2557 53.4407 17.2557C53.1534 17.2557 52.8566 17.3036 52.5502 17.3994C52.2629 17.4951 51.9947 17.6388 51.7458 17.8303C51.4968 18.0218 51.2957 18.2708 51.1425 18.5772C50.9893 18.8645 50.9127 19.1997 50.9127 19.5827V26.5636C50.9127 26.8892 50.8839 27.186 50.8265 27.4542C50.769 27.7031 50.6158 27.9042 50.3668 28.0575C50.1179 28.2107 49.7157 28.2873 49.1603 28.2873ZM65.2491 28.2586C64.3681 28.2586 63.5541 28.1053 62.8072 27.7989C62.0794 27.4733 61.4378 27.0137 60.8824 26.42C60.327 25.8262 59.8961 25.1176 59.5896 24.2941C59.2832 23.4706 59.13 22.5608 59.13 21.5649V15.8481C59.13 15.5225 59.1587 15.2352 59.2162 14.9862C59.2736 14.7181 59.4268 14.5074 59.6758 14.3542C59.9248 14.201 60.3078 14.1244 60.8249 14.1244C61.3804 14.1244 61.773 14.201 62.0028 14.3542C62.2518 14.5074 62.405 14.7181 62.4624 14.9862C62.5199 15.2543 62.5486 15.5512 62.5486 15.8768V21.5649C62.5486 22.2544 62.6635 22.8481 62.8934 23.3461C63.1423 23.844 63.4966 24.2366 63.9563 24.5239C64.4159 24.792 64.9809 24.9261 65.6512 24.9261C66.3407 24.9261 66.9249 24.792 67.4037 24.5239C67.9016 24.2366 68.2846 23.844 68.5528 23.3461C68.8209 22.829 68.955 22.2352 68.955 21.5649V15.8193C68.955 15.4937 68.9837 15.2065 69.0412 14.9575C69.0986 14.6894 69.2518 14.4883 69.5008 14.3542C69.7498 14.201 70.1424 14.1244 70.6786 14.1244C71.2149 14.1244 71.5979 14.201 71.8278 14.3542C72.0576 14.5074 72.2012 14.7181 72.2587 14.9862C72.3353 15.2543 72.3736 15.5416 72.3736 15.8481V26.6211C72.3736 26.9083 72.3353 27.1765 72.2587 27.4254C72.2012 27.6744 72.048 27.8755 71.799 28.0287C71.5692 28.1819 71.1862 28.2586 70.6499 28.2586C70.2669 28.2586 69.9604 28.2107 69.7306 28.1149C69.52 28.0383 69.3572 27.933 69.2422 27.7989C69.1465 27.6457 69.0795 27.4925 69.0412 27.3393C69.022 27.186 69.0124 27.0328 69.0124 26.8796L69.2422 26.104C69.1273 26.2763 68.955 26.487 68.7251 26.736C68.4953 26.9658 68.208 27.2052 67.8633 27.4542C67.5377 27.684 67.1547 27.8755 66.7142 28.0287C66.2737 28.1819 65.7853 28.2586 65.2491 28.2586ZM76.9063 28.2586C76.3892 28.2586 76.0062 28.1724 75.7572 28C75.5274 27.8468 75.3838 27.6457 75.3263 27.3967C75.2688 27.1286 75.2401 26.8317 75.2401 26.5061V15.7619C75.2401 15.4554 75.2688 15.1777 75.3263 14.9288C75.3838 14.6798 75.537 14.4883 75.7859 14.3542C76.0349 14.201 76.418 14.1244 76.9351 14.1244C77.3947 14.1244 77.7395 14.1818 77.9693 14.2967C78.1991 14.4117 78.3523 14.5553 78.4289 14.7277C78.5055 14.9 78.5438 15.0724 78.5438 15.2448C78.563 15.4171 78.5821 15.5512 78.6013 15.647L78.4864 16.5663C78.6013 16.2598 78.7928 15.963 79.0609 15.6757C79.3291 15.3884 79.6547 15.1299 80.0377 14.9C80.4207 14.6511 80.8325 14.4595 81.273 14.3255C81.7326 14.1723 82.2019 14.0956 82.6807 14.0956C83.5808 14.0956 84.3852 14.2584 85.0938 14.584C85.8024 14.9096 86.4057 15.3693 86.9037 15.963C87.4208 16.5567 87.8134 17.2653 88.0815 18.0888C88.3497 18.8932 88.4837 19.8029 88.4837 20.818V26.5349C88.4837 26.8605 88.4454 27.1573 88.3688 27.4254C88.3114 27.6744 88.1677 27.8755 87.9379 28.0287C87.7081 28.1819 87.3155 28.2586 86.76 28.2586C86.2238 28.2586 85.8312 28.1724 85.5822 28C85.3332 27.8468 85.18 27.6457 85.1226 27.3967C85.0651 27.1286 85.0364 26.8317 85.0364 26.5061V20.7893C85.0364 20.0998 84.9119 19.5061 84.6629 19.0081C84.4331 18.5102 84.0883 18.1271 83.6287 17.859C83.1882 17.5909 82.6232 17.4568 81.9337 17.4568C81.2634 17.4568 80.6793 17.6005 80.1813 17.8877C79.6834 18.1559 79.3003 18.5389 79.0322 19.0369C78.7641 19.5348 78.63 20.119 78.63 20.7893V26.5349C78.63 26.8605 78.6013 27.1573 78.5438 27.4254C78.4864 27.6744 78.3332 27.8755 78.0842 28.0287C77.8544 28.1819 77.4617 28.2586 76.9063 28.2586ZM97.3771 28.2586C96.4961 28.2586 95.663 28.0766 94.8777 27.7127C94.0925 27.3488 93.403 26.8509 92.8093 26.2189C92.2156 25.5677 91.7464 24.8112 91.4016 23.9494C91.0569 23.0684 90.8845 22.1299 90.8845 21.134C90.8845 20.1764 91.0569 19.2763 91.4016 18.4336C91.7464 17.5717 92.2156 16.8248 92.8093 16.1928C93.4222 15.5416 94.1212 15.0341 94.9065 14.6702C95.6917 14.3063 96.5152 14.1244 97.3771 14.1244C98.2964 14.1244 99.1199 14.3063 99.8477 14.6702C100.575 15.0341 101.188 15.5416 101.686 16.1928C102.203 16.8248 102.596 17.5717 102.864 18.4336C103.132 19.2763 103.276 20.186 103.295 21.1627C103.295 22.1395 103.161 23.0588 102.893 23.9206C102.644 24.7633 102.261 25.5102 101.744 26.1614C101.246 26.8126 100.623 27.3297 99.8764 27.7127C99.1486 28.0766 98.3155 28.2586 97.3771 28.2586ZM97.8367 24.8974C98.507 24.8974 99.1007 24.7442 99.6178 24.4377C100.154 24.1121 100.575 23.6716 100.882 23.1162C101.207 22.5608 101.37 21.9288 101.37 21.2202C101.37 20.4924 101.207 19.8508 100.882 19.2954C100.575 18.74 100.154 18.2995 99.6178 17.9739C99.1007 17.6483 98.507 17.4856 97.8367 17.4856C97.1664 17.4856 96.5631 17.6483 96.0268 17.9739C95.4906 18.2804 95.0597 18.7209 94.7341 19.2954C94.4277 19.8508 94.2744 20.4924 94.2744 21.2202C94.2744 21.9288 94.4277 22.5608 94.7341 23.1162C95.0597 23.6716 95.4906 24.1121 96.0268 24.4377C96.5823 24.7442 97.1855 24.8974 97.8367 24.8974ZM103.151 28.2586C102.615 28.2586 102.223 28.1724 101.974 28C101.725 27.8085 101.562 27.5116 101.485 27.1094V9.41298C101.485 9.0874 101.504 8.80012 101.543 8.55114C101.6 8.28301 101.744 8.07234 101.974 7.91912C102.223 7.74676 102.606 7.66057 103.123 7.66057C103.678 7.66057 104.071 7.73718 104.301 7.8904C104.53 8.04361 104.674 8.25429 104.731 8.52241C104.808 8.77139 104.846 9.05867 104.846 9.38425V26.5061C104.846 26.8317 104.818 27.1286 104.76 27.3967C104.703 27.6648 104.549 27.8755 104.301 28.0287C104.071 28.1819 103.688 28.2586 103.151 28.2586ZM112.752 28.2873C112.044 28.2873 111.412 28.2394 110.856 28.1436C110.32 28.0479 109.851 27.8851 109.448 27.6553C109.065 27.4254 108.749 27.119 108.5 26.736C108.251 26.3338 108.06 25.8454 107.926 25.2708C107.811 24.6963 107.753 24.0068 107.753 23.2024V9.35552C107.753 9.02994 107.782 8.74266 107.84 8.49369C107.916 8.22556 108.069 8.01489 108.299 7.86167C108.548 7.6893 108.941 7.60312 109.477 7.60312C110.013 7.60312 110.396 7.67973 110.626 7.83294C110.875 7.98616 111.028 8.19683 111.086 8.46496C111.163 8.71393 111.201 9.00121 111.201 9.3268V23.0588C111.201 23.4227 111.22 23.7291 111.258 23.9781C111.316 24.2079 111.402 24.3994 111.517 24.5526C111.651 24.6867 111.814 24.7825 112.005 24.8399C112.216 24.8974 112.465 24.9261 112.752 24.9261C113.001 24.9261 113.221 24.9548 113.413 25.0123C113.624 25.0697 113.786 25.2134 113.901 25.4432C114.035 25.673 114.102 26.0465 114.102 26.5636C114.102 27.0999 114.035 27.4925 113.901 27.7414C113.786 27.9904 113.624 28.1436 113.413 28.2011C113.202 28.2586 112.982 28.2873 112.752 28.2873ZM123.009 28.4596C121.764 28.4596 120.672 28.2586 119.734 27.8564C118.814 27.4542 118.039 26.9083 117.407 26.2189C116.794 25.5102 116.324 24.725 115.999 23.8632C115.692 22.9822 115.539 22.0725 115.539 21.134C115.539 19.7551 115.855 18.5293 116.487 17.4568C117.119 16.3843 117.991 15.5416 119.101 14.9288C120.231 14.3159 121.524 14.0095 122.98 14.0095C124.014 14.0095 124.924 14.1723 125.709 14.4978C126.494 14.8234 127.145 15.2543 127.662 15.7906C128.199 16.3077 128.601 16.8823 128.869 17.5143C129.156 18.1463 129.3 18.7592 129.3 19.3529C129.3 20.3679 129.051 21.1053 128.553 21.5649C128.074 22.0246 127.471 22.2544 126.743 22.2544H119.159C119.178 22.9056 119.379 23.4706 119.762 23.9494C120.164 24.4282 120.662 24.8016 121.256 25.0697C121.869 25.3187 122.491 25.4432 123.123 25.4432C123.602 25.4432 124.024 25.4145 124.387 25.357C124.77 25.2996 125.096 25.2325 125.364 25.1559C125.632 25.0602 125.862 24.9644 126.054 24.8686C126.264 24.7729 126.456 24.6867 126.628 24.6101C126.801 24.5335 126.963 24.4856 127.117 24.4665C127.327 24.4473 127.538 24.4952 127.749 24.6101C127.959 24.725 128.132 24.9261 128.266 25.2134C128.381 25.4049 128.457 25.5868 128.496 25.7592C128.553 25.9124 128.582 26.0656 128.582 26.2189C128.582 26.6019 128.352 26.9658 127.892 27.3105C127.433 27.6361 126.781 27.9042 125.939 28.1149C125.115 28.3447 124.138 28.4596 123.009 28.4596ZM119.159 20.2147H125.048C125.374 20.2147 125.623 20.1668 125.795 20.0711C125.967 19.9562 126.054 19.7263 126.054 19.3816C126.054 18.9411 125.92 18.5485 125.651 18.2038C125.383 17.8399 125.019 17.5622 124.56 17.3706C124.1 17.16 123.564 17.0546 122.951 17.0546C122.242 17.0546 121.601 17.1983 121.026 17.4856C120.452 17.7537 119.992 18.1271 119.647 18.6059C119.322 19.0847 119.159 19.621 119.159 20.2147Z" fill="white"/>
<defs>
<linearGradient id="paint0_linear_3590_2309" x1="6.3547" y1="10.7317" x2="12.8459" y2="16.2732" gradientUnits="userSpaceOnUse">
<stop stop-color="#C4A8FF"/>
<stop offset="1" stop-color="#7152B3"/>
</linearGradient>
</defs>
</svg>
