<svg width="19" height="19" viewBox="0 0 19 19" fill="none" xmlns="http://www.w3.org/2000/svg">
<path d="M2.66113 18.6104C2.11113 18.6104 1.6403 18.4145 1.24863 18.0229C0.856966 17.6312 0.661133 17.1604 0.661133 16.6104V2.61035C0.661133 2.06035 0.856966 1.58952 1.24863 1.19785C1.6403 0.806185 2.11113 0.610352 2.66113 0.610352H10.6611V2.61035H2.66113V16.6104H16.6611V8.61035H18.6611V16.6104C18.6611 17.1604 18.4653 17.6312 18.0736 18.0229C17.682 18.4145 17.2111 18.6104 16.6611 18.6104H2.66113ZM3.66113 14.6104H15.6611L11.9111 9.61035L8.91113 13.6104L6.66113 10.6104L3.66113 14.6104ZM14.6611 6.61035V4.61035H12.6611V2.61035H14.6611V0.610352H16.6611V2.61035H18.6611V4.61035H16.6611V6.61035H14.6611Z" fill="#6F27FF"/>
</svg>
