<svg width="123" height="325" viewBox="0 0 123 325" fill="none" xmlns="http://www.w3.org/2000/svg">
<path d="M3.73577 48.5353C1.55263 48.1974 0.0567825 46.1537 0.394703 43.9706L5.90144 8.3942C6.23936 6.21106 8.28309 4.71523 10.4662 5.05314C12.6494 5.39107 14.1452 7.4348 13.8073 9.61794L8.91242 41.2413L40.5358 46.1362C42.719 46.4741 44.2148 48.5179 43.8769 50.701C43.539 52.8841 41.4953 54.38 39.3121 54.0421L3.73577 48.5353ZM120.827 4.94254L120.924 0.943721L120.827 4.94254ZM534.684 320.873C534.653 323.082 532.837 324.847 530.628 324.816C528.419 324.785 526.654 322.969 526.685 320.76L534.684 320.873ZM1.98514 41.3546C18.8576 29.0053 66.0636 -0.382855 120.924 0.943721L120.731 8.94137C68.5452 7.67948 23.1283 35.7934 6.71012 47.8102L1.98514 41.3546ZM120.924 0.943721C189.521 2.60246 226.9 35.9652 249.968 56.4307L244.659 62.4151C221.871 42.1983 186.336 10.5278 120.731 8.94137L120.924 0.943721ZM249.968 56.4307C273.166 77.0103 311.045 120.167 298.425 181.161L290.591 179.54C302.299 122.956 267.319 82.5177 244.659 62.4151L249.968 56.4307ZM298.425 181.161C292.191 211.29 279.58 225.039 266.006 229.388C252.805 233.618 240.079 228.445 234.514 223.61L239.76 217.571C243.595 220.902 253.472 225.004 263.565 221.77C273.286 218.655 284.661 208.201 290.591 179.54L298.425 181.161ZM234.514 223.61C228.761 218.612 223.356 207.176 223.451 194.226C223.549 180.916 229.424 165.876 246.431 153.824L251.056 160.351C236.158 170.909 231.53 183.537 231.451 194.285C231.369 205.392 236.114 214.403 239.76 217.571L234.514 223.61ZM246.431 153.824C262.818 142.212 276.778 136.988 288.857 135.001C300.898 133.021 310.835 134.308 318.836 135.332L317.821 143.267C309.837 142.246 300.934 141.122 290.155 142.895C279.415 144.662 266.575 149.354 251.056 160.351L246.431 153.824ZM318.836 135.332C336.034 137.532 360.04 150.466 372.752 175.319L365.63 178.962C354.206 156.629 332.593 145.157 317.821 143.267L318.836 135.332ZM372.752 175.319C379.028 187.589 382.904 201.905 384.076 213.98C384.661 220.012 384.59 225.664 383.711 230.319C382.869 234.776 381.11 239.234 377.492 241.611L373.099 234.925C373.916 234.388 375.12 232.697 375.85 228.833C376.543 225.166 376.654 220.325 376.113 214.753C375.032 203.62 371.421 190.286 365.63 178.962L372.752 175.319ZM377.492 241.611C372.056 245.183 365.08 246.057 359.312 242.509C353.525 238.949 350.183 231.712 350.213 221.633L358.213 221.656C358.188 230.138 360.953 234.126 363.504 235.695C366.074 237.276 369.666 237.181 373.099 234.925L377.492 241.611ZM350.213 221.633C350.245 210.607 357.266 201.654 364.599 195.445C371.984 189.193 380.525 184.997 385.341 183.624L387.533 191.318C383.918 192.348 376.374 195.958 369.768 201.551C363.11 207.188 358.234 214.12 358.213 221.656L350.213 221.633ZM385.341 183.624C389.36 182.479 399.372 178.847 412.955 178.605C426.621 178.362 443.851 181.523 462.803 193.593L458.506 200.341C440.974 189.175 425.311 186.387 413.097 186.604C400.799 186.823 391.945 190.06 387.533 191.318L385.341 183.624ZM462.803 193.593C500.208 217.416 535.427 268.244 534.684 320.873L526.685 320.76C527.381 271.449 494.069 222.991 458.506 200.341L462.803 193.593Z" fill="#F738EA"/>
</svg>
