<svg width="23" height="21" viewBox="0 0 23 21" fill="none" xmlns="http://www.w3.org/2000/svg">
<rect x="0.5" width="22" height="21" rx="10.5" fill="#20C69E"/>
<mask id="mask0_144_264" style="mask-type:alpha" maskUnits="userSpaceOnUse" x="1" y="0" width="21" height="21">
<rect x="1.5" y="0.5" width="20" height="20" fill="#D9D9D9"/>
</mask>
<g mask="url(#mask0_144_264)">
<path d="M9.60417 12.8125L15.8333 6.58335C15.9849 6.43058 16.1616 6.35419 16.3635 6.35419C16.5656 6.35419 16.7431 6.43058 16.8958 6.58335C17.0486 6.73613 17.125 6.91377 17.125 7.11627C17.125 7.31877 17.0513 7.4937 16.904 7.64106L10.1458 14.4167C9.99431 14.5695 9.81757 14.6459 9.61562 14.6459C9.41354 14.6459 9.23611 14.5695 9.08333 14.4167L6.10417 11.4375C5.95139 11.2847 5.875 11.1077 5.875 10.9063C5.875 10.7049 5.95139 10.5278 6.10417 10.375C6.25694 10.2222 6.43521 10.1459 6.63896 10.1459C6.84257 10.1459 7.01847 10.2222 7.16667 10.375L9.60417 12.8125Z" fill="white"/>
</g>
</svg>
