<svg width="16" height="16" viewBox="0 0 16 16" fill="none" xmlns="http://www.w3.org/2000/svg">
<g opacity="0.7">
<mask id="mask0_1017_6110" style="mask-type:alpha" maskUnits="userSpaceOnUse" x="0" y="0" width="16" height="16">
<rect width="16" height="16" fill="#D9D9D9"/>
</mask>
<g mask="url(#mask0_1017_6110)">
<path d="M11.8332 13.5C11.1332 13.5 10.5415 13.2583 10.0582 12.775C9.57484 12.2917 9.33317 11.7 9.33317 11C9.33317 10.3 9.57484 9.70833 10.0582 9.225C10.5415 8.74167 11.1332 8.5 11.8332 8.5C12.5332 8.5 13.1248 8.74167 13.6082 9.225C14.0915 9.70833 14.3332 10.3 14.3332 11C14.3332 11.7 14.0915 12.2917 13.6082 12.775C13.1248 13.2583 12.5332 13.5 11.8332 13.5ZM7.33317 11.6667H3.33317C3.14428 11.6667 2.98595 11.6028 2.85817 11.475C2.73039 11.3472 2.6665 11.1889 2.6665 11C2.6665 10.8111 2.73039 10.6528 2.85817 10.525C2.98595 10.3972 3.14428 10.3333 3.33317 10.3333H7.33317C7.52206 10.3333 7.68039 10.3972 7.80817 10.525C7.93595 10.6528 7.99984 10.8111 7.99984 11C7.99984 11.1889 7.93595 11.3472 7.80817 11.475C7.68039 11.6028 7.52206 11.6667 7.33317 11.6667ZM4.1665 7.5C3.4665 7.5 2.87484 7.25833 2.3915 6.775C1.90817 6.29167 1.6665 5.7 1.6665 5C1.6665 4.3 1.90817 3.70833 2.3915 3.225C2.87484 2.74167 3.4665 2.5 4.1665 2.5C4.8665 2.5 5.45817 2.74167 5.9415 3.225C6.42484 3.70833 6.6665 4.3 6.6665 5C6.6665 5.7 6.42484 6.29167 5.9415 6.775C5.45817 7.25833 4.8665 7.5 4.1665 7.5ZM12.6665 5.66667H8.6665C8.47762 5.66667 8.31928 5.60278 8.1915 5.475C8.06373 5.34722 7.99984 5.18889 7.99984 5C7.99984 4.81111 8.06373 4.65278 8.1915 4.525C8.31928 4.39722 8.47762 4.33333 8.6665 4.33333H12.6665C12.8554 4.33333 13.0137 4.39722 13.1415 4.525C13.2693 4.65278 13.3332 4.81111 13.3332 5C13.3332 5.18889 13.2693 5.34722 13.1415 5.475C13.0137 5.60278 12.8554 5.66667 12.6665 5.66667Z" fill="#9F9BA3"/>
</g>
</g>
</svg>
