<svg width="20" height="21" viewBox="0 0 20 21" fill="none" xmlns="http://www.w3.org/2000/svg">
<g opacity="0.3">
<mask id="mask0_1794_763" style="mask-type:alpha" maskUnits="userSpaceOnUse" x="0" y="0" width="20" height="21">
<rect y="0.779785" width="20" height="20" fill="#D9D9D9"/>
</mask>
<g mask="url(#mask0_1794_763)">
<path d="M5.5 12.7798V18.0239C5.5 18.2362 5.42855 18.4152 5.28565 18.561C5.14273 18.7069 4.96565 18.7798 4.7544 18.7798C4.54313 18.7798 4.36458 18.7079 4.21875 18.5642C4.07292 18.4204 4 18.2423 4 18.0298V3.52979C4 3.31729 4.07145 3.13916 4.21435 2.99541C4.35727 2.85166 4.53435 2.77979 4.7456 2.77979C4.95687 2.77979 5.13542 2.85166 5.28125 2.99541C5.42708 3.13916 5.5 3.31729 5.5 3.52979V4.77979H15.7917C16.0694 4.77979 16.2813 4.89784 16.4271 5.13395C16.5729 5.37006 16.5833 5.61312 16.4583 5.86312L15 8.77979L16.4583 11.6965C16.5833 11.9465 16.5729 12.1895 16.4271 12.4256C16.2813 12.6617 16.0694 12.7798 15.7917 12.7798H5.5ZM10.0044 10.2798C10.4181 10.2798 10.7708 10.1325 11.0625 9.83787C11.3542 9.54324 11.5 9.18908 11.5 8.77537C11.5 8.36165 11.3527 8.00895 11.0581 7.71729C10.7635 7.42562 10.4093 7.27979 9.99558 7.27979C9.58186 7.27979 9.22917 7.42709 8.9375 7.7217C8.64583 8.01633 8.5 8.37049 8.5 8.7842C8.5 9.19792 8.64731 9.55062 8.94192 9.84229C9.23654 10.134 9.59071 10.2798 10.0044 10.2798Z" fill="#1C1B1F"/>
</g>
</g>
</svg>
