<svg width="340" height="132" viewBox="0 0 340 132" fill="none" xmlns="http://www.w3.org/2000/svg">
<path d="M12.2114 88.9379C10.6339 89.4446 8.94436 88.5766 8.43764 86.9991L0.180168 61.2928C-0.326552 59.7154 0.541457 58.0258 2.11893 57.5191C3.69639 57.0124 5.38596 57.8804 5.89268 59.4578L13.2327 82.3079L36.0827 74.9679C37.6602 74.4612 39.3497 75.3292 39.8565 76.9067C40.3632 78.4841 39.4952 80.1737 37.9177 80.6804L12.2114 88.9379ZM78.94 17.4813L77.6616 14.7673L78.94 17.4813ZM479.357 93.5858C480.078 95.0775 479.453 96.8713 477.961 97.5924C476.469 98.3135 474.676 97.6887 473.955 96.197L479.357 93.5858ZM8.62545 84.7107C16.1028 70.1563 38.8286 33.0588 77.6616 14.7673L80.2184 20.1953C43.2009 37.6317 21.2468 73.2736 13.9623 87.4526L8.62545 84.7107ZM77.6616 14.7673C126.223 -8.10668 164.053 2.13073 187.374 8.36708L185.824 14.1634C162.774 7.99965 126.75 -1.72245 80.2184 20.1953L77.6616 14.7673ZM187.374 8.36708C210.82 14.6368 252.411 31.5477 264.947 78.604L259.149 80.1485C247.483 36.356 208.749 20.2939 185.824 14.1634L187.374 8.36708ZM264.947 78.604C271.142 101.859 267.129 115.85 259.199 123.608C251.478 131.162 240.805 131.997 235.25 130.574L236.739 124.762C240.628 125.758 249.032 125.161 255.003 119.319C260.764 113.683 265.055 102.318 259.149 80.1485L264.947 78.604ZM235.25 130.574C229.514 129.104 221.747 123.024 217.286 113.951C212.705 104.637 211.543 92.0914 219.203 77.7273L224.497 80.5506C217.749 93.2042 218.937 103.713 222.67 111.303C226.521 119.136 233.031 123.811 236.739 124.762L235.25 130.574ZM219.203 77.7273C226.595 63.8664 234.524 55.3295 242.266 49.7158C249.984 44.1189 257.376 41.5408 263.336 39.4516L265.321 45.1138C259.373 47.1986 252.729 49.5398 245.788 54.5732C238.87 59.5897 231.514 67.3939 224.497 80.5506L219.203 77.7273ZM263.336 39.4516C276.11 34.9742 297.406 35.6066 314.984 48.5208L311.432 53.3561C295.564 41.6986 276.364 41.2432 265.321 45.1138L263.336 39.4516ZM314.984 48.5208C323.667 54.8997 331.389 63.5502 336.436 71.5797C338.957 75.5909 340.883 79.5614 341.895 83.1123C342.866 86.5185 343.185 90.2114 341.514 93.0963L336.323 90.0888C336.734 89.3784 336.972 87.7276 336.125 84.7567C335.32 81.9305 333.693 78.4905 331.356 74.7727C326.687 67.3442 319.472 59.2629 311.432 53.3561L314.984 48.5208ZM341.514 93.0963C338.981 97.4695 334.448 100.491 329.227 100.036C323.99 99.5783 319.145 95.7269 315.642 88.6839L321.015 86.0122C323.984 91.9827 327.351 93.8489 329.749 94.0582C332.164 94.2691 334.69 92.9063 336.323 90.0888L341.514 93.0963ZM315.642 88.6839C311.824 81.0052 313.583 72.3207 316.534 65.4158C319.504 58.4639 324.002 52.5469 326.877 49.9111L330.932 54.3338C328.747 56.3368 324.721 61.5258 322.051 67.7737C319.361 74.0685 318.362 80.6774 321.015 86.0122L315.642 88.6839ZM326.877 49.9111C329.294 47.6952 335.016 41.6555 344.422 36.7329C353.883 31.7812 367.028 27.9578 384.502 29.7591L383.887 35.7274C367.67 34.0557 355.7 37.6025 347.204 42.0489C338.652 46.5245 333.575 51.9109 330.932 54.3338L326.877 49.9111ZM384.502 29.7591C419.007 33.316 461.444 56.5293 479.357 93.5858L473.955 96.197C457.125 61.3811 416.763 39.1165 383.887 35.7274L384.502 29.7591Z" fill="#F5B946"/>
</svg>
