<svg width="346" height="239" viewBox="0 0 346 239" fill="none" xmlns="http://www.w3.org/2000/svg">
<g filter="url(#filter0_d_149_881)">
<rect x="40" y="30" width="266" height="159" rx="15" fill="white"/>
</g>
<line x1="68.5" y1="155" x2="68.5" y2="72" stroke="#DAD1E9" stroke-dasharray="6 6"/>
<path d="M73 51.4596C73 53.6687 71.2091 55.4596 69 55.4596C66.7909 55.4596 65 53.6687 65 51.4596C65 49.2505 66.7909 47.4596 69 47.4596C71.2091 47.4596 73 49.2505 73 51.4596Z" fill="white" stroke="#C3B6E0" stroke-width="4"/>
<rect x="90.5" y="42.5" width="201" height="85" rx="9.5" fill="#FDF8FF" stroke="#E9E4F1"/>
<mask id="mask0_149_881" style="mask-type:alpha" maskUnits="userSpaceOnUse" x="105" y="88" width="16" height="16">
<rect x="105" y="88" width="16" height="16" fill="#D9CEEA"/>
</mask>
<g mask="url(#mask0_149_881)">
<path d="M113 102.017C112.856 102.017 112.719 101.992 112.592 101.942C112.464 101.892 112.339 101.817 112.217 101.717C111.772 101.328 111.292 100.872 110.775 100.35C110.258 99.8276 109.778 99.2665 109.333 98.6665C108.889 98.0665 108.522 97.4415 108.233 96.7915C107.944 96.1415 107.8 95.4943 107.8 94.8499C107.8 93.361 108.294 92.1137 109.283 91.1082C110.272 90.1026 111.511 89.5999 113 89.5999C114.478 89.5999 115.714 90.1026 116.708 91.1082C117.703 92.1137 118.2 93.361 118.2 94.8499C118.2 95.4943 118.053 96.1443 117.758 96.7999C117.464 97.4554 117.097 98.0832 116.658 98.6832C116.219 99.2832 115.742 99.8415 115.225 100.358C114.708 100.875 114.228 101.328 113.783 101.717C113.661 101.817 113.536 101.892 113.408 101.942C113.281 101.992 113.144 102.017 113 102.017ZM113 95.9999C113.333 95.9999 113.617 95.8832 113.85 95.6499C114.083 95.4165 114.2 95.1332 114.2 94.7999C114.2 94.4665 114.083 94.1832 113.85 93.9499C113.617 93.7165 113.333 93.5999 113 93.5999C112.667 93.5999 112.383 93.7165 112.15 93.9499C111.917 94.1832 111.8 94.4665 111.8 94.7999C111.8 95.1332 111.917 95.4165 112.15 95.6499C112.383 95.8832 112.667 95.9999 113 95.9999Z" fill="#D9CEEA"/>
</g>
<path d="M217 62C217 56.4772 221.477 52 227 52H271C276.523 52 281 56.4772 281 62V108C281 113.523 276.523 118 271 118H227C221.477 118 217 113.523 217 108V62Z" fill="#B672FB"/>
<rect x="105" y="60" width="35" height="7" rx="3.5" fill="#D9CEEA"/>
<rect x="105" y="74" width="91" height="7" rx="3.5" fill="#D9CEEA"/>
<rect x="124" y="92" width="47" height="7" rx="3.5" fill="#D9CEEA"/>
<mask id="mask1_149_881" style="mask-type:alpha" maskUnits="userSpaceOnUse" x="240" y="76" width="20" height="20">
<rect x="240" y="76" width="20" height="20" fill="#D9D9D9"/>
</mask>
<g mask="url(#mask1_149_881)">
<path d="M241.896 89.7917L245.396 85.125C245.465 85.0139 245.556 84.9375 245.667 84.8958C245.778 84.8542 245.889 84.8333 246 84.8333C246.111 84.8333 246.222 84.8542 246.333 84.8958C246.444 84.9375 246.535 85.0139 246.604 85.125L249.646 89.2083C249.715 89.3056 249.806 89.3785 249.917 89.4271C250.028 89.4757 250.139 89.5 250.25 89.5C250.569 89.5 250.799 89.3611 250.938 89.0833C251.076 88.8056 251.049 88.5417 250.854 88.2917L248.771 85.5417C248.66 85.4028 248.604 85.25 248.604 85.0833C248.604 84.9167 248.66 84.7639 248.771 84.625L250.896 81.7917C250.965 81.6806 251.056 81.6042 251.167 81.5625C251.278 81.5208 251.389 81.5 251.5 81.5C251.611 81.5 251.722 81.5208 251.833 81.5625C251.944 81.6042 252.035 81.6806 252.104 81.7917L258.104 89.7917C258.299 90.0417 258.326 90.3056 258.188 90.5833C258.049 90.8611 257.819 91 257.5 91H242.5C242.181 91 241.951 90.8611 241.813 90.5833C241.674 90.3056 241.701 90.0417 241.896 89.7917Z" fill="white"/>
</g>
<path d="M73 183.46C73 185.669 71.2091 187.46 69 187.46C66.7909 187.46 65 185.669 65 183.46C65 181.25 66.7909 179.46 69 179.46C71.2091 179.46 73 181.25 73 183.46Z" fill="white" stroke="#C3B6E0" stroke-width="4"/>
<rect x="54.5" y="145.5" width="238" height="77" rx="38.5" fill="white"/>
<rect x="54.5" y="145.5" width="238" height="77" rx="38.5" stroke="#CBBAF0"/>
<path d="M106.083 189V178.818H109.902C110.684 178.818 111.34 178.964 111.87 179.256C112.404 179.547 112.807 179.948 113.078 180.459C113.353 180.966 113.491 181.543 113.491 182.189C113.491 182.842 113.353 183.422 113.078 183.929C112.803 184.436 112.397 184.835 111.86 185.127C111.323 185.415 110.662 185.56 109.877 185.56H107.346V184.043H109.628C110.085 184.043 110.46 183.964 110.752 183.805C111.043 183.646 111.259 183.427 111.398 183.148C111.541 182.87 111.612 182.55 111.612 182.189C111.612 181.828 111.541 181.509 111.398 181.234C111.259 180.959 111.042 180.746 110.747 180.593C110.455 180.437 110.079 180.359 109.618 180.359H107.928V189H106.083ZM121.511 178.818H123.356V185.47C123.356 186.199 123.184 186.841 122.839 187.394C122.497 187.948 122.017 188.38 121.397 188.692C120.777 189 120.053 189.154 119.225 189.154C118.393 189.154 117.667 189 117.047 188.692C116.427 188.38 115.947 187.948 115.605 187.394C115.264 186.841 115.093 186.199 115.093 185.47V178.818H116.938V185.316C116.938 185.74 117.03 186.118 117.216 186.45C117.405 186.781 117.67 187.041 118.011 187.23C118.353 187.416 118.757 187.509 119.225 187.509C119.692 187.509 120.096 187.416 120.438 187.23C120.782 187.041 121.047 186.781 121.233 186.45C121.419 186.118 121.511 185.74 121.511 185.316V178.818ZM125.361 189V178.818H129.258C129.994 178.818 130.606 178.934 131.093 179.166C131.583 179.395 131.95 179.708 132.192 180.106C132.437 180.504 132.56 180.954 132.56 181.458C132.56 181.872 132.48 182.227 132.321 182.522C132.162 182.814 131.948 183.051 131.68 183.233C131.411 183.415 131.111 183.546 130.78 183.626V183.725C131.141 183.745 131.487 183.856 131.819 184.058C132.154 184.257 132.427 184.539 132.639 184.903C132.851 185.268 132.957 185.709 132.957 186.226C132.957 186.753 132.83 187.227 132.574 187.648C132.319 188.065 131.935 188.395 131.421 188.637C130.907 188.879 130.261 189 129.482 189H125.361ZM127.205 187.459H129.189C129.858 187.459 130.341 187.331 130.636 187.076C130.934 186.817 131.083 186.486 131.083 186.082C131.083 185.78 131.008 185.508 130.859 185.266C130.71 185.021 130.498 184.829 130.223 184.69C129.948 184.547 129.62 184.476 129.239 184.476H127.205V187.459ZM127.205 183.148H129.03C129.348 183.148 129.635 183.09 129.89 182.974C130.145 182.855 130.346 182.688 130.491 182.472C130.641 182.254 130.715 181.995 130.715 181.697C130.715 181.302 130.576 180.978 130.297 180.722C130.022 180.467 129.613 180.339 129.07 180.339H127.205V183.148ZM134.562 189V178.818H136.406V187.454H140.891V189H134.562ZM144.336 178.818V189H142.492V178.818H144.336ZM151.867 181.617C151.82 181.183 151.625 180.845 151.28 180.603C150.939 180.361 150.495 180.24 149.948 180.24C149.563 180.24 149.233 180.298 148.958 180.414C148.683 180.53 148.473 180.687 148.327 180.886C148.181 181.085 148.107 181.312 148.103 181.567C148.103 181.78 148.151 181.964 148.247 182.119C148.347 182.275 148.481 182.408 148.65 182.517C148.819 182.623 149.006 182.713 149.212 182.786C149.417 182.858 149.625 182.92 149.833 182.969L150.788 183.208C151.172 183.298 151.542 183.419 151.897 183.571C152.255 183.723 152.574 183.916 152.856 184.148C153.141 184.38 153.367 184.66 153.532 184.988C153.698 185.316 153.781 185.701 153.781 186.141C153.781 186.738 153.628 187.263 153.323 187.717C153.018 188.168 152.578 188.521 152.001 188.776C151.428 189.028 150.733 189.154 149.918 189.154C149.126 189.154 148.438 189.031 147.855 188.786C147.275 188.541 146.821 188.183 146.492 187.712C146.168 187.242 145.992 186.668 145.965 185.992H147.78C147.807 186.347 147.916 186.642 148.108 186.877C148.3 187.112 148.551 187.288 148.859 187.404C149.17 187.52 149.518 187.578 149.903 187.578C150.304 187.578 150.655 187.518 150.957 187.399C151.262 187.277 151.501 187.107 151.673 186.892C151.845 186.673 151.933 186.418 151.936 186.126C151.933 185.861 151.855 185.643 151.703 185.47C151.55 185.295 151.336 185.149 151.061 185.033C150.79 184.913 150.471 184.807 150.107 184.714L148.948 184.416C148.11 184.201 147.447 183.874 146.96 183.437C146.476 182.996 146.234 182.411 146.234 181.682C146.234 181.082 146.396 180.557 146.721 180.106C147.049 179.655 147.495 179.305 148.059 179.057C148.622 178.805 149.26 178.679 149.973 178.679C150.695 178.679 151.328 178.805 151.872 179.057C152.419 179.305 152.848 179.652 153.159 180.096C153.471 180.537 153.632 181.044 153.642 181.617H151.867ZM155.425 189V178.818H157.27V183.129H161.988V178.818H163.837V189H161.988V184.675H157.27V189H155.425ZM171.16 178.818V189H169.316V178.818H171.16ZM172.71 180.364V178.818H180.834V180.364H177.687V189H175.857V180.364H172.71ZM184.244 178.818V189H182.4V178.818H184.244ZM194.609 178.818V189H192.968L188.171 182.065H188.086V189H186.242V178.818H187.892L192.685 185.759H192.774V178.818H194.609ZM196.619 189V178.818H203.241V180.364H198.463V183.129H202.898V184.675H198.463V187.454H203.28V189H196.619ZM205.122 189V178.818H208.941C209.723 178.818 210.379 178.954 210.909 179.226C211.443 179.498 211.846 179.879 212.117 180.369C212.393 180.857 212.53 181.425 212.53 182.075C212.53 182.728 212.391 183.294 212.112 183.775C211.837 184.252 211.431 184.622 210.894 184.884C210.358 185.142 209.698 185.271 208.916 185.271H206.196V183.74H208.667C209.125 183.74 209.499 183.677 209.791 183.551C210.082 183.422 210.298 183.235 210.437 182.989C210.58 182.741 210.651 182.436 210.651 182.075C210.651 181.713 210.58 181.405 210.437 181.15C210.295 180.891 210.077 180.696 209.786 180.563C209.494 180.427 209.118 180.359 208.657 180.359H206.967V189H205.122ZM210.382 184.386L212.903 189H210.845L208.369 184.386H210.382ZM215.535 189H213.567L217.151 178.818H219.428L223.018 189H221.049L218.329 180.906H218.25L215.535 189ZM215.6 185.008H220.969V186.489H215.6V185.008ZM224.359 189V178.818H228.177C228.959 178.818 229.615 178.954 230.146 179.226C230.679 179.498 231.082 179.879 231.354 180.369C231.629 180.857 231.766 181.425 231.766 182.075C231.766 182.728 231.627 183.294 231.349 183.775C231.074 184.252 230.668 184.622 230.131 184.884C229.594 185.142 228.934 185.271 228.152 185.271H225.433V183.74H227.903C228.361 183.74 228.735 183.677 229.027 183.551C229.319 183.422 229.534 183.235 229.673 182.989C229.816 182.741 229.887 182.436 229.887 182.075C229.887 181.713 229.816 181.405 229.673 181.15C229.531 180.891 229.314 180.696 229.022 180.563C228.73 180.427 228.354 180.359 227.894 180.359H226.203V189H224.359ZM229.619 184.386L232.139 189H230.081L227.605 184.386H229.619ZM232.372 178.818H234.455L236.946 183.322H237.045L239.536 178.818H241.619L237.915 185.202V189H236.076V185.202L232.372 178.818Z" fill="white"/>
<rect x="65" y="156" width="217" height="56" rx="28" fill="#B672FB"/>
<path d="M106.083 189V178.818H109.902C110.684 178.818 111.34 178.964 111.87 179.256C112.404 179.547 112.807 179.948 113.078 180.459C113.353 180.966 113.491 181.543 113.491 182.189C113.491 182.842 113.353 183.422 113.078 183.929C112.803 184.436 112.397 184.835 111.86 185.127C111.323 185.415 110.662 185.56 109.877 185.56H107.346V184.043H109.628C110.085 184.043 110.46 183.964 110.752 183.805C111.043 183.646 111.259 183.427 111.398 183.148C111.541 182.87 111.612 182.55 111.612 182.189C111.612 181.828 111.541 181.509 111.398 181.234C111.259 180.959 111.042 180.746 110.747 180.593C110.455 180.437 110.079 180.359 109.618 180.359H107.928V189H106.083ZM121.511 178.818H123.356V185.47C123.356 186.199 123.184 186.841 122.839 187.394C122.497 187.948 122.017 188.38 121.397 188.692C120.777 189 120.053 189.154 119.225 189.154C118.393 189.154 117.667 189 117.047 188.692C116.427 188.38 115.947 187.948 115.605 187.394C115.264 186.841 115.093 186.199 115.093 185.47V178.818H116.938V185.316C116.938 185.74 117.03 186.118 117.216 186.45C117.405 186.781 117.67 187.041 118.011 187.23C118.353 187.416 118.757 187.509 119.225 187.509C119.692 187.509 120.096 187.416 120.438 187.23C120.782 187.041 121.047 186.781 121.233 186.45C121.419 186.118 121.511 185.74 121.511 185.316V178.818ZM125.361 189V178.818H129.258C129.994 178.818 130.606 178.934 131.093 179.166C131.583 179.395 131.95 179.708 132.192 180.106C132.437 180.504 132.56 180.954 132.56 181.458C132.56 181.872 132.48 182.227 132.321 182.522C132.162 182.814 131.948 183.051 131.68 183.233C131.411 183.415 131.111 183.546 130.78 183.626V183.725C131.141 183.745 131.487 183.856 131.819 184.058C132.154 184.257 132.427 184.539 132.639 184.903C132.851 185.268 132.957 185.709 132.957 186.226C132.957 186.753 132.83 187.227 132.574 187.648C132.319 188.065 131.935 188.395 131.421 188.637C130.907 188.879 130.261 189 129.482 189H125.361ZM127.205 187.459H129.189C129.858 187.459 130.341 187.331 130.636 187.076C130.934 186.817 131.083 186.486 131.083 186.082C131.083 185.78 131.008 185.508 130.859 185.266C130.71 185.021 130.498 184.829 130.223 184.69C129.948 184.547 129.62 184.476 129.239 184.476H127.205V187.459ZM127.205 183.148H129.03C129.348 183.148 129.635 183.09 129.89 182.974C130.145 182.855 130.346 182.688 130.491 182.472C130.641 182.254 130.715 181.995 130.715 181.697C130.715 181.302 130.576 180.978 130.297 180.722C130.022 180.467 129.613 180.339 129.07 180.339H127.205V183.148ZM134.562 189V178.818H136.406V187.454H140.891V189H134.562ZM144.336 178.818V189H142.492V178.818H144.336ZM151.867 181.617C151.82 181.183 151.625 180.845 151.28 180.603C150.939 180.361 150.495 180.24 149.948 180.24C149.563 180.24 149.233 180.298 148.958 180.414C148.683 180.53 148.473 180.687 148.327 180.886C148.181 181.085 148.107 181.312 148.103 181.567C148.103 181.78 148.151 181.964 148.247 182.119C148.347 182.275 148.481 182.408 148.65 182.517C148.819 182.623 149.006 182.713 149.212 182.786C149.417 182.858 149.625 182.92 149.833 182.969L150.788 183.208C151.172 183.298 151.542 183.419 151.897 183.571C152.255 183.723 152.574 183.916 152.856 184.148C153.141 184.38 153.367 184.66 153.532 184.988C153.698 185.316 153.781 185.701 153.781 186.141C153.781 186.738 153.628 187.263 153.323 187.717C153.018 188.168 152.578 188.521 152.001 188.776C151.428 189.028 150.733 189.154 149.918 189.154C149.126 189.154 148.438 189.031 147.855 188.786C147.275 188.541 146.821 188.183 146.492 187.712C146.168 187.242 145.992 186.668 145.965 185.992H147.78C147.807 186.347 147.916 186.642 148.108 186.877C148.3 187.112 148.551 187.288 148.859 187.404C149.17 187.52 149.518 187.578 149.903 187.578C150.304 187.578 150.655 187.518 150.957 187.399C151.262 187.277 151.501 187.107 151.673 186.892C151.845 186.673 151.933 186.418 151.936 186.126C151.933 185.861 151.855 185.643 151.703 185.47C151.55 185.295 151.336 185.149 151.061 185.033C150.79 184.913 150.471 184.807 150.107 184.714L148.948 184.416C148.11 184.201 147.447 183.874 146.96 183.437C146.476 182.996 146.234 182.411 146.234 181.682C146.234 181.082 146.396 180.557 146.721 180.106C147.049 179.655 147.495 179.305 148.059 179.057C148.622 178.805 149.26 178.679 149.973 178.679C150.695 178.679 151.328 178.805 151.872 179.057C152.419 179.305 152.848 179.652 153.159 180.096C153.471 180.537 153.632 181.044 153.642 181.617H151.867ZM155.425 189V178.818H157.27V183.129H161.988V178.818H163.837V189H161.988V184.675H157.27V189H155.425ZM171.16 178.818V189H169.316V178.818H171.16ZM172.71 180.364V178.818H180.834V180.364H177.687V189H175.857V180.364H172.71ZM184.244 178.818V189H182.4V178.818H184.244ZM194.609 178.818V189H192.968L188.171 182.065H188.086V189H186.242V178.818H187.892L192.685 185.759H192.774V178.818H194.609ZM196.619 189V178.818H203.241V180.364H198.463V183.129H202.898V184.675H198.463V187.454H203.28V189H196.619ZM205.122 189V178.818H208.941C209.723 178.818 210.379 178.954 210.909 179.226C211.443 179.498 211.846 179.879 212.117 180.369C212.393 180.857 212.53 181.425 212.53 182.075C212.53 182.728 212.391 183.294 212.112 183.775C211.837 184.252 211.431 184.622 210.894 184.884C210.358 185.142 209.698 185.271 208.916 185.271H206.196V183.74H208.667C209.125 183.74 209.499 183.677 209.791 183.551C210.082 183.422 210.298 183.235 210.437 182.989C210.58 182.741 210.651 182.436 210.651 182.075C210.651 181.713 210.58 181.405 210.437 181.15C210.295 180.891 210.077 180.696 209.786 180.563C209.494 180.427 209.118 180.359 208.657 180.359H206.967V189H205.122ZM210.382 184.386L212.903 189H210.845L208.369 184.386H210.382ZM215.535 189H213.567L217.151 178.818H219.428L223.018 189H221.049L218.329 180.906H218.25L215.535 189ZM215.6 185.008H220.969V186.489H215.6V185.008ZM224.359 189V178.818H228.177C228.959 178.818 229.615 178.954 230.146 179.226C230.679 179.498 231.082 179.879 231.354 180.369C231.629 180.857 231.766 181.425 231.766 182.075C231.766 182.728 231.627 183.294 231.349 183.775C231.074 184.252 230.668 184.622 230.131 184.884C229.594 185.142 228.934 185.271 228.152 185.271H225.433V183.74H227.903C228.361 183.74 228.735 183.677 229.027 183.551C229.319 183.422 229.534 183.235 229.673 182.989C229.816 182.741 229.887 182.436 229.887 182.075C229.887 181.713 229.816 181.405 229.673 181.15C229.531 180.891 229.314 180.696 229.022 180.563C228.73 180.427 228.354 180.359 227.894 180.359H226.203V189H224.359ZM229.619 184.386L232.139 189H230.081L227.605 184.386H229.619ZM232.372 178.818H234.455L236.946 183.322H237.045L239.536 178.818H241.619L237.915 185.202V189H236.076V185.202L232.372 178.818Z" fill="white"/>
<defs>
<filter id="filter0_d_149_881" x="0" y="0" width="346" height="239" filterUnits="userSpaceOnUse" color-interpolation-filters="sRGB">
<feFlood flood-opacity="0" result="BackgroundImageFix"/>
<feColorMatrix in="SourceAlpha" type="matrix" values="0 0 0 0 0 0 0 0 0 0 0 0 0 0 0 0 0 0 127 0" result="hardAlpha"/>
<feOffset dy="10"/>
<feGaussianBlur stdDeviation="20"/>
<feComposite in2="hardAlpha" operator="out"/>
<feColorMatrix type="matrix" values="0 0 0 0 0.582344 0 0 0 0 0.471801 0 0 0 0 0.759214 0 0 0 0.2 0"/>
<feBlend mode="normal" in2="BackgroundImageFix" result="effect1_dropShadow_149_881"/>
<feBlend mode="normal" in="SourceGraphic" in2="effect1_dropShadow_149_881" result="shape"/>
</filter>
</defs>
</svg>
