<svg width="360" height="132" viewBox="0 0 360 132" fill="none" xmlns="http://www.w3.org/2000/svg">
<mask id="mask0_150_952" style="mask-type:alpha" maskUnits="userSpaceOnUse" x="0" y="0" width="360" height="132">
<rect width="360" height="132" rx="20" fill="#F3EEFB"/>
</mask>
<g mask="url(#mask0_150_952)">
<g filter="url(#filter0_d_150_952)">
<path d="M65 50.6666C65 39.6209 73.9543 30.6666 85 30.6666H275C286.046 30.6666 295 39.6209 295 50.6666V197.667H65V50.6666Z" fill="white"/>
</g>
<rect x="134.5" y="69.4141" width="90" height="40" rx="20" fill="#B672FB"/>
<path d="M165.841 94.4141V84.2322H169.739C170.475 84.2322 171.086 84.3482 171.573 84.5803C172.064 84.8089 172.43 85.1222 172.672 85.5199C172.917 85.9176 173.04 86.3684 173.04 86.8722C173.04 87.2865 172.96 87.6411 172.801 87.9361C172.642 88.2277 172.429 88.4647 172.16 88.647C171.892 88.8293 171.592 88.9602 171.26 89.0398V89.1392C171.621 89.1591 171.968 89.2701 172.299 89.4723C172.634 89.6712 172.907 89.9529 173.12 90.3175C173.332 90.6821 173.438 91.1229 173.438 91.6399C173.438 92.1669 173.31 92.6409 173.055 93.0618C172.8 93.4794 172.415 93.8092 171.902 94.0511C171.388 94.2931 170.742 94.4141 169.963 94.4141H165.841ZM167.686 92.8729H169.669C170.339 92.8729 170.821 92.7453 171.116 92.4901C171.414 92.2315 171.563 91.9001 171.563 91.4957C171.563 91.1941 171.489 90.9223 171.34 90.6804C171.191 90.4351 170.978 90.2429 170.703 90.1037C170.428 89.9612 170.1 89.8899 169.719 89.8899H167.686V92.8729ZM167.686 88.5625H169.51C169.828 88.5625 170.115 88.5045 170.37 88.3885C170.626 88.2692 170.826 88.1018 170.972 87.8864C171.121 87.6676 171.196 87.4091 171.196 87.1108C171.196 86.7164 171.056 86.3916 170.778 86.1364C170.503 85.8812 170.094 85.7536 169.55 85.7536H167.686V88.5625ZM181.461 84.2322H183.305V90.8842C183.305 91.6134 183.133 92.2547 182.788 92.8082C182.447 93.3617 181.966 93.7943 181.346 94.1058C180.727 94.4141 180.002 94.5682 179.174 94.5682C178.342 94.5682 177.616 94.4141 176.996 94.1058C176.376 93.7943 175.896 93.3617 175.554 92.8082C175.213 92.2547 175.042 91.6134 175.042 90.8842V84.2322H176.887V90.7301C176.887 91.1544 176.98 91.5322 177.165 91.8636C177.354 92.1951 177.619 92.4553 177.961 92.6442C178.302 92.8298 178.706 92.9226 179.174 92.9226C179.641 92.9226 180.045 92.8298 180.387 92.6442C180.732 92.4553 180.997 92.1951 181.182 91.8636C181.368 91.5322 181.461 91.1544 181.461 90.7301V84.2322ZM184.614 84.2322H186.697L189.188 88.7365H189.287L191.778 84.2322H193.861L190.157 90.6158V94.4141H188.318V90.6158L184.614 84.2322Z" fill="white"/>
<g filter="url(#filter1_d_150_952)">
<path d="M205 90L210.074 115L215.148 106.272L226 102.722L205 90Z" fill="black"/>
<path d="M205 90L210.074 115L215.148 106.272L226 102.722L205 90Z" stroke="white" stroke-width="3" stroke-linejoin="round"/>
</g>
</g>
<defs>
<filter id="filter0_d_150_952" x="25" y="0.666626" width="310" height="247" filterUnits="userSpaceOnUse" color-interpolation-filters="sRGB">
<feFlood flood-opacity="0" result="BackgroundImageFix"/>
<feColorMatrix in="SourceAlpha" type="matrix" values="0 0 0 0 0 0 0 0 0 0 0 0 0 0 0 0 0 0 127 0" result="hardAlpha"/>
<feOffset dy="10"/>
<feGaussianBlur stdDeviation="20"/>
<feComposite in2="hardAlpha" operator="out"/>
<feColorMatrix type="matrix" values="0 0 0 0 0.582344 0 0 0 0 0.471801 0 0 0 0 0.759214 0 0 0 0.2 0"/>
<feBlend mode="normal" in2="BackgroundImageFix" result="effect1_dropShadow_150_952"/>
<feBlend mode="normal" in="SourceGraphic" in2="effect1_dropShadow_150_952" result="shape"/>
</filter>
<filter id="filter1_d_150_952" x="193.5" y="84.5" width="44.0001" height="48.0001" filterUnits="userSpaceOnUse" color-interpolation-filters="sRGB">
<feFlood flood-opacity="0" result="BackgroundImageFix"/>
<feColorMatrix in="SourceAlpha" type="matrix" values="0 0 0 0 0 0 0 0 0 0 0 0 0 0 0 0 0 0 127 0" result="hardAlpha"/>
<feOffset dy="6"/>
<feGaussianBlur stdDeviation="5"/>
<feComposite in2="hardAlpha" operator="out"/>
<feColorMatrix type="matrix" values="0 0 0 0 0.504675 0 0 0 0 0.422508 0 0 0 0 0.669008 0 0 0 0.6 0"/>
<feBlend mode="normal" in2="BackgroundImageFix" result="effect1_dropShadow_150_952"/>
<feBlend mode="normal" in="SourceGraphic" in2="effect1_dropShadow_150_952" result="shape"/>
</filter>
</defs>
</svg>
