<svg width="14" height="16" viewBox="0 0 14 16" fill="none" xmlns="http://www.w3.org/2000/svg">
<path d="M7 15.5208C6.81944 15.5208 6.64931 15.4896 6.48958 15.4271C6.32986 15.3646 6.17361 15.2708 6.02083 15.1458C5.46528 14.6597 4.86458 14.0903 4.21875 13.4375C3.57292 12.7847 2.97222 12.0833 2.41667 11.3333C1.86111 10.5833 1.40278 9.80208 1.04167 8.98958C0.680556 8.17708 0.5 7.36806 0.5 6.5625C0.5 4.70139 1.11806 3.14236 2.35417 1.88542C3.59028 0.628472 5.13889 0 7 0C8.84722 0 10.3924 0.628472 11.6354 1.88542C12.8785 3.14236 13.5 4.70139 13.5 6.5625C13.5 7.36806 13.316 8.18056 12.9479 9C12.5799 9.81944 12.1215 10.6042 11.5729 11.3542C11.0243 12.1042 10.4271 12.8021 9.78125 13.4479C9.13542 14.0938 8.53472 14.6597 7.97917 15.1458C7.82639 15.2708 7.67014 15.3646 7.51042 15.4271C7.35069 15.4896 7.18056 15.5208 7 15.5208ZM7 8C7.41667 8 7.77083 7.85417 8.0625 7.5625C8.35417 7.27083 8.5 6.91667 8.5 6.5C8.5 6.08333 8.35417 5.72917 8.0625 5.4375C7.77083 5.14583 7.41667 5 7 5C6.58333 5 6.22917 5.14583 5.9375 5.4375C5.64583 5.72917 5.5 6.08333 5.5 6.5C5.5 6.91667 5.64583 7.27083 5.9375 7.5625C6.22917 7.85417 6.58333 8 7 8Z" fill="#1C1B1F"/>
</svg>
