<svg width="29" height="29" viewBox="0 0 29 29" fill="none" xmlns="http://www.w3.org/2000/svg">
<path d="M26.9278 17.6951C23.8058 24.3654 14.4543 30.2612 7.78402 27.1392C1.11371 24.0172 -1.88327 11.7961 1.23875 5.12585C4.36078 -1.54444 12.4196 -0.138068 19.0899 2.98395C27.3799 6.86407 30.0499 11.0248 26.9278 17.6951Z" fill="#6C27FF"/>
<path d="M8.51324 10.4265C7.12387 9.19443 6.19349 7.70412 5.5752 7.07898L5.57156 9.41363C5.56865 11.2885 7.11695 12.7943 8.99101 12.7391L12.001 12.6506C11.0258 12.2146 10.1985 11.9208 8.51324 10.4265Z" fill="url(#paint0_linear_664_1150)"/>
<path d="M18.5152 9.63051L8.74649 9.59336L10.8277 11.2372C11.6565 11.8918 12.6865 12.239 13.7424 12.2197L22.3508 12.0619L21.9324 11.4469C21.1623 10.3152 19.884 9.63572 18.5152 9.63051Z" fill="white"/>
<path d="M17.1004 12.836L15.1548 12.8843C14.4384 12.9021 13.7819 13.288 13.418 13.9052L9.97176 19.7491L10.5199 19.7513C11.9705 19.7572 13.3189 19.0057 14.077 17.7689L17.1004 12.836Z" fill="white"/>
<path d="M16.1324 8.86659L14.185 8.85683C13.4431 8.85311 12.7277 8.58041 12.1716 8.08933L13.7926 8.07326C14.6256 8.06501 15.4374 8.33532 16.0993 8.84127L16.1324 8.86659Z" fill="#9868FF"/>
<defs>
<linearGradient id="paint0_linear_664_1150" x1="6.35421" y1="7.73157" x2="12.8454" y2="13.2731" gradientUnits="userSpaceOnUse">
<stop stop-color="#C4A8FF"/>
<stop offset="1" stop-color="#7152B3"/>
</linearGradient>
</defs>
</svg>
