<svg width="131" height="35" viewBox="0 0 131 35" fill="none" xmlns="http://www.w3.org/2000/svg">
<path d="M26.9278 20.6951C23.8058 27.3654 14.4543 33.2612 7.78402 30.1392C1.11371 27.0172 -1.88327 14.7961 1.23875 8.12585C4.36078 1.45556 12.4196 2.86193 19.0899 5.98395C27.3799 9.86407 30.0499 14.0248 26.9278 20.6951Z" fill="#6C27FF"/>
<path d="M8.51324 13.4265C7.12387 12.1944 6.19349 10.7041 5.5752 10.079L5.57156 12.4136C5.56865 14.2885 7.11695 15.7943 8.99101 15.7391L12.001 15.6506C11.0258 15.2146 10.1985 14.9208 8.51324 13.4265Z" fill="url(#paint0_linear_664_1149)"/>
<path d="M18.5152 12.6305L8.74649 12.5934L10.8277 14.2372C11.6565 14.8918 12.6865 15.239 13.7424 15.2197L22.3508 15.0619L21.9324 14.4469C21.1623 13.3152 19.884 12.6357 18.5152 12.6305Z" fill="white"/>
<path d="M17.1004 15.836L15.1548 15.8843C14.4384 15.9021 13.7819 16.288 13.418 16.9052L9.97176 22.7491L10.5199 22.7513C11.9705 22.7572 13.3189 22.0057 14.077 20.7689L17.1004 15.836Z" fill="white"/>
<path d="M16.1324 11.8666L14.185 11.8568C13.4431 11.8531 12.7277 11.5804 12.1716 11.0893L13.7926 11.0733C14.6256 11.065 15.4374 11.3353 16.0993 11.8413L16.1324 11.8666Z" fill="#9868FF"/>
<path d="M43.1398 28.2873C42.2014 28.2873 41.397 28.1915 40.7266 28C40.0563 27.8085 39.5105 27.5116 39.0892 27.1094C38.6678 26.7072 38.3518 26.1901 38.1411 25.5581C37.9496 24.907 37.8538 24.1409 37.8538 23.2599V11.0792C37.8538 10.7345 37.8826 10.4376 37.94 10.1886C38.0166 9.93966 38.1699 9.74814 38.3997 9.61408C38.6487 9.46086 39.0317 9.38425 39.5488 9.38425C40.0851 9.38425 40.4681 9.46086 40.6979 9.61408C40.9469 9.76729 41.1001 9.97797 41.1576 10.2461C41.2342 10.4951 41.2725 10.7728 41.2725 11.0792V23.145C41.2725 23.5472 41.3012 23.8727 41.3587 24.1217C41.4353 24.3707 41.5406 24.5622 41.6747 24.6963C41.8279 24.8112 42.0194 24.8974 42.2492 24.9548C42.4982 24.9931 42.7951 25.0123 43.1398 25.0123C43.5037 25.0123 43.8101 25.041 44.0591 25.0985C44.3272 25.1559 44.5283 25.2996 44.6624 25.5294C44.7964 25.7401 44.8635 26.0944 44.8635 26.5923C44.8635 27.1286 44.7773 27.5212 44.6049 27.7702C44.4517 28 44.241 28.1436 43.9729 28.2011C43.7239 28.2586 43.4462 28.2873 43.1398 28.2873ZM36.676 14.4117L39.635 14.4404L43.5994 14.3255C43.925 14.3255 44.2123 14.3638 44.4613 14.4404C44.7294 14.4978 44.9401 14.6511 45.0933 14.9C45.2465 15.1299 45.3231 15.5129 45.3231 16.0492C45.3231 16.5471 45.2465 16.9206 45.0933 17.1695C44.9401 17.4185 44.739 17.5813 44.49 17.6579C44.241 17.7154 43.9538 17.7441 43.6282 17.7441L39.7786 17.6866L36.5898 17.7154C36.111 17.6962 35.7759 17.5622 35.5843 17.3132C35.412 17.0451 35.3258 16.6141 35.3258 16.0204C35.3258 15.465 35.4311 15.0628 35.6418 14.8138C35.8716 14.5457 36.2164 14.4117 36.676 14.4117ZM49.1599 28.2873C48.6428 28.2873 48.2597 28.2011 48.0108 28.0287C47.7809 27.8755 47.6373 27.6648 47.5798 27.3967C47.5224 27.1286 47.4937 26.8317 47.4937 26.5061V15.8481C47.4937 15.5033 47.5224 15.2065 47.5798 14.9575C47.6373 14.6894 47.7809 14.4883 48.0108 14.3542C48.2597 14.201 48.6524 14.1244 49.1886 14.1244C49.7057 14.1244 50.0792 14.1914 50.309 14.3255C50.558 14.4595 50.7112 14.6319 50.7687 14.8426C50.8453 15.0341 50.8836 15.2256 50.8836 15.4171L50.6537 15.9342C50.7495 15.781 50.8836 15.5991 51.0559 15.3884C51.2283 15.1586 51.4581 14.9383 51.7454 14.7277C52.0327 14.4978 52.3774 14.3159 52.7796 14.1818C53.1818 14.0286 53.6606 13.952 54.216 13.952C54.4458 13.952 54.6852 13.9807 54.9342 14.0382C55.2023 14.0765 55.4609 14.1435 55.7099 14.2393C55.978 14.3159 56.2174 14.4212 56.4281 14.5553C56.6387 14.6894 56.8015 14.8522 56.9164 15.0437C57.0314 15.216 57.0888 15.4171 57.0888 15.647C57.0888 16.2598 56.9356 16.7769 56.6292 17.1983C56.3227 17.6196 55.9588 17.8303 55.5375 17.8303C55.2502 17.8303 55.0396 17.8016 54.9055 17.7441C54.7714 17.6866 54.6565 17.6196 54.5608 17.543C54.4841 17.4664 54.3597 17.3994 54.1873 17.3419C54.0341 17.2845 53.7851 17.2557 53.4404 17.2557C53.1531 17.2557 52.8562 17.3036 52.5498 17.3994C52.2625 17.4951 51.9944 17.6388 51.7454 17.8303C51.4964 18.0218 51.2953 18.2708 51.1421 18.5772C50.9889 18.8645 50.9123 19.1997 50.9123 19.5827V26.5636C50.9123 26.8892 50.8836 27.186 50.8261 27.4542C50.7687 27.7031 50.6154 27.9042 50.3665 28.0575C50.1175 28.2107 49.7153 28.2873 49.1599 28.2873ZM65.2487 28.2586C64.3677 28.2586 63.5537 28.1053 62.8068 27.7989C62.079 27.4733 61.4374 27.0137 60.882 26.42C60.3266 25.8262 59.8957 25.1176 59.5893 24.2941C59.2828 23.4706 59.1296 22.5608 59.1296 21.5649V15.8481C59.1296 15.5225 59.1584 15.2352 59.2158 14.9862C59.2733 14.7181 59.4265 14.5074 59.6755 14.3542C59.9244 14.201 60.3075 14.1244 60.8246 14.1244C61.38 14.1244 61.7726 14.201 62.0024 14.3542C62.2514 14.5074 62.4046 14.7181 62.4621 14.9862C62.5195 15.2543 62.5483 15.5512 62.5483 15.8768V21.5649C62.5483 22.2544 62.6632 22.8481 62.893 23.3461C63.142 23.844 63.4963 24.2366 63.9559 24.5239C64.4156 24.792 64.9806 24.9261 65.6509 24.9261C66.3404 24.9261 66.9245 24.792 67.4033 24.5239C67.9012 24.2366 68.2843 23.844 68.5524 23.3461C68.8205 22.829 68.9546 22.2352 68.9546 21.5649V15.8193C68.9546 15.4937 68.9833 15.2065 69.0408 14.9575C69.0982 14.6894 69.2515 14.4883 69.5004 14.3542C69.7494 14.201 70.142 14.1244 70.6783 14.1244C71.2145 14.1244 71.5976 14.201 71.8274 14.3542C72.0572 14.5074 72.2009 14.7181 72.2583 14.9862C72.3349 15.2543 72.3732 15.5416 72.3732 15.8481V26.6211C72.3732 26.9083 72.3349 27.1765 72.2583 27.4254C72.2009 27.6744 72.0477 27.8755 71.7987 28.0287C71.5689 28.1819 71.1858 28.2586 70.6496 28.2586C70.2665 28.2586 69.9601 28.2107 69.7303 28.1149C69.5196 28.0383 69.3568 27.933 69.2419 27.7989C69.1461 27.6457 69.0791 27.4925 69.0408 27.3393C69.0216 27.186 69.0121 27.0328 69.0121 26.8796L69.2419 26.104C69.127 26.2763 68.9546 26.487 68.7248 26.736C68.495 26.9658 68.2077 27.2052 67.8629 27.4542C67.5374 27.684 67.1543 27.8755 66.7138 28.0287C66.2733 28.1819 65.7849 28.2586 65.2487 28.2586ZM76.906 28.2586C76.3889 28.2586 76.0058 28.1724 75.7569 28C75.527 27.8468 75.3834 27.6457 75.3259 27.3967C75.2685 27.1286 75.2398 26.8317 75.2398 26.5061V15.7619C75.2398 15.4554 75.2685 15.1777 75.3259 14.9288C75.3834 14.6798 75.5366 14.4883 75.7856 14.3542C76.0346 14.201 76.4176 14.1244 76.9347 14.1244C77.3944 14.1244 77.7391 14.1818 77.9689 14.2967C78.1987 14.4117 78.352 14.5553 78.4286 14.7277C78.5052 14.9 78.5435 15.0724 78.5435 15.2448C78.5626 15.4171 78.5818 15.5512 78.6009 15.647L78.486 16.5663C78.6009 16.2598 78.7924 15.963 79.0606 15.6757C79.3287 15.3884 79.6543 15.1299 80.0373 14.9C80.4204 14.6511 80.8321 14.4595 81.2726 14.3255C81.7323 14.1723 82.2015 14.0956 82.6803 14.0956C83.5804 14.0956 84.3848 14.2584 85.0935 14.584C85.8021 14.9096 86.4054 15.3693 86.9033 15.963C87.4204 16.5567 87.813 17.2653 88.0812 18.0888C88.3493 18.8932 88.4834 19.8029 88.4834 20.818V26.5349C88.4834 26.8605 88.4451 27.1573 88.3684 27.4254C88.311 27.6744 88.1674 27.8755 87.9375 28.0287C87.7077 28.1819 87.3151 28.2586 86.7597 28.2586C86.2234 28.2586 85.8308 28.1724 85.5818 28C85.3329 27.8468 85.1796 27.6457 85.1222 27.3967C85.0647 27.1286 85.036 26.8317 85.036 26.5061V20.7893C85.036 20.0998 84.9115 19.5061 84.6625 19.0081C84.4327 18.5102 84.088 18.1271 83.6283 17.859C83.1878 17.5909 82.6228 17.4568 81.9334 17.4568C81.2631 17.4568 80.6789 17.6005 80.181 17.8877C79.683 18.1559 79.3 18.5389 79.0318 19.0369C78.7637 19.5348 78.6297 20.119 78.6297 20.7893V26.5349C78.6297 26.8605 78.6009 27.1573 78.5435 27.4254C78.486 27.6744 78.3328 27.8755 78.0838 28.0287C77.854 28.1819 77.4614 28.2586 76.906 28.2586ZM97.3767 28.2586C96.4957 28.2586 95.6626 28.0766 94.8774 27.7127C94.0921 27.3488 93.4027 26.8509 92.8089 26.2189C92.2152 25.5677 91.746 24.8112 91.4013 23.9494C91.0565 23.0684 90.8842 22.1299 90.8842 21.134C90.8842 20.1764 91.0565 19.2763 91.4013 18.4336C91.746 17.5717 92.2152 16.8248 92.8089 16.1928C93.4218 15.5416 94.1209 15.0341 94.9061 14.6702C95.6913 14.3063 96.5149 14.1244 97.3767 14.1244C98.296 14.1244 99.1195 14.3063 99.8473 14.6702C100.575 15.0341 101.188 15.5416 101.686 16.1928C102.203 16.8248 102.596 17.5717 102.864 18.4336C103.132 19.2763 103.276 20.186 103.295 21.1627C103.295 22.1395 103.161 23.0588 102.892 23.9206C102.643 24.7633 102.26 25.5102 101.743 26.1614C101.245 26.8126 100.623 27.3297 99.876 27.7127C99.1483 28.0766 98.3151 28.2586 97.3767 28.2586ZM97.8363 24.8974C98.5067 24.8974 99.1004 24.7442 99.6175 24.4377C100.154 24.1121 100.575 23.6716 100.882 23.1162C101.207 22.5608 101.37 21.9288 101.37 21.2202C101.37 20.4924 101.207 19.8508 100.882 19.2954C100.575 18.74 100.154 18.2995 99.6175 17.9739C99.1004 17.6483 98.5067 17.4856 97.8363 17.4856C97.166 17.4856 96.5627 17.6483 96.0265 17.9739C95.4902 18.2804 95.0593 18.7209 94.7337 19.2954C94.4273 19.8508 94.2741 20.4924 94.2741 21.2202C94.2741 21.9288 94.4273 22.5608 94.7337 23.1162C95.0593 23.6716 95.4902 24.1121 96.0265 24.4377C96.5819 24.7442 97.1852 24.8974 97.8363 24.8974ZM103.151 28.2586C102.615 28.2586 102.222 28.1724 101.973 28C101.724 27.8085 101.561 27.5116 101.485 27.1094V9.41298C101.485 9.0874 101.504 8.80012 101.542 8.55114C101.6 8.28301 101.743 8.07234 101.973 7.91912C102.222 7.74676 102.605 7.66057 103.122 7.66057C103.678 7.66057 104.07 7.73718 104.3 7.8904C104.53 8.04361 104.674 8.25429 104.731 8.52241C104.808 8.77139 104.846 9.05867 104.846 9.38425V26.5061C104.846 26.8317 104.817 27.1286 104.76 27.3967C104.702 27.6648 104.549 27.8755 104.3 28.0287C104.07 28.1819 103.687 28.2586 103.151 28.2586ZM112.752 28.2873C112.043 28.2873 111.411 28.2394 110.856 28.1436C110.319 28.0479 109.85 27.8851 109.448 27.6553C109.065 27.4254 108.749 27.119 108.5 26.736C108.251 26.3338 108.06 25.8454 107.925 25.2708C107.811 24.6963 107.753 24.0068 107.753 23.2024V9.35552C107.753 9.02994 107.782 8.74266 107.839 8.49369C107.916 8.22556 108.069 8.01489 108.299 7.86167C108.548 7.6893 108.941 7.60312 109.477 7.60312C110.013 7.60312 110.396 7.67973 110.626 7.83294C110.875 7.98616 111.028 8.19683 111.086 8.46496C111.162 8.71393 111.2 9.00121 111.2 9.3268V23.0588C111.2 23.4227 111.22 23.7291 111.258 23.9781C111.315 24.2079 111.402 24.3994 111.516 24.5526C111.651 24.6867 111.813 24.7825 112.005 24.8399C112.216 24.8974 112.465 24.9261 112.752 24.9261C113.001 24.9261 113.221 24.9548 113.413 25.0123C113.623 25.0697 113.786 25.2134 113.901 25.4432C114.035 25.673 114.102 26.0465 114.102 26.5636C114.102 27.0999 114.035 27.4925 113.901 27.7414C113.786 27.9904 113.623 28.1436 113.413 28.2011C113.202 28.2586 112.982 28.2873 112.752 28.2873ZM123.008 28.4596C121.763 28.4596 120.672 28.2586 119.733 27.8564C118.814 27.4542 118.038 26.9083 117.406 26.2189C116.793 25.5102 116.324 24.725 115.999 23.8632C115.692 22.9822 115.539 22.0725 115.539 21.134C115.539 19.7551 115.855 18.5293 116.487 17.4568C117.119 16.3843 117.99 15.5416 119.101 14.9288C120.231 14.3159 121.524 14.0095 122.979 14.0095C124.014 14.0095 124.923 14.1723 125.709 14.4978C126.494 14.8234 127.145 15.2543 127.662 15.7906C128.198 16.3077 128.601 16.8823 128.869 17.5143C129.156 18.1463 129.3 18.7592 129.3 19.3529C129.3 20.3679 129.051 21.1053 128.553 21.5649C128.074 22.0246 127.471 22.2544 126.743 22.2544H119.159C119.178 22.9056 119.379 23.4706 119.762 23.9494C120.164 24.4282 120.662 24.8016 121.256 25.0697C121.869 25.3187 122.491 25.4432 123.123 25.4432C123.602 25.4432 124.023 25.4145 124.387 25.357C124.77 25.2996 125.096 25.2325 125.364 25.1559C125.632 25.0602 125.862 24.9644 126.053 24.8686C126.264 24.7729 126.455 24.6867 126.628 24.6101C126.8 24.5335 126.963 24.4856 127.116 24.4665C127.327 24.4473 127.538 24.4952 127.748 24.6101C127.959 24.725 128.131 24.9261 128.265 25.2134C128.38 25.4049 128.457 25.5868 128.495 25.7592C128.553 25.9124 128.581 26.0656 128.581 26.2189C128.581 26.6019 128.352 26.9658 127.892 27.3105C127.432 27.6361 126.781 27.9042 125.938 28.1149C125.115 28.3447 124.138 28.4596 123.008 28.4596ZM119.159 20.2147H125.048C125.373 20.2147 125.622 20.1668 125.795 20.0711C125.967 19.9562 126.053 19.7263 126.053 19.3816C126.053 18.9411 125.919 18.5485 125.651 18.2038C125.383 17.8399 125.019 17.5622 124.559 17.3706C124.1 17.16 123.564 17.0546 122.951 17.0546C122.242 17.0546 121.6 17.1983 121.026 17.4856C120.451 17.7537 119.992 18.1271 119.647 18.6059C119.321 19.0847 119.159 19.621 119.159 20.2147Z" fill="#6C27FF"/>
<path d="M43.1398 28.2873C42.2014 28.2873 41.397 28.1915 40.7266 28C40.0563 27.8085 39.5105 27.5116 39.0892 27.1094C38.6678 26.7072 38.3518 26.1901 38.1411 25.5581C37.9496 24.907 37.8538 24.1409 37.8538 23.2599V11.0792C37.8538 10.7345 37.8826 10.4376 37.94 10.1886C38.0166 9.93966 38.1699 9.74814 38.3997 9.61408C38.6487 9.46086 39.0317 9.38425 39.5488 9.38425C40.0851 9.38425 40.4681 9.46086 40.6979 9.61408C40.9469 9.76729 41.1001 9.97797 41.1576 10.2461C41.2342 10.4951 41.2725 10.7728 41.2725 11.0792V23.145C41.2725 23.5472 41.3012 23.8727 41.3587 24.1217C41.4353 24.3707 41.5406 24.5622 41.6747 24.6963C41.8279 24.8112 42.0194 24.8974 42.2492 24.9548C42.4982 24.9931 42.7951 25.0123 43.1398 25.0123C43.5037 25.0123 43.8101 25.041 44.0591 25.0985C44.3272 25.1559 44.5283 25.2996 44.6624 25.5294C44.7964 25.7401 44.8635 26.0944 44.8635 26.5923C44.8635 27.1286 44.7773 27.5212 44.6049 27.7702C44.4517 28 44.241 28.1436 43.9729 28.2011C43.7239 28.2586 43.4462 28.2873 43.1398 28.2873ZM36.676 14.4117L39.635 14.4404L43.5994 14.3255C43.925 14.3255 44.2123 14.3638 44.4613 14.4404C44.7294 14.4978 44.9401 14.6511 45.0933 14.9C45.2465 15.1299 45.3231 15.5129 45.3231 16.0492C45.3231 16.5471 45.2465 16.9206 45.0933 17.1695C44.9401 17.4185 44.739 17.5813 44.49 17.6579C44.241 17.7154 43.9538 17.7441 43.6282 17.7441L39.7786 17.6866L36.5898 17.7154C36.111 17.6962 35.7759 17.5622 35.5843 17.3132C35.412 17.0451 35.3258 16.6141 35.3258 16.0204C35.3258 15.465 35.4311 15.0628 35.6418 14.8138C35.8716 14.5457 36.2164 14.4117 36.676 14.4117ZM49.1599 28.2873C48.6428 28.2873 48.2597 28.2011 48.0108 28.0287C47.7809 27.8755 47.6373 27.6648 47.5798 27.3967C47.5224 27.1286 47.4937 26.8317 47.4937 26.5061V15.8481C47.4937 15.5033 47.5224 15.2065 47.5798 14.9575C47.6373 14.6894 47.7809 14.4883 48.0108 14.3542C48.2597 14.201 48.6524 14.1244 49.1886 14.1244C49.7057 14.1244 50.0792 14.1914 50.309 14.3255C50.558 14.4595 50.7112 14.6319 50.7687 14.8426C50.8453 15.0341 50.8836 15.2256 50.8836 15.4171L50.6537 15.9342C50.7495 15.781 50.8836 15.5991 51.0559 15.3884C51.2283 15.1586 51.4581 14.9383 51.7454 14.7277C52.0327 14.4978 52.3774 14.3159 52.7796 14.1818C53.1818 14.0286 53.6606 13.952 54.216 13.952C54.4458 13.952 54.6852 13.9807 54.9342 14.0382C55.2023 14.0765 55.4609 14.1435 55.7099 14.2393C55.978 14.3159 56.2174 14.4212 56.4281 14.5553C56.6387 14.6894 56.8015 14.8522 56.9164 15.0437C57.0314 15.216 57.0888 15.4171 57.0888 15.647C57.0888 16.2598 56.9356 16.7769 56.6292 17.1983C56.3227 17.6196 55.9588 17.8303 55.5375 17.8303C55.2502 17.8303 55.0396 17.8016 54.9055 17.7441C54.7714 17.6866 54.6565 17.6196 54.5608 17.543C54.4841 17.4664 54.3597 17.3994 54.1873 17.3419C54.0341 17.2845 53.7851 17.2557 53.4404 17.2557C53.1531 17.2557 52.8562 17.3036 52.5498 17.3994C52.2625 17.4951 51.9944 17.6388 51.7454 17.8303C51.4964 18.0218 51.2953 18.2708 51.1421 18.5772C50.9889 18.8645 50.9123 19.1997 50.9123 19.5827V26.5636C50.9123 26.8892 50.8836 27.186 50.8261 27.4542C50.7687 27.7031 50.6154 27.9042 50.3665 28.0575C50.1175 28.2107 49.7153 28.2873 49.1599 28.2873ZM65.2487 28.2586C64.3677 28.2586 63.5537 28.1053 62.8068 27.7989C62.079 27.4733 61.4374 27.0137 60.882 26.42C60.3266 25.8262 59.8957 25.1176 59.5893 24.2941C59.2828 23.4706 59.1296 22.5608 59.1296 21.5649V15.8481C59.1296 15.5225 59.1584 15.2352 59.2158 14.9862C59.2733 14.7181 59.4265 14.5074 59.6755 14.3542C59.9244 14.201 60.3075 14.1244 60.8246 14.1244C61.38 14.1244 61.7726 14.201 62.0024 14.3542C62.2514 14.5074 62.4046 14.7181 62.4621 14.9862C62.5195 15.2543 62.5483 15.5512 62.5483 15.8768V21.5649C62.5483 22.2544 62.6632 22.8481 62.893 23.3461C63.142 23.844 63.4963 24.2366 63.9559 24.5239C64.4156 24.792 64.9806 24.9261 65.6509 24.9261C66.3404 24.9261 66.9245 24.792 67.4033 24.5239C67.9012 24.2366 68.2843 23.844 68.5524 23.3461C68.8205 22.829 68.9546 22.2352 68.9546 21.5649V15.8193C68.9546 15.4937 68.9833 15.2065 69.0408 14.9575C69.0982 14.6894 69.2515 14.4883 69.5004 14.3542C69.7494 14.201 70.142 14.1244 70.6783 14.1244C71.2145 14.1244 71.5976 14.201 71.8274 14.3542C72.0572 14.5074 72.2009 14.7181 72.2583 14.9862C72.3349 15.2543 72.3732 15.5416 72.3732 15.8481V26.6211C72.3732 26.9083 72.3349 27.1765 72.2583 27.4254C72.2009 27.6744 72.0477 27.8755 71.7987 28.0287C71.5689 28.1819 71.1858 28.2586 70.6496 28.2586C70.2665 28.2586 69.9601 28.2107 69.7303 28.1149C69.5196 28.0383 69.3568 27.933 69.2419 27.7989C69.1461 27.6457 69.0791 27.4925 69.0408 27.3393C69.0216 27.186 69.0121 27.0328 69.0121 26.8796L69.2419 26.104C69.127 26.2763 68.9546 26.487 68.7248 26.736C68.495 26.9658 68.2077 27.2052 67.8629 27.4542C67.5374 27.684 67.1543 27.8755 66.7138 28.0287C66.2733 28.1819 65.7849 28.2586 65.2487 28.2586ZM76.906 28.2586C76.3889 28.2586 76.0058 28.1724 75.7569 28C75.527 27.8468 75.3834 27.6457 75.3259 27.3967C75.2685 27.1286 75.2398 26.8317 75.2398 26.5061V15.7619C75.2398 15.4554 75.2685 15.1777 75.3259 14.9288C75.3834 14.6798 75.5366 14.4883 75.7856 14.3542C76.0346 14.201 76.4176 14.1244 76.9347 14.1244C77.3944 14.1244 77.7391 14.1818 77.9689 14.2967C78.1987 14.4117 78.352 14.5553 78.4286 14.7277C78.5052 14.9 78.5435 15.0724 78.5435 15.2448C78.5626 15.4171 78.5818 15.5512 78.6009 15.647L78.486 16.5663C78.6009 16.2598 78.7924 15.963 79.0606 15.6757C79.3287 15.3884 79.6543 15.1299 80.0373 14.9C80.4204 14.6511 80.8321 14.4595 81.2726 14.3255C81.7323 14.1723 82.2015 14.0956 82.6803 14.0956C83.5804 14.0956 84.3848 14.2584 85.0935 14.584C85.8021 14.9096 86.4054 15.3693 86.9033 15.963C87.4204 16.5567 87.813 17.2653 88.0812 18.0888C88.3493 18.8932 88.4834 19.8029 88.4834 20.818V26.5349C88.4834 26.8605 88.4451 27.1573 88.3684 27.4254C88.311 27.6744 88.1674 27.8755 87.9375 28.0287C87.7077 28.1819 87.3151 28.2586 86.7597 28.2586C86.2234 28.2586 85.8308 28.1724 85.5818 28C85.3329 27.8468 85.1796 27.6457 85.1222 27.3967C85.0647 27.1286 85.036 26.8317 85.036 26.5061V20.7893C85.036 20.0998 84.9115 19.5061 84.6625 19.0081C84.4327 18.5102 84.088 18.1271 83.6283 17.859C83.1878 17.5909 82.6228 17.4568 81.9334 17.4568C81.2631 17.4568 80.6789 17.6005 80.181 17.8877C79.683 18.1559 79.3 18.5389 79.0318 19.0369C78.7637 19.5348 78.6297 20.119 78.6297 20.7893V26.5349C78.6297 26.8605 78.6009 27.1573 78.5435 27.4254C78.486 27.6744 78.3328 27.8755 78.0838 28.0287C77.854 28.1819 77.4614 28.2586 76.906 28.2586ZM97.3767 28.2586C96.4957 28.2586 95.6626 28.0766 94.8774 27.7127C94.0921 27.3488 93.4027 26.8509 92.8089 26.2189C92.2152 25.5677 91.746 24.8112 91.4013 23.9494C91.0565 23.0684 90.8842 22.1299 90.8842 21.134C90.8842 20.1764 91.0565 19.2763 91.4013 18.4336C91.746 17.5717 92.2152 16.8248 92.8089 16.1928C93.4218 15.5416 94.1209 15.0341 94.9061 14.6702C95.6913 14.3063 96.5149 14.1244 97.3767 14.1244C98.296 14.1244 99.1195 14.3063 99.8473 14.6702C100.575 15.0341 101.188 15.5416 101.686 16.1928C102.203 16.8248 102.596 17.5717 102.864 18.4336C103.132 19.2763 103.276 20.186 103.295 21.1627C103.295 22.1395 103.161 23.0588 102.892 23.9206C102.643 24.7633 102.26 25.5102 101.743 26.1614C101.245 26.8126 100.623 27.3297 99.876 27.7127C99.1483 28.0766 98.3151 28.2586 97.3767 28.2586ZM97.8363 24.8974C98.5067 24.8974 99.1004 24.7442 99.6175 24.4377C100.154 24.1121 100.575 23.6716 100.882 23.1162C101.207 22.5608 101.37 21.9288 101.37 21.2202C101.37 20.4924 101.207 19.8508 100.882 19.2954C100.575 18.74 100.154 18.2995 99.6175 17.9739C99.1004 17.6483 98.5067 17.4856 97.8363 17.4856C97.166 17.4856 96.5627 17.6483 96.0265 17.9739C95.4902 18.2804 95.0593 18.7209 94.7337 19.2954C94.4273 19.8508 94.2741 20.4924 94.2741 21.2202C94.2741 21.9288 94.4273 22.5608 94.7337 23.1162C95.0593 23.6716 95.4902 24.1121 96.0265 24.4377C96.5819 24.7442 97.1852 24.8974 97.8363 24.8974ZM103.151 28.2586C102.615 28.2586 102.222 28.1724 101.973 28C101.724 27.8085 101.561 27.5116 101.485 27.1094V9.41298C101.485 9.0874 101.504 8.80012 101.542 8.55114C101.6 8.28301 101.743 8.07234 101.973 7.91912C102.222 7.74676 102.605 7.66057 103.122 7.66057C103.678 7.66057 104.07 7.73718 104.3 7.8904C104.53 8.04361 104.674 8.25429 104.731 8.52241C104.808 8.77139 104.846 9.05867 104.846 9.38425V26.5061C104.846 26.8317 104.817 27.1286 104.76 27.3967C104.702 27.6648 104.549 27.8755 104.3 28.0287C104.07 28.1819 103.687 28.2586 103.151 28.2586ZM112.752 28.2873C112.043 28.2873 111.411 28.2394 110.856 28.1436C110.319 28.0479 109.85 27.8851 109.448 27.6553C109.065 27.4254 108.749 27.119 108.5 26.736C108.251 26.3338 108.06 25.8454 107.925 25.2708C107.811 24.6963 107.753 24.0068 107.753 23.2024V9.35552C107.753 9.02994 107.782 8.74266 107.839 8.49369C107.916 8.22556 108.069 8.01489 108.299 7.86167C108.548 7.6893 108.941 7.60312 109.477 7.60312C110.013 7.60312 110.396 7.67973 110.626 7.83294C110.875 7.98616 111.028 8.19683 111.086 8.46496C111.162 8.71393 111.2 9.00121 111.2 9.3268V23.0588C111.2 23.4227 111.22 23.7291 111.258 23.9781C111.315 24.2079 111.402 24.3994 111.516 24.5526C111.651 24.6867 111.813 24.7825 112.005 24.8399C112.216 24.8974 112.465 24.9261 112.752 24.9261C113.001 24.9261 113.221 24.9548 113.413 25.0123C113.623 25.0697 113.786 25.2134 113.901 25.4432C114.035 25.673 114.102 26.0465 114.102 26.5636C114.102 27.0999 114.035 27.4925 113.901 27.7414C113.786 27.9904 113.623 28.1436 113.413 28.2011C113.202 28.2586 112.982 28.2873 112.752 28.2873ZM123.008 28.4596C121.763 28.4596 120.672 28.2586 119.733 27.8564C118.814 27.4542 118.038 26.9083 117.406 26.2189C116.793 25.5102 116.324 24.725 115.999 23.8632C115.692 22.9822 115.539 22.0725 115.539 21.134C115.539 19.7551 115.855 18.5293 116.487 17.4568C117.119 16.3843 117.99 15.5416 119.101 14.9288C120.231 14.3159 121.524 14.0095 122.979 14.0095C124.014 14.0095 124.923 14.1723 125.709 14.4978C126.494 14.8234 127.145 15.2543 127.662 15.7906C128.198 16.3077 128.601 16.8823 128.869 17.5143C129.156 18.1463 129.3 18.7592 129.3 19.3529C129.3 20.3679 129.051 21.1053 128.553 21.5649C128.074 22.0246 127.471 22.2544 126.743 22.2544H119.159C119.178 22.9056 119.379 23.4706 119.762 23.9494C120.164 24.4282 120.662 24.8016 121.256 25.0697C121.869 25.3187 122.491 25.4432 123.123 25.4432C123.602 25.4432 124.023 25.4145 124.387 25.357C124.77 25.2996 125.096 25.2325 125.364 25.1559C125.632 25.0602 125.862 24.9644 126.053 24.8686C126.264 24.7729 126.455 24.6867 126.628 24.6101C126.8 24.5335 126.963 24.4856 127.116 24.4665C127.327 24.4473 127.538 24.4952 127.748 24.6101C127.959 24.725 128.131 24.9261 128.265 25.2134C128.38 25.4049 128.457 25.5868 128.495 25.7592C128.553 25.9124 128.581 26.0656 128.581 26.2189C128.581 26.6019 128.352 26.9658 127.892 27.3105C127.432 27.6361 126.781 27.9042 125.938 28.1149C125.115 28.3447 124.138 28.4596 123.008 28.4596ZM119.159 20.2147H125.048C125.373 20.2147 125.622 20.1668 125.795 20.0711C125.967 19.9562 126.053 19.7263 126.053 19.3816C126.053 18.9411 125.919 18.5485 125.651 18.2038C125.383 17.8399 125.019 17.5622 124.559 17.3706C124.1 17.16 123.564 17.0546 122.951 17.0546C122.242 17.0546 121.6 17.1983 121.026 17.4856C120.451 17.7537 119.992 18.1271 119.647 18.6059C119.321 19.0847 119.159 19.621 119.159 20.2147Z" fill="black" fill-opacity="0.8"/>
<defs>
<linearGradient id="paint0_linear_664_1149" x1="6.35421" y1="10.7316" x2="12.8454" y2="16.2731" gradientUnits="userSpaceOnUse">
<stop stop-color="#C4A8FF"/>
<stop offset="1" stop-color="#7152B3"/>
</linearGradient>
</defs>
</svg>
