<svg width="18" height="14" viewBox="0 0 18 14" fill="none" xmlns="http://www.w3.org/2000/svg">
<path d="M11.4998 10.3333H13.9998C14.2359 10.3333 14.4339 10.2535 14.5936 10.0937C14.7533 9.93403 14.8332 9.73611 14.8332 9.5V4.5C14.8332 4.26389 14.7533 4.06597 14.5936 3.90625C14.4339 3.74653 14.2359 3.66667 13.9998 3.66667H11.4998C11.2637 3.66667 11.0658 3.74653 10.9061 3.90625C10.7464 4.06597 10.6665 4.26389 10.6665 4.5V9.5C10.6665 9.73611 10.7464 9.93403 10.9061 10.0937C11.0658 10.2535 11.2637 10.3333 11.4998 10.3333ZM12.3332 8.66667V5.33333H13.1665V8.66667H12.3332ZM6.49984 10.3333H8.99984C9.23595 10.3333 9.43387 10.2535 9.59359 10.0937C9.75331 9.93403 9.83317 9.73611 9.83317 9.5V4.5C9.83317 4.26389 9.75331 4.06597 9.59359 3.90625C9.43387 3.74653 9.23595 3.66667 8.99984 3.66667H6.49984C6.26373 3.66667 6.06581 3.74653 5.90609 3.90625C5.74636 4.06597 5.6665 4.26389 5.6665 4.5V9.5C5.6665 9.73611 5.74636 9.93403 5.90609 10.0937C6.06581 10.2535 6.26373 10.3333 6.49984 10.3333ZM7.33317 8.66667V5.33333H8.1665V8.66667H7.33317ZM4.83317 9.5V4.5C4.83317 4.26389 4.75331 4.06597 4.59359 3.90625C4.43387 3.74653 4.23595 3.66667 3.99984 3.66667C3.76373 3.66667 3.56581 3.74653 3.40609 3.90625C3.24637 4.06597 3.1665 4.26389 3.1665 4.5V9.5C3.1665 9.73611 3.24637 9.93403 3.40609 10.0937C3.56581 10.2535 3.76373 10.3333 3.99984 10.3333C4.23595 10.3333 4.43387 10.2535 4.59359 10.0937C4.75331 9.93403 4.83317 9.73611 4.83317 9.5ZM0.666504 12V2C0.666504 1.54167 0.829698 1.1493 1.15609 0.822915C1.48248 0.496527 1.87484 0.333332 2.33317 0.333332H15.6665C16.1248 0.333332 16.5172 0.496527 16.8436 0.822915C17.17 1.1493 17.3332 1.54167 17.3332 2V12C17.3332 12.4583 17.17 12.8507 16.8436 13.1771C16.5172 13.5035 16.1248 13.6667 15.6665 13.6667H2.33317C1.87484 13.6667 1.48248 13.5035 1.15609 13.1771C0.829698 12.8507 0.666504 12.4583 0.666504 12Z" fill="#1C1B1F"/>
</svg>
