<svg width="204" height="107" viewBox="0 0 204 107" fill="none" xmlns="http://www.w3.org/2000/svg">
<path fill-rule="evenodd" clip-rule="evenodd" d="M194.991 1C199.69 1 203.5 4.8096 203.5 9.50898C203.5 14.2084 199.69 18.018 194.991 18.018H146.368C151.068 18.018 154.877 21.8276 154.877 26.5269C154.877 31.2263 151.068 35.0359 146.368 35.0359H173.111C177.81 35.0359 181.62 38.8455 181.62 43.5449C181.62 48.2443 177.81 52.0539 173.111 52.0539H160.744C154.818 52.0539 150.015 55.8635 150.015 60.5629C150.015 63.6958 152.446 66.5321 157.308 69.0719C162.008 69.0719 165.817 72.8815 165.817 77.5808C165.817 82.2802 162.008 86.0898 157.308 86.0898H56.4162C51.7168 86.0898 47.9072 82.2802 47.9072 77.5808C47.9072 72.8815 51.7168 69.0719 56.4162 69.0719H9.00898C4.3096 69.0719 0.5 65.2623 0.5 60.5629C0.5 55.8635 4.3096 52.0539 9.00898 52.0539H57.6317C62.3311 52.0539 66.1407 48.2443 66.1407 43.5449C66.1407 38.8455 62.3311 35.0359 57.6317 35.0359H27.2425C22.5431 35.0359 18.7335 31.2263 18.7335 26.5269C18.7335 21.8276 22.5431 18.018 27.2425 18.018H75.8653C71.1659 18.018 67.3563 14.2084 67.3563 9.50898C67.3563 4.8096 71.1659 1 75.8653 1H194.991ZM194.991 35.0359C199.69 35.0359 203.5 38.8455 203.5 43.5449C203.5 48.2443 199.69 52.0539 194.991 52.0539C190.292 52.0539 186.482 48.2443 186.482 43.5449C186.482 38.8455 190.292 35.0359 194.991 35.0359Z" fill="#F1EEF6"/>
<path d="M89.8446 83.6589C112.334 83.6589 130.566 65.4273 130.566 42.9374C130.566 20.4475 112.334 2.21582 89.8446 2.21582C67.3547 2.21582 49.123 20.4475 49.123 42.9374C49.123 65.4273 67.3547 83.6589 89.8446 83.6589Z" fill="#F3F7FF" stroke="#6C27FF" stroke-width="3.03892"/>
<path fill-rule="evenodd" clip-rule="evenodd" d="M83.3193 74.5351C85.4572 74.9297 87.6322 75.1347 89.8444 75.1503C107.635 75.1503 122.057 60.7282 122.057 42.9377C122.057 25.1472 107.635 10.7251 89.8444 10.7251C85.2743 10.7251 80.9265 11.6768 76.9883 13.3928C70.1447 16.3749 64.5382 21.6651 61.1521 28.2802C58.9015 32.677 57.6318 37.6591 57.6318 42.9377C57.6318 47.727 58.677 52.2723 60.5518 56.3577C61.8902 59.2744 63.6515 61.9568 65.7571 64.3263" fill="white"/>
<path d="M83.3193 74.5351C85.4572 74.9297 87.6322 75.1347 89.8444 75.1503C107.635 75.1503 122.057 60.7282 122.057 42.9377C122.057 25.1472 107.635 10.7251 89.8444 10.7251C85.2743 10.7251 80.9265 11.6768 76.9883 13.3928C70.1447 16.3749 64.5382 21.6651 61.1521 28.2802C58.9015 32.677 57.6318 37.6591 57.6318 42.9377C57.6318 47.727 58.677 52.2722 60.5518 56.3577C61.8902 59.2744 63.6515 61.9568 65.7571 64.3263" stroke="#6C27FF" stroke-width="3.03892" stroke-linecap="round"/>
<path d="M69.542 67.9473C72.1532 70.0696 75.1032 71.7913 78.2983 73.0185" stroke="#6C27FF" stroke-width="3.03892" stroke-linecap="round"/>
<path d="M123.272 75.1504L130.566 82.4438" stroke="#6C27FF" stroke-width="3.03892"/>
<path fill-rule="evenodd" clip-rule="evenodd" d="M129.387 81.2651C127.086 83.5658 127.086 87.296 129.387 89.5968L142.862 103.072C145.162 105.372 148.893 105.372 151.193 103.072C153.494 100.771 153.494 97.0408 151.193 94.74L137.718 81.2651C135.418 78.9644 131.687 78.9644 129.387 81.2651Z" fill="#E8F0FE" stroke="#6C27FF" stroke-width="3.03892"/>
<path d="M135.429 83.6587L148.8 97.0299" stroke="white" stroke-width="3.03892" stroke-linecap="round"/>
<path fill-rule="evenodd" clip-rule="evenodd" d="M81.9432 28.9584C81.9432 43.0565 93.372 54.4853 107.47 54.4853C110.24 54.4853 112.906 54.0443 115.403 53.2286C111.327 63.3433 101.42 70.483 89.8444 70.483C74.6314 70.483 62.2988 58.1505 62.2988 42.9374C62.2988 29.1523 72.425 17.7323 85.6446 15.71C83.2961 19.5733 81.9432 24.1079 81.9432 28.9584Z" fill="#F0E9FF"/>
<path d="M90.4523 20.4497C88.9044 20.4497 87.392 20.602 85.9294 20.8924M81.5114 22.244C73.1959 25.7384 67.3564 33.96 67.3564 43.5455" stroke="#9868FF" stroke-width="3.03892" stroke-linecap="round"/>
<path d="M155.091 43.2742H145.153M162.779 33.8203H141.9H162.779ZM171.288 33.8203H168.588H171.288Z" stroke="#9868FF" stroke-width="3.03892" stroke-linecap="round" stroke-linejoin="round"/>
<path d="M45.69 70.0166H35.7517M40.0062 59.3472H19.1279H40.0062ZM12.0481 59.3472H6.91699H12.0481Z" stroke="#9868FF" stroke-width="3.03892" stroke-linecap="round" stroke-linejoin="round"/>
</svg>
