<svg width="241" height="100" viewBox="0 0 241 100" fill="none" xmlns="http://www.w3.org/2000/svg">
<path d="M236.437 67.6816C230.834 73.8795 214.822 89.0827 193.485 92.9595C166.736 97.8198 149.607 87.912 138.844 81.724C128.081 75.5361 110.202 61.9448 110.204 37.6273C110.207 13.3098 125.263 14.4917 129.661 16.9598C134.059 19.4278 141.067 31.5158 130.266 43.1011C119.465 54.6864 110.632 55.3648 104.123 55.8647C97.6144 56.3646 87.5659 53.3952 80.8438 45.0264C74.1217 36.6575 70.3683 24.3195 73.4084 21.2802C76.4484 18.2408 81.6337 18.7779 83.1348 26.1448C84.6359 33.5118 76.3027 40.6987 73.1555 42.3434C70.0084 43.988 59.315 50.8886 42.9372 44.6643C26.5594 38.4399 8.89545 21.5586 4.9999 1.28164" stroke="#7AE0EF" stroke-width="10"/>
</svg>
