<svg width="136" height="36" viewBox="0 0 136 36" fill="none" xmlns="http://www.w3.org/2000/svg">
<g clip-path="url(#clip0_1_1016)">
<path d="M27.5094 20.695C24.3874 27.3653 15.0359 33.2611 8.36556 30.1391C1.69525 27.0171 -1.30173 14.796 1.8203 8.12573C4.94232 1.45544 13.0011 2.86181 19.6714 5.98383C27.9614 9.86395 30.6314 14.0247 27.5094 20.695Z" fill="#6C27FF"/>
<path d="M9.09527 13.4266C7.7059 12.1946 6.77552 10.7042 6.15723 10.0791L6.15359 12.4137C6.15068 14.2886 7.69899 15.7944 9.57304 15.7393L12.583 15.6507C11.6079 15.2147 10.7805 14.921 9.09527 13.4266Z" fill="url(#paint0_linear_1_1016)"/>
<path d="M19.0964 12.6303L9.32767 12.5932L11.4089 14.237C12.2377 14.8916 13.2677 15.2388 14.3236 15.2195L22.932 15.0617L22.5135 14.4467C21.7435 13.315 20.4652 12.6355 19.0964 12.6303Z" fill="white"/>
<path d="M17.6823 15.8358L15.7367 15.8841C15.0204 15.9019 14.3638 16.2878 13.9999 16.905L10.5537 22.7489L11.1018 22.7512C12.5524 22.7571 13.9009 22.0055 14.6589 20.7688L17.6823 15.8358Z" fill="white"/>
<path d="M16.7139 11.8665L14.7665 11.8568C14.0246 11.853 13.3093 11.5804 12.7531 11.0893L14.3741 11.0732C15.2071 11.0649 16.019 11.3353 16.6808 11.8412L16.7139 11.8665Z" fill="#9868FF"/>
<path d="M43.7217 28.2873C42.7833 28.2873 41.9789 28.1915 41.3086 28C40.6382 27.8085 40.0924 27.5116 39.6711 27.1094C39.2497 26.7072 38.9337 26.1901 38.723 25.5581C38.5315 24.907 38.4358 24.1409 38.4358 23.2599V11.0792C38.4358 10.7345 38.4645 10.4376 38.5219 10.1886C38.5985 9.93966 38.7518 9.74814 38.9816 9.61408C39.2306 9.46086 39.6136 9.38425 40.1307 9.38425C40.667 9.38425 41.05 9.46086 41.2798 9.61408C41.5288 9.76729 41.682 9.97797 41.7395 10.2461C41.8161 10.4951 41.8544 10.7728 41.8544 11.0792V23.145C41.8544 23.5472 41.8831 23.8727 41.9406 24.1217C42.0172 24.3707 42.1225 24.5622 42.2566 24.6963C42.4098 24.8112 42.6013 24.8974 42.8311 24.9548C43.0801 24.9931 43.377 25.0123 43.7217 25.0123C44.0856 25.0123 44.392 25.041 44.641 25.0985C44.9091 25.1559 45.1102 25.2996 45.2443 25.5294C45.3784 25.7401 45.4454 26.0944 45.4454 26.5923C45.4454 27.1286 45.3592 27.5212 45.1868 27.7702C45.0336 28 44.8229 28.1436 44.5548 28.2011C44.3058 28.2586 44.0281 28.2873 43.7217 28.2873ZM37.2579 14.4117L40.2169 14.4404L44.1814 14.3255C44.5069 14.3255 44.7942 14.3638 45.0432 14.4404C45.3113 14.4978 45.522 14.6511 45.6752 14.9C45.8284 15.1299 45.905 15.5129 45.905 16.0492C45.905 16.5471 45.8284 16.9206 45.6752 17.1695C45.522 17.4185 45.3209 17.5813 45.0719 17.6579C44.8229 17.7154 44.5357 17.7441 44.2101 17.7441L40.3605 17.6866L37.1717 17.7154C36.6929 17.6962 36.3578 17.5622 36.1662 17.3132C35.9939 17.0451 35.9077 16.6141 35.9077 16.0204C35.9077 15.465 36.013 15.0628 36.2237 14.8138C36.4535 14.5457 36.7983 14.4117 37.2579 14.4117ZM49.7418 28.2873C49.2247 28.2873 48.8417 28.2011 48.5927 28.0287C48.3629 27.8755 48.2192 27.6648 48.1618 27.3967C48.1043 27.1286 48.0756 26.8317 48.0756 26.5061V15.8481C48.0756 15.5033 48.1043 15.2065 48.1618 14.9575C48.2192 14.6894 48.3629 14.4883 48.5927 14.3542C48.8417 14.201 49.2343 14.1244 49.7705 14.1244C50.2876 14.1244 50.6611 14.1914 50.8909 14.3255C51.1399 14.4595 51.2931 14.6319 51.3506 14.8426C51.4272 15.0341 51.4655 15.2256 51.4655 15.4171L51.2357 15.9342C51.3314 15.781 51.4655 15.5991 51.6378 15.3884C51.8102 15.1586 52.04 14.9383 52.3273 14.7277C52.6146 14.4978 52.9593 14.3159 53.3615 14.1818C53.7637 14.0286 54.2425 13.952 54.7979 13.952C55.0277 13.952 55.2671 13.9807 55.5161 14.0382C55.7843 14.0765 56.0428 14.1435 56.2918 14.2393C56.5599 14.3159 56.7993 14.4212 57.01 14.5553C57.2207 14.6894 57.3834 14.8522 57.4984 15.0437C57.6133 15.216 57.6707 15.4171 57.6707 15.647C57.6707 16.2598 57.5175 16.7769 57.2111 17.1983C56.9046 17.6196 56.5408 17.8303 56.1194 17.8303C55.8321 17.8303 55.6215 17.8016 55.4874 17.7441C55.3533 17.6866 55.2384 17.6196 55.1427 17.543C55.0661 17.4664 54.9416 17.3994 54.7692 17.3419C54.616 17.2845 54.367 17.2557 54.0223 17.2557C53.735 17.2557 53.4381 17.3036 53.1317 17.3994C52.8444 17.4951 52.5763 17.6388 52.3273 17.8303C52.0783 18.0218 51.8772 18.2708 51.724 18.5772C51.5708 18.8645 51.4942 19.1997 51.4942 19.5827V26.5636C51.4942 26.8892 51.4655 27.186 51.408 27.4542C51.3506 27.7031 51.1973 27.9042 50.9484 28.0575C50.6994 28.2107 50.2972 28.2873 49.7418 28.2873ZM65.8306 28.2586C64.9496 28.2586 64.1356 28.1053 63.3887 27.7989C62.6609 27.4733 62.0194 27.0137 61.4639 26.42C60.9085 25.8262 60.4776 25.1176 60.1712 24.2941C59.8648 23.4706 59.7115 22.5608 59.7115 21.5649V15.8481C59.7115 15.5225 59.7403 15.2352 59.7977 14.9862C59.8552 14.7181 60.0084 14.5074 60.2574 14.3542C60.5063 14.201 60.8894 14.1244 61.4065 14.1244C61.9619 14.1244 62.3545 14.201 62.5843 14.3542C62.8333 14.5074 62.9865 14.7181 63.044 14.9862C63.1014 15.2543 63.1302 15.5512 63.1302 15.8768V21.5649C63.1302 22.2544 63.2451 22.8481 63.4749 23.3461C63.7239 23.844 64.0782 24.2366 64.5378 24.5239C64.9975 24.792 65.5625 24.9261 66.2328 24.9261C66.9223 24.9261 67.5064 24.792 67.9852 24.5239C68.4832 24.2366 68.8662 23.844 69.1343 23.3461C69.4024 22.829 69.5365 22.2352 69.5365 21.5649V15.8193C69.5365 15.4937 69.5652 15.2065 69.6227 14.9575C69.6802 14.6894 69.8334 14.4883 70.0823 14.3542C70.3313 14.201 70.7239 14.1244 71.2602 14.1244C71.7964 14.1244 72.1795 14.201 72.4093 14.3542C72.6391 14.5074 72.7828 14.7181 72.8402 14.9862C72.9168 15.2543 72.9551 15.5416 72.9551 15.8481V26.6211C72.9551 26.9083 72.9168 27.1765 72.8402 27.4254C72.7828 27.6744 72.6296 27.8755 72.3806 28.0287C72.1508 28.1819 71.7677 28.2586 71.2315 28.2586C70.8484 28.2586 70.542 28.2107 70.3122 28.1149C70.1015 28.0383 69.9387 27.933 69.8238 27.7989C69.728 27.6457 69.661 27.4925 69.6227 27.3393C69.6035 27.186 69.594 27.0328 69.594 26.8796L69.8238 26.104C69.7089 26.2763 69.5365 26.487 69.3067 26.736C69.0769 26.9658 68.7896 27.2052 68.4448 27.4542C68.1193 27.684 67.7362 27.8755 67.2957 28.0287C66.8552 28.1819 66.3669 28.2586 65.8306 28.2586ZM77.4879 28.2586C76.9708 28.2586 76.5877 28.1724 76.3388 28C76.1089 27.8468 75.9653 27.6457 75.9078 27.3967C75.8504 27.1286 75.8217 26.8317 75.8217 26.5061V15.7619C75.8217 15.4554 75.8504 15.1777 75.9078 14.9288C75.9653 14.6798 76.1185 14.4883 76.3675 14.3542C76.6165 14.201 76.9995 14.1244 77.5166 14.1244C77.9763 14.1244 78.321 14.1818 78.5508 14.2967C78.7806 14.4117 78.9339 14.5553 79.0105 14.7277C79.0871 14.9 79.1254 15.0724 79.1254 15.2448C79.1445 15.4171 79.1637 15.5512 79.1828 15.647L79.0679 16.5663C79.1828 16.2598 79.3744 15.963 79.6425 15.6757C79.9106 15.3884 80.2362 15.1299 80.6192 14.9C81.0023 14.6511 81.414 14.4595 81.8545 14.3255C82.3142 14.1723 82.7834 14.0956 83.2622 14.0956C84.1624 14.0956 84.9667 14.2584 85.6754 14.584C86.384 14.9096 86.9873 15.3693 87.4852 15.963C88.0023 16.5567 88.3949 17.2653 88.6631 18.0888C88.9312 18.8932 89.0653 19.8029 89.0653 20.818V26.5349C89.0653 26.8605 89.027 27.1573 88.9504 27.4254C88.8929 27.6744 88.7493 27.8755 88.5194 28.0287C88.2896 28.1819 87.897 28.2586 87.3416 28.2586C86.8053 28.2586 86.4127 28.1724 86.1637 28C85.9148 27.8468 85.7615 27.6457 85.7041 27.3967C85.6466 27.1286 85.6179 26.8317 85.6179 26.5061V20.7893C85.6179 20.0998 85.4934 19.5061 85.2444 19.0081C85.0146 18.5102 84.6699 18.1271 84.2102 17.859C83.7697 17.5909 83.2048 17.4568 82.5153 17.4568C81.845 17.4568 81.2608 17.6005 80.7629 17.8877C80.2649 18.1559 79.8819 18.5389 79.6138 19.0369C79.3456 19.5348 79.2116 20.119 79.2116 20.7893V26.5349C79.2116 26.8605 79.1828 27.1573 79.1254 27.4254C79.0679 27.6744 78.9147 27.8755 78.6657 28.0287C78.4359 28.1819 78.0433 28.2586 77.4879 28.2586ZM97.9586 28.2586C97.0776 28.2586 96.2445 28.0766 95.4593 27.7127C94.674 27.3488 93.9846 26.8509 93.3909 26.2189C92.7971 25.5677 92.3279 24.8112 91.9832 23.9494C91.6384 23.0684 91.4661 22.1299 91.4661 21.134C91.4661 20.1764 91.6384 19.2763 91.9832 18.4336C92.3279 17.5717 92.7971 16.8248 93.3909 16.1928C94.0037 15.5416 94.7028 15.0341 95.488 14.6702C96.2732 14.3063 97.0968 14.1244 97.9586 14.1244C98.8779 14.1244 99.7014 14.3063 100.429 14.6702C101.157 15.0341 101.77 15.5416 102.268 16.1928C102.785 16.8248 103.178 17.5717 103.446 18.4336C103.714 19.2763 103.857 20.186 103.877 21.1627C103.877 22.1395 103.743 23.0588 103.474 23.9206C103.225 24.7633 102.842 25.5102 102.325 26.1614C101.827 26.8126 101.205 27.3297 100.458 27.7127C99.7302 28.0766 98.8971 28.2586 97.9586 28.2586ZM98.4183 24.8974C99.0886 24.8974 99.6823 24.7442 100.199 24.4377C100.736 24.1121 101.157 23.6716 101.463 23.1162C101.789 22.5608 101.952 21.9288 101.952 21.2202C101.952 20.4924 101.789 19.8508 101.463 19.2954C101.157 18.74 100.736 18.2995 100.199 17.9739C99.6823 17.6483 99.0886 17.4856 98.4183 17.4856C97.7479 17.4856 97.1446 17.6483 96.6084 17.9739C96.0721 18.2804 95.6412 18.7209 95.3156 19.2954C95.0092 19.8508 94.856 20.4924 94.856 21.2202C94.856 21.9288 95.0092 22.5608 95.3156 23.1162C95.6412 23.6716 96.0721 24.1121 96.6084 24.4377C97.1638 24.7442 97.7671 24.8974 98.4183 24.8974ZM103.733 28.2586C103.197 28.2586 102.804 28.1724 102.555 28C102.306 27.8085 102.143 27.5116 102.067 27.1094V9.41298C102.067 9.0874 102.086 8.80012 102.124 8.55114C102.182 8.28301 102.325 8.07234 102.555 7.91912C102.804 7.74676 103.187 7.66057 103.704 7.66057C104.26 7.66057 104.652 7.73718 104.882 7.8904C105.112 8.04361 105.256 8.25429 105.313 8.52241C105.39 8.77139 105.428 9.05867 105.428 9.38425V26.5061C105.428 26.8317 105.399 27.1286 105.342 27.3967C105.284 27.6648 105.131 27.8755 104.882 28.0287C104.652 28.1819 104.269 28.2586 103.733 28.2586ZM113.334 28.2873C112.625 28.2873 111.993 28.2394 111.438 28.1436C110.901 28.0479 110.432 27.8851 110.03 27.6553C109.647 27.4254 109.331 27.119 109.082 26.736C108.833 26.3338 108.641 25.8454 108.507 25.2708C108.392 24.6963 108.335 24.0068 108.335 23.2024V9.35552C108.335 9.02994 108.364 8.74266 108.421 8.49369C108.498 8.22556 108.651 8.01489 108.881 7.86167C109.13 7.6893 109.522 7.60312 110.059 7.60312C110.595 7.60312 110.978 7.67973 111.208 7.83294C111.457 7.98616 111.61 8.19683 111.667 8.46496C111.744 8.71393 111.782 9.00121 111.782 9.3268V23.0588C111.782 23.4227 111.802 23.7291 111.84 23.9781C111.897 24.2079 111.983 24.3994 112.098 24.5526C112.232 24.6867 112.395 24.7825 112.587 24.8399C112.797 24.8974 113.046 24.9261 113.334 24.9261C113.583 24.9261 113.803 24.9548 113.994 25.0123C114.205 25.0697 114.368 25.2134 114.483 25.4432C114.617 25.673 114.684 26.0465 114.684 26.5636C114.684 27.0999 114.617 27.4925 114.483 27.7414C114.368 27.9904 114.205 28.1436 113.994 28.2011C113.784 28.2586 113.564 28.2873 113.334 28.2873ZM123.59 28.4596C122.345 28.4596 121.254 28.2586 120.315 27.8564C119.396 27.4542 118.62 26.9083 117.988 26.2189C117.375 25.5102 116.906 24.725 116.58 23.8632C116.274 22.9822 116.121 22.0725 116.121 21.134C116.121 19.7551 116.437 18.5293 117.069 17.4568C117.701 16.3843 118.572 15.5416 119.683 14.9288C120.813 14.3159 122.106 14.0095 123.561 14.0095C124.596 14.0095 125.505 14.1723 126.29 14.4978C127.076 14.8234 127.727 15.2543 128.244 15.7906C128.78 16.3077 129.182 16.8823 129.451 17.5143C129.738 18.1463 129.881 18.7592 129.881 19.3529C129.881 20.3679 129.633 21.1053 129.135 21.5649C128.656 22.0246 128.052 22.2544 127.325 22.2544H119.74C119.76 22.9056 119.961 23.4706 120.344 23.9494C120.746 24.4282 121.244 24.8016 121.838 25.0697C122.451 25.3187 123.073 25.4432 123.705 25.4432C124.184 25.4432 124.605 25.4145 124.969 25.357C125.352 25.2996 125.678 25.2325 125.946 25.1559C126.214 25.0602 126.444 24.9644 126.635 24.8686C126.846 24.7729 127.037 24.6867 127.21 24.6101C127.382 24.5335 127.545 24.4856 127.698 24.4665C127.909 24.4473 128.119 24.4952 128.33 24.6101C128.541 24.725 128.713 24.9261 128.847 25.2134C128.962 25.4049 129.039 25.5868 129.077 25.7592C129.135 25.9124 129.163 26.0656 129.163 26.2189C129.163 26.6019 128.933 26.9658 128.474 27.3105C128.014 27.6361 127.363 27.9042 126.52 28.1149C125.697 28.3447 124.72 28.4596 123.59 28.4596ZM119.74 20.2147H125.63C125.955 20.2147 126.204 20.1668 126.377 20.0711C126.549 19.9562 126.635 19.7263 126.635 19.3816C126.635 18.9411 126.501 18.5485 126.233 18.2038C125.965 17.8399 125.601 17.5622 125.141 17.3706C124.682 17.16 124.145 17.0546 123.533 17.0546C122.824 17.0546 122.182 17.1983 121.608 17.4856C121.033 17.7537 120.574 18.1271 120.229 18.6059C119.903 19.0847 119.74 19.621 119.74 20.2147Z" fill="white"/>
<path d="M43.7217 28.2873C42.7833 28.2873 41.9789 28.1915 41.3086 28C40.6382 27.8085 40.0924 27.5116 39.6711 27.1094C39.2497 26.7072 38.9337 26.1901 38.723 25.5581C38.5315 24.907 38.4358 24.1409 38.4358 23.2599V11.0792C38.4358 10.7345 38.4645 10.4376 38.5219 10.1886C38.5985 9.93966 38.7518 9.74814 38.9816 9.61408C39.2306 9.46086 39.6136 9.38425 40.1307 9.38425C40.667 9.38425 41.05 9.46086 41.2798 9.61408C41.5288 9.76729 41.682 9.97797 41.7395 10.2461C41.8161 10.4951 41.8544 10.7728 41.8544 11.0792V23.145C41.8544 23.5472 41.8831 23.8727 41.9406 24.1217C42.0172 24.3707 42.1225 24.5622 42.2566 24.6963C42.4098 24.8112 42.6013 24.8974 42.8311 24.9548C43.0801 24.9931 43.377 25.0123 43.7217 25.0123C44.0856 25.0123 44.392 25.041 44.641 25.0985C44.9091 25.1559 45.1102 25.2996 45.2443 25.5294C45.3784 25.7401 45.4454 26.0944 45.4454 26.5923C45.4454 27.1286 45.3592 27.5212 45.1868 27.7702C45.0336 28 44.8229 28.1436 44.5548 28.2011C44.3058 28.2586 44.0281 28.2873 43.7217 28.2873ZM37.2579 14.4117L40.2169 14.4404L44.1814 14.3255C44.5069 14.3255 44.7942 14.3638 45.0432 14.4404C45.3113 14.4978 45.522 14.6511 45.6752 14.9C45.8284 15.1299 45.905 15.5129 45.905 16.0492C45.905 16.5471 45.8284 16.9206 45.6752 17.1695C45.522 17.4185 45.3209 17.5813 45.0719 17.6579C44.8229 17.7154 44.5357 17.7441 44.2101 17.7441L40.3605 17.6866L37.1717 17.7154C36.6929 17.6962 36.3578 17.5622 36.1662 17.3132C35.9939 17.0451 35.9077 16.6141 35.9077 16.0204C35.9077 15.465 36.013 15.0628 36.2237 14.8138C36.4535 14.5457 36.7983 14.4117 37.2579 14.4117ZM49.7418 28.2873C49.2247 28.2873 48.8417 28.2011 48.5927 28.0287C48.3629 27.8755 48.2192 27.6648 48.1618 27.3967C48.1043 27.1286 48.0756 26.8317 48.0756 26.5061V15.8481C48.0756 15.5033 48.1043 15.2065 48.1618 14.9575C48.2192 14.6894 48.3629 14.4883 48.5927 14.3542C48.8417 14.201 49.2343 14.1244 49.7705 14.1244C50.2876 14.1244 50.6611 14.1914 50.8909 14.3255C51.1399 14.4595 51.2931 14.6319 51.3506 14.8426C51.4272 15.0341 51.4655 15.2256 51.4655 15.4171L51.2357 15.9342C51.3314 15.781 51.4655 15.5991 51.6378 15.3884C51.8102 15.1586 52.04 14.9383 52.3273 14.7277C52.6146 14.4978 52.9593 14.3159 53.3615 14.1818C53.7637 14.0286 54.2425 13.952 54.7979 13.952C55.0277 13.952 55.2671 13.9807 55.5161 14.0382C55.7843 14.0765 56.0428 14.1435 56.2918 14.2393C56.5599 14.3159 56.7993 14.4212 57.01 14.5553C57.2207 14.6894 57.3834 14.8522 57.4984 15.0437C57.6133 15.216 57.6707 15.4171 57.6707 15.647C57.6707 16.2598 57.5175 16.7769 57.2111 17.1983C56.9046 17.6196 56.5408 17.8303 56.1194 17.8303C55.8321 17.8303 55.6215 17.8016 55.4874 17.7441C55.3533 17.6866 55.2384 17.6196 55.1427 17.543C55.0661 17.4664 54.9416 17.3994 54.7692 17.3419C54.616 17.2845 54.367 17.2557 54.0223 17.2557C53.735 17.2557 53.4381 17.3036 53.1317 17.3994C52.8444 17.4951 52.5763 17.6388 52.3273 17.8303C52.0783 18.0218 51.8772 18.2708 51.724 18.5772C51.5708 18.8645 51.4942 19.1997 51.4942 19.5827V26.5636C51.4942 26.8892 51.4655 27.186 51.408 27.4542C51.3506 27.7031 51.1973 27.9042 50.9484 28.0575C50.6994 28.2107 50.2972 28.2873 49.7418 28.2873ZM65.8306 28.2586C64.9496 28.2586 64.1356 28.1053 63.3887 27.7989C62.6609 27.4733 62.0194 27.0137 61.4639 26.42C60.9085 25.8262 60.4776 25.1176 60.1712 24.2941C59.8648 23.4706 59.7115 22.5608 59.7115 21.5649V15.8481C59.7115 15.5225 59.7403 15.2352 59.7977 14.9862C59.8552 14.7181 60.0084 14.5074 60.2574 14.3542C60.5063 14.201 60.8894 14.1244 61.4065 14.1244C61.9619 14.1244 62.3545 14.201 62.5843 14.3542C62.8333 14.5074 62.9865 14.7181 63.044 14.9862C63.1014 15.2543 63.1302 15.5512 63.1302 15.8768V21.5649C63.1302 22.2544 63.2451 22.8481 63.4749 23.3461C63.7239 23.844 64.0782 24.2366 64.5378 24.5239C64.9975 24.792 65.5625 24.9261 66.2328 24.9261C66.9223 24.9261 67.5064 24.792 67.9852 24.5239C68.4832 24.2366 68.8662 23.844 69.1343 23.3461C69.4024 22.829 69.5365 22.2352 69.5365 21.5649V15.8193C69.5365 15.4937 69.5652 15.2065 69.6227 14.9575C69.6802 14.6894 69.8334 14.4883 70.0823 14.3542C70.3313 14.201 70.7239 14.1244 71.2602 14.1244C71.7964 14.1244 72.1795 14.201 72.4093 14.3542C72.6391 14.5074 72.7828 14.7181 72.8402 14.9862C72.9168 15.2543 72.9551 15.5416 72.9551 15.8481V26.6211C72.9551 26.9083 72.9168 27.1765 72.8402 27.4254C72.7828 27.6744 72.6296 27.8755 72.3806 28.0287C72.1508 28.1819 71.7677 28.2586 71.2315 28.2586C70.8484 28.2586 70.542 28.2107 70.3122 28.1149C70.1015 28.0383 69.9387 27.933 69.8238 27.7989C69.728 27.6457 69.661 27.4925 69.6227 27.3393C69.6035 27.186 69.594 27.0328 69.594 26.8796L69.8238 26.104C69.7089 26.2763 69.5365 26.487 69.3067 26.736C69.0769 26.9658 68.7896 27.2052 68.4448 27.4542C68.1193 27.684 67.7362 27.8755 67.2957 28.0287C66.8552 28.1819 66.3669 28.2586 65.8306 28.2586ZM77.4879 28.2586C76.9708 28.2586 76.5877 28.1724 76.3388 28C76.1089 27.8468 75.9653 27.6457 75.9078 27.3967C75.8504 27.1286 75.8217 26.8317 75.8217 26.5061V15.7619C75.8217 15.4554 75.8504 15.1777 75.9078 14.9288C75.9653 14.6798 76.1185 14.4883 76.3675 14.3542C76.6165 14.201 76.9995 14.1244 77.5166 14.1244C77.9763 14.1244 78.321 14.1818 78.5508 14.2967C78.7806 14.4117 78.9339 14.5553 79.0105 14.7277C79.0871 14.9 79.1254 15.0724 79.1254 15.2448C79.1445 15.4171 79.1637 15.5512 79.1828 15.647L79.0679 16.5663C79.1828 16.2598 79.3744 15.963 79.6425 15.6757C79.9106 15.3884 80.2362 15.1299 80.6192 14.9C81.0023 14.6511 81.414 14.4595 81.8545 14.3255C82.3142 14.1723 82.7834 14.0956 83.2622 14.0956C84.1624 14.0956 84.9667 14.2584 85.6754 14.584C86.384 14.9096 86.9873 15.3693 87.4852 15.963C88.0023 16.5567 88.3949 17.2653 88.6631 18.0888C88.9312 18.8932 89.0653 19.8029 89.0653 20.818V26.5349C89.0653 26.8605 89.027 27.1573 88.9504 27.4254C88.8929 27.6744 88.7493 27.8755 88.5194 28.0287C88.2896 28.1819 87.897 28.2586 87.3416 28.2586C86.8053 28.2586 86.4127 28.1724 86.1637 28C85.9148 27.8468 85.7615 27.6457 85.7041 27.3967C85.6466 27.1286 85.6179 26.8317 85.6179 26.5061V20.7893C85.6179 20.0998 85.4934 19.5061 85.2444 19.0081C85.0146 18.5102 84.6699 18.1271 84.2102 17.859C83.7697 17.5909 83.2048 17.4568 82.5153 17.4568C81.845 17.4568 81.2608 17.6005 80.7629 17.8877C80.2649 18.1559 79.8819 18.5389 79.6138 19.0369C79.3456 19.5348 79.2116 20.119 79.2116 20.7893V26.5349C79.2116 26.8605 79.1828 27.1573 79.1254 27.4254C79.0679 27.6744 78.9147 27.8755 78.6657 28.0287C78.4359 28.1819 78.0433 28.2586 77.4879 28.2586ZM97.9586 28.2586C97.0776 28.2586 96.2445 28.0766 95.4593 27.7127C94.674 27.3488 93.9846 26.8509 93.3909 26.2189C92.7971 25.5677 92.3279 24.8112 91.9832 23.9494C91.6384 23.0684 91.4661 22.1299 91.4661 21.134C91.4661 20.1764 91.6384 19.2763 91.9832 18.4336C92.3279 17.5717 92.7971 16.8248 93.3909 16.1928C94.0037 15.5416 94.7028 15.0341 95.488 14.6702C96.2732 14.3063 97.0968 14.1244 97.9586 14.1244C98.8779 14.1244 99.7014 14.3063 100.429 14.6702C101.157 15.0341 101.77 15.5416 102.268 16.1928C102.785 16.8248 103.178 17.5717 103.446 18.4336C103.714 19.2763 103.857 20.186 103.877 21.1627C103.877 22.1395 103.743 23.0588 103.474 23.9206C103.225 24.7633 102.842 25.5102 102.325 26.1614C101.827 26.8126 101.205 27.3297 100.458 27.7127C99.7302 28.0766 98.8971 28.2586 97.9586 28.2586ZM98.4183 24.8974C99.0886 24.8974 99.6823 24.7442 100.199 24.4377C100.736 24.1121 101.157 23.6716 101.463 23.1162C101.789 22.5608 101.952 21.9288 101.952 21.2202C101.952 20.4924 101.789 19.8508 101.463 19.2954C101.157 18.74 100.736 18.2995 100.199 17.9739C99.6823 17.6483 99.0886 17.4856 98.4183 17.4856C97.7479 17.4856 97.1446 17.6483 96.6084 17.9739C96.0721 18.2804 95.6412 18.7209 95.3156 19.2954C95.0092 19.8508 94.856 20.4924 94.856 21.2202C94.856 21.9288 95.0092 22.5608 95.3156 23.1162C95.6412 23.6716 96.0721 24.1121 96.6084 24.4377C97.1638 24.7442 97.7671 24.8974 98.4183 24.8974ZM103.733 28.2586C103.197 28.2586 102.804 28.1724 102.555 28C102.306 27.8085 102.143 27.5116 102.067 27.1094V9.41298C102.067 9.0874 102.086 8.80012 102.124 8.55114C102.182 8.28301 102.325 8.07234 102.555 7.91912C102.804 7.74676 103.187 7.66057 103.704 7.66057C104.26 7.66057 104.652 7.73718 104.882 7.8904C105.112 8.04361 105.256 8.25429 105.313 8.52241C105.39 8.77139 105.428 9.05867 105.428 9.38425V26.5061C105.428 26.8317 105.399 27.1286 105.342 27.3967C105.284 27.6648 105.131 27.8755 104.882 28.0287C104.652 28.1819 104.269 28.2586 103.733 28.2586ZM113.334 28.2873C112.625 28.2873 111.993 28.2394 111.438 28.1436C110.901 28.0479 110.432 27.8851 110.03 27.6553C109.647 27.4254 109.331 27.119 109.082 26.736C108.833 26.3338 108.641 25.8454 108.507 25.2708C108.392 24.6963 108.335 24.0068 108.335 23.2024V9.35552C108.335 9.02994 108.364 8.74266 108.421 8.49369C108.498 8.22556 108.651 8.01489 108.881 7.86167C109.13 7.6893 109.522 7.60312 110.059 7.60312C110.595 7.60312 110.978 7.67973 111.208 7.83294C111.457 7.98616 111.61 8.19683 111.667 8.46496C111.744 8.71393 111.782 9.00121 111.782 9.3268V23.0588C111.782 23.4227 111.802 23.7291 111.84 23.9781C111.897 24.2079 111.983 24.3994 112.098 24.5526C112.232 24.6867 112.395 24.7825 112.587 24.8399C112.797 24.8974 113.046 24.9261 113.334 24.9261C113.583 24.9261 113.803 24.9548 113.994 25.0123C114.205 25.0697 114.368 25.2134 114.483 25.4432C114.617 25.673 114.684 26.0465 114.684 26.5636C114.684 27.0999 114.617 27.4925 114.483 27.7414C114.368 27.9904 114.205 28.1436 113.994 28.2011C113.784 28.2586 113.564 28.2873 113.334 28.2873ZM123.59 28.4596C122.345 28.4596 121.254 28.2586 120.315 27.8564C119.396 27.4542 118.62 26.9083 117.988 26.2189C117.375 25.5102 116.906 24.725 116.58 23.8632C116.274 22.9822 116.121 22.0725 116.121 21.134C116.121 19.7551 116.437 18.5293 117.069 17.4568C117.701 16.3843 118.572 15.5416 119.683 14.9288C120.813 14.3159 122.106 14.0095 123.561 14.0095C124.596 14.0095 125.505 14.1723 126.29 14.4978C127.076 14.8234 127.727 15.2543 128.244 15.7906C128.78 16.3077 129.182 16.8823 129.451 17.5143C129.738 18.1463 129.881 18.7592 129.881 19.3529C129.881 20.3679 129.633 21.1053 129.135 21.5649C128.656 22.0246 128.052 22.2544 127.325 22.2544H119.74C119.76 22.9056 119.961 23.4706 120.344 23.9494C120.746 24.4282 121.244 24.8016 121.838 25.0697C122.451 25.3187 123.073 25.4432 123.705 25.4432C124.184 25.4432 124.605 25.4145 124.969 25.357C125.352 25.2996 125.678 25.2325 125.946 25.1559C126.214 25.0602 126.444 24.9644 126.635 24.8686C126.846 24.7729 127.037 24.6867 127.21 24.6101C127.382 24.5335 127.545 24.4856 127.698 24.4665C127.909 24.4473 128.119 24.4952 128.33 24.6101C128.541 24.725 128.713 24.9261 128.847 25.2134C128.962 25.4049 129.039 25.5868 129.077 25.7592C129.135 25.9124 129.163 26.0656 129.163 26.2189C129.163 26.6019 128.933 26.9658 128.474 27.3105C128.014 27.6361 127.363 27.9042 126.52 28.1149C125.697 28.3447 124.72 28.4596 123.59 28.4596ZM119.74 20.2147H125.63C125.955 20.2147 126.204 20.1668 126.377 20.0711C126.549 19.9562 126.635 19.7263 126.635 19.3816C126.635 18.9411 126.501 18.5485 126.233 18.2038C125.965 17.8399 125.601 17.5622 125.141 17.3706C124.682 17.16 124.145 17.0546 123.533 17.0546C122.824 17.0546 122.182 17.1983 121.608 17.4856C121.033 17.7537 120.574 18.1271 120.229 18.6059C119.903 19.0847 119.74 19.621 119.74 20.2147Z" fill="white"/>
</g>
<defs>
<linearGradient id="paint0_linear_1_1016" x1="6.93625" y1="10.7317" x2="13.4274" y2="16.2732" gradientUnits="userSpaceOnUse">
<stop stop-color="#C4A8FF"/>
<stop offset="1" stop-color="#7152B3"/>
</linearGradient>
<clipPath id="clip0_1_1016">
<rect width="135.419" height="35.956" fill="white" transform="translate(0.581543)"/>
</clipPath>
</defs>
</svg>
