<svg width="204" height="190" viewBox="0 0 204 190" fill="none" xmlns="http://www.w3.org/2000/svg">
<path d="M455.396 59.4943C444.564 47.513 413.611 18.1234 372.365 10.629C320.654 1.23345 287.543 20.3865 266.736 32.3485C245.929 44.3105 211.367 70.5841 211.373 117.593C211.379 164.601 240.482 162.317 248.985 157.546C257.487 152.775 271.034 129.407 250.154 107.011C229.274 84.6154 212.198 83.304 199.617 82.3376C187.035 81.3713 167.61 87.1114 154.615 103.289C141.621 119.467 134.365 143.318 140.242 149.194C146.118 155.069 156.142 154.031 159.044 139.79C161.946 125.549 145.837 111.655 139.753 108.476C133.669 105.297 112.998 91.957 81.3373 103.989C49.6771 116.022 15.5306 148.655 8.00004 187.853" stroke="#ADE1FF" stroke-width="16"/>
</svg>
