<svg width="197" height="249" viewBox="0 0 197 249" fill="none" xmlns="http://www.w3.org/2000/svg">
<path d="M163.082 93.7079L169.62 98.3186L163.082 93.7079ZM-225.545 229.329C-229.181 226.819 -230.094 221.837 -227.584 218.201C-225.074 214.565 -220.091 213.652 -216.455 216.162L-225.545 229.329ZM196.034 0.319686C196.732 17.0198 195.323 61.8729 169.62 98.3186L156.545 89.0972C179.164 57.0248 180.699 16.563 180.048 0.987708L196.034 0.319686ZM169.62 98.3186C137.605 143.714 98.1327 153.857 74.5464 160.007L70.5097 144.525C93.371 138.564 127.978 129.602 156.545 89.0972L169.62 98.3186ZM74.5464 160.007C50.627 166.243 3.68896 172.632 -32.4173 135.892L-21.0056 124.677C8.78745 154.993 47.9814 150.398 70.5097 144.525L74.5464 160.007ZM-32.4173 135.892C-49.9424 118.059 -54.6412 102.123 -50.8766 89.0307C-47.328 76.6897 -36.912 69.5867 -29.9953 67.7062L-25.7975 83.1457C-28.2888 83.823 -33.7552 87.3854 -35.4996 93.4522C-37.0279 98.7672 -36.4303 108.982 -21.0056 124.677L-32.4173 135.892ZM-29.9953 67.7062C-22.5986 65.6951 -11.3535 67.6485 -2.04213 73.9836C7.86378 80.7231 15.8871 92.5451 16.36 110.433L0.365562 110.856C0.0292779 98.1358 -5.37299 91.0694 -11.0423 87.2122C-17.3062 82.9505 -23.7861 82.5988 -25.7975 83.1457L-29.9953 67.7062ZM16.36 110.433C16.7927 126.801 13.9985 138.907 9.68647 148.382C5.4061 157.788 -0.193121 164.159 -4.35267 168.927L-16.4097 158.409C-12.274 153.668 -8.09666 148.831 -4.87653 141.755C-1.68813 134.749 0.742042 125.097 0.365562 110.856L16.36 110.433ZM-4.35267 168.927C-14.2556 180.279 -34.6786 190.977 -58.0974 188.218L-56.2253 172.328C-38.4278 174.424 -23.0974 166.075 -16.4097 158.409L-4.35267 168.927ZM-58.0974 188.218C-69.4572 186.879 -81.0455 182.965 -89.9197 178.194C-94.3469 175.814 -98.4173 173.051 -101.498 170.022C-104.293 167.275 -107.638 162.971 -107.591 157.543L-91.5916 157.682C-91.5806 156.409 -92.216 156.711 -90.282 158.612C-88.6341 160.232 -85.9566 162.159 -82.3432 164.102C-75.1364 167.977 -65.4734 171.238 -56.2253 172.328L-58.0974 188.218ZM-107.591 157.543C-107.534 150.991 -104.311 144.097 -97.4131 140.939C-90.4736 137.763 -82.4703 139.55 -75.1196 144.504L-84.0608 157.772C-88.7627 154.604 -90.7239 155.474 -90.7537 155.487C-90.8248 155.52 -91.5763 155.924 -91.5916 157.682L-107.591 157.543ZM-75.1196 144.504C-66.1989 150.515 -63.1377 160.753 -62.2328 168.763C-61.3125 176.91 -62.3448 184.998 -63.7835 189.452L-79.0089 184.534C-78.3377 182.456 -77.4406 176.677 -78.1317 170.56C-78.838 164.307 -80.9289 159.883 -84.0608 157.772L-75.1196 144.504ZM-63.7835 189.452C-64.713 192.329 -66.905 201.145 -73.089 210.744C-79.3639 220.485 -89.6452 230.984 -106.695 238.468L-113.126 223.817C-99.1616 217.688 -91.2409 209.377 -86.5397 202.08C-81.7477 194.641 -80.1894 188.188 -79.0089 184.534L-63.7835 189.452ZM-106.695 238.468C-139.707 252.959 -189.965 253.889 -225.545 229.329L-216.455 216.162C-186.337 236.952 -142.14 236.553 -113.126 223.817L-106.695 238.468Z" fill="#32FFF5"/>
</svg>
