<svg width="71" height="190" viewBox="0 0 71 190" fill="none" xmlns="http://www.w3.org/2000/svg">
<path d="M455.424 59.4943C444.592 47.513 413.64 18.1234 372.393 10.629C320.682 1.23345 287.571 20.3865 266.765 32.3485C245.958 44.3105 211.396 70.5841 211.401 117.593C211.407 164.601 240.51 162.317 249.013 157.546C257.515 152.775 271.062 129.407 250.182 107.011C229.302 84.6154 212.227 83.304 199.645 82.3376C187.063 81.3713 167.638 87.1114 154.644 103.289C141.649 119.467 134.393 143.318 140.27 149.194C146.147 155.069 156.171 154.031 159.072 139.79C161.974 125.549 145.865 111.655 139.781 108.476C133.697 105.297 113.026 91.957 81.3656 103.989C49.7054 116.022 15.5589 148.655 8.02836 187.853" stroke="#3CC8DD" stroke-width="16"/>
</svg>
