<svg width="20" height="20" viewBox="0 0 20 20" fill="none" xmlns="http://www.w3.org/2000/svg">
<mask id="mask0_1182_1304" style="mask-type:alpha" maskUnits="userSpaceOnUse" x="0" y="0" width="20" height="20">
<rect width="20" height="20" fill="#D9D9D9"/>
</mask>
<g mask="url(#mask0_1182_1304)">
<path d="M3.77083 15.9583C2.72917 15.3194 1.92361 14.4722 1.35417 13.4167C0.784722 12.3611 0.5 11.2222 0.5 10C0.5 8.77778 0.791667 7.64236 1.375 6.59375C1.95833 5.54514 2.77083 4.70139 3.8125 4.0625C4.07639 3.90972 4.34028 3.89931 4.60417 4.03125C4.86806 4.16319 5 4.375 5 4.66667C5 4.81944 4.96181 4.95486 4.88542 5.07292C4.80903 5.19097 4.70796 5.2823 4.58221 5.3469C3.7774 5.83785 3.14583 6.49653 2.6875 7.32292C2.22917 8.14931 2 9.04197 2 10.0009C2 10.9598 2.22917 11.8453 2.6875 12.6571C3.14583 13.469 3.77778 14.1319 4.58333 14.6458C4.70833 14.7292 4.80903 14.8299 4.88542 14.9479C4.96181 15.066 5 15.2014 5 15.3542C5 15.6458 4.86458 15.8611 4.59375 16C4.32292 16.1389 4.04861 16.125 3.77083 15.9583ZM12.4862 17C11.5187 17 10.6124 16.816 9.76746 16.4479C8.92249 16.0799 8.18506 15.5797 7.55519 14.9475C6.92533 14.3152 6.42533 13.5722 6.05519 12.7183C5.68506 11.8644 5.5 10.9549 5.5 9.98958C5.5 9.02431 5.68472 8.11713 6.05417 7.26806C6.42361 6.41898 6.92269 5.68009 7.5514 5.0514C8.18009 4.42269 8.91898 3.92361 9.76806 3.55417C10.6171 3.18472 11.5278 3 12.5 3C13.4722 3 14.3829 3.18472 15.2319 3.55417C16.081 3.92361 16.8199 4.42269 17.4486 5.0514C18.0773 5.68009 18.5764 6.41898 18.9458 7.26806C19.3153 8.11713 19.5 9.02778 19.5 10C19.5 10.9722 19.3146 11.8829 18.9438 12.7319C18.5729 13.581 18.072 14.3199 17.4409 14.9486C16.8098 15.5773 16.0682 16.0764 15.2159 16.4458C14.3636 16.8153 13.4537 17 12.4862 17ZM12.4956 13C12.7069 13 12.8845 12.9281 13.0286 12.7844C13.1727 12.6406 13.2448 12.4625 13.2448 12.25V10.75H14.7483C14.9613 10.75 15.1398 10.6781 15.2839 10.5344C15.428 10.3906 15.5 10.2125 15.5 10C15.5 9.7875 15.428 9.60938 15.2839 9.46563C15.1398 9.32188 14.9613 9.25 14.7483 9.25H13.2448V7.75C13.2448 7.5375 13.1727 7.35938 13.0286 7.21562C12.8845 7.07187 12.7067 7 12.4951 7C12.2835 7 12.1062 7.07187 11.9631 7.21562C11.8199 7.35938 11.7484 7.5375 11.7484 7.75V9.25H10.2549C10.0433 9.25 9.86458 9.32145 9.71875 9.46435C9.57292 9.60727 9.5 9.78435 9.5 9.9956C9.5 10.2069 9.57188 10.3844 9.71563 10.5281C9.85938 10.6719 10.0375 10.7438 10.25 10.7438H11.75V12.2438C11.75 12.4563 11.8215 12.6354 11.9644 12.7812C12.1073 12.9271 12.2844 13 12.4956 13Z" fill="#6F27FF"/>
</g>
</svg>
