<svg width="14" height="14" viewBox="0 0 14 14" fill="none" xmlns="http://www.w3.org/2000/svg">
<path fill-rule="evenodd" clip-rule="evenodd" d="M7 0C3.13647 0 0 3.13647 0 7C0 10.8635 3.13647 14 7 14C10.8635 14 14 10.8635 14 7C14 3.13647 10.8635 0 7 0ZM6.71393 0.939867C3.5056 1.0892 0.944533 3.73567 0.933333 6.97853C1.17787 6.95987 1.43873 6.92253 1.68933 6.92253C2.0314 6.92207 2.3562 6.98274 2.6348 7.1526C2.8756 7.2996 3.04594 7.5012 3.1976 7.72147C3.33107 7.91513 3.43233 8.1382 3.65773 8.267C3.9312 8.42286 4.31247 8.50593 4.62187 8.66833C4.93034 8.83027 5.18093 9.05473 5.31533 9.38653C5.44507 9.70807 5.3998 10.0207 5.24393 10.3007C5.0708 10.6129 4.73993 10.8794 4.46133 11.0297C3.84347 11.3629 3.27926 11.3829 2.70806 11.2859C3.80613 12.3858 5.3242 13.0667 7 13.0667C10.2965 13.0667 12.9827 10.4314 13.0648 7.154C11.9383 7.29587 10.7151 7.1106 9.93673 6.19967C9.71507 5.94113 9.56713 5.61027 9.401 5.2976C9.29459 5.09787 9.18633 4.90047 8.98286 4.79173C8.56753 4.57007 8.0374 4.5038 7.5586 4.35633C6.9202 4.1594 6.36393 3.843 6.07087 3.1542C5.85107 2.6362 6.00973 2.18167 6.286 1.74813C6.39613 1.57547 6.5254 1.407 6.62153 1.23293C6.6738 1.13913 6.71953 1.04347 6.71393 0.939867ZM11.0283 8.43033C10.8766 8.27867 10.64 8.17647 10.3367 8.141C9.91993 8.09247 9.3226 8.17273 8.83586 8.10693C8.6758 8.085 8.41586 8.04813 8.20446 8.07707C8.04533 8.099 7.90534 8.15407 7.79754 8.2362C7.54461 8.428 7.399 8.69027 7.3136 8.99173C7.15493 9.5522 7.0854 10.3119 7.50913 10.7931C7.7336 11.0479 8.10133 11.1599 8.42193 11.1925C9.23207 11.2751 10.1869 11.2691 10.857 10.7268C11.1785 10.4669 11.3573 10.0119 11.3778 9.55827C11.3988 9.09253 11.2467 8.6492 11.0283 8.43033ZM1.78033 10.0921C2.1112 10.1841 2.42574 10.2867 2.737 10.3511C3.15467 10.4379 3.56673 10.4515 4.01846 10.2083C4.14213 10.1416 4.29053 10.0371 4.389 9.90687C4.42867 9.8546 4.4758 9.80047 4.45013 9.73653C4.38386 9.57227 4.221 9.5032 4.05907 9.43367C3.7646 9.30766 3.44026 9.2176 3.1948 9.0776C2.93766 8.9306 2.758 8.7276 2.6026 8.50686C2.46353 8.309 2.36507 8.08127 2.14854 7.9492C1.9698 7.84 1.74767 7.84793 1.52507 7.861C1.34914 7.87127 1.1718 7.8904 1.00053 7.9044C1.1186 8.69353 1.3888 9.4332 1.78033 10.0921ZM8.33234 9.00527C8.39347 9.00807 8.62353 9.01973 8.71079 9.03187C9.08039 9.0818 9.51066 9.05613 9.88773 9.05473C10.0105 9.05427 10.1257 9.05613 10.2284 9.06827C10.2797 9.07433 10.3563 9.09487 10.3777 9.10093C10.4482 9.18587 10.4529 9.35293 10.4454 9.51627C10.437 9.6992 10.3997 9.89613 10.2699 10.0011C9.79066 10.3889 9.0958 10.3231 8.5162 10.2639C8.41353 10.2536 8.28147 10.2578 8.20961 10.1761C8.1256 10.0809 8.11207 9.95307 8.11253 9.82567C8.11347 9.62593 8.16246 9.42013 8.21193 9.2456C8.23713 9.15553 8.267 9.0692 8.33234 9.00527ZM7.6538 0.968332C7.65007 1.25673 7.53713 1.52833 7.37519 1.7934C7.26553 1.97213 7.13206 2.14713 7.02566 2.32727C6.94026 2.47193 6.8572 2.61753 6.93 2.78927C7.10267 3.19573 7.45687 3.34834 7.83347 3.46453C8.36967 3.62973 8.95767 3.72027 9.42247 3.96853C9.7944 4.16733 10.0305 4.49447 10.2247 4.85893C10.3586 5.11093 10.4673 5.3844 10.6461 5.59347C11.2313 6.2776 12.1679 6.3476 13.0172 6.22067C12.6611 3.45333 10.4379 1.267 7.6538 0.968332Z" fill="#999999"/>
</svg>
