<svg width="20" height="21" viewBox="0 0 20 21" fill="none" xmlns="http://www.w3.org/2000/svg">
<g opacity="0.27">
<mask id="mask0_3214_4052" style="mask-type:alpha" maskUnits="userSpaceOnUse" x="0" y="0" width="20" height="21">
<rect y="0.779541" width="20" height="20" fill="#D9D9D9"/>
</mask>
<g mask="url(#mask0_3214_4052)">
<path d="M2.52103 17.1961L5.66686 8.32113C5.72242 8.16835 5.816 8.04682 5.94761 7.95654C6.07921 7.86627 6.22021 7.82113 6.37061 7.82113C6.47089 7.82113 6.56478 7.83849 6.65228 7.87321C6.73978 7.90793 6.82103 7.96002 6.89603 8.02946L12.6669 13.7795C12.7363 13.8545 12.7884 13.9357 12.8231 14.0232C12.8578 14.1107 12.8752 14.2045 12.8752 14.3045C12.8752 14.4545 12.8301 14.5954 12.7398 14.7274C12.6495 14.8593 12.528 14.9531 12.3752 15.0086L3.47936 18.1545C3.32658 18.21 3.18399 18.2167 3.05159 18.1746C2.91917 18.1325 2.80482 18.0633 2.70853 17.967C2.61224 17.8707 2.54302 17.7563 2.50088 17.6239C2.45876 17.4915 2.46547 17.3489 2.52103 17.1961ZM19.0002 6.65446C18.8891 6.76557 18.771 6.82113 18.646 6.82113C18.521 6.82113 18.403 6.76557 18.2919 6.65446L17.9377 6.30029C17.746 6.10585 17.5064 6.00863 17.2189 6.00863C16.9314 6.00863 16.6919 6.10585 16.5002 6.30029L12.271 10.5503C12.1688 10.6475 12.0494 10.6961 11.9131 10.6961C11.7767 10.6961 11.6599 10.6475 11.5627 10.5503C11.4655 10.4531 11.4169 10.3363 11.4169 10.1999C11.4169 10.0636 11.4655 9.94424 11.5627 9.84196L15.7919 5.59196C16.1817 5.20307 16.6506 5.00863 17.1988 5.00863C17.747 5.00863 18.2224 5.20307 18.6252 5.59196L19.0002 5.96696C19.0974 6.06545 19.146 6.18034 19.146 6.31165C19.146 6.44297 19.0974 6.55724 19.0002 6.65446ZM8.70853 4.17529C8.81081 4.07807 8.93013 4.02946 9.06649 4.02946C9.20285 4.02946 9.31964 4.07807 9.41686 4.17529L9.77103 4.52946C10.146 4.92575 10.3335 5.39636 10.3335 5.94127C10.3335 6.48618 10.146 6.96002 9.77103 7.36279L9.41686 7.71696C9.31458 7.81418 9.19526 7.86279 9.0589 7.86279C8.92254 7.86279 8.80575 7.81418 8.70853 7.71696C8.61131 7.61974 8.5627 7.50295 8.5627 7.36658C8.5627 7.23022 8.61131 7.1109 8.70853 7.00863L9.0627 6.65446C9.25714 6.46288 9.35436 6.23024 9.35436 5.95654C9.35436 5.68285 9.25714 5.45021 9.0627 5.25863L8.6877 4.88363C8.59047 4.78514 8.54186 4.67024 8.54186 4.53894C8.54186 4.40762 8.59742 4.2864 8.70853 4.17529ZM11.1877 3.13363C11.2849 3.0364 11.4017 2.98779 11.5381 2.98779C11.6744 2.98779 11.7938 3.0364 11.896 3.13363L12.9585 4.19613C13.3613 4.5989 13.5627 5.07437 13.5627 5.62252C13.5627 6.17067 13.3613 6.63965 12.9585 7.02946L10.8544 9.13363C10.7559 9.23085 10.641 9.27946 10.5097 9.27946C10.3784 9.27946 10.2571 9.23085 10.146 9.13363C10.0349 9.0364 9.97936 8.91708 9.97936 8.77567C9.97936 8.63425 10.0349 8.51052 10.146 8.40446L12.2502 6.30029C12.4446 6.1114 12.5419 5.87529 12.5419 5.59196C12.5419 5.30863 12.4446 5.07252 12.2502 4.88363L11.1877 3.84196C11.0905 3.73968 11.0419 3.62036 11.0419 3.484C11.0419 3.34764 11.0905 3.23085 11.1877 3.13363ZM18.271 11.6128C18.1738 11.71 18.057 11.7586 17.9207 11.7586C17.7843 11.7586 17.665 11.71 17.5627 11.6128L16.5002 10.5503C16.3113 10.3558 16.0752 10.2586 15.7919 10.2586C15.5085 10.2586 15.2724 10.3558 15.0835 10.5503L13.6669 11.967C13.5646 12.0642 13.4453 12.1128 13.3089 12.1128C13.1725 12.1128 13.0558 12.0642 12.9585 11.967C12.8613 11.8697 12.8127 11.7529 12.8127 11.6166C12.8127 11.4802 12.8613 11.3609 12.9585 11.2586L14.3752 9.84196C14.778 9.46696 15.2537 9.27599 15.8023 9.26904C16.3509 9.2621 16.8196 9.45307 17.2085 9.84196L18.271 10.9045C18.3683 11.0067 18.4169 11.1261 18.4169 11.2624C18.4169 11.3988 18.3683 11.5156 18.271 11.6128Z" fill="#1C1B1F"/>
</g>
</g>
</svg>
