<svg width="15" height="17" viewBox="0 0 15 17" fill="none" xmlns="http://www.w3.org/2000/svg">
<path d="M9.50469 13.1499C8.94601 13.1499 8.47222 12.957 8.08333 12.5713C7.69444 12.1855 7.5 11.7133 7.5 11.1546C7.5 10.5959 7.69288 10.1221 8.07865 9.73324C8.4644 9.34435 8.93662 9.1499 9.49531 9.1499C10.054 9.1499 10.5278 9.34278 10.9167 9.72855C11.3056 10.1143 11.5 10.5865 11.5 11.1452C11.5 11.7039 11.3071 12.1777 10.9214 12.5666C10.5356 12.9555 10.0634 13.1499 9.50469 13.1499ZM2 16.1499C1.5875 16.1499 1.23437 16.0006 0.940625 15.702C0.646875 15.4034 0.5 15.0527 0.5 14.6499V3.6499C0.5 3.24712 0.646875 2.89643 0.940625 2.59782C1.23437 2.29921 1.5875 2.1499 2 2.1499H3.5V0.149902H5V2.1499H10V0.149902H11.5V2.1499H13C13.4125 2.1499 13.7656 2.29921 14.0594 2.59782C14.3531 2.89643 14.5 3.24712 14.5 3.6499V14.6499C14.5 15.0527 14.3531 15.4034 14.0594 15.702C13.7656 16.0006 13.4125 16.1499 13 16.1499H2ZM2 14.6499H13V7.1499H2V14.6499ZM2 5.6499H13V3.6499H2V5.6499Z" fill="#1C1B1F"/>
</svg>
