<svg width="163" height="41" viewBox="0 0 163 41" fill="none" xmlns="http://www.w3.org/2000/svg">
<g clip-path="url(#clip0_174_1025)">
<path d="M38.3028 25.4884C33.862 34.9764 20.5602 43.3628 11.0722 38.922C1.58417 34.4811 -2.67881 17.0976 1.76203 7.60957C6.20288 -1.87844 17.6659 0.12202 27.1539 4.56287C38.9458 10.0821 42.7437 16.0004 38.3028 25.4884Z" fill="#6F27FF"/>
<path d="M12.1101 15.1494C10.1338 13.397 8.81044 11.2771 7.93097 10.3879L7.9258 13.7087C7.92166 16.3756 10.124 18.5175 12.7897 18.4391L17.0712 18.3131C15.6841 17.6929 14.5072 17.2751 12.1101 15.1494Z" fill="url(#paint0_linear_174_1025)"/>
<path d="M26.3359 14.0172L12.4406 13.9643L15.401 16.3026C16.5799 17.2338 18.045 17.7276 19.547 17.7001L31.7918 17.4757L31.1965 16.6009C30.1012 14.9911 28.283 14.0246 26.3359 14.0172Z" fill="white"/>
<path d="M24.3246 18.5766L21.5571 18.6454C20.5382 18.6707 19.6044 19.2196 19.0867 20.0975L14.1847 28.4101L14.9644 28.4132C17.0277 28.4216 18.9458 27.3526 20.024 25.5934L24.3246 18.5766Z" fill="white"/>
<path d="M22.9472 12.9304L20.1772 12.9165C19.1219 12.9112 18.1043 12.5233 17.3133 11.8248L19.619 11.8019C20.8039 11.7902 21.9587 12.1747 22.9001 12.8943L22.9472 12.9304Z" fill="#9868FF"/>
<path d="M60.515 33.336C59.4174 33.336 58.4766 33.224 57.6926 33C56.9086 32.776 56.2702 32.4288 55.7774 31.9584C55.2846 31.488 54.915 30.8832 54.6686 30.144C54.4446 29.3824 54.3326 28.4864 54.3326 27.456V13.2096C54.3326 12.8064 54.3662 12.4592 54.4334 12.168C54.523 11.8768 54.7022 11.6528 54.971 11.496C55.2622 11.3168 55.7102 11.2272 56.315 11.2272C56.9422 11.2272 57.3902 11.3168 57.659 11.496C57.9502 11.6752 58.1294 11.9216 58.1966 12.2352C58.2862 12.5264 58.331 12.8512 58.331 13.2096V27.3216C58.331 27.792 58.3646 28.1728 58.4318 28.464C58.5214 28.7552 58.6446 28.9792 58.8014 29.136C58.9806 29.2704 59.2046 29.3712 59.4734 29.4384C59.7646 29.4832 60.1118 29.5056 60.515 29.5056C60.9406 29.5056 61.299 29.5392 61.5902 29.6064C61.9038 29.6736 62.139 29.8416 62.2958 30.1104C62.4526 30.3568 62.531 30.7712 62.531 31.3536C62.531 31.9808 62.4302 32.44 62.2286 32.7312C62.0494 33 61.803 33.168 61.4894 33.2352C61.1982 33.3024 60.8734 33.336 60.515 33.336ZM52.955 17.1072L56.4158 17.1408L61.0526 17.0064C61.4334 17.0064 61.7694 17.0512 62.0606 17.1408C62.3742 17.208 62.6206 17.3872 62.7998 17.6784C62.979 17.9472 63.0686 18.3952 63.0686 19.0224C63.0686 19.6048 62.979 20.0416 62.7998 20.3328C62.6206 20.624 62.3854 20.8144 62.0942 20.904C61.803 20.9712 61.467 21.0048 61.0862 21.0048L56.5838 20.9376L52.8542 20.9712C52.2942 20.9488 51.9022 20.792 51.6782 20.5008C51.4766 20.1872 51.3758 19.6832 51.3758 18.9888C51.3758 18.3392 51.499 17.8688 51.7454 17.5776C52.0142 17.264 52.4174 17.1072 52.955 17.1072ZM67.556 33.336C66.9512 33.336 66.5032 33.2352 66.212 33.0336C65.9432 32.8544 65.7752 32.608 65.708 32.2944C65.6408 31.9808 65.6072 31.6336 65.6072 31.2528V18.7872C65.6072 18.384 65.6408 18.0368 65.708 17.7456C65.7752 17.432 65.9432 17.1968 66.212 17.04C66.5032 16.8608 66.9624 16.7712 67.5896 16.7712C68.1944 16.7712 68.6312 16.8496 68.9 17.0064C69.1912 17.1632 69.3704 17.3648 69.4376 17.6112C69.5272 17.8352 69.572 18.0592 69.572 18.2832L69.3032 18.888C69.4152 18.7088 69.572 18.496 69.7736 18.2496C69.9752 17.9808 70.244 17.7232 70.58 17.4768C70.916 17.208 71.3192 16.9952 71.7896 16.8384C72.26 16.6592 72.82 16.5696 73.4696 16.5696C73.7384 16.5696 74.0184 16.6032 74.3096 16.6704C74.6232 16.7152 74.9256 16.7936 75.2168 16.9056C75.5304 16.9952 75.8104 17.1184 76.0568 17.2752C76.3032 17.432 76.4936 17.6224 76.628 17.8464C76.7624 18.048 76.8296 18.2832 76.8296 18.552C76.8296 19.2688 76.6504 19.8736 76.292 20.3664C75.9336 20.8592 75.508 21.1056 75.0152 21.1056C74.6792 21.1056 74.4328 21.072 74.276 21.0048C74.1192 20.9376 73.9848 20.8592 73.8728 20.7696C73.7832 20.68 73.6376 20.6016 73.436 20.5344C73.2568 20.4672 72.9656 20.4336 72.5624 20.4336C72.2264 20.4336 71.8792 20.4896 71.5208 20.6016C71.1848 20.7136 70.8712 20.8816 70.58 21.1056C70.2888 21.3296 70.0536 21.6208 69.8744 21.9792C69.6952 22.3152 69.6056 22.7072 69.6056 23.1552V31.32C69.6056 31.7008 69.572 32.048 69.5048 32.3616C69.4376 32.6528 69.2584 32.888 68.9672 33.0672C68.676 33.2464 68.2056 33.336 67.556 33.336ZM86.3733 33.3024C85.3429 33.3024 84.3909 33.1232 83.5173 32.7648C82.6661 32.384 81.9157 31.8464 81.2661 31.152C80.6165 30.4576 80.1125 29.6288 79.7541 28.6656C79.3957 27.7024 79.2165 26.6384 79.2165 25.4736V18.7872C79.2165 18.4064 79.2501 18.0704 79.3173 17.7792C79.3845 17.4656 79.5637 17.2192 79.8549 17.04C80.1461 16.8608 80.5941 16.7712 81.1989 16.7712C81.8485 16.7712 82.3077 16.8608 82.5765 17.04C82.8677 17.2192 83.0469 17.4656 83.1141 17.7792C83.1813 18.0928 83.2149 18.44 83.2149 18.8208V25.4736C83.2149 26.28 83.3493 26.9744 83.6181 27.5568C83.9093 28.1392 84.3237 28.5984 84.8613 28.9344C85.3989 29.248 86.0597 29.4048 86.8437 29.4048C87.6501 29.4048 88.3333 29.248 88.8933 28.9344C89.4757 28.5984 89.9237 28.1392 90.2373 27.5568C90.5509 26.952 90.7077 26.2576 90.7077 25.4736V18.7536C90.7077 18.3728 90.7413 18.0368 90.8085 17.7456C90.8757 17.432 91.0549 17.1968 91.3461 17.04C91.6373 16.8608 92.0965 16.7712 92.7237 16.7712C93.3509 16.7712 93.7989 16.8608 94.0677 17.04C94.3365 17.2192 94.5045 17.4656 94.5717 17.7792C94.6613 18.0928 94.7061 18.4288 94.7061 18.7872V31.3872C94.7061 31.7232 94.6613 32.0368 94.5717 32.328C94.5045 32.6192 94.3253 32.8544 94.0341 33.0336C93.7653 33.2128 93.3173 33.3024 92.6901 33.3024C92.2421 33.3024 91.8837 33.2464 91.6149 33.1344C91.3685 33.0448 91.1781 32.9216 91.0437 32.7648C90.9317 32.5856 90.8533 32.4064 90.8085 32.2272C90.7861 32.048 90.7749 31.8688 90.7749 31.6896L91.0437 30.7824C90.9093 30.984 90.7077 31.2304 90.4389 31.5216C90.1701 31.7904 89.8341 32.0704 89.4309 32.3616C89.0501 32.6304 88.6021 32.8544 88.0869 33.0336C87.5717 33.2128 87.0005 33.3024 86.3733 33.3024ZM100.008 33.3024C99.4028 33.3024 98.9548 33.2016 98.6636 33C98.3948 32.8208 98.2268 32.5856 98.1596 32.2944C98.0924 31.9808 98.0588 31.6336 98.0588 31.2528V18.6864C98.0588 18.328 98.0924 18.0032 98.1596 17.712C98.2268 17.4208 98.406 17.1968 98.6972 17.04C98.9884 16.8608 99.4364 16.7712 100.041 16.7712C100.579 16.7712 100.982 16.8384 101.251 16.9728C101.52 17.1072 101.699 17.2752 101.788 17.4768C101.878 17.6784 101.923 17.88 101.923 18.0816C101.945 18.2832 101.968 18.44 101.99 18.552L101.856 19.6272C101.99 19.2688 102.214 18.9216 102.528 18.5856C102.841 18.2496 103.222 17.9472 103.67 17.6784C104.118 17.3872 104.6 17.1632 105.115 17.0064C105.652 16.8272 106.201 16.7376 106.761 16.7376C107.814 16.7376 108.755 16.928 109.584 17.3088C110.412 17.6896 111.118 18.2272 111.7 18.9216C112.305 19.616 112.764 20.4448 113.078 21.408C113.392 22.3488 113.548 23.4128 113.548 24.6V31.2864C113.548 31.6672 113.504 32.0144 113.414 32.328C113.347 32.6192 113.179 32.8544 112.91 33.0336C112.641 33.2128 112.182 33.3024 111.532 33.3024C110.905 33.3024 110.446 33.2016 110.155 33C109.864 32.8208 109.684 32.5856 109.617 32.2944C109.55 31.9808 109.516 31.6336 109.516 31.2528V24.5664C109.516 23.76 109.371 23.0656 109.08 22.4832C108.811 21.9008 108.408 21.4528 107.87 21.1392C107.355 20.8256 106.694 20.6688 105.888 20.6688C105.104 20.6688 104.42 20.8368 103.838 21.1728C103.256 21.4864 102.808 21.9344 102.494 22.5168C102.18 23.0992 102.024 23.7824 102.024 24.5664V31.2864C102.024 31.6672 101.99 32.0144 101.923 32.328C101.856 32.6192 101.676 32.8544 101.385 33.0336C101.116 33.2128 100.657 33.3024 100.008 33.3024ZM123.95 33.3024C122.92 33.3024 121.945 33.0896 121.027 32.664C120.108 32.2384 119.302 31.656 118.608 30.9168C117.913 30.1552 117.364 29.2704 116.961 28.2624C116.558 27.232 116.356 26.1344 116.356 24.9696C116.356 23.8496 116.558 22.7968 116.961 21.8112C117.364 20.8032 117.913 19.9296 118.608 19.1904C119.324 18.4288 120.142 17.8352 121.06 17.4096C121.979 16.984 122.942 16.7712 123.95 16.7712C125.025 16.7712 125.988 16.984 126.84 17.4096C127.691 17.8352 128.408 18.4288 128.99 19.1904C129.595 19.9296 130.054 20.8032 130.368 21.8112C130.681 22.7968 130.849 23.8608 130.872 25.0032C130.872 26.1456 130.715 27.2208 130.401 28.2288C130.11 29.2144 129.662 30.088 129.057 30.8496C128.475 31.6112 127.747 32.216 126.873 32.664C126.022 33.0896 125.048 33.3024 123.95 33.3024ZM124.488 29.3712C125.272 29.3712 125.966 29.192 126.571 28.8336C127.198 28.4528 127.691 27.9376 128.049 27.288C128.43 26.6384 128.62 25.8992 128.62 25.0704C128.62 24.2192 128.43 23.4688 128.049 22.8192C127.691 22.1696 127.198 21.6544 126.571 21.2736C125.966 20.8928 125.272 20.7024 124.488 20.7024C123.704 20.7024 122.998 20.8928 122.371 21.2736C121.744 21.632 121.24 22.1472 120.859 22.8192C120.5 23.4688 120.321 24.2192 120.321 25.0704C120.321 25.8992 120.5 26.6384 120.859 27.288C121.24 27.9376 121.744 28.4528 122.371 28.8336C123.02 29.192 123.726 29.3712 124.488 29.3712ZM130.704 33.3024C130.076 33.3024 129.617 33.2016 129.326 33C129.035 32.776 128.844 32.4288 128.755 31.9584V11.2608C128.755 10.88 128.777 10.544 128.822 10.2528C128.889 9.9392 129.057 9.6928 129.326 9.5136C129.617 9.312 130.065 9.2112 130.67 9.2112C131.32 9.2112 131.779 9.3008 132.048 9.48C132.316 9.6592 132.484 9.9056 132.552 10.2192C132.641 10.5104 132.686 10.8464 132.686 11.2272V31.2528C132.686 31.6336 132.652 31.9808 132.585 32.2944C132.518 32.608 132.339 32.8544 132.048 33.0336C131.779 33.2128 131.331 33.3024 130.704 33.3024ZM141.932 33.336C141.104 33.336 140.364 33.28 139.715 33.168C139.088 33.056 138.539 32.8656 138.068 32.5968C137.62 32.328 137.251 31.9696 136.96 31.5216C136.668 31.0512 136.444 30.48 136.288 29.808C136.153 29.136 136.086 28.3296 136.086 27.3888V11.1936C136.086 10.8128 136.12 10.4768 136.187 10.1856C136.276 9.872 136.456 9.6256 136.724 9.4464C137.016 9.2448 137.475 9.144 138.102 9.144C138.729 9.144 139.177 9.2336 139.446 9.4128C139.737 9.592 139.916 9.8384 139.984 10.152C140.073 10.4432 140.118 10.7792 140.118 11.16V27.2208C140.118 27.6464 140.14 28.0048 140.185 28.296C140.252 28.5648 140.353 28.7888 140.488 28.968C140.644 29.1248 140.835 29.2368 141.059 29.304C141.305 29.3712 141.596 29.4048 141.932 29.4048C142.224 29.4048 142.481 29.4384 142.705 29.5056C142.952 29.5728 143.142 29.7408 143.276 30.0096C143.433 30.2784 143.512 30.7152 143.512 31.32C143.512 31.9472 143.433 32.4064 143.276 32.6976C143.142 32.9888 142.952 33.168 142.705 33.2352C142.459 33.3024 142.201 33.336 141.932 33.336ZM153.928 33.5376C152.472 33.5376 151.195 33.3024 150.098 32.832C149.023 32.3616 148.115 31.7232 147.376 30.9168C146.659 30.088 146.111 29.1696 145.73 28.1616C145.371 27.1312 145.192 26.0672 145.192 24.9696C145.192 23.3568 145.562 21.9232 146.301 20.6688C147.04 19.4144 148.059 18.4288 149.359 17.712C150.68 16.9952 152.192 16.6368 153.895 16.6368C155.104 16.6368 156.168 16.8272 157.087 17.208C158.005 17.5888 158.767 18.0928 159.371 18.72C159.999 19.3248 160.469 19.9968 160.783 20.736C161.119 21.4752 161.287 22.192 161.287 22.8864C161.287 24.0736 160.995 24.936 160.413 25.4736C159.853 26.0112 159.147 26.28 158.296 26.28H149.426C149.448 27.0416 149.683 27.7024 150.131 28.2624C150.602 28.8224 151.184 29.2592 151.879 29.5728C152.595 29.864 153.323 30.0096 154.063 30.0096C154.623 30.0096 155.115 29.976 155.541 29.9088C155.989 29.8416 156.37 29.7632 156.683 29.6736C156.997 29.5616 157.266 29.4496 157.49 29.3376C157.736 29.2256 157.96 29.1248 158.162 29.0352C158.363 28.9456 158.554 28.8896 158.733 28.8672C158.979 28.8448 159.226 28.9008 159.472 29.0352C159.719 29.1696 159.92 29.4048 160.077 29.7408C160.211 29.9648 160.301 30.1776 160.346 30.3792C160.413 30.5584 160.447 30.7376 160.447 30.9168C160.447 31.3648 160.178 31.7904 159.64 32.1936C159.103 32.5744 158.341 32.888 157.355 33.1344C156.392 33.4032 155.25 33.5376 153.928 33.5376ZM149.426 23.8944H156.314C156.695 23.8944 156.986 23.8384 157.187 23.7264C157.389 23.592 157.49 23.3232 157.49 22.92C157.49 22.4048 157.333 21.9456 157.019 21.5424C156.706 21.1168 156.28 20.792 155.743 20.568C155.205 20.3216 154.578 20.1984 153.861 20.1984C153.032 20.1984 152.282 20.3664 151.61 20.7024C150.938 21.016 150.4 21.4528 149.997 22.0128C149.616 22.5728 149.426 23.2 149.426 23.8944Z" fill="#6C27FF"/>
<path d="M60.515 33.336C59.4174 33.336 58.4766 33.224 57.6926 33C56.9086 32.776 56.2702 32.4288 55.7774 31.9584C55.2846 31.488 54.915 30.8832 54.6686 30.144C54.4446 29.3824 54.3326 28.4864 54.3326 27.456V13.2096C54.3326 12.8064 54.3662 12.4592 54.4334 12.168C54.523 11.8768 54.7022 11.6528 54.971 11.496C55.2622 11.3168 55.7102 11.2272 56.315 11.2272C56.9422 11.2272 57.3902 11.3168 57.659 11.496C57.9502 11.6752 58.1294 11.9216 58.1966 12.2352C58.2862 12.5264 58.331 12.8512 58.331 13.2096V27.3216C58.331 27.792 58.3646 28.1728 58.4318 28.464C58.5214 28.7552 58.6446 28.9792 58.8014 29.136C58.9806 29.2704 59.2046 29.3712 59.4734 29.4384C59.7646 29.4832 60.1118 29.5056 60.515 29.5056C60.9406 29.5056 61.299 29.5392 61.5902 29.6064C61.9038 29.6736 62.139 29.8416 62.2958 30.1104C62.4526 30.3568 62.531 30.7712 62.531 31.3536C62.531 31.9808 62.4302 32.44 62.2286 32.7312C62.0494 33 61.803 33.168 61.4894 33.2352C61.1982 33.3024 60.8734 33.336 60.515 33.336ZM52.955 17.1072L56.4158 17.1408L61.0526 17.0064C61.4334 17.0064 61.7694 17.0512 62.0606 17.1408C62.3742 17.208 62.6206 17.3872 62.7998 17.6784C62.979 17.9472 63.0686 18.3952 63.0686 19.0224C63.0686 19.6048 62.979 20.0416 62.7998 20.3328C62.6206 20.624 62.3854 20.8144 62.0942 20.904C61.803 20.9712 61.467 21.0048 61.0862 21.0048L56.5838 20.9376L52.8542 20.9712C52.2942 20.9488 51.9022 20.792 51.6782 20.5008C51.4766 20.1872 51.3758 19.6832 51.3758 18.9888C51.3758 18.3392 51.499 17.8688 51.7454 17.5776C52.0142 17.264 52.4174 17.1072 52.955 17.1072ZM67.556 33.336C66.9512 33.336 66.5032 33.2352 66.212 33.0336C65.9432 32.8544 65.7752 32.608 65.708 32.2944C65.6408 31.9808 65.6072 31.6336 65.6072 31.2528V18.7872C65.6072 18.384 65.6408 18.0368 65.708 17.7456C65.7752 17.432 65.9432 17.1968 66.212 17.04C66.5032 16.8608 66.9624 16.7712 67.5896 16.7712C68.1944 16.7712 68.6312 16.8496 68.9 17.0064C69.1912 17.1632 69.3704 17.3648 69.4376 17.6112C69.5272 17.8352 69.572 18.0592 69.572 18.2832L69.3032 18.888C69.4152 18.7088 69.572 18.496 69.7736 18.2496C69.9752 17.9808 70.244 17.7232 70.58 17.4768C70.916 17.208 71.3192 16.9952 71.7896 16.8384C72.26 16.6592 72.82 16.5696 73.4696 16.5696C73.7384 16.5696 74.0184 16.6032 74.3096 16.6704C74.6232 16.7152 74.9256 16.7936 75.2168 16.9056C75.5304 16.9952 75.8104 17.1184 76.0568 17.2752C76.3032 17.432 76.4936 17.6224 76.628 17.8464C76.7624 18.048 76.8296 18.2832 76.8296 18.552C76.8296 19.2688 76.6504 19.8736 76.292 20.3664C75.9336 20.8592 75.508 21.1056 75.0152 21.1056C74.6792 21.1056 74.4328 21.072 74.276 21.0048C74.1192 20.9376 73.9848 20.8592 73.8728 20.7696C73.7832 20.68 73.6376 20.6016 73.436 20.5344C73.2568 20.4672 72.9656 20.4336 72.5624 20.4336C72.2264 20.4336 71.8792 20.4896 71.5208 20.6016C71.1848 20.7136 70.8712 20.8816 70.58 21.1056C70.2888 21.3296 70.0536 21.6208 69.8744 21.9792C69.6952 22.3152 69.6056 22.7072 69.6056 23.1552V31.32C69.6056 31.7008 69.572 32.048 69.5048 32.3616C69.4376 32.6528 69.2584 32.888 68.9672 33.0672C68.676 33.2464 68.2056 33.336 67.556 33.336ZM86.3733 33.3024C85.3429 33.3024 84.3909 33.1232 83.5173 32.7648C82.6661 32.384 81.9157 31.8464 81.2661 31.152C80.6165 30.4576 80.1125 29.6288 79.7541 28.6656C79.3957 27.7024 79.2165 26.6384 79.2165 25.4736V18.7872C79.2165 18.4064 79.2501 18.0704 79.3173 17.7792C79.3845 17.4656 79.5637 17.2192 79.8549 17.04C80.1461 16.8608 80.5941 16.7712 81.1989 16.7712C81.8485 16.7712 82.3077 16.8608 82.5765 17.04C82.8677 17.2192 83.0469 17.4656 83.1141 17.7792C83.1813 18.0928 83.2149 18.44 83.2149 18.8208V25.4736C83.2149 26.28 83.3493 26.9744 83.6181 27.5568C83.9093 28.1392 84.3237 28.5984 84.8613 28.9344C85.3989 29.248 86.0597 29.4048 86.8437 29.4048C87.6501 29.4048 88.3333 29.248 88.8933 28.9344C89.4757 28.5984 89.9237 28.1392 90.2373 27.5568C90.5509 26.952 90.7077 26.2576 90.7077 25.4736V18.7536C90.7077 18.3728 90.7413 18.0368 90.8085 17.7456C90.8757 17.432 91.0549 17.1968 91.3461 17.04C91.6373 16.8608 92.0965 16.7712 92.7237 16.7712C93.3509 16.7712 93.7989 16.8608 94.0677 17.04C94.3365 17.2192 94.5045 17.4656 94.5717 17.7792C94.6613 18.0928 94.7061 18.4288 94.7061 18.7872V31.3872C94.7061 31.7232 94.6613 32.0368 94.5717 32.328C94.5045 32.6192 94.3253 32.8544 94.0341 33.0336C93.7653 33.2128 93.3173 33.3024 92.6901 33.3024C92.2421 33.3024 91.8837 33.2464 91.6149 33.1344C91.3685 33.0448 91.1781 32.9216 91.0437 32.7648C90.9317 32.5856 90.8533 32.4064 90.8085 32.2272C90.7861 32.048 90.7749 31.8688 90.7749 31.6896L91.0437 30.7824C90.9093 30.984 90.7077 31.2304 90.4389 31.5216C90.1701 31.7904 89.8341 32.0704 89.4309 32.3616C89.0501 32.6304 88.6021 32.8544 88.0869 33.0336C87.5717 33.2128 87.0005 33.3024 86.3733 33.3024ZM100.008 33.3024C99.4028 33.3024 98.9548 33.2016 98.6636 33C98.3948 32.8208 98.2268 32.5856 98.1596 32.2944C98.0924 31.9808 98.0588 31.6336 98.0588 31.2528V18.6864C98.0588 18.328 98.0924 18.0032 98.1596 17.712C98.2268 17.4208 98.406 17.1968 98.6972 17.04C98.9884 16.8608 99.4364 16.7712 100.041 16.7712C100.579 16.7712 100.982 16.8384 101.251 16.9728C101.52 17.1072 101.699 17.2752 101.788 17.4768C101.878 17.6784 101.923 17.88 101.923 18.0816C101.945 18.2832 101.968 18.44 101.99 18.552L101.856 19.6272C101.99 19.2688 102.214 18.9216 102.528 18.5856C102.841 18.2496 103.222 17.9472 103.67 17.6784C104.118 17.3872 104.6 17.1632 105.115 17.0064C105.652 16.8272 106.201 16.7376 106.761 16.7376C107.814 16.7376 108.755 16.928 109.584 17.3088C110.412 17.6896 111.118 18.2272 111.7 18.9216C112.305 19.616 112.764 20.4448 113.078 21.408C113.392 22.3488 113.548 23.4128 113.548 24.6V31.2864C113.548 31.6672 113.504 32.0144 113.414 32.328C113.347 32.6192 113.179 32.8544 112.91 33.0336C112.641 33.2128 112.182 33.3024 111.532 33.3024C110.905 33.3024 110.446 33.2016 110.155 33C109.864 32.8208 109.684 32.5856 109.617 32.2944C109.55 31.9808 109.516 31.6336 109.516 31.2528V24.5664C109.516 23.76 109.371 23.0656 109.08 22.4832C108.811 21.9008 108.408 21.4528 107.87 21.1392C107.355 20.8256 106.694 20.6688 105.888 20.6688C105.104 20.6688 104.42 20.8368 103.838 21.1728C103.256 21.4864 102.808 21.9344 102.494 22.5168C102.18 23.0992 102.024 23.7824 102.024 24.5664V31.2864C102.024 31.6672 101.99 32.0144 101.923 32.328C101.856 32.6192 101.676 32.8544 101.385 33.0336C101.116 33.2128 100.657 33.3024 100.008 33.3024ZM123.95 33.3024C122.92 33.3024 121.945 33.0896 121.027 32.664C120.108 32.2384 119.302 31.656 118.608 30.9168C117.913 30.1552 117.364 29.2704 116.961 28.2624C116.558 27.232 116.356 26.1344 116.356 24.9696C116.356 23.8496 116.558 22.7968 116.961 21.8112C117.364 20.8032 117.913 19.9296 118.608 19.1904C119.324 18.4288 120.142 17.8352 121.06 17.4096C121.979 16.984 122.942 16.7712 123.95 16.7712C125.025 16.7712 125.988 16.984 126.84 17.4096C127.691 17.8352 128.408 18.4288 128.99 19.1904C129.595 19.9296 130.054 20.8032 130.368 21.8112C130.681 22.7968 130.849 23.8608 130.872 25.0032C130.872 26.1456 130.715 27.2208 130.401 28.2288C130.11 29.2144 129.662 30.088 129.057 30.8496C128.475 31.6112 127.747 32.216 126.873 32.664C126.022 33.0896 125.048 33.3024 123.95 33.3024ZM124.488 29.3712C125.272 29.3712 125.966 29.192 126.571 28.8336C127.198 28.4528 127.691 27.9376 128.049 27.288C128.43 26.6384 128.62 25.8992 128.62 25.0704C128.62 24.2192 128.43 23.4688 128.049 22.8192C127.691 22.1696 127.198 21.6544 126.571 21.2736C125.966 20.8928 125.272 20.7024 124.488 20.7024C123.704 20.7024 122.998 20.8928 122.371 21.2736C121.744 21.632 121.24 22.1472 120.859 22.8192C120.5 23.4688 120.321 24.2192 120.321 25.0704C120.321 25.8992 120.5 26.6384 120.859 27.288C121.24 27.9376 121.744 28.4528 122.371 28.8336C123.02 29.192 123.726 29.3712 124.488 29.3712ZM130.704 33.3024C130.076 33.3024 129.617 33.2016 129.326 33C129.035 32.776 128.844 32.4288 128.755 31.9584V11.2608C128.755 10.88 128.777 10.544 128.822 10.2528C128.889 9.9392 129.057 9.6928 129.326 9.5136C129.617 9.312 130.065 9.2112 130.67 9.2112C131.32 9.2112 131.779 9.3008 132.048 9.48C132.316 9.6592 132.484 9.9056 132.552 10.2192C132.641 10.5104 132.686 10.8464 132.686 11.2272V31.2528C132.686 31.6336 132.652 31.9808 132.585 32.2944C132.518 32.608 132.339 32.8544 132.048 33.0336C131.779 33.2128 131.331 33.3024 130.704 33.3024ZM141.932 33.336C141.104 33.336 140.364 33.28 139.715 33.168C139.088 33.056 138.539 32.8656 138.068 32.5968C137.62 32.328 137.251 31.9696 136.96 31.5216C136.668 31.0512 136.444 30.48 136.288 29.808C136.153 29.136 136.086 28.3296 136.086 27.3888V11.1936C136.086 10.8128 136.12 10.4768 136.187 10.1856C136.276 9.872 136.456 9.6256 136.724 9.4464C137.016 9.2448 137.475 9.144 138.102 9.144C138.729 9.144 139.177 9.2336 139.446 9.4128C139.737 9.592 139.916 9.8384 139.984 10.152C140.073 10.4432 140.118 10.7792 140.118 11.16V27.2208C140.118 27.6464 140.14 28.0048 140.185 28.296C140.252 28.5648 140.353 28.7888 140.488 28.968C140.644 29.1248 140.835 29.2368 141.059 29.304C141.305 29.3712 141.596 29.4048 141.932 29.4048C142.224 29.4048 142.481 29.4384 142.705 29.5056C142.952 29.5728 143.142 29.7408 143.276 30.0096C143.433 30.2784 143.512 30.7152 143.512 31.32C143.512 31.9472 143.433 32.4064 143.276 32.6976C143.142 32.9888 142.952 33.168 142.705 33.2352C142.459 33.3024 142.201 33.336 141.932 33.336ZM153.928 33.5376C152.472 33.5376 151.195 33.3024 150.098 32.832C149.023 32.3616 148.115 31.7232 147.376 30.9168C146.659 30.088 146.111 29.1696 145.73 28.1616C145.371 27.1312 145.192 26.0672 145.192 24.9696C145.192 23.3568 145.562 21.9232 146.301 20.6688C147.04 19.4144 148.059 18.4288 149.359 17.712C150.68 16.9952 152.192 16.6368 153.895 16.6368C155.104 16.6368 156.168 16.8272 157.087 17.208C158.005 17.5888 158.767 18.0928 159.371 18.72C159.999 19.3248 160.469 19.9968 160.783 20.736C161.119 21.4752 161.287 22.192 161.287 22.8864C161.287 24.0736 160.995 24.936 160.413 25.4736C159.853 26.0112 159.147 26.28 158.296 26.28H149.426C149.448 27.0416 149.683 27.7024 150.131 28.2624C150.602 28.8224 151.184 29.2592 151.879 29.5728C152.595 29.864 153.323 30.0096 154.063 30.0096C154.623 30.0096 155.115 29.976 155.541 29.9088C155.989 29.8416 156.37 29.7632 156.683 29.6736C156.997 29.5616 157.266 29.4496 157.49 29.3376C157.736 29.2256 157.96 29.1248 158.162 29.0352C158.363 28.9456 158.554 28.8896 158.733 28.8672C158.979 28.8448 159.226 28.9008 159.472 29.0352C159.719 29.1696 159.92 29.4048 160.077 29.7408C160.211 29.9648 160.301 30.1776 160.346 30.3792C160.413 30.5584 160.447 30.7376 160.447 30.9168C160.447 31.3648 160.178 31.7904 159.64 32.1936C159.103 32.5744 158.341 32.888 157.355 33.1344C156.392 33.4032 155.25 33.5376 153.928 33.5376ZM149.426 23.8944H156.314C156.695 23.8944 156.986 23.8384 157.187 23.7264C157.389 23.592 157.49 23.3232 157.49 22.92C157.49 22.4048 157.333 21.9456 157.019 21.5424C156.706 21.1168 156.28 20.792 155.743 20.568C155.205 20.3216 154.578 20.1984 153.861 20.1984C153.032 20.1984 152.282 20.3664 151.61 20.7024C150.938 21.016 150.4 21.4528 149.997 22.0128C149.616 22.5728 149.426 23.2 149.426 23.8944Z" fill="#111111"/>
</g>
<defs>
<linearGradient id="paint0_linear_174_1025" x1="9.03906" y1="11.3161" x2="18.2723" y2="19.1985" gradientUnits="userSpaceOnUse">
<stop stop-color="#C4A8FF"/>
<stop offset="1" stop-color="#7152B3"/>
</linearGradient>
<clipPath id="clip0_174_1025">
<rect width="162.487" height="40.6875" fill="white"/>
</clipPath>
</defs>
</svg>
