<svg width="152" height="152" viewBox="0 0 152 152" fill="none" xmlns="http://www.w3.org/2000/svg">
<rect width="152" height="152" rx="10" fill="#EFEEF1"/>
<path d="M106.948 84.3798C99.4176 100.318 76.8626 114.406 60.7744 106.946C44.6862 99.4864 37.4577 70.2844 44.9878 54.3459C52.5178 38.4074 71.9549 41.7679 88.0432 49.2279C108.038 58.4994 114.478 68.4413 106.948 84.3798Z" fill="#F8F7F9"/>
<mask id="mask0_3660_4384" style="mask-type:alpha" maskUnits="userSpaceOnUse" x="64" y="64" width="24" height="24">
<rect x="64" y="64" width="24" height="24" fill="#D9D9D9"/>
</mask>
<g mask="url(#mask0_3660_4384)">
<path d="M66.75 84C66.3667 84 66.0834 83.8417 65.9 83.525C65.7167 83.2083 65.7084 82.8833 65.875 82.55L68.6 77.1C68.7667 76.7667 69.0042 76.5 69.3125 76.3C69.6209 76.1 69.9667 76 70.35 76C70.75 76 71.1167 76.1042 71.45 76.3125C71.7834 76.5208 72.025 76.8167 72.175 77.2L72.85 78.85C72.8834 78.95 72.9584 78.9958 73.075 78.9875C73.1917 78.9792 73.2667 78.925 73.3 78.825L75.45 71.65C75.6834 70.85 76.1292 70.2083 76.7875 69.725C77.4459 69.2417 78.1917 69 79.025 69C79.8417 69 80.5709 69.2375 81.2125 69.7125C81.8542 70.1875 82.3 70.8083 82.55 71.575L86.425 82.675C86.5417 83.0083 86.4959 83.3125 86.2875 83.5875C86.0792 83.8625 85.8084 84 85.475 84H66.75ZM70 74C69.1667 74 68.4584 73.7042 67.875 73.1125C67.2917 72.5208 67 71.8167 67 71C67 70.1667 67.2917 69.4583 67.875 68.875C68.4584 68.2917 69.1667 68 70 68C70.8334 68 71.5417 68.2917 72.125 68.875C72.7084 69.4583 73 70.1667 73 71C73 71.8167 72.7084 72.5208 72.125 73.1125C71.5417 73.7042 70.8334 74 70 74Z" fill="#D3CCE1"/>
</g>
</svg>
