<svg width="16" height="18" viewBox="0 0 16 18" fill="none" xmlns="http://www.w3.org/2000/svg">
<path d="M12.9999 17.4877C12.2624 17.4877 11.6357 17.2297 11.1197 16.7135C10.6037 16.1974 10.3457 15.5707 10.3457 14.8333C10.3457 14.7329 10.3526 14.6289 10.3665 14.5214C10.3804 14.4138 10.4013 14.315 10.429 14.2251L4.79814 10.9479C4.55207 11.1695 4.27515 11.3427 3.96739 11.4674C3.65963 11.5921 3.33721 11.6544 3.00014 11.6544C2.26279 11.6544 1.63605 11.3963 1.11991 10.8801C0.603772 10.3639 0.345703 9.73712 0.345703 8.99969C0.345703 8.26226 0.603772 7.63554 1.11991 7.11954C1.63605 6.60354 2.26279 6.34554 3.00014 6.34554C3.33721 6.34554 3.65963 6.40789 3.96739 6.53258C4.27515 6.65728 4.55207 6.83044 4.79814 7.05206L10.429 3.77489C10.4013 3.68491 10.3804 3.58614 10.3665 3.47858C10.3526 3.37101 10.3457 3.26703 10.3457 3.16664C10.3457 2.4293 10.6038 1.80255 11.12 1.28642C11.6362 0.770276 12.263 0.512207 13.0004 0.512207C13.7379 0.512207 14.3646 0.770304 14.8806 1.2865C15.3966 1.80269 15.6546 2.42951 15.6546 3.16694C15.6546 3.90437 15.3965 4.53108 14.8804 5.04708C14.3642 5.56308 13.7375 5.82108 13.0001 5.82108C12.6631 5.82108 12.3407 5.76039 12.0329 5.63902C11.7251 5.51764 11.4482 5.34614 11.2021 5.12452L5.57124 8.39173C5.59902 8.48171 5.61986 8.58048 5.63374 8.68804C5.64763 8.79561 5.65458 8.89959 5.65458 8.99998C5.65458 9.10037 5.64763 9.20435 5.63374 9.31192C5.61986 9.41947 5.59902 9.51824 5.57124 9.60823L11.2021 12.8754C11.4482 12.6538 11.7251 12.4823 12.0329 12.3609C12.3407 12.2396 12.6631 12.1789 13.0001 12.1789C13.7375 12.1789 14.3642 12.437 14.8804 12.9532C15.3965 13.4694 15.6546 14.0962 15.6546 14.8336C15.6546 15.571 15.3965 16.1977 14.8803 16.7137C14.3641 17.2297 13.7373 17.4877 12.9999 17.4877Z" fill="#6F27FF"/>
</svg>
