<svg width="39" height="38" viewBox="0 0 39 38" fill="none" xmlns="http://www.w3.org/2000/svg">
<g opacity="0.2">
<mask id="mask0_61_1174" style="mask-type:alpha" maskUnits="userSpaceOnUse" x="0" y="0" width="39" height="38">
<rect x="0.5" width="38" height="38" fill="#D9D9D9"/>
</mask>
<g mask="url(#mask0_61_1174)">
<path d="M9.76258 27.075C11.1084 26.0459 12.6126 25.2344 14.2751 24.6406C15.9376 24.0469 17.6792 23.75 19.5001 23.75C21.3209 23.75 23.0626 24.0469 24.7251 24.6406C26.3876 25.2344 27.8917 26.0459 29.2376 27.075C30.1612 25.9931 30.8803 24.766 31.3949 23.3938C31.9095 22.0215 32.1667 20.557 32.1667 19C32.1667 15.4903 30.9331 12.5018 28.4657 10.0344C25.9983 7.56703 23.0098 6.33335 19.5001 6.33335C15.9904 6.33335 13.0018 7.56703 10.5345 10.0344C8.0671 12.5018 6.83341 15.4903 6.83341 19C6.83341 20.557 7.09071 22.0215 7.60529 23.3938C8.11987 24.766 8.83897 25.9931 9.76258 27.075ZM19.5001 20.5834C17.9431 20.5834 16.6303 20.049 15.5615 18.9802C14.4928 17.9115 13.9584 16.5986 13.9584 15.0417C13.9584 13.4847 14.4928 12.1719 15.5615 11.1031C16.6303 10.0344 17.9431 9.50002 19.5001 9.50002C21.057 9.50002 22.3699 10.0344 23.4386 11.1031C24.5074 12.1719 25.0417 13.4847 25.0417 15.0417C25.0417 16.5986 24.5074 17.9115 23.4386 18.9802C22.3699 20.049 21.057 20.5834 19.5001 20.5834ZM19.5001 34.8334C17.3098 34.8334 15.2515 34.4177 13.3251 33.5865C11.3987 32.7552 9.723 31.6271 8.298 30.2021C6.873 28.7771 5.74487 27.1014 4.91362 25.175C4.08237 23.2486 3.66675 21.1903 3.66675 19C3.66675 16.8097 4.08237 14.7514 4.91362 12.825C5.74487 10.8986 6.873 9.22294 8.298 7.79794C9.723 6.37294 11.3987 5.24481 13.3251 4.41356C15.2515 3.58231 17.3098 3.16669 19.5001 3.16669C21.6904 3.16669 23.7487 3.58231 25.6751 4.41356C27.6015 5.24481 29.2772 6.37294 30.7022 7.79794C32.1272 9.22294 33.2553 10.8986 34.0865 12.825C34.9178 14.7514 35.3334 16.8097 35.3334 19C35.3334 21.1903 34.9178 23.2486 34.0865 25.175C33.2553 27.1014 32.1272 28.7771 30.7022 30.2021C29.2772 31.6271 27.6015 32.7552 25.6751 33.5865C23.7487 34.4177 21.6904 34.8334 19.5001 34.8334Z" fill="#6F27FF"/>
</g>
</g>
</svg>
