<svg width="18" height="19" viewBox="0 0 18 19" fill="none" xmlns="http://www.w3.org/2000/svg">
<g opacity="0.3">
<mask id="mask0_1147_4597" style="mask-type:alpha" maskUnits="userSpaceOnUse" x="0" y="0" width="18" height="19">
<rect y="0.5" width="18" height="18" fill="#D9D9D9"/>
</mask>
<g mask="url(#mask0_1147_4597)">
<path d="M8.99995 9.5377C9.42495 9.5377 9.78745 9.3877 10.0875 9.0877C10.3875 8.7877 10.5375 8.4252 10.5375 8.0002C10.5375 7.5752 10.3875 7.2127 10.0875 6.9127C9.78745 6.6127 9.42495 6.4627 8.99995 6.4627C8.57495 6.4627 8.21245 6.6127 7.91245 6.9127C7.61245 7.2127 7.46245 7.5752 7.46245 8.0002C7.46245 8.4252 7.61245 8.7877 7.91245 9.0877C8.21245 9.3877 8.57495 9.5377 8.99995 9.5377ZM8.99995 14.8814C10.4875 13.5064 11.5907 12.2564 12.3097 11.1314C13.0282 10.0064 13.3875 9.0127 13.3875 8.1502C13.3875 6.8127 12.9657 5.72195 12.1222 4.87795C11.2782 4.03445 10.2375 3.6127 8.99995 3.6127C7.76245 3.6127 6.72195 4.03445 5.87845 4.87795C5.03445 5.72195 4.61245 6.8127 4.61245 8.1502C4.61245 9.0127 4.97195 10.0064 5.69095 11.1314C6.40945 12.2564 7.51245 13.5064 8.99995 14.8814ZM8.99995 16.7939C8.88745 16.7939 8.77195 16.7722 8.65345 16.7287C8.53445 16.6847 8.42495 16.6252 8.32495 16.5502C6.49995 14.9252 5.13745 13.4189 4.23745 12.0314C3.33745 10.6439 2.88745 9.3502 2.88745 8.1502C2.88745 6.2377 3.50295 4.7157 4.73395 3.5842C5.96545 2.4532 7.38745 1.8877 8.99995 1.8877C10.6125 1.8877 12.0345 2.4532 13.266 3.5842C14.497 4.7157 15.1125 6.2377 15.1125 8.1502C15.1125 9.3502 14.6625 10.6439 13.7625 12.0314C12.8625 13.4189 11.5 14.9252 9.67495 16.5502C9.57495 16.6252 9.4657 16.6847 9.3472 16.7287C9.2282 16.7722 9.11245 16.7939 8.99995 16.7939Z" fill="#241C2D"/>
</g>
</g>
</svg>
