<svg width="16" height="16" viewBox="0 0 16 16" fill="none" xmlns="http://www.w3.org/2000/svg">
<path d="M12.5744 7.70118L14.7041 5.57071C14.9977 5.28712 15.2319 4.94789 15.393 4.57282C15.5541 4.19774 15.6389 3.79434 15.6425 3.38614C15.646 2.97794 15.5682 2.57312 15.4137 2.19531C15.2591 1.81749 15.0308 1.47424 14.7422 1.18559C14.4535 0.896938 14.1103 0.668664 13.7324 0.514087C13.3546 0.35951 12.9498 0.281725 12.5416 0.285272C12.1334 0.288819 11.73 0.373627 11.3549 0.534746C10.9799 0.695866 10.6406 0.930071 10.357 1.22369L8.22657 3.35339L6.0961 1.22369C5.81251 0.930071 5.47328 0.695866 5.09821 0.534746C4.72314 0.373627 4.31973 0.288819 3.91153 0.285272C3.50333 0.281725 3.09851 0.35951 2.7207 0.514087C2.34288 0.668664 1.99963 0.896938 1.71098 1.18559C1.42233 1.47424 1.19405 1.81749 1.03948 2.19531C0.8849 2.57312 0.807116 2.97794 0.810663 3.38614C0.81421 3.79434 0.899018 4.19774 1.06014 4.57282C1.22126 4.94789 1.45546 5.28712 1.74909 5.57071L3.87879 7.70118L1.74909 9.83165C1.45546 10.1152 1.22126 10.4545 1.06014 10.8295C0.899018 11.2046 0.81421 11.608 0.810663 12.0162C0.807116 12.4244 0.8849 12.8292 1.03948 13.2071C1.19405 13.5849 1.42233 13.9281 1.71098 14.2168C1.99963 14.5054 2.34288 14.7337 2.7207 14.8883C3.09851 15.0429 3.50333 15.1206 3.91153 15.1171C4.31973 15.1135 4.72314 15.0287 5.09821 14.8676C5.47328 14.7065 5.81251 14.4723 6.0961 14.1787L8.22657 12.049L10.357 14.1787C10.6406 14.4723 10.9799 14.7065 11.3549 14.8676C11.73 15.0287 12.1334 15.1135 12.5416 15.1171C12.9498 15.1206 13.3546 15.0429 13.7324 14.8883C14.1103 14.7337 14.4535 14.5054 14.7422 14.2168C15.0308 13.9281 15.2591 13.5849 15.4137 13.2071C15.5682 12.8292 15.646 12.4244 15.6425 12.0162C15.6389 11.608 15.5541 11.2046 15.393 10.8295C15.2319 10.4545 14.9977 10.1152 14.7041 9.83165L12.5744 7.70118ZM11.224 2.09064C11.3956 1.91906 11.5993 1.78295 11.8234 1.69009C12.0476 1.59724 12.2879 1.54944 12.5305 1.54944C12.7732 1.54944 13.0135 1.59724 13.2377 1.69009C13.4618 1.78295 13.6655 1.91906 13.8371 2.09064C14.0087 2.26222 14.1448 2.46591 14.2377 2.6901C14.3305 2.91428 14.3783 3.15455 14.3783 3.3972C14.3783 3.63985 14.3305 3.88013 14.2377 4.10431C14.1448 4.32849 14.0087 4.53219 13.8371 4.70377L11.7066 6.83424L9.09582 4.22341L11.224 2.09064ZM10.8328 7.70118L8.22657 10.3097L5.61805 7.70118L8.22657 5.09266L10.8328 7.70118ZM2.61603 4.70377C2.44445 4.53219 2.30834 4.32849 2.21548 4.10431C2.12263 3.88013 2.07483 3.63985 2.07483 3.3972C2.07483 3.15455 2.12263 2.91428 2.21548 2.6901C2.30834 2.46591 2.44445 2.26222 2.61603 2.09064C2.78761 1.91906 2.99131 1.78295 3.21549 1.69009C3.43967 1.59724 3.67994 1.54944 3.92259 1.54944C4.16525 1.54944 4.40552 1.59724 4.6297 1.69009C4.85388 1.78295 5.05758 1.91906 5.22916 2.09064L7.35963 4.22111L4.7488 6.83193L2.61603 4.70377ZM5.22916 13.3117C5.05758 13.4833 4.85388 13.6194 4.6297 13.7123C4.40552 13.8051 4.16525 13.8529 3.92259 13.8529C3.67994 13.8529 3.43967 13.8051 3.21549 13.7123C2.99131 13.6194 2.78761 13.4833 2.61603 13.3117C2.44445 13.1401 2.30834 12.9364 2.21548 12.7123C2.12263 12.4881 2.07483 12.2478 2.07483 12.0052C2.07483 11.7625 2.12263 11.5222 2.21548 11.2981C2.30834 11.0739 2.44445 10.8702 2.61603 10.6986L4.7465 8.56812L7.35502 11.1766L5.22916 13.3117ZM13.8371 13.3117C13.6657 13.4837 13.4621 13.6201 13.2379 13.7132C13.0137 13.8063 12.7733 13.8542 12.5305 13.8542C12.2878 13.8542 12.0474 13.8063 11.8232 13.7132C11.599 13.6201 11.3954 13.4837 11.224 13.3117L9.09352 11.1813L11.702 8.57274L13.8371 10.6986C14.0091 10.87 14.1455 11.0736 14.2386 11.2978C14.3317 11.522 14.3796 11.7624 14.3796 12.0052C14.3796 12.2479 14.3317 12.4883 14.2386 12.7125C14.1455 12.9367 14.0091 13.1404 13.8371 13.3117ZM7.30429 7.70118C7.30429 7.51877 7.35838 7.34046 7.45972 7.18879C7.56106 7.03712 7.7051 6.91891 7.87363 6.8491C8.04215 6.7793 8.22759 6.76103 8.4065 6.79662C8.5854 6.83221 8.74974 6.92005 8.87872 7.04903C9.00771 7.17801 9.09554 7.34235 9.13113 7.52125C9.16672 7.70016 9.14845 7.8856 9.07865 8.05412C9.00884 8.22265 8.89063 8.36669 8.73896 8.46803C8.58729 8.56937 8.40898 8.62346 8.22657 8.62346C7.98197 8.62346 7.74738 8.52629 7.57442 8.35333C7.40146 8.18037 7.30429 7.94578 7.30429 7.70118Z" fill="#343330"/>
</svg>
