<svg width="26" height="26" viewBox="0 0 26 26" fill="none" xmlns="http://www.w3.org/2000/svg">
<path d="M23.7887 22.7485C22.4587 24.3604 21.0486 25.9333 18.9013 25.9593C16.7541 25.9983 16.0651 24.9323 13.6294 24.9323C11.1777 24.9323 10.4246 25.9333 8.38955 25.9983C6.29039 26.0633 4.70401 24.2824 3.35799 22.7095C0.617872 19.4987 -1.48128 13.5841 1.33896 9.60636C2.73305 7.63049 5.2328 6.38258 7.94087 6.34358C9.99195 6.31758 11.9469 7.4745 13.2128 7.4745C14.4627 7.4745 16.8342 6.0836 19.318 6.29158C20.3595 6.33058 23.2759 6.62956 25.1507 8.86541C25.0065 8.94341 21.6735 10.5293 21.7056 13.8181C21.7536 17.7438 25.9519 19.0567 26 19.0697C25.9519 19.1607 25.327 20.9416 23.7887 22.7485ZM14.6389 1.94987C15.8087 0.870942 17.7476 0.0519965 19.35 0C19.5583 1.5209 18.8052 3.0548 17.6835 4.14672C16.5778 5.25165 14.7511 6.10959 12.9564 5.9926C12.716 4.4977 13.6134 2.9378 14.6389 1.94987Z" fill="black"/>
</svg>
