<svg width="28" height="28" viewBox="0 0 28 28" fill="none" xmlns="http://www.w3.org/2000/svg">
<path d="M25.6667 0H2.33333C1.71449 0 1.121 0.245833 0.683417 0.683417C0.245833 1.121 0 1.71449 0 2.33333V25.6667C0 26.2855 0.245833 26.879 0.683417 27.3166C1.121 27.7542 1.71449 28 2.33333 28H25.6667C26.2855 28 26.879 27.7542 27.3166 27.3166C27.7542 26.879 28 26.2855 28 25.6667V2.33333C28 1.71449 27.7542 1.121 27.3166 0.683417C26.879 0.245833 26.2855 0 25.6667 0ZM21.8254 20.1746C21.9338 20.283 22.0198 20.4117 22.0785 20.5533C22.1371 20.6949 22.1673 20.8467 22.1673 21C22.1673 21.1533 22.1371 21.3051 22.0785 21.4467C22.0198 21.5883 21.9338 21.717 21.8254 21.8254C21.717 21.9338 21.5883 22.0198 21.4467 22.0785C21.3051 22.1371 21.1533 22.1673 21 22.1673C20.8467 22.1673 20.6949 22.1371 20.5533 22.0785C20.4117 22.0198 20.283 21.9338 20.1746 21.8254L14 15.6494L7.82542 21.8254C7.6065 22.0443 7.30959 22.1673 7 22.1673C6.69041 22.1673 6.3935 22.0443 6.17458 21.8254C5.95567 21.6065 5.83268 21.3096 5.83268 21C5.83268 20.6904 5.95567 20.3935 6.17458 20.1746L12.3506 14L6.17458 7.82542C5.95567 7.6065 5.83268 7.30959 5.83268 7C5.83268 6.69041 5.95567 6.3935 6.17458 6.17458C6.3935 5.95567 6.69041 5.83268 7 5.83268C7.30959 5.83268 7.6065 5.95567 7.82542 6.17458L14 12.3506L20.1746 6.17458C20.3935 5.95567 20.6904 5.83268 21 5.83268C21.3096 5.83268 21.6065 5.95567 21.8254 6.17458C22.0443 6.3935 22.1673 6.69041 22.1673 7C22.1673 7.30959 22.0443 7.6065 21.8254 7.82542L15.6494 14L21.8254 20.1746Z" fill="black"/>
</svg>
