<svg width="24" height="22" viewBox="0 0 24 22" fill="none" xmlns="http://www.w3.org/2000/svg">
<path d="M14.445 8.59705C14.5858 8.9884 15.0173 9.19148 15.4086 9.05064C15.8 8.9098 16.003 8.47839 15.8622 8.08704L14.445 8.59705ZM13.3986 7.0689L13.4304 6.31649C13.4198 6.31604 13.4092 6.31582 13.3986 6.31582L13.3986 7.0689ZM10.7986 10.8883V11.6414V10.8883ZM13.3986 14.7078L13.3986 15.4609L13.3986 14.7078ZM10.7986 14.7078L10.7668 15.4602C10.7774 15.4606 10.788 15.4609 10.7986 15.4609L10.7986 14.7078ZM9.7522 13.1796C9.61136 12.7883 9.17995 12.5852 8.7886 12.726C8.39726 12.8669 8.19418 13.2983 8.33501 13.6896L9.7522 13.1796ZM12.8517 5.15918C12.8517 4.74326 12.5145 4.4061 12.0986 4.4061C11.6827 4.4061 11.3455 4.74326 11.3455 5.15918H12.8517ZM11.3455 7.0689C11.3455 7.48481 11.6827 7.82198 12.0986 7.82198C12.5145 7.82198 12.8517 7.48481 12.8517 7.0689H11.3455ZM12.8517 14.7078C12.8517 14.2919 12.5145 13.9547 12.0986 13.9547C11.6827 13.9547 11.3455 14.2919 11.3455 14.7078H12.8517ZM11.3455 16.6175C11.3455 17.0334 11.6827 17.3706 12.0986 17.3706C12.5145 17.3706 12.8517 17.0334 12.8517 16.6175H11.3455ZM15.8622 8.08704C15.681 7.58357 15.3511 7.14729 14.9174 6.8327L14.033 8.05185C14.2248 8.19104 14.3674 8.38149 14.445 8.59705L15.8622 8.08704ZM14.9174 6.8327C14.4839 6.51823 13.966 6.33914 13.4304 6.31649L13.3668 7.82131C13.6089 7.83155 13.8409 7.91253 14.033 8.05185L14.9174 6.8327ZM13.3986 6.31582H10.7986V7.82198H13.3986V6.31582ZM10.7986 6.31582C10.0867 6.31582 9.4009 6.59263 8.89282 7.09021L9.94667 8.16628C10.17 7.94758 10.4762 7.82198 10.7986 7.82198V6.31582ZM8.89282 7.09021C8.38421 7.58831 8.09552 8.26727 8.09552 8.97862H9.60169C9.60169 8.67699 9.72389 8.38446 9.94667 8.16628L8.89282 7.09021ZM8.09552 8.97862C8.09552 9.68997 8.38421 10.3689 8.89282 10.867L9.94667 9.79096C9.72389 9.57278 9.60169 9.28025 9.60169 8.97862H8.09552ZM8.89282 10.867C9.4009 11.3646 10.0867 11.6414 10.7986 11.6414L10.7986 10.1353C10.4762 10.1353 10.17 10.0097 9.94667 9.79096L8.89282 10.867ZM10.7986 11.6414H13.3986V10.1353H10.7986V11.6414ZM13.3986 11.6414C13.7211 11.6414 14.0272 11.767 14.2505 11.9857L15.3044 10.9096C14.7963 10.4121 14.1105 10.1353 13.3986 10.1353V11.6414ZM14.2505 11.9857C14.4733 12.2039 14.5955 12.4964 14.5955 12.7981H16.1017C16.1017 12.0867 15.813 11.4078 15.3044 10.9096L14.2505 11.9857ZM14.5955 12.7981C14.5955 13.0997 14.4733 13.3922 14.2505 13.6104L15.3044 14.6865C15.813 14.1884 16.1017 13.5094 16.1017 12.7981H14.5955ZM14.2505 13.6104C14.0272 13.8291 13.7211 13.9547 13.3986 13.9547L13.3986 15.4609C14.1105 15.4609 14.7963 15.1841 15.3044 14.6865L14.2505 13.6104ZM13.3986 13.9547H10.7986V15.4609H13.3986V13.9547ZM10.8304 13.9554C10.5883 13.9451 10.3563 13.8642 10.1642 13.7248L9.27982 14.944C9.7133 15.2585 10.2312 15.4375 10.7668 15.4602L10.8304 13.9554ZM10.1642 13.7248C9.97237 13.5856 9.82978 13.3952 9.7522 13.1796L8.33501 13.6896C8.5162 14.1931 8.84616 14.6294 9.27982 14.944L10.1642 13.7248ZM11.3455 5.15918V7.0689H12.8517V5.15918H11.3455ZM11.3455 14.7078V16.6175H12.8517V14.7078H11.3455ZM21.7455 10.7842C21.7455 15.8635 17.4546 20.0311 12.0986 20.0311V21.5373C18.2302 21.5373 23.2517 16.7505 23.2517 10.7842H21.7455ZM12.0986 20.0311C6.74265 20.0311 2.45169 15.8635 2.45169 10.7842H0.945527C0.945527 16.7505 5.96704 21.5373 12.0986 21.5373V20.0311ZM2.45169 10.7842C2.45169 5.70481 6.74265 1.53726 12.0986 1.53726V0.0310979C5.96704 0.0310979 0.945527 4.81785 0.945527 10.7842H2.45169ZM12.0986 1.53726C17.4546 1.53726 21.7455 5.70481 21.7455 10.7842H23.2517C23.2517 4.81785 18.2302 0.0310979 12.0986 0.0310979V1.53726Z" fill="black"/>
</svg>
