<svg width="21" height="21" viewBox="0 0 21 21" fill="none" xmlns="http://www.w3.org/2000/svg">
<path fill-rule="evenodd" clip-rule="evenodd" d="M5.07475 8.07768C5.40097 7.75145 5.92989 7.75145 6.25611 8.07768L10.051 11.8726L13.8459 8.07768C14.1722 7.75145 14.7011 7.75145 15.0273 8.07768C15.3535 8.4039 15.3535 8.93282 15.0273 9.25904L10.6417 13.6446C10.3155 13.9709 9.78656 13.9709 9.46034 13.6446L5.07475 9.25904C4.74852 8.93282 4.74852 8.4039 5.07475 8.07768Z" fill="#4C4C4C"/>
<path fill-rule="evenodd" clip-rule="evenodd" d="M10.0521 0.524414C10.5135 0.524414 10.8875 0.898413 10.8875 1.35976V13.0547C10.8875 13.516 10.5135 13.89 10.0521 13.89C9.5908 13.89 9.2168 13.516 9.2168 13.0547V1.35976C9.2168 0.898413 9.5908 0.524414 10.0521 0.524414Z" fill="#4C4C4C"/>
<path fill-rule="evenodd" clip-rule="evenodd" d="M0.864647 12.2197C1.326 12.2197 1.7 12.5937 1.7 13.0551V18.9025H18.407V13.0551C18.407 12.5937 18.781 12.2197 19.2424 12.2197C19.7037 12.2197 20.0777 12.5937 20.0777 13.0551V18.9025C20.0777 19.3456 19.9017 19.7706 19.5884 20.0839C19.2751 20.3972 18.8501 20.5732 18.407 20.5732H1.7C1.2569 20.5732 0.831952 20.3972 0.518634 20.0839C0.205317 19.7706 0.0292969 19.3456 0.0292969 18.9025V13.0551C0.0292969 12.5937 0.403296 12.2197 0.864647 12.2197Z" fill="#4C4C4C"/>
</svg>
