<svg width="18" height="16" viewBox="0 0 18 16" fill="none" xmlns="http://www.w3.org/2000/svg">
<path d="M8.85613 10.3217C9.46511 10.3217 10.0491 10.0798 10.4798 9.64918C10.9104 9.21857 11.1523 8.63453 11.1523 8.02555C11.1523 7.9583 11.1492 7.89167 11.1435 7.82586L8.65644 10.3129C8.72225 10.3186 8.78868 10.3217 8.85613 10.3217ZM16.4564 0.923004L15.5806 0.0479999C15.5499 0.0172649 15.5082 0 15.4647 0C15.4212 0 15.3795 0.0172649 15.3488 0.0479999L13.1075 2.28984C11.8711 1.65798 10.4814 1.34205 8.93813 1.34205C4.99774 1.34205 2.05783 3.39426 0.118387 7.49866C0.0404303 7.66373 0 7.84402 0 8.02657C0 8.20912 0.0404303 8.38941 0.118387 8.55448C0.893343 10.1868 1.8265 11.4952 2.91787 12.4795L0.749013 14.6475C0.718278 14.6783 0.701013 14.72 0.701013 14.7635C0.701013 14.8069 0.718278 14.8486 0.749013 14.8794L1.62422 15.7546C1.65498 15.7853 1.69668 15.8026 1.74016 15.8026C1.78364 15.8026 1.82534 15.7853 1.85609 15.7546L16.4564 1.15508C16.4717 1.13985 16.4838 1.12176 16.492 1.10185C16.5003 1.08194 16.5045 1.0606 16.5045 1.03904C16.5045 1.01749 16.5003 0.996147 16.492 0.976236C16.4838 0.956325 16.4717 0.938236 16.4564 0.923004ZM5.24786 8.02555C5.24781 7.40231 5.40918 6.78969 5.71626 6.24736C6.02333 5.70503 6.46565 5.25148 7.00011 4.9309C7.53457 4.61032 8.14296 4.43365 8.766 4.41808C9.38904 4.40251 10.0055 4.54859 10.5553 4.84207L9.55851 5.83885C9.15652 5.71014 8.72684 5.69464 8.31661 5.79405C7.90639 5.89346 7.53147 6.10395 7.233 6.40242C6.93454 6.70089 6.72405 7.0758 6.62463 7.48603C6.52522 7.89625 6.54072 8.32593 6.66944 8.72793L5.67265 9.72471C5.39294 9.20208 5.247 8.61832 5.24786 8.02555Z" fill="#C4C4C4"/>
<path d="M17.7585 7.49725C17.0368 5.9774 16.1779 4.73808 15.1816 3.7793L12.2265 6.73459C12.4756 7.38575 12.5308 8.0951 12.3855 8.77696C12.2402 9.45882 11.9005 10.084 11.4075 10.577C10.9145 11.07 10.2893 11.4096 9.60748 11.555C8.92562 11.7003 8.21626 11.6451 7.56511 11.396L5.05859 13.9025C6.22144 14.4406 7.51481 14.7097 8.93871 14.7097C12.8791 14.7097 15.819 12.6575 17.7585 8.55307C17.8364 8.388 17.8769 8.20772 17.8769 8.02516C17.8769 7.8426 17.8364 7.66231 17.7585 7.49725Z" fill="#C4C4C4"/>
</svg>
