<svg width="40" height="39" viewBox="0 0 40 39" fill="none" xmlns="http://www.w3.org/2000/svg">
<rect x="1" y="0.893555" width="38" height="37" rx="3.5" stroke="#003CC9"/>
<path d="M5.5 23.4326L10.1642 23.4089" stroke="#8A898E" stroke-width="2" stroke-linecap="round"/>
<path d="M31.8354 23.0859H36.4994" stroke="#8A898E" stroke-width="2" stroke-linecap="round"/>
<path d="M11.2676 18.0254L10.4445 23.3846" stroke="#8A898E" stroke-width="2" stroke-linecap="round"/>
<path d="M31.0122 17.4229L31.6027 23.0747" stroke="#8A898E" stroke-width="2" stroke-linecap="round"/>
<path d="M11.2676 18.0254L14.2854 29.0546" stroke="#8A898E" stroke-width="2" stroke-linecap="round"/>
<path d="M30.835 17.4229L27.7207 28.4203" stroke="#8A898E" stroke-width="2" stroke-linecap="round"/>
<path d="M15.6572 12.958L14.2854 28.9817" stroke="#8A898E" stroke-width="2" stroke-linecap="round"/>
<path d="M25.7988 12.6533L27.5397 28.6347" stroke="#8A898E" stroke-width="2" stroke-linecap="round"/>
<path d="M15.6572 12.958L19.0193 31.8737" stroke="#8A898E" stroke-width="2" stroke-linecap="round"/>
<path d="M25.7158 12.6602L22.781 31.6596" stroke="#8A898E" stroke-width="2" stroke-linecap="round"/>
<path d="M20.9248 6.39355L19.0148 31.6897" stroke="#8A898E" stroke-width="2" stroke-linecap="round"/>
<path d="M20.9248 6.39453L22.7863 31.737" stroke="#8A898E" stroke-width="2" stroke-linecap="round"/>
<ellipse cx="20.5849" cy="19.5667" rx="3.08487" ry="3.17319" fill="#E9E9EB"/>
<path d="M21.6484 19.6077L19.5 20.8216V18.3936L21.6484 19.6077Z" fill="#8A898E"/>
</svg>
