<svg width="15" height="15" viewBox="0 0 15 15" fill="none" xmlns="http://www.w3.org/2000/svg">
<path d="M9.27264 8.53401C9.27264 9.02792 9.09955 9.51074 8.77526 9.92141C8.45096 10.3321 7.99003 10.6522 7.45075 10.8412C6.91147 11.0302 6.31807 11.0796 5.74557 10.9833C5.17307 10.8869 4.6472 10.6491 4.23446 10.2998C3.82171 9.95059 3.54063 9.50562 3.42675 9.0212C3.31287 8.53678 3.37132 8.03466 3.5947 7.57835C3.81807 7.12204 4.19635 6.73202 4.68169 6.45762C5.16702 6.18322 5.73763 6.03676 6.32134 6.03676C6.70891 6.03676 7.09268 6.10135 7.45075 6.22685C7.80882 6.35235 8.13417 6.53629 8.40822 6.76818C8.68228 7.00008 8.89967 7.27537 9.04798 7.57835C9.1963 7.88133 9.27264 8.20606 9.27264 8.53401ZM14.5194 1.59719V13.806C14.5194 14.1003 14.3812 14.3827 14.1352 14.5908C13.8892 14.7989 13.5556 14.9159 13.2077 14.9159H1.40251C1.05463 14.9159 0.720994 14.7989 0.475005 14.5908C0.229016 14.3827 0.0908203 14.1003 0.0908203 13.806V1.59719C0.0908203 1.30283 0.229016 1.02053 0.475005 0.812384C0.720994 0.604239 1.05463 0.487305 1.40251 0.487305H13.2077C13.5556 0.487305 13.8892 0.604239 14.1352 0.812384C14.3812 1.02053 14.5194 1.30283 14.5194 1.59719ZM12.5519 3.81698C12.5519 3.66979 12.4828 3.52864 12.3598 3.42457C12.2368 3.3205 12.07 3.26203 11.896 3.26203H9.27264C9.0987 3.26203 8.93188 3.3205 8.80889 3.42457C8.68589 3.52864 8.61679 3.66979 8.61679 3.81698C8.61679 3.96416 8.68589 4.10531 8.80889 4.20938C8.93188 4.31345 9.0987 4.37192 9.27264 4.37192H10.313L8.83732 5.62055C7.97015 5.08249 6.89496 4.84112 5.82661 4.94469C4.75826 5.04825 3.77544 5.48912 3.07455 6.17919C2.37365 6.86926 2.00631 7.7577 2.04592 8.66699C2.08554 9.57627 2.52919 10.4394 3.28822 11.0839C4.04726 11.7285 5.06577 12.1069 6.14023 12.1437C7.21469 12.1804 8.26596 11.8727 9.08397 11.2821C9.90197 10.6914 10.4265 9.86139 10.5526 8.95777C10.6788 8.05416 10.3973 7.14353 9.76452 6.40787L11.2402 5.15925V6.03676C11.2402 6.18394 11.3093 6.32509 11.4323 6.42916C11.5553 6.53323 11.7221 6.5917 11.896 6.5917C12.07 6.5917 12.2368 6.53323 12.3598 6.42916C12.4828 6.32509 12.5519 6.18394 12.5519 6.03676V3.81698Z" fill="black"/>
</svg>
