<svg width="26" height="26" viewBox="0 0 26 26" fill="none" xmlns="http://www.w3.org/2000/svg">
<path d="M25.7472 10.454H24.7V10.4H13V15.6H20.347C19.2751 18.6271 16.395 20.8 13 20.8C8.69245 20.8 5.2 17.3076 5.2 13C5.2 8.69245 8.69245 5.2 13 5.2C14.9884 5.2 16.7973 5.9501 18.1747 7.17535L21.8517 3.4983C19.5299 1.33445 16.4242 0 13 0C5.82075 0 0 5.82075 0 13C0 20.1793 5.82075 26 13 26C20.1793 26 26 20.1793 26 13C26 12.1284 25.9103 11.2775 25.7472 10.454Z" fill="#FFC107"/>
<path d="M1.49902 6.94915L5.77017 10.0815C6.92587 7.2202 9.72478 5.2 13.0001 5.2C14.9885 5.2 16.7974 5.9501 18.1748 7.17535L21.8518 3.4983C19.53 1.33445 16.4243 0 13.0001 0C8.00682 0 3.67652 2.81905 1.49902 6.94915Z" fill="#FF3D00"/>
<path d="M13 25.9997C16.3579 25.9997 19.409 24.7146 21.7159 22.6249L17.6924 19.2202C16.3435 20.2465 14.6949 20.8015 13 20.7997C9.61871 20.7997 6.74766 18.6436 5.66606 15.6348L1.42676 18.901C3.57826 23.1111 7.94756 25.9997 13 25.9997Z" fill="#4CAF50"/>
<path d="M25.7472 10.4543H24.7V10.4004H13V15.6004H20.347C19.8342 17.0411 18.9107 18.3 17.6904 19.2215L17.6924 19.2202L21.7159 22.6249C21.4312 22.8836 26 19.5004 26 13.0004C26 12.1287 25.9103 11.2779 25.7472 10.4543Z" fill="#1976D2"/>
</svg>
