<svg width="32" height="18" viewBox="0 0 32 18" fill="none" xmlns="http://www.w3.org/2000/svg">
<path fill-rule="evenodd" clip-rule="evenodd" d="M15.9433 15.1054C17.5918 16.491 19.7511 17.2587 21.9914 17.2555C24.3896 17.2415 26.6844 16.3615 28.3748 14.8076C30.0652 13.2536 31.014 11.1519 31.014 8.96123C31.014 6.77055 30.0652 4.66884 28.3748 3.11488C26.6844 1.56092 24.3896 0.680928 21.9914 0.667003C19.7511 0.663719 17.5917 1.43139 15.9433 2.8171C15.0055 3.59507 14.2562 4.54354 13.7435 5.60164C13.2307 6.65975 12.9658 7.8041 12.9658 8.96123C12.9658 10.1184 13.2307 11.2627 13.7435 12.3208C14.2562 13.3789 15.0055 14.3274 15.9433 15.1054Z" fill="#E9B040"/>
<path fill-rule="evenodd" clip-rule="evenodd" d="M29.8128 13.5817C29.8127 13.548 29.8198 13.5146 29.8339 13.4835C29.8479 13.4523 29.8686 13.424 29.8946 13.4002C29.9207 13.3764 29.9517 13.3575 29.9858 13.3447C30.0199 13.3319 30.0564 13.3253 30.0933 13.3255C30.1313 13.3239 30.1693 13.3293 30.205 13.3415C30.2407 13.3536 30.2733 13.3722 30.3009 13.3961C30.3285 13.42 30.3506 13.4488 30.3658 13.4807C30.381 13.5126 30.3889 13.5469 30.3892 13.5817C30.3906 13.6175 30.3839 13.6533 30.3695 13.6866C30.3551 13.72 30.3334 13.7503 30.3056 13.7757C30.2779 13.8011 30.2447 13.821 30.2082 13.8342C30.1717 13.8474 30.1326 13.8535 30.0933 13.8523C30.0552 13.852 30.0176 13.8447 29.9827 13.8308C29.9477 13.8169 29.9163 13.7968 29.8901 13.7715C29.8639 13.7462 29.8435 13.7164 29.8303 13.6838C29.817 13.6512 29.811 13.6165 29.8128 13.5817ZM30.0933 13.7955C30.1548 13.7941 30.2134 13.7712 30.2569 13.7314C30.3004 13.6916 30.3254 13.6381 30.3269 13.5819C30.3247 13.5272 30.2989 13.4755 30.2552 13.4382C30.2114 13.4008 30.1532 13.3808 30.0933 13.3826C30.0358 13.3837 29.981 13.405 29.9404 13.4422C29.8997 13.4793 29.8763 13.5294 29.8752 13.5819C29.8761 13.6358 29.8989 13.6876 29.9392 13.7271C29.9795 13.7665 30.0344 13.7909 30.0933 13.7955ZM30.0621 13.7101H29.9997V13.4679H30.1087C30.1307 13.4657 30.1529 13.4708 30.1711 13.4823C30.2023 13.4964 30.2023 13.5108 30.2023 13.5393C30.2023 13.5678 30.1869 13.5963 30.1557 13.5963L30.2181 13.7102H30.1399L30.1087 13.6097H30.0621V13.5669H30.1245C30.1399 13.5669 30.1399 13.5525 30.1399 13.5385C30.1399 13.5244 30.1399 13.524 30.1245 13.51H30.0621V13.7101Z" fill="#E9B040"/>
<path fill-rule="evenodd" clip-rule="evenodd" d="M18.8566 8.08587C18.8254 7.7869 18.763 7.50217 18.7007 7.20304H13.1824C13.2491 6.90966 13.3323 6.61963 13.4318 6.33411H18.4357C18.3271 6.03436 18.2024 5.74008 18.0617 5.45128H13.8216C13.9776 5.14963 14.1488 4.85535 14.3353 4.56845H17.5311C17.3255 4.26435 17.0963 3.97408 16.8453 3.69986H15.022C15.3042 3.38513 15.6116 3.09004 15.9417 2.81703C14.8484 1.92443 13.5341 1.28774 12.1118 0.961684C10.6895 0.63563 9.2018 0.629974 7.77659 0.945201C6.35139 1.26043 5.03131 1.88711 3.92986 2.77136C2.82841 3.65561 1.97854 4.77099 1.45331 6.02158C0.928083 7.27218 0.743214 8.62058 0.914599 9.95087C1.08598 11.2812 1.60849 12.5535 2.4372 13.6586C3.26592 14.7636 4.37604 15.6683 5.67213 16.2948C6.96822 16.9214 8.41149 17.251 9.87788 17.2554C12.1228 17.2587 14.2872 16.4912 15.9417 15.1053C16.2668 14.8371 16.5691 14.5466 16.846 14.2365H15.022C14.7758 13.954 14.5468 13.6593 14.3361 13.3537H17.5318C17.7328 13.0721 17.9099 12.777 18.0618 12.4709H13.8216C13.6757 12.1875 13.5456 11.8975 13.4318 11.6021H18.4357C18.5406 11.3122 18.6289 11.0175 18.7005 10.7193C18.7689 10.4276 18.8209 10.133 18.8564 9.83645C18.888 9.54777 18.9037 9.25782 18.9034 8.9677C18.9034 8.66923 18.8878 8.37026 18.8566 8.08553V8.08587Z" fill="#CC2131"/>
<path fill-rule="evenodd" clip-rule="evenodd" d="M29.8128 10.8906C29.8111 10.8558 29.817 10.8211 29.8303 10.7886C29.8436 10.756 29.8639 10.7262 29.8901 10.7009C29.9163 10.6757 29.9478 10.6556 29.9827 10.6417C30.0176 10.6278 30.0552 10.6205 30.0933 10.6203C30.1325 10.6191 30.1716 10.6252 30.2081 10.6384C30.2446 10.6515 30.2778 10.6714 30.3055 10.6967C30.3333 10.7221 30.355 10.7524 30.3694 10.7857C30.3838 10.8191 30.3906 10.8548 30.3892 10.8906C30.3906 10.9259 30.3842 10.9612 30.3703 10.9942C30.3565 11.0273 30.3355 11.0574 30.3085 11.0829C30.2816 11.1084 30.2494 11.1286 30.2138 11.1425C30.1781 11.1563 30.1398 11.1634 30.101 11.1634C30.0623 11.1634 30.0239 11.1563 29.9883 11.1425C29.9526 11.1286 29.9204 11.1084 29.8935 11.0829C29.8666 11.0574 29.8456 11.0273 29.8317 10.9942C29.8178 10.9612 29.8114 10.9259 29.8128 10.8906ZM30.0933 11.0898C30.1233 11.0918 30.1533 11.0881 30.1816 11.0789C30.2099 11.0698 30.2359 11.0554 30.2579 11.0368C30.2798 11.0181 30.2974 10.9954 30.3093 10.9703C30.3213 10.9451 30.3275 10.918 30.3275 10.8906C30.3275 10.8632 30.3213 10.836 30.3093 10.8109C30.2974 10.7857 30.2798 10.7631 30.2579 10.7444C30.2359 10.7257 30.2099 10.7114 30.1816 10.7022C30.1533 10.6931 30.1233 10.6894 30.0933 10.6913C30.0355 10.6913 29.98 10.7123 29.9391 10.7497C29.8982 10.7871 29.8752 10.8377 29.8752 10.8906C29.8752 10.9434 29.8982 10.9941 29.9391 11.0315C29.98 11.0688 30.0355 11.0898 30.0933 11.0898ZM30.0621 11.0044H29.9997V10.7766H30.1711C30.2023 10.791 30.2023 10.8195 30.2023 10.848C30.2001 10.8602 30.1948 10.8718 30.1867 10.8817C30.1785 10.8917 30.1679 10.8996 30.1557 10.905L30.2181 11.0045H30.1399L30.1087 10.9191H30.0621V10.8763H30.0933C30.1087 10.8763 30.1245 10.8763 30.1245 10.8619C30.1399 10.8619 30.1399 10.8478 30.1399 10.8334C30.14 10.8316 30.1396 10.8297 30.1388 10.828C30.1381 10.8263 30.1369 10.8247 30.1355 10.8234C30.1341 10.8221 30.1323 10.821 30.1305 10.8203C30.1286 10.8196 30.1265 10.8193 30.1245 10.8194C30.1245 10.8049 30.1087 10.8194 30.0933 10.8194H30.0621V11.0044Z" fill="white"/>
<path fill-rule="evenodd" clip-rule="evenodd" d="M12.8714 11.3603C12.6336 11.4269 12.3874 11.4653 12.1388 11.4742C11.6712 11.4742 11.3905 11.2036 11.3905 10.7201C11.3938 10.6149 11.4042 10.5099 11.4217 10.4059L11.4841 10.0786L11.5308 9.80792L11.9517 7.47314H12.8874L12.7773 7.98578H13.3701L13.2297 8.84046H12.6375L12.3882 10.2358C12.3773 10.2826 12.3721 10.3303 12.3726 10.3782C12.3726 10.5634 12.4661 10.6344 12.6999 10.6344C12.7993 10.6328 12.8984 10.6233 12.996 10.606L12.8714 11.3601V11.3603ZM15.8956 11.3318C15.5711 11.4162 15.2354 11.4592 14.898 11.4598C13.8379 11.4598 13.2299 10.9472 13.2299 9.93646C13.2299 8.75449 13.9471 7.90015 14.9446 7.90015C15.7395 7.90015 16.2539 8.3843 16.2539 9.13876C16.2509 9.42162 16.2143 9.70334 16.145 9.97903H14.1957C14.1845 10.0161 14.1792 10.0545 14.1801 10.093C14.1801 10.4917 14.4762 10.6909 15.0374 10.6909C15.3883 10.6898 15.7346 10.6169 16.0507 10.4776L15.8956 11.3318ZM15.3188 9.29562V9.12468C15.3269 9.0662 15.3204 9.00681 15.3 8.95089C15.2796 8.89497 15.2457 8.84396 15.2008 8.8016C15.1559 8.75924 15.1012 8.72662 15.0407 8.70614C14.9802 8.68566 14.9154 8.67784 14.8512 8.68327C14.5393 8.68327 14.3211 8.89677 14.2274 9.29545H15.3186L15.3188 9.29562ZM5.38939 11.4028H4.42253L4.98375 8.1708L3.72115 11.4028H3.05096L2.97299 8.18521L2.38058 11.4028H1.42969L2.19345 7.2025H3.61199L3.64318 9.79418L4.59407 7.2025H6.15352L5.38939 11.4028ZM7.74341 9.87948C7.68177 9.86863 7.61904 9.86379 7.55628 9.86507C6.99507 9.86507 6.71455 10.0643 6.71455 10.3777C6.70927 10.4232 6.71467 10.4692 6.73039 10.5127C6.74611 10.5562 6.77178 10.5961 6.80569 10.6298C6.83961 10.6635 6.88099 10.6902 6.92709 10.7081C6.97319 10.726 7.02294 10.7348 7.07304 10.7338C7.54069 10.7338 7.72764 10.3777 7.74341 9.87914V9.87948ZM8.52277 11.4028H7.68067L7.69626 11.047C7.47794 11.3173 7.18257 11.4598 6.6674 11.4598C6.19975 11.4598 5.79448 11.0755 5.79448 10.5202C5.79631 10.3703 5.82259 10.2216 5.87245 10.0789C6.02821 9.55185 6.60502 9.22423 7.49354 9.21015C7.60362 9.21015 7.77405 9.21015 7.93 9.22456C7.95295 9.15047 7.96341 9.07362 7.961 8.99665C7.961 8.76873 7.75919 8.69751 7.3064 8.69751C7.03133 8.69611 6.75774 8.73457 6.49586 8.81147L6.35551 8.83996L6.29313 8.85403L6.43348 8.08516C6.79956 7.96907 7.1835 7.90685 7.57096 7.90082C8.41269 7.90082 8.86475 8.25677 8.86475 8.91168C8.87462 9.13567 8.85894 9.35999 8.81796 9.58101L8.60001 10.8049L8.56882 11.0185L8.55323 11.1895L8.53763 11.3034L8.52204 11.4028H8.52277ZM20.6037 8.0141C20.9107 8.02354 21.2105 8.10175 21.4766 8.24185L21.648 7.33053C21.5669 7.29738 21.4836 7.26884 21.3986 7.24506L21.0091 7.14451C20.8608 7.11394 20.709 7.0996 20.5569 7.10178C20.0735 7.10178 19.793 7.11602 19.497 7.27271C19.2838 7.40099 19.0898 7.55417 18.92 7.72837L18.7953 7.69988L17.7976 8.34056L17.8446 7.98461H16.8155L16.2079 11.4018H17.1902L17.5485 9.56526C17.5485 9.56526 17.689 9.30869 17.7512 9.22356C17.8118 9.14553 17.8947 9.08428 17.991 9.04658C18.0872 9.00888 18.193 8.99618 18.2966 9.00989H18.3748C18.3421 9.22689 18.3264 9.44576 18.3278 9.66481C18.3278 10.7754 19.0136 11.4732 20.0737 11.4732C20.3639 11.4715 20.6524 11.4331 20.9312 11.3592L21.1029 10.3911C20.8526 10.5284 20.5689 10.6066 20.2773 10.6189C19.7007 10.6189 19.3574 10.2202 19.3574 9.59375C19.3574 8.66818 19.8711 8.01327 20.605 8.01327L20.6037 8.0141ZM28.8807 7.2025L28.6627 8.39854C28.5762 8.25208 28.4479 8.12973 28.2915 8.04449C28.135 7.95925 27.9562 7.91429 27.774 7.91439C27.4998 7.92173 27.2334 7.99896 27.0047 8.13734C26.7761 8.27572 26.5943 8.46975 26.48 8.69751V8.68343L25.8563 8.34156L25.9186 7.98562H24.8742L24.2818 11.4028H25.2483L25.5757 9.56627C25.5757 9.56627 25.8251 9.3097 25.8876 9.22456C25.9399 9.16302 26.0058 9.11219 26.081 9.07538C26.1562 9.03858 26.239 9.01661 26.3241 9.01089C26.2057 9.33682 26.1477 9.67855 26.1527 10.0219C26.1527 10.8766 26.6358 11.4464 27.3528 11.4464C27.5256 11.4495 27.6969 11.4165 27.8537 11.3499C28.0104 11.2832 28.1483 11.1847 28.2569 11.0618L28.2103 11.4035H29.1296L29.8778 7.20317H28.8799L28.8807 7.2025ZM27.6803 10.5914C27.3528 10.5914 27.1814 10.3636 27.1814 9.92205C27.1814 9.25272 27.4933 8.76873 27.945 8.76873C28.2879 8.76873 28.4587 9.01089 28.4587 9.43806C28.4587 10.1215 28.1468 10.5914 27.6793 10.5914H27.6803ZM23.1755 9.87948C23.1138 9.86863 23.0511 9.86379 22.9884 9.86507C22.4268 9.86507 22.1463 10.0643 22.1463 10.3777C22.141 10.4232 22.1464 10.4693 22.1622 10.5127C22.1779 10.5562 22.2036 10.5961 22.2375 10.6298C22.2715 10.6635 22.3128 10.6902 22.359 10.7081C22.4051 10.726 22.4548 10.7348 22.5049 10.7338C22.9726 10.7338 23.1597 10.3777 23.1755 9.87948ZM23.9548 11.4028H23.0973L23.1285 11.047C22.9104 11.3173 22.6148 11.4598 22.0998 11.4598C21.6164 11.4598 21.1957 11.0896 21.1957 10.5202C21.1957 9.70871 21.8657 9.21032 22.9258 9.21032C23.0663 9.20843 23.2069 9.21325 23.3468 9.22473C23.3735 9.15099 23.3893 9.07435 23.3938 8.99682C23.3938 8.7689 23.192 8.69768 22.7234 8.69768C22.4484 8.69739 22.175 8.73582 21.9129 8.81164L21.7881 8.84013L21.7258 8.8542L21.8659 8.08533C22.232 7.96928 22.6159 7.90706 23.0034 7.90099C23.8451 7.90099 24.2816 8.25693 24.2816 8.91185C24.2997 9.13586 24.284 9.36107 24.235 9.58118L24.0332 10.8057L24.002 11.0194L23.9708 11.1903L23.9554 11.3043V11.4035L23.9548 11.4028ZM10.5644 8.71176C10.8099 8.71295 11.0549 8.732 11.2971 8.76873L11.4375 7.97137C11.1568 7.94288 10.7827 7.90015 10.5644 7.90015C9.4733 7.90015 9.11499 8.44128 9.11499 9.0677C9.11499 9.4808 9.3168 9.7796 9.84756 10.0073C10.2372 10.1783 10.2996 10.2066 10.2996 10.3635C10.2996 10.5768 10.0978 10.7052 9.72281 10.7052C9.41983 10.7052 9.11917 10.657 8.83429 10.5627L8.72421 11.3457L8.73962 11.3601L8.92676 11.3886C9.00907 11.4067 9.09235 11.4209 9.17627 11.4311C9.41 11.4456 9.61273 11.4596 9.73748 11.4596C10.8287 11.4596 11.2808 11.0754 11.2808 10.3201C11.2808 9.85082 11.0313 9.56593 10.548 9.36634C10.1272 9.19524 10.0804 9.16708 10.0804 9.01022C10.0804 8.85336 10.2675 8.71125 10.5636 8.71125L10.5644 8.71176Z" fill="#1B3771"/>
<path fill-rule="evenodd" clip-rule="evenodd" d="M21.9123 7.06039L21.7406 7.97172C21.4745 7.8315 21.1747 7.75329 20.8677 7.74397C20.1349 7.74397 19.6201 8.39889 19.6201 9.32445C19.6201 9.96529 19.963 10.3496 20.54 10.3496C20.8293 10.3364 21.1116 10.2635 21.3656 10.1362L21.1942 11.0899C20.916 11.1676 20.6276 11.2108 20.3367 11.2183C19.2768 11.2183 18.6221 10.5205 18.6221 9.39584C18.6221 7.90066 19.5262 6.84689 20.82 6.84689C20.9719 6.84473 21.1236 6.85908 21.2718 6.88963L21.6617 6.97509C21.7866 7.01783 21.8178 7.03207 21.9114 7.06039H21.9123ZM18.7635 7.68699H18.6699C18.3428 7.68699 18.1562 7.82944 17.8594 8.2422L17.953 7.71531H17.0643L16.4566 11.1327H17.4389C17.7972 9.03956 17.8908 8.68361 18.3584 8.68361H18.4208C18.4925 8.34121 18.6185 8.0102 18.7949 7.70107L18.7635 7.68699ZM13.1205 11.0899C12.896 11.1655 12.6585 11.2041 12.4191 11.2039C11.9203 11.2039 11.6396 10.9477 11.6396 10.4498C11.643 10.3496 11.6534 10.2496 11.6708 10.1506L11.7332 9.80894L11.78 9.53863L12.2008 7.20318H13.1679L13.0578 7.71582H13.5566L13.4319 8.55591H12.9334L12.6685 9.98038C12.6563 10.027 12.6511 10.0749 12.6529 10.1228C12.6529 10.2938 12.7464 10.365 12.9802 10.365C13.0697 10.3724 13.1599 10.3627 13.2451 10.3365L13.1205 11.0906V11.0899ZM9.36374 8.7974C9.36374 9.22474 9.58188 9.52354 10.0963 9.75146C10.5016 9.92239 10.564 9.9792 10.564 10.1216C10.564 10.3353 10.3924 10.4349 10.0027 10.4349C9.70633 10.433 9.41197 10.3898 9.12982 10.3068L8.98947 11.0898L9.03626 11.1042L9.2078 11.1327C9.29437 11.1527 9.38343 11.1623 9.47272 11.1612C9.64839 11.1826 9.82554 11.1921 10.0027 11.1897C11.0314 11.1897 11.5149 10.8335 11.5149 10.0501C11.5149 9.58002 11.313 9.30937 10.8291 9.09604C10.4082 8.92577 10.3609 8.8832 10.3609 8.72651C10.3609 8.54217 10.5324 8.45603 10.8441 8.45603C11.0787 8.45792 11.3129 8.47219 11.5457 8.49877L11.6858 7.71565C11.4025 7.67201 11.1159 7.6482 10.8285 7.64442C9.73727 7.64442 9.3476 8.17114 9.36319 8.79757L9.36374 8.7974ZM29.3797 11.1327H28.4598L28.5067 10.8051C28.3949 10.9236 28.256 11.0182 28.0996 11.0822C27.9433 11.1462 27.7735 11.1779 27.6023 11.1752C26.8853 11.1752 26.4176 10.6202 26.4176 9.76587C26.4176 8.6263 27.1504 7.65833 28.0075 7.65833C28.1939 7.65929 28.3771 7.7027 28.5405 7.78463C28.7038 7.86657 28.8423 7.98444 28.9432 8.12757L29.1613 6.93152H30.1278L29.3797 11.132V11.1327ZM27.9453 10.3353C28.3976 10.3353 28.7093 9.85117 28.7093 9.18184C28.7093 8.74042 28.5376 8.51251 28.1956 8.51251C27.7591 8.51251 27.432 8.98174 27.432 9.65208C27.432 10.1079 27.6032 10.3358 27.9457 10.3357L27.9453 10.3353ZM16.1134 11.0615C15.7862 11.1585 15.4441 11.2066 15.1001 11.2039C14.0089 11.2039 13.4476 10.6772 13.4476 9.66616C13.4476 8.4986 14.1648 7.63001 15.1469 7.63001C15.9574 7.63001 16.4717 8.11416 16.4717 8.86879C16.4695 9.15734 16.4276 9.44448 16.3469 9.72347H14.4143C14.4024 9.75584 14.3972 9.78992 14.3987 9.82402C14.3987 10.2227 14.695 10.422 15.2561 10.422C15.6079 10.4278 15.9559 10.3544 16.2693 10.2083L16.1134 11.063V11.0615ZM15.5678 9.02532V8.85455C15.5758 8.79606 15.5694 8.73667 15.5489 8.68076C15.5285 8.62484 15.4946 8.57382 15.4497 8.53146C15.4049 8.4891 15.3502 8.45648 15.2896 8.436C15.2291 8.41552 15.1644 8.40771 15.1001 8.41313C14.7882 8.41313 14.5701 8.6268 14.4763 9.02532H15.5676H15.5678ZM5.63814 11.1329H4.67165L5.23287 7.90049L3.97027 11.1329H3.29989L3.22192 7.92898L2.6297 11.1329H1.72559L2.49026 6.93236H3.89321L3.93963 9.53812L4.8753 6.93236H6.403L5.63924 11.1329H5.63814ZM8.05436 9.60918C7.96079 9.60918 7.91401 9.5951 7.83604 9.5951C7.29041 9.5951 7.01045 9.77944 7.01045 10.1218C7.0037 10.1657 7.00765 10.2104 7.02204 10.2527C7.03643 10.295 7.06088 10.3339 7.09366 10.3666C7.12643 10.3992 7.16671 10.4248 7.21161 10.4416C7.2565 10.4584 7.30491 10.4659 7.35334 10.4635C7.75861 10.4635 8.03931 10.1218 8.05491 9.60884L8.05436 9.60918ZM8.77134 11.1329H7.96061L7.97584 10.7767C7.85344 10.9162 7.69597 11.0266 7.51684 11.0985C7.33771 11.1704 7.14221 11.2017 6.94697 11.1898C6.41694 11.1898 6.05845 10.8196 6.05845 10.2643C6.05845 9.42433 6.68223 8.94035 7.77311 8.94035C7.88319 8.94035 8.02262 8.9546 8.17838 8.96867C8.20047 8.89934 8.21099 8.82737 8.20957 8.75517C8.20957 8.52742 8.03803 8.44196 7.58579 8.44196C7.31273 8.43889 7.04036 8.46761 6.77525 8.52742L6.6349 8.57016L6.54133 8.5844L6.68168 7.81553C7.0597 7.7048 7.45393 7.64717 7.8509 7.64459C8.69263 7.64459 9.14468 7.9863 9.14468 8.64121C9.13867 8.87061 9.1126 9.09919 9.06671 9.32479L8.84839 10.5352L8.8172 10.7486L8.80161 10.9195L8.78601 11.0479L8.77079 11.133L8.77134 11.1329ZM23.4868 9.60918C23.3767 9.60918 23.3309 9.5951 23.2687 9.5951C22.7074 9.5951 22.4266 9.77944 22.4266 10.1218C22.4216 10.1666 22.4273 10.2119 22.4433 10.2544C22.4593 10.297 22.4853 10.3359 22.5194 10.3684C22.5535 10.4009 22.595 10.4262 22.6409 10.4427C22.6868 10.4591 22.736 10.4662 22.7852 10.4635C23.1751 10.4635 23.471 10.1218 23.4868 9.60884V9.60918ZM24.2038 11.1329H23.3932L23.4086 10.7767C23.2863 10.9162 23.1289 11.0266 22.9498 11.0985C22.7707 11.1705 22.5752 11.2018 22.38 11.1898C21.8499 11.1898 21.4913 10.8196 21.4913 10.2643C21.4913 9.42433 22.115 8.94035 23.2059 8.94035C23.316 8.94035 23.4556 8.9546 23.5958 8.96867C23.6208 8.89949 23.6365 8.82781 23.6427 8.75517C23.6427 8.52742 23.471 8.44196 23.019 8.44196C22.7409 8.43899 22.4636 8.4677 22.1934 8.52742L22.0686 8.57016L21.975 8.5844L22.1152 7.81553C22.4932 7.70481 22.8875 7.64718 23.2844 7.64459C24.1262 7.64459 24.5626 7.9863 24.5626 8.64121C24.5648 8.87102 24.5388 9.10032 24.4848 9.32479L24.283 10.5352L24.2518 10.7486L24.2206 10.9195L24.2052 11.0479V11.133L24.2038 11.1329ZM26.8225 7.68699H26.729C26.4019 7.68699 26.2153 7.82944 25.9184 8.2422L26.012 7.71531H25.1233L24.5309 11.1327H25.4966C25.8553 9.03956 25.9489 8.68361 26.4165 8.68361H26.4789C26.5506 8.34121 26.6766 8.0102 26.853 7.70107L26.8218 7.68699H26.8225Z" fill="white"/>
</svg>
