<svg width="15" height="16" viewBox="0 0 15 16" fill="none" xmlns="http://www.w3.org/2000/svg">
<path d="M1.87503 5L13.125 5M1.87503 11L13.125 11M7.50003 2L7.50003 14M10.5 2L10.5 5M10.5 11L10.5 14M4.50003 2L4.50003 5M4.50003 11L4.50003 14M3.74996 2L11.25 2C12.4927 2 13.5 3.00736 13.5 4.25L13.5 11.75C13.5 12.9926 12.4927 14 11.25 14L3.74996 14C2.50732 14 1.49996 12.9926 1.49996 11.75L1.49996 4.25C1.49996 3.00736 2.50732 2 3.74996 2Z" stroke="#007BFF" stroke-linecap="round" stroke-linejoin="round"/>
</svg>
