<svg width="15" height="16" viewBox="0 0 15 16" fill="none" xmlns="http://www.w3.org/2000/svg">
<path d="M10.1175 6.2225C9.9825 4.13 9.135 2.09 7.545 0.5C5.94 2.105 5.055 4.145 4.8825 6.2225C5.8425 6.7325 6.7275 7.3925 7.5 8.195C8.2725 7.4 9.1575 6.74 10.1175 6.2225ZM5.2425 8.21C5.1375 8.135 5.0175 8.0675 4.905 7.9925C5.0175 8.075 5.1375 8.135 5.2425 8.21ZM10.0575 8.0225C9.96 8.09 9.855 8.1425 9.7575 8.2175C9.855 8.1425 9.96 8.09 10.0575 8.0225ZM7.5 10.5875C5.8875 8.1275 3.135 6.5 0 6.5C0 10.49 2.52 13.865 6.0225 15.1175C6.495 15.29 6.99 15.4175 7.5 15.5C8.01 15.41 8.4975 15.2825 8.9775 15.1175C12.48 13.865 15 10.49 15 6.5C11.865 6.5 9.1125 8.1275 7.5 10.5875Z" fill="#007BFF"/>
</svg>
