<svg width="24" height="27" viewBox="0 0 24 27" fill="none" xmlns="http://www.w3.org/2000/svg">
<path fill-rule="evenodd" clip-rule="evenodd" d="M5.1289 10.5084C3.54712 10.5084 2.26484 11.7907 2.26484 13.3724C2.26484 14.9542 3.54712 16.2365 5.1289 16.2365C6.71068 16.2365 7.99296 14.9542 7.99296 13.3724C7.99296 11.7907 6.71068 10.5084 5.1289 10.5084ZM0.355469 13.3724C0.355469 10.7362 2.49261 8.59901 5.1289 8.59901C7.76519 8.59901 9.90233 10.7362 9.90233 13.3724C9.90233 16.0087 7.76519 18.1459 5.1289 18.1459C2.49261 18.1459 0.355469 16.0087 0.355469 13.3724Z" fill="#4C4C4C"/>
<path fill-rule="evenodd" clip-rule="evenodd" d="M18.4945 19.1006C16.9127 19.1006 15.6305 20.3828 15.6305 21.9646C15.6305 23.5464 16.9127 24.8287 18.4945 24.8287C20.0763 24.8287 21.3586 23.5464 21.3586 21.9646C21.3586 20.3828 20.0763 19.1006 18.4945 19.1006ZM13.7211 21.9646C13.7211 19.3283 15.8582 17.1912 18.4945 17.1912C21.1308 17.1912 23.2679 19.3283 23.2679 21.9646C23.2679 24.6009 21.1308 26.7381 18.4945 26.7381C15.8582 26.7381 13.7211 24.6009 13.7211 21.9646Z" fill="#4C4C4C"/>
<path fill-rule="evenodd" clip-rule="evenodd" d="M18.4945 1.91621C16.9127 1.91621 15.6305 3.19849 15.6305 4.78027C15.6305 6.36204 16.9127 7.64433 18.4945 7.64433C20.0763 7.64433 21.3586 6.36204 21.3586 4.78027C21.3586 3.19849 20.0763 1.91621 18.4945 1.91621ZM13.7211 4.78027C13.7211 2.14397 15.8582 0.00683594 18.4945 0.00683594C21.1308 0.00683594 23.2679 2.14397 23.2679 4.78027C23.2679 7.41656 21.1308 9.5537 18.4945 9.5537C15.8582 9.5537 13.7211 7.41656 13.7211 4.78027Z" fill="#4C4C4C"/>
<path fill-rule="evenodd" clip-rule="evenodd" d="M16.0875 6.32864C16.3725 6.77221 16.244 7.36286 15.8004 7.64791L8.85508 12.1111C8.41151 12.3961 7.82085 12.2676 7.53581 11.824C7.25077 11.3805 7.37928 10.7898 7.82285 10.5048L14.7682 6.0416C15.2118 5.75656 15.8024 5.88507 16.0875 6.32864Z" fill="#4C4C4C"/>
<path fill-rule="evenodd" clip-rule="evenodd" d="M7.53581 14.9208C7.82085 14.4773 8.41151 14.3487 8.85508 14.6338L15.8004 19.0969C16.244 19.382 16.3725 19.9726 16.0875 20.4162C15.8024 20.8598 15.2118 20.9883 14.7682 20.7032L7.82285 16.2401C7.37928 15.955 7.25077 15.3644 7.53581 14.9208Z" fill="#4C4C4C"/>
</svg>
