<svg width="20" height="18" viewBox="0 0 20 18" fill="none" xmlns="http://www.w3.org/2000/svg">
<path d="M7.35718 15.7584C8.48106 16.4073 9.75597 16.749 11.0538 16.749C12.3515 16.7491 13.6265 16.4075 14.7504 15.7586C15.8743 15.1098 16.8077 14.1765 17.4566 13.0526C18.1055 11.9287 18.4471 10.6537 18.4471 9.35596C18.4471 8.05817 18.1055 6.78325 17.4566 5.65934C16.8077 4.53543 15.8743 3.60214 14.7504 2.95328C13.6265 2.30442 12.3515 1.96284 11.0538 1.96289C9.75597 1.96294 8.48106 2.30461 7.35718 2.95356" stroke="black" stroke-width="2"/>
<path d="M1.81229 9.35548L1.09146 8.77789L0.629395 9.35548L1.09146 9.93306L1.81229 9.35548ZM10.1295 10.2796C10.3746 10.2796 10.6096 10.1822 10.7829 10.0089C10.9563 9.83563 11.0536 9.60057 11.0536 9.35548C11.0536 9.11038 10.9563 8.87532 10.7829 8.70202C10.6096 8.52871 10.3746 8.43134 10.1295 8.43134V10.2796ZM4.78799 4.15723L1.09146 8.77789L2.53311 9.93306L6.22964 5.31239L4.78799 4.15723ZM1.09146 9.93306L4.78799 14.5537L6.22964 13.3986L2.53311 8.77789L1.09146 9.93306ZM1.81229 10.2796H10.1295V8.43134H1.81229V10.2796Z" fill="black"/>
</svg>
