<svg width="341" height="315" viewBox="0 0 341 315" fill="none" xmlns="http://www.w3.org/2000/svg">
<path d="M80.3839 299.677C99.4457 318.887 144.876 310.546 164.316 297.592C227.43 255.524 338.155 185.36 340.832 87.6383C341.966 46.0994 304.968 25.2233 289.576 19.2125C252.609 4.78167 212.352 1.172 172.693 0.382136C131.27 -0.44722 86.9189 2.10404 50.1495 23.2882C36.2291 31.3053 23.1512 41.4708 14.3643 55.1355C5.44362 69.0055 0.51479 85.3872 -0.493022 101.824C-2.11497 128.332 5.63258 154.682 16.9547 178.686C28.2847 202.69 43.1421 224.814 56.842 247.538C65.7863 262.364 64.3219 283.493 80.3839 299.677Z" fill="#0064FF"/>
<path opacity="0.7" d="M80.3839 299.677C99.4457 318.887 144.876 310.546 164.316 297.592C227.43 255.524 338.155 185.36 340.832 87.6383C341.966 46.0994 304.968 25.2233 289.576 19.2125C252.609 4.78167 212.352 1.172 172.693 0.382136C131.27 -0.44722 86.9189 2.10404 50.1495 23.2882C36.2291 31.3053 23.1512 41.4708 14.3643 55.1355C5.44362 69.0055 0.51479 85.3872 -0.493022 101.824C-2.11497 128.332 5.63258 154.682 16.9547 178.686C28.2847 202.69 43.1421 224.814 56.842 247.538C65.7863 262.364 64.3219 283.493 80.3839 299.677Z" fill="white"/>
<path d="M259.105 255.847H254.058C252.499 255.847 251.042 254.583 250.798 253.027L249.578 245.334" stroke="#263238" stroke-width="1.41141" stroke-miterlimit="10" stroke-linecap="round" stroke-linejoin="round"/>
<path d="M277.174 245.334L278.395 253.027C278.639 254.583 277.584 255.847 276.025 255.847H261.593" stroke="#263238" stroke-width="1.41141" stroke-miterlimit="10" stroke-linecap="round" stroke-linejoin="round"/>
<path d="M267.207 234.822H272.687C274.238 234.822 275.702 236.086 275.946 237.642L276.687 242.302" stroke="#263238" stroke-width="1.41141" stroke-miterlimit="10" stroke-linecap="round" stroke-linejoin="round"/>
<path d="M263.372 234.822H265.12" stroke="#263238" stroke-width="1.41141" stroke-miterlimit="10" stroke-linecap="round" stroke-linejoin="round"/>
<path d="M249.231 243.203L248.35 237.642C248.105 236.086 249.16 234.822 250.719 234.822H259.837" stroke="#263238" stroke-width="1.41141" stroke-miterlimit="10" stroke-linecap="round" stroke-linejoin="round"/>
<path d="M269.593 230.549H267.561C267.207 230.549 266.892 230.77 266.758 231.094L266.081 232.839H254.05C252.814 232.839 251.759 233.645 251.381 234.759" stroke="#263238" stroke-width="1.41141" stroke-miterlimit="10" stroke-linecap="round" stroke-linejoin="round"/>
<path d="M278.843 235.669C278.843 234.176 277.686 232.968 276.229 232.865L275.544 231.104C275.418 230.772 275.096 230.559 274.741 230.559H270.938" stroke="#263238" stroke-width="1.41141" stroke-miterlimit="10" stroke-linecap="round" stroke-linejoin="round"/>
<path d="M276.033 255.849C277.592 255.849 278.852 254.585 278.852 253.021V238.559" stroke="#263238" stroke-width="1.41141" stroke-miterlimit="10" stroke-linecap="round" stroke-linejoin="round"/>
<path d="M208.706 248.141L207.037 237.628C206.793 236.072 207.848 234.809 209.407 234.809H213.029" stroke="#263238" stroke-width="1.41141" stroke-miterlimit="10" stroke-linecap="round" stroke-linejoin="round"/>
<path d="M225.273 255.844H212.746C211.187 255.844 209.73 254.581 209.486 253.025L209.1 250.584" stroke="#263238" stroke-width="1.41141" stroke-miterlimit="10" stroke-linecap="round" stroke-linejoin="round"/>
<path d="M231.296 255.846H227.139" stroke="#263238" stroke-width="1.41141" stroke-miterlimit="10" stroke-linecap="round" stroke-linejoin="round"/>
<path d="M216.194 234.818H231.374C232.933 234.818 234.39 236.082 234.634 237.638L237.083 253.033C237.327 254.589 236.272 255.852 234.713 255.852" stroke="#263238" stroke-width="1.41141" stroke-miterlimit="10" stroke-linecap="round" stroke-linejoin="round"/>
<path d="M219.768 232.844H212.745C211.509 232.844 210.454 233.649 210.076 234.763" stroke="#263238" stroke-width="1.41141" stroke-miterlimit="10" stroke-linecap="round" stroke-linejoin="round"/>
<path d="M237.531 245.331V235.663C237.531 234.17 236.374 232.962 234.917 232.859L234.232 231.098C234.106 230.766 233.784 230.553 233.429 230.553H226.249C225.894 230.553 225.579 230.774 225.445 231.098L224.768 232.843H222.052" stroke="#263238" stroke-width="1.41141" stroke-miterlimit="10" stroke-linecap="round" stroke-linejoin="round"/>
<path d="M234.713 255.844C236.264 255.844 237.532 254.581 237.532 253.017V247.195" stroke="#263238" stroke-width="1.41141" stroke-miterlimit="10" stroke-linecap="round" stroke-linejoin="round"/>
<path d="M217.785 217.787H212.738C211.179 217.787 209.722 216.523 209.478 214.967L208.258 207.273" stroke="#263238" stroke-width="1.41141" stroke-miterlimit="10" stroke-linecap="round" stroke-linejoin="round"/>
<path d="M235.854 207.273L237.075 214.967C237.319 216.523 236.264 217.787 234.705 217.787H220.273" stroke="#263238" stroke-width="1.41141" stroke-miterlimit="10" stroke-linecap="round" stroke-linejoin="round"/>
<path d="M225.887 196.762H231.367C232.926 196.762 234.382 198.026 234.626 199.582L235.366 204.242" stroke="#263238" stroke-width="1.41141" stroke-miterlimit="10" stroke-linecap="round" stroke-linejoin="round"/>
<path d="M222.06 196.762H223.8" stroke="#263238" stroke-width="1.41141" stroke-miterlimit="10" stroke-linecap="round" stroke-linejoin="round"/>
<path d="M207.919 205.136L207.037 199.576C206.793 198.02 207.848 196.756 209.407 196.756H218.525" stroke="#263238" stroke-width="1.41141" stroke-miterlimit="10" stroke-linecap="round" stroke-linejoin="round"/>
<path d="M228.272 192.488H226.24C225.886 192.488 225.571 192.709 225.437 193.033L224.76 194.779H212.745C211.509 194.779 210.454 195.585 210.076 196.698" stroke="#263238" stroke-width="1.41141" stroke-miterlimit="10" stroke-linecap="round" stroke-linejoin="round"/>
<path d="M237.531 197.608C237.531 196.116 236.374 194.907 234.917 194.804L234.232 193.043C234.106 192.711 233.783 192.498 233.429 192.498H229.626" stroke="#263238" stroke-width="1.41141" stroke-miterlimit="10" stroke-linecap="round" stroke-linejoin="round"/>
<path d="M234.712 217.788C236.263 217.788 237.531 216.524 237.531 214.96V200.498" stroke="#263238" stroke-width="1.41141" stroke-miterlimit="10" stroke-linecap="round" stroke-linejoin="round"/>
<path d="M250.019 210.083L248.35 199.57C248.105 198.014 249.16 196.75 250.719 196.75H254.341" stroke="#263238" stroke-width="1.41141" stroke-miterlimit="10" stroke-linecap="round" stroke-linejoin="round"/>
<path d="M266.585 217.786H254.058C252.499 217.786 251.042 216.522 250.798 214.966L250.413 212.525" stroke="#263238" stroke-width="1.41141" stroke-miterlimit="10" stroke-linecap="round" stroke-linejoin="round"/>
<path d="M272.608 217.787H268.458" stroke="#263238" stroke-width="1.41141" stroke-miterlimit="10" stroke-linecap="round" stroke-linejoin="round"/>
<path d="M257.514 196.76H272.695C274.246 196.76 275.71 198.024 275.954 199.58L278.403 214.974C278.647 216.53 277.592 217.794 276.033 217.794" stroke="#263238" stroke-width="1.41141" stroke-miterlimit="10" stroke-linecap="round" stroke-linejoin="round"/>
<path d="M261.081 194.777H254.058C252.821 194.777 251.766 195.583 251.388 196.697" stroke="#263238" stroke-width="1.41141" stroke-miterlimit="10" stroke-linecap="round" stroke-linejoin="round"/>
<path d="M278.844 207.272V197.605C278.844 196.112 277.686 194.903 276.23 194.801L275.545 193.039C275.419 192.707 275.096 192.494 274.741 192.494H267.561C267.207 192.494 266.892 192.715 266.758 193.039L266.081 194.785H263.364" stroke="#263238" stroke-width="1.41141" stroke-miterlimit="10" stroke-linecap="round" stroke-linejoin="round"/>
<path d="M276.033 217.786C277.592 217.786 278.852 216.522 278.852 214.958V209.137" stroke="#263238" stroke-width="1.41141" stroke-miterlimit="10" stroke-linecap="round" stroke-linejoin="round"/>
<path d="M46.1021 160.89H24.135C22.576 160.89 21.1194 159.626 20.8754 158.07L18.4267 142.675C18.1826 141.119 19.2377 139.855 20.7966 139.855H42.7716C44.3227 139.855 45.7872 141.119 46.0313 142.675L48.4799 158.07C48.7161 159.626 47.6611 160.89 46.1021 160.89Z" stroke="#263238" stroke-width="1.41141" stroke-miterlimit="10" stroke-linecap="round" stroke-linejoin="round"/>
<path d="M46.1018 160.891C47.6529 160.891 48.9206 159.627 48.9206 158.063V140.71C48.9206 139.217 47.7632 138.009 46.3066 137.906L45.6216 136.145C45.4956 135.813 45.1728 135.6 44.8185 135.6H37.6378C37.2835 135.6 36.9686 135.821 36.8347 136.145L36.1576 137.89H24.1347C22.8986 137.89 21.8435 138.696 21.4656 139.81" stroke="#263238" stroke-width="1.41141" stroke-miterlimit="10" stroke-linecap="round" stroke-linejoin="round"/>
<path d="M209.045 221.865C211.359 221.865 213.234 219.984 213.234 217.663C213.234 215.342 211.359 213.461 209.045 213.461C206.732 213.461 204.856 215.342 204.856 217.663C204.856 219.984 206.732 221.865 209.045 221.865Z" fill="white" stroke="#263238" stroke-width="1.41141" stroke-miterlimit="10" stroke-linecap="round" stroke-linejoin="round"/>
<path d="M208.258 216.08C208.738 216.08 208.849 215.843 208.951 215.574H209.376V219.571H208.746V216.522H208.266V216.08H208.258Z" fill="#263238"/>
<path d="M257.514 217.663C257.514 219.985 255.641 221.865 253.326 221.865C251.011 221.865 249.137 219.985 249.137 217.663C249.137 215.341 251.011 213.461 253.326 213.461C255.633 213.461 257.514 215.341 257.514 217.663Z" fill="white" stroke="#263238" stroke-width="1.41141" stroke-miterlimit="10" stroke-linecap="round" stroke-linejoin="round"/>
<path d="M253.341 216.106C253.144 216.106 253.018 216.216 253.018 216.501V216.927H252.428V216.54C252.428 215.9 252.751 215.537 253.365 215.537C253.979 215.537 254.302 215.9 254.302 216.54C254.302 217.069 254.105 217.496 253.53 218.12C253.16 218.523 253.058 218.712 253.058 218.918C253.058 218.949 253.058 218.973 253.065 219.005H254.247V219.573H252.436V219.084C252.436 218.641 252.593 218.302 253.065 217.812C253.546 217.306 253.68 216.99 253.68 216.564C253.664 216.201 253.538 216.106 253.341 216.106Z" fill="#263238"/>
<path d="M213.226 255.849C213.226 258.171 211.352 260.051 209.038 260.051C206.723 260.051 204.849 258.171 204.849 255.849C204.849 253.526 206.723 251.646 209.038 251.646C211.352 251.646 213.226 253.526 213.226 255.849Z" fill="white" stroke="#263238" stroke-width="1.41141" stroke-miterlimit="10" stroke-linecap="round" stroke-linejoin="round"/>
<path d="M209.353 254.744C209.353 254.38 209.227 254.285 209.03 254.285C208.833 254.285 208.707 254.396 208.707 254.68V254.941H208.116V254.728C208.116 254.088 208.431 253.725 209.053 253.725C209.668 253.725 209.99 254.088 209.99 254.728V254.83C209.99 255.257 209.857 255.525 209.549 255.644V255.652C209.864 255.786 209.99 256.078 209.99 256.489V256.805C209.99 257.445 209.668 257.808 209.053 257.808C208.439 257.808 208.116 257.445 208.116 256.805V256.473H208.707V256.845C208.707 257.129 208.833 257.239 209.03 257.239C209.227 257.239 209.353 257.145 209.353 256.789V256.473C209.353 256.102 209.227 255.968 208.943 255.968H208.731V255.399H208.975C209.211 255.399 209.353 255.296 209.353 254.973V254.744Z" fill="#263238"/>
<path d="M257.514 255.849C257.514 258.171 255.64 260.051 253.325 260.051C251.011 260.051 249.137 258.171 249.137 255.849C249.137 253.526 251.011 251.646 253.325 251.646C255.632 251.646 257.514 253.526 257.514 255.849Z" fill="white" stroke="#263238" stroke-width="1.41141" stroke-miterlimit="10" stroke-linecap="round" stroke-linejoin="round"/>
<path d="M252.278 256.465L253.42 253.764H254.105V256.465H254.396V257.034H254.097V257.76H253.467V257.034H252.271V256.465H252.278ZM253.475 256.465V254.988H253.467L252.861 256.465H253.475Z" fill="#263238"/>
<path d="M283.82 131.637H298.937" stroke="#263238" stroke-width="1.41141" stroke-miterlimit="10" stroke-linecap="round" stroke-linejoin="round"/>
<path d="M277.796 141.865V131.637H281.332" stroke="#263238" stroke-width="1.41141" stroke-miterlimit="10" stroke-linecap="round" stroke-linejoin="round"/>
<path d="M280.812 165.278H277.796V143.715" stroke="#263238" stroke-width="1.41141" stroke-miterlimit="10" stroke-linecap="round" stroke-linejoin="round"/>
<path d="M286.315 165.279H282.52" stroke="#263238" stroke-width="1.41141" stroke-miterlimit="10" stroke-linecap="round" stroke-linejoin="round"/>
<path d="M306.283 164.734V165.279H290.26" stroke="#263238" stroke-width="1.41141" stroke-miterlimit="10" stroke-linecap="round" stroke-linejoin="round"/>
<path d="M306.283 139.018V162.698" stroke="#263238" stroke-width="1.41141" stroke-miterlimit="10" stroke-linecap="round" stroke-linejoin="round"/>
<path d="M311.007 134.278V160.541H282.521V126.9H303.661L308.598 131.861L311.007 134.278Z" fill="white" stroke="#263238" stroke-width="1.41141" stroke-miterlimit="10" stroke-linecap="round" stroke-linejoin="round"/>
<path d="M311.007 134.278H303.661V126.9L308.598 131.861L311.007 134.278Z" fill="white" stroke="#263238" stroke-width="1.41141" stroke-miterlimit="10" stroke-linecap="round" stroke-linejoin="round"/>
<path d="M296.764 140.119V147.307" stroke="#263238" stroke-width="1.41141" stroke-miterlimit="10" stroke-linecap="round" stroke-linejoin="round"/>
<path d="M300.346 143.713H293.181" stroke="#263238" stroke-width="1.41141" stroke-miterlimit="10" stroke-linecap="round" stroke-linejoin="round"/>
<path d="M108.594 70.5794V113.082H62.4949V58.6445H96.6975L104.697 66.6695L108.594 70.5794Z" fill="#0064FF" stroke="#263238" stroke-width="1.41141" stroke-miterlimit="10" stroke-linecap="round" stroke-linejoin="round"/>
<path d="M72.7461 66.8262H102.642" stroke="#263238" stroke-width="1.41141" stroke-miterlimit="10" stroke-linecap="round" stroke-linejoin="round"/>
<path d="M68.5339 72.2754H102.642" stroke="#263238" stroke-width="1.41141" stroke-miterlimit="10" stroke-linecap="round" stroke-linejoin="round"/>
<path d="M68.5339 77.7188H102.642" stroke="#263238" stroke-width="1.41141" stroke-miterlimit="10" stroke-linecap="round" stroke-linejoin="round"/>
<path d="M68.5339 83.168H102.642" stroke="#263238" stroke-width="1.41141" stroke-miterlimit="10" stroke-linecap="round" stroke-linejoin="round"/>
<path d="M68.5339 88.6094H102.642" stroke="#263238" stroke-width="1.41141" stroke-miterlimit="10" stroke-linecap="round" stroke-linejoin="round"/>
<path d="M68.5339 94.0527H102.642" stroke="#263238" stroke-width="1.41141" stroke-miterlimit="10" stroke-linecap="round" stroke-linejoin="round"/>
<path d="M68.5339 99.5039H102.642" stroke="#263238" stroke-width="1.41141" stroke-miterlimit="10" stroke-linecap="round" stroke-linejoin="round"/>
<path d="M68.5339 104.945H98.4376" stroke="#263238" stroke-width="1.41141" stroke-miterlimit="10" stroke-linecap="round" stroke-linejoin="round"/>
<path d="M108.594 70.5794H96.6975V58.6445L104.697 66.6695L108.594 70.5794Z" fill="#0064FF" stroke="#263238" stroke-width="1.41141" stroke-miterlimit="10" stroke-linecap="round" stroke-linejoin="round"/>
<path d="M259.593 57.0735V99.576H213.493V45.1387H247.696L255.696 53.1637L259.593 57.0735Z" fill="#0064FF" stroke="#263238" stroke-width="1.41141" stroke-miterlimit="10" stroke-linecap="round" stroke-linejoin="round"/>
<path d="M223.744 53.332H253.648" stroke="#263238" stroke-width="1.41141" stroke-miterlimit="10" stroke-linecap="round" stroke-linejoin="round"/>
<path d="M219.54 58.7715H253.648" stroke="#263238" stroke-width="1.41141" stroke-miterlimit="10" stroke-linecap="round" stroke-linejoin="round"/>
<path d="M219.54 64.2168H253.648" stroke="#263238" stroke-width="1.41141" stroke-miterlimit="10" stroke-linecap="round" stroke-linejoin="round"/>
<path d="M219.54 69.6641H253.648" stroke="#263238" stroke-width="1.41141" stroke-miterlimit="10" stroke-linecap="round" stroke-linejoin="round"/>
<path d="M219.54 75.1113H253.648" stroke="#263238" stroke-width="1.41141" stroke-miterlimit="10" stroke-linecap="round" stroke-linejoin="round"/>
<path d="M219.54 80.5586H253.648" stroke="#263238" stroke-width="1.41141" stroke-miterlimit="10" stroke-linecap="round" stroke-linejoin="round"/>
<path d="M219.54 86.002H253.648" stroke="#263238" stroke-width="1.41141" stroke-miterlimit="10" stroke-linecap="round" stroke-linejoin="round"/>
<path d="M219.54 91.4414H249.436" stroke="#263238" stroke-width="1.41141" stroke-miterlimit="10" stroke-linecap="round" stroke-linejoin="round"/>
<path d="M259.593 57.0735H247.697V45.1387L255.696 53.1637L259.593 57.0735Z" fill="#0064FF" stroke="#263238" stroke-width="1.41141" stroke-miterlimit="10" stroke-linecap="round" stroke-linejoin="round"/>
<path d="M264.576 101.678V106.417H259.852" stroke="#263238" stroke-width="1.41141" stroke-linecap="round" stroke-linejoin="round"/>
<path d="M250.53 106.416H217.894" stroke="#263238" stroke-width="1.41141" stroke-linecap="round" stroke-linejoin="round" stroke-dasharray="16.71 16.71"/>
<path d="M213.233 106.417H208.509V101.678" stroke="#263238" stroke-width="1.41141" stroke-linecap="round" stroke-linejoin="round"/>
<path d="M208.509 93.3091V47.2363" stroke="#263238" stroke-width="1.41141" stroke-linecap="round" stroke-linejoin="round" stroke-dasharray="14.97 14.97"/>
<path d="M208.509 43.0478V38.3086H213.233" stroke="#263238" stroke-width="1.41141" stroke-linecap="round" stroke-linejoin="round"/>
<path d="M222.555 38.3086H255.191" stroke="#263238" stroke-width="1.41141" stroke-linecap="round" stroke-linejoin="round" stroke-dasharray="16.71 16.71"/>
<path d="M259.852 38.3086H264.576V43.0478" stroke="#263238" stroke-width="1.41141" stroke-linecap="round" stroke-linejoin="round"/>
<path d="M264.577 51.4219V97.4946" stroke="#263238" stroke-width="1.41141" stroke-linecap="round" stroke-linejoin="round" stroke-dasharray="14.97 14.97"/>
<path d="M114.224 87.1463L198.18 73.9082" stroke="#263238" stroke-width="1.41141" stroke-miterlimit="10" stroke-linecap="round" stroke-linejoin="round" stroke-dasharray="16.94 16.94"/>
<path d="M199.849 73.5126L197.282 72.5332L197.888 75.4478L199.849 73.5126Z" fill="#263238"/>
<path d="M115.082 87.1442C115.082 87.6181 114.697 88.0051 114.224 88.0051C113.752 88.0051 113.366 87.6181 113.366 87.1442C113.366 86.6702 113.752 86.2832 114.224 86.2832C114.697 86.2832 115.082 86.6702 115.082 87.1442Z" fill="#263238"/>
<path d="M267.674 45.3008C270.389 42.5771 270.389 38.1612 267.674 35.4375C264.959 32.7138 260.557 32.7138 257.842 35.4375C255.127 38.1612 255.127 42.5771 257.842 45.3008C260.557 48.0245 264.959 48.0245 267.674 45.3008Z" fill="white" stroke="#263238" stroke-width="1.41141" stroke-miterlimit="10" stroke-linecap="round" stroke-linejoin="round"/>
<path d="M262.758 36.7754V43.9631" stroke="#263238" stroke-width="1.41141" stroke-miterlimit="10" stroke-linecap="round" stroke-linejoin="round"/>
<path d="M266.341 40.3691H259.176" stroke="#263238" stroke-width="1.41141" stroke-miterlimit="10" stroke-linecap="round" stroke-linejoin="round"/>
<path d="M146.403 154.389C145.467 154.389 143.656 151.83 142.601 150.203C142.569 153.56 142.64 162.162 144.089 161.609C145.892 160.922 147.773 154.389 146.403 154.389Z" fill="white" stroke="#263238" stroke-width="1.41141" stroke-miterlimit="10" stroke-linecap="round" stroke-linejoin="round"/>
<path d="M142.341 177.966C141.837 178.582 141.136 179.111 140.27 179.553C137.971 180.738 134.506 181.299 130.53 181.149C114.5 180.533 90.0919 168.306 99.674 138.093C105.548 119.547 132.286 125.724 139.112 132.786C141.506 135.258 143.498 140.455 144.774 146.553C145.238 148.78 144.309 151.126 144.569 153.504C144.797 155.652 146.238 157.824 146.277 159.965C146.411 167.429 145.262 174.388 142.341 177.966Z" fill="white" stroke="#263238" stroke-width="1.41141" stroke-miterlimit="10" stroke-linecap="round" stroke-linejoin="round"/>
<path d="M140.27 179.554C137.971 180.739 134.506 181.299 130.53 181.149C131.624 179.262 133.239 177.129 133.239 177.129C133.239 177.129 138.53 177.911 140.27 179.554Z" fill="#263238"/>
<path d="M135.396 177.003C135.396 177.003 133.94 195.296 136.341 199.419C138.743 203.542 115.602 207.673 106.351 199.419C106.351 199.419 111.634 185.802 111.122 172.65" fill="white"/>
<path d="M135.396 177.003C135.396 177.003 133.94 195.296 136.341 199.419C138.743 203.542 115.602 207.673 106.351 199.419C106.351 199.419 111.634 185.802 111.122 172.65" stroke="#263238" stroke-width="1.41141" stroke-miterlimit="10" stroke-linecap="round" stroke-linejoin="round"/>
<path d="M139.112 142.083C139.112 142.083 146.317 139.026 143.884 128.877C140.459 114.58 132.743 123.411 130.176 121.278C126.184 117.976 118.523 114.951 112.35 120.18C106.177 125.409 102.414 125.986 94.5246 133.434C86.6432 140.882 86.6432 157.58 94.5246 164.191C102.406 170.803 104.461 177.745 112.004 179.941C119.547 182.145 130.79 179.183 133.05 173.441C135.309 167.698 135.309 163.749 135.309 163.749C135.309 163.749 141.852 152.154 139.112 142.083Z" fill="#263238"/>
<path d="M138.569 159.879C138.569 159.879 136.939 152.747 135.915 152.226C134.884 151.712 131.719 157.865 131.805 160.33C131.892 162.794 135.23 167.178 136.86 168.212C138.49 169.247 139.057 166.325 139.12 165.977" fill="white"/>
<path d="M138.569 159.879C138.569 159.879 136.939 152.747 135.915 152.226C134.884 151.712 131.719 157.865 131.805 160.33C131.892 162.794 135.23 167.178 136.86 168.212C138.49 169.247 139.057 166.325 139.12 165.977" stroke="#263238" stroke-width="1.41141" stroke-miterlimit="10" stroke-linecap="round" stroke-linejoin="round"/>
<path d="M136.254 156.184C136.254 156.184 134.971 160.401 136.853 163.837" stroke="#263238" stroke-width="1.41141" stroke-miterlimit="10" stroke-linecap="round" stroke-linejoin="round"/>
<path opacity="0.2" d="M138.065 133.945C137.868 136.196 137.293 138.914 135.396 140.367" stroke="white" stroke-width="1.41141" stroke-miterlimit="10" stroke-linecap="round" stroke-linejoin="round"/>
<path opacity="0.2" d="M125.452 125.055C127.979 123.91 131.467 122.528 134.262 123.262C137.711 124.171 138.112 129.092 138.144 132.038" stroke="white" stroke-width="1.41141" stroke-miterlimit="10" stroke-linecap="round" stroke-linejoin="round"/>
<path opacity="0.2" d="M130.798 146.6C130.412 147.848 129.908 149.056 129.286 150.209" stroke="white" stroke-width="1.41141" stroke-miterlimit="10" stroke-linecap="round" stroke-linejoin="round"/>
<path opacity="0.2" d="M118.562 130.888C121.68 129.996 125.593 129.387 128.31 131.623C131.845 134.529 132.089 140.698 131.254 144.813" stroke="white" stroke-width="1.41141" stroke-miterlimit="10" stroke-linecap="round" stroke-linejoin="round"/>
<path opacity="0.2" d="M121.696 142.398C124.404 147.398 124.365 157.588 118.082 160.004" stroke="white" stroke-width="1.41141" stroke-miterlimit="10" stroke-linecap="round" stroke-linejoin="round"/>
<path opacity="0.2" d="M112.783 136.718C115.46 135.091 119.326 138.985 120.719 140.865" stroke="white" stroke-width="1.41141" stroke-miterlimit="10" stroke-linecap="round" stroke-linejoin="round"/>
<path opacity="0.2" d="M119.806 121.387C118.775 120.178 117.271 119.507 115.696 119.949" stroke="white" stroke-width="1.41141" stroke-miterlimit="10" stroke-linecap="round" stroke-linejoin="round"/>
<path opacity="0.2" d="M122.105 126.023C121.806 124.917 121.373 123.835 120.814 122.84" stroke="white" stroke-width="1.41141" stroke-miterlimit="10" stroke-linecap="round" stroke-linejoin="round"/>
<path opacity="0.2" d="M114.24 131.74C114.24 131.74 114.657 123.596 108.736 125.832" stroke="white" stroke-width="1.41141" stroke-miterlimit="10" stroke-linecap="round" stroke-linejoin="round"/>
<path opacity="0.2" d="M102.13 131.803C100.934 131.59 99.7289 131.89 98.666 132.451" stroke="white" stroke-width="1.41141" stroke-miterlimit="10" stroke-linecap="round" stroke-linejoin="round"/>
<path opacity="0.2" d="M107.075 137.139C106.429 135.251 105.264 133.316 103.5 132.305" stroke="white" stroke-width="1.41141" stroke-miterlimit="10" stroke-linecap="round" stroke-linejoin="round"/>
<path opacity="0.2" d="M102.406 164.625C103.28 165.249 104.217 165.786 105.201 166.197" stroke="white" stroke-width="1.41141" stroke-miterlimit="10" stroke-linecap="round" stroke-linejoin="round"/>
<path opacity="0.2" d="M98.9414 145.146C97.3667 150.202 96.8077 159.38 101.004 163.456" stroke="white" stroke-width="1.41141" stroke-miterlimit="10" stroke-linecap="round" stroke-linejoin="round"/>
<path opacity="0.2" d="M107.075 140.146C103.682 138.606 100.879 140.462 99.4929 143.653" stroke="white" stroke-width="1.41141" stroke-miterlimit="10" stroke-linecap="round" stroke-linejoin="round"/>
<path d="M104.264 193.061L108.122 181.893C108.122 181.893 135.939 178.22 142.6 187.477C149.253 196.734 104.264 193.061 104.264 193.061Z" fill="#0064FF" stroke="#263238" stroke-width="1.41141" stroke-miterlimit="10" stroke-linecap="round" stroke-linejoin="round"/>
<path d="M54.4252 177.006C54.4252 177.006 51.3073 171.84 51.5356 170.513C51.7561 169.194 50.9845 163.026 51.5277 160.04C52.0946 156.912 54.4331 157.583 54.4331 157.583C54.4331 157.583 55.3858 151.565 57.8738 152.007C57.8738 152.007 58.2124 144.63 59.1099 143.066C59.9997 141.502 60.4484 140.538 60.4484 140.538C60.4484 140.538 62.2279 139.717 62.2279 142.394C62.2279 145.072 62.2279 149.985 62.2279 149.985L64.2277 141.944L67.1252 137.939C67.1252 137.939 69.1251 140.048 67.4559 143.058C66.2197 145.285 67.4165 159.131 67.4165 159.131C70.2352 158.46 71.125 155.782 71.125 155.782C71.125 155.782 72.1406 152.947 74.7468 152.244C77.3529 151.541 74.92 154.669 73.9673 159.131C73.0146 163.594 66.9284 173.42 63.7947 175.434" fill="white"/>
<path d="M54.4252 177.006C54.4252 177.006 51.3073 171.84 51.5356 170.513C51.7561 169.194 50.9845 163.026 51.5277 160.04C52.0946 156.912 54.4331 157.583 54.4331 157.583C54.4331 157.583 55.3858 151.565 57.8738 152.007C57.8738 152.007 58.2124 144.63 59.1099 143.066C59.9997 141.502 60.4484 140.538 60.4484 140.538C60.4484 140.538 62.2279 139.717 62.2279 142.394C62.2279 145.072 62.2279 149.985 62.2279 149.985L64.2277 141.944L67.1252 137.939C67.1252 137.939 69.1251 140.048 67.4559 143.058C66.2197 145.285 67.4165 159.131 67.4165 159.131C70.2352 158.46 71.125 155.782 71.125 155.782C71.125 155.782 72.1406 152.947 74.7468 152.244C77.3529 151.541 74.92 154.669 73.9673 159.131C73.0146 163.594 66.9284 173.42 63.7947 175.434" stroke="#263238" stroke-width="1.41141" stroke-miterlimit="10" stroke-linecap="round" stroke-linejoin="round"/>
<path d="M65.5032 171.746L57.7636 216.342L81.5495 202.393L76.7073 236.847C76.7073 236.847 46.0477 251.04 39.1584 252.557C32.2691 254.074 30.5448 234.374 31.5762 229.193C32.6076 224.011 51.6222 184.692 54 173.594" fill="white"/>
<path d="M65.5032 171.746L57.7636 216.342L81.5495 202.393L76.7073 236.847C76.7073 236.847 46.0477 251.04 39.1584 252.557C32.2691 254.074 30.5448 234.374 31.5762 229.193C32.6076 224.011 51.6222 184.692 54 173.594" stroke="#263238" stroke-width="1.41141" stroke-miterlimit="10" stroke-linecap="round" stroke-linejoin="round"/>
<path d="M39.6228 225.394C39.6228 225.394 44.6776 221.018 52.9448 218.254" stroke="#263238" stroke-width="1.41141" stroke-miterlimit="10" stroke-linecap="round" stroke-linejoin="round"/>
<path d="M90.1006 193.785L89.077 225.917L88.6204 240.253L65.3226 246.121L59.1104 247.685C46.2844 239.005 48.1741 216.399 48.1741 216.399L54.4256 211.889L58.1734 212.639C58.1734 212.639 81.7468 195.136 90.1006 193.785Z" fill="#0064FF"/>
<mask id="mask0_550_2552" style="mask-type:luminance" maskUnits="userSpaceOnUse" x="48" y="193" width="43" height="55">
<path d="M90.1008 193.791L89.0773 225.923L88.6206 240.259L65.3228 246.127L59.1106 247.691C46.2847 239.011 48.1743 216.405 48.1743 216.405L54.4259 211.895L58.1737 212.645C58.1737 212.645 81.747 195.142 90.1008 193.791Z" fill="white"/>
</mask>
<g mask="url(#mask0_550_2552)">
<path opacity="0.2" d="M89.0774 225.921L88.6208 240.257L65.323 246.126C63.268 239.91 67.5197 241.616 67.5197 241.616C65.2285 238.235 65.3387 234.531 65.3387 234.531L69.6298 236.513C67.0394 229.95 71.4092 222.572 71.4092 222.572L72.173 229.649C71.4092 222.572 79.7709 210.574 79.7709 210.574C79.7709 210.574 85.9359 215.44 89.0774 225.921Z" fill="black" fill-opacity="0.7"/>
</g>
<path d="M90.1006 193.785L89.077 225.917L88.6204 240.253L65.3226 246.121L59.1104 247.685C46.2844 239.005 48.1741 216.399 48.1741 216.399L54.4256 211.889L58.1734 212.639C58.1734 212.639 81.7468 195.136 90.1006 193.785Z" stroke="#263238" stroke-width="1.41141" stroke-miterlimit="10" stroke-linecap="round" stroke-linejoin="round"/>
<path d="M70.6287 226.143C70.6287 226.143 70.542 232.77 73.6993 238.235" stroke="#263238" stroke-width="1.41141" stroke-miterlimit="10" stroke-linecap="round" stroke-linejoin="round"/>
<path d="M65.3379 236.506C65.3379 236.506 70.3455 242.659 73.9122 243.954" stroke="#263238" stroke-width="1.41141" stroke-miterlimit="10" stroke-linecap="round" stroke-linejoin="round"/>
<path d="M58.1731 212.637C58.1731 212.637 54.0631 221.207 56.4251 229.635" stroke="#263238" stroke-width="1.41141" stroke-miterlimit="10" stroke-linecap="round" stroke-linejoin="round"/>
<path d="M78.7071 204.186C75.1719 214.628 73.983 233.727 73.7468 251.704C73.4476 274.034 74.6286 294.61 74.6286 294.61C93.1944 326.26 135.066 313.148 150.183 307.082C150.238 307.066 150.262 307.058 150.262 307.058C153.726 305.66 155.765 304.649 155.765 304.649C160.671 284.278 163.773 266.285 165.67 250.82V250.812C168.639 226.808 168.709 208.894 168.182 197.67C167.765 188.586 166.946 183.887 166.946 183.887C166.946 183.887 153.679 184.053 138.003 185.166H137.995C129.507 185.767 120.319 186.635 112.146 187.907C106.076 188.847 101.052 190.056 96.9422 191.319C94.281 192.141 89.919 193.618 87.9743 194.345C86.8405 194.771 84.7461 195.94 84.7461 195.94" fill="#0064FF"/>
<path opacity="0.2" d="M138.003 185.164C129.421 188.861 116.177 193.426 111.335 193.276C106.044 193.118 99.7059 192.731 96.9502 191.317C101.06 190.053 106.083 188.845 112.154 187.905C120.327 186.633 129.515 185.764 138.003 185.164Z" fill="black" fill-opacity="0.7"/>
<path opacity="0.2" d="M150.191 307.082C135.074 313.148 93.2022 326.26 74.6365 294.61C74.6365 294.61 73.4554 274.034 73.7546 251.705C79.7228 264.026 99.3908 272.004 99.3908 272.004C99.3908 272.004 97.2177 247.858 99.3908 242.029C101.556 236.192 107.729 202.314 107.729 202.314C107.729 202.314 110.091 209.115 106.351 227.653C102.619 246.191 104.272 272.004 104.272 272.004C113.437 274.002 135.404 272.004 135.404 272.004C119.594 294.484 84.7539 298.275 84.7539 298.275C108.847 318.582 148.23 307.643 150.191 307.082Z" fill="black" fill-opacity="0.7"/>
<path opacity="0.2" d="M165.678 250.809C165.017 245.565 164.395 241.607 164.395 241.607C162.844 254.064 146.427 258.06 150.27 253.85C154.112 249.632 160.962 236.505 160.962 236.505C157.435 226.189 163.19 195.938 163.19 195.938C163.19 195.938 165.19 196.483 168.19 197.667C168.717 208.891 168.646 226.805 165.678 250.809Z" fill="black" fill-opacity="0.7"/>
<path d="M155.773 304.649C160.678 284.278 163.781 266.285 165.678 250.82V250.812C168.646 226.808 168.717 208.894 168.19 197.67C167.772 188.586 166.954 183.887 166.954 183.887C166.954 183.887 153.687 184.053 138.01 185.166H138.003C129.515 185.767 120.327 186.635 112.154 187.907C106.083 188.847 101.06 190.056 96.95 191.319C94.2887 192.141 89.9268 193.618 87.9821 194.345C86.8483 194.771 84.7539 195.94 84.7539 195.94" stroke="#263238" stroke-width="1.41141" stroke-miterlimit="10" stroke-linecap="round" stroke-linejoin="round"/>
<path d="M78.7071 204.188C75.1719 214.629 73.983 233.728 73.7468 251.706C73.4476 274.035 74.6286 294.611 74.6286 294.611" stroke="#263238" stroke-width="1.41141" stroke-miterlimit="10" stroke-linecap="round" stroke-linejoin="round"/>
<path d="M139.94 185.031C139.94 185.031 111.115 196.563 104.265 195.916" stroke="#263238" stroke-width="1.41141" stroke-miterlimit="10" stroke-linecap="round" stroke-linejoin="round"/>
<path d="M107.965 200.648C107.965 200.648 99.6036 257.44 102.407 276.815C102.407 276.815 100.084 295.424 97.5093 307.059" stroke="#263238" stroke-width="1.41141" stroke-miterlimit="10" stroke-linecap="round" stroke-linejoin="round"/>
<path d="M81.5493 267.131C81.5493 267.131 80.2895 275.883 102.406 276.815C124.523 277.755 136.861 268.687 136.861 268.687" stroke="#263238" stroke-width="1.41141" stroke-miterlimit="10" stroke-linecap="round" stroke-linejoin="round"/>
<path d="M229.989 132.769C229.422 128.109 229.013 115.993 229.989 115.219C230.965 114.445 236.107 106.404 236.107 106.404C237.217 106.491 236.878 108.252 236.878 108.252C236.878 108.252 243.563 96.6806 245.106 94.3426C246.649 92.0046 247.673 93.5528 247.421 96.1356C247.421 96.1356 249.255 92.3601 250.074 93.5133C251.704 95.8039 247.933 107.225 247.933 107.225C247.933 107.225 251.334 106.965 251.177 110.835C251.177 110.835 253.247 110.187 253.421 113.568C253.531 115.811 252.46 122.399 250.161 121.024C250.161 121.024 248.712 130.416 239.973 134.934" fill="white"/>
<path d="M229.989 132.769C229.422 128.109 229.013 115.993 229.989 115.219C230.965 114.445 236.107 106.404 236.107 106.404C237.217 106.491 236.878 108.252 236.878 108.252C236.878 108.252 243.563 96.6806 245.106 94.3426C246.649 92.0046 247.673 93.5528 247.421 96.1356C247.421 96.1356 249.255 92.3601 250.074 93.5133C251.704 95.8039 247.933 107.225 247.933 107.225C247.933 107.225 251.334 106.965 251.177 110.835C251.177 110.835 253.247 110.187 253.421 113.568C253.531 115.811 252.46 122.399 250.161 121.024C250.161 121.024 248.712 130.416 239.973 134.934" stroke="#263238" stroke-width="1.41141" stroke-miterlimit="10" stroke-linecap="round" stroke-linejoin="round"/>
<path d="M236.878 108.254C236.878 108.254 234.737 112.077 233.28 114.747C231.823 117.408 231.823 118.87 231.823 118.87" stroke="#263238" stroke-width="1.41141" stroke-miterlimit="10" stroke-linecap="round" stroke-linejoin="round"/>
<path d="M247.421 96.1348C247.421 96.1348 242.445 106.711 241.414 108.259" stroke="#263238" stroke-width="1.41141" stroke-miterlimit="10" stroke-linecap="round" stroke-linejoin="round"/>
<path d="M247.933 107.223C247.933 107.223 245.964 109.197 245.705 109.497" stroke="#263238" stroke-width="1.41141" stroke-miterlimit="10" stroke-linecap="round" stroke-linejoin="round"/>
<path d="M251.177 110.834C251.177 110.834 250.421 111.482 249.129 112.508" stroke="#263238" stroke-width="1.41141" stroke-miterlimit="10" stroke-linecap="round" stroke-linejoin="round"/>
<path d="M250.153 121.025C250.153 121.025 250.586 118.015 250.586 117.755C250.586 117.494 251.956 116.554 252.389 115.18" stroke="#263238" stroke-width="1.41141" stroke-miterlimit="10" stroke-linecap="round" stroke-linejoin="round"/>
<path d="M230.438 128.842C230.438 128.842 229.06 133.297 219.808 150.215C210.557 167.126 206.794 176.494 206.794 176.494L189.18 181.336L193.731 209.621C193.731 209.621 224.068 193.563 225.092 191.383C226.123 189.203 233.571 166.321 236.146 155.934C238.721 145.547 241.854 132.886 241.854 132.886" fill="white"/>
<path d="M230.438 128.842C230.438 128.842 229.06 133.297 219.808 150.215C210.557 167.126 206.794 176.494 206.794 176.494L189.18 181.336L193.731 209.621C193.731 209.621 224.068 193.563 225.092 191.383C226.123 189.203 233.571 166.321 236.146 155.934C238.721 145.547 241.854 132.886 241.854 132.886" stroke="#263238" stroke-width="1.41141" stroke-miterlimit="10" stroke-linecap="round" stroke-linejoin="round"/>
<path d="M204.266 197.93C202.683 204.32 199.762 207.772 197.282 209.612C194.92 211.381 192.959 211.689 192.959 211.689L166.953 226.136C166.953 226.136 161.434 213.561 162.812 198.87C163.276 193.981 164.505 188.854 166.953 183.886L191.928 179.455L194.243 177.133H198.353C198.353 177.133 207.352 185.458 204.266 197.93Z" fill="#0064FF"/>
<mask id="mask1_550_2552" style="mask-type:luminance" maskUnits="userSpaceOnUse" x="162" y="177" width="43" height="50">
<path d="M204.266 197.926C202.683 204.316 199.762 207.768 197.282 209.608C194.92 211.377 192.959 211.685 192.959 211.685L166.953 226.132C166.953 226.132 161.434 213.557 162.812 198.866C163.276 193.977 164.505 188.85 166.953 183.882L191.928 179.451L194.243 177.129H198.353C198.353 177.129 207.352 185.454 204.266 197.926Z" fill="white"/>
</mask>
<g mask="url(#mask1_550_2552)">
<path opacity="0.2" d="M197.282 209.609C194.92 211.379 192.959 211.687 192.959 211.687L166.953 226.133C166.953 226.133 161.434 213.559 162.812 198.867C167.717 199.42 166.095 215.999 167.819 216.189C169.685 216.402 177.787 204.183 179.448 204.183C182.102 204.183 179.535 215.818 179.456 216.189C179.819 216.063 191.408 211.71 194.747 205.36C196.416 202.169 197.621 204.894 197.282 209.609Z" fill="black" fill-opacity="0.7"/>
</g>
<path d="M204.266 197.93C202.683 204.32 199.762 207.772 197.282 209.612C194.92 211.381 192.959 211.689 192.959 211.689L166.953 226.136C166.953 226.136 161.434 213.561 162.812 198.87C163.276 193.981 164.505 188.854 166.953 183.886L191.928 179.455L194.243 177.133H198.353C198.353 177.133 207.352 185.458 204.266 197.93Z" stroke="#263238" stroke-width="1.41141" stroke-miterlimit="10" stroke-linecap="round" stroke-linejoin="round"/>
<path d="M191.928 179.465C191.928 179.465 198.652 185.792 197.408 196.463" stroke="#263238" stroke-width="1.41141" stroke-miterlimit="10" stroke-linecap="round" stroke-linejoin="round"/>
<path d="M176.858 209.613C176.858 209.613 169.252 219.668 166.953 226.145C166.953 226.145 160.655 246.903 151.931 252.645" stroke="#263238" stroke-width="1.41141" stroke-miterlimit="10" stroke-linecap="round" stroke-linejoin="round"/>
<path d="M206.793 176.488C206.793 176.488 210.801 175.319 212.982 177.009" stroke="#263238" stroke-width="1.41141" stroke-miterlimit="10" stroke-linecap="round" stroke-linejoin="round"/>
</svg>
