<svg width="31" height="18" viewBox="0 0 31 18" fill="none" xmlns="http://www.w3.org/2000/svg">
<g clip-path="url(#clip0_2661_699)">
<path d="M15.8482 5.94926C15.831 8.25086 17.0573 9.53517 17.9811 10.2988C18.9302 11.0823 19.249 11.5847 19.2452 12.2855C19.2381 13.3577 18.4881 13.831 17.7863 13.8494C16.5619 13.8815 15.8499 13.2886 15.2839 12.8401L14.8429 16.3414C15.4107 16.7853 16.4622 17.1725 17.5526 17.1895C20.1121 17.1895 21.7865 15.0461 21.7956 11.723C21.8056 7.50558 18.3569 7.27214 18.3804 5.38705C18.3886 4.81544 18.7101 4.20547 19.4146 4.05037C19.7633 3.97203 20.726 3.91207 21.8174 4.76468L22.2458 1.37703C21.6588 1.01448 20.9045 0.667322 19.9653 0.667322C17.5562 0.667322 15.8618 2.83981 15.8482 5.94926ZM26.362 0.95912C25.8946 0.95912 25.5007 1.4216 25.325 2.13131L21.6688 16.9406H24.2265L24.7354 14.5545H27.8608L28.156 16.9406H30.4103L28.4431 0.95912H26.362ZM26.7198 5.27632L27.4579 11.2776H25.4364L26.7198 5.27632ZM12.7472 0.95932L10.7312 16.9404H13.1684L15.1835 0.95892H12.7472V0.95932ZM9.14174 0.95892L6.60498 11.8368L5.57882 2.58779C5.45842 1.55531 4.98292 0.95912 4.45488 0.95912H0.308082L0.25 1.4232C1.10132 1.73658 2.06857 2.24203 2.65457 2.78285C3.0132 3.11322 3.11546 3.40202 3.23327 4.18708L5.17684 16.9406H7.75237L11.701 0.95912H9.14174" fill="url(#paint0_linear_2661_699)"/>
</g>
<defs>
<linearGradient id="paint0_linear_2661_699" x1="14.1159" y1="17.5209" x2="14.926" y2="0.57767" gradientUnits="userSpaceOnUse">
<stop stop-color="#222357"/>
<stop offset="1" stop-color="#254AA5"/>
</linearGradient>
<clipPath id="clip0_2661_699">
<rect width="30.1609" height="16.5885" fill="white" transform="translate(0.25 0.666992)"/>
</clipPath>
</defs>
</svg>
