<svg width="22" height="18" viewBox="0 0 22 18" fill="none" xmlns="http://www.w3.org/2000/svg">
<path d="M21.8753 9.40344C20.8549 10.7995 19.6209 12.0286 18.2178 13.0462L17.2468 12.1532C18.4985 11.2819 19.6095 10.227 20.5418 9.02439C17.9524 5.7029 14.5539 3.88475 11 3.88475C10.1885 3.88424 9.37988 3.98132 8.59189 4.17386L7.47847 3.14593C8.61686 2.78454 9.80479 2.60033 11 2.59984C15.1106 2.59984 18.9752 4.74564 21.8753 8.64534C21.9563 8.75537 22 8.88812 22 9.02439C22 9.16067 21.9563 9.29341 21.8753 9.40344ZM13.5894 8.76741L14.7999 9.88528C14.8608 9.60243 14.8891 9.3136 14.884 9.02439C14.8848 8.42049 14.7425 7.82486 14.4687 7.28553C14.1949 6.7462 13.7973 6.27826 13.3079 5.91942C12.8184 5.56059 12.2509 5.3209 11.651 5.21968C11.0511 5.11846 10.4356 5.15855 9.85421 5.3367L11.0712 6.45457C11.703 6.46869 12.3078 6.71165 12.7717 7.13766C13.2355 7.56367 13.5263 8.14333 13.5894 8.76741ZM20.5159 16.9073C20.6365 17.0277 20.7042 17.1905 20.7042 17.3602C20.7042 17.53 20.6365 17.6928 20.5159 17.8132C20.3946 17.9328 20.2306 18 20.0595 18C19.8885 18 19.7244 17.9328 19.6032 17.8132L15.8551 14.3568C15.4179 14.5619 14.9656 14.7337 14.5021 14.8707C13.3716 15.2411 12.1904 15.4361 11 15.4489C6.88939 15.4489 3.02476 13.3031 0.124676 9.40344C0.0436619 9.29341 0 9.16067 0 9.02439C0 8.88812 0.0436619 8.75537 0.124676 8.64534C1.14506 7.24932 2.37912 6.02023 3.78215 5.00262C4.14197 4.74271 4.51582 4.5025 4.90205 4.28307L1.49704 1.14147C1.4281 1.08599 1.3714 1.01704 1.33045 0.938902C1.2895 0.86076 1.26518 0.775096 1.25899 0.687231C1.2528 0.599366 1.26489 0.511178 1.29449 0.428144C1.3241 0.34511 1.37059 0.269005 1.43108 0.204555C1.49157 0.140106 1.56477 0.08869 1.64613 0.0535008C1.72749 0.0183115 1.81527 0.000100913 1.90402 4.18206e-07C1.99277 -0.000100076 2.08059 0.017912 2.16203 0.0529169C2.24347 0.0879218 2.31678 0.139172 2.37742 0.203484L6.12552 3.65989L7.16774 4.61715L8.63721 5.97273L9.60174 6.86574L13.2786 10.2451L14.2367 11.1381L16.101 12.8791L17.0979 13.7914L20.5159 16.9073ZM8.72136 7.80373C8.5174 8.17875 8.41063 8.59823 8.41064 9.02439C8.41064 9.10791 8.41064 9.19786 8.41064 9.28138C8.47368 9.90546 8.76451 10.4851 9.22834 10.9111C9.69217 11.3371 10.297 11.5801 10.9288 11.5942H11C11.4965 11.5951 11.9824 11.4522 12.3983 11.183L8.72136 7.80373ZM14.8323 13.4316L13.3628 12.0761C12.9994 12.3612 12.5871 12.5789 12.1458 12.7185C11.5638 12.8968 10.9478 12.9368 10.3474 12.8353C9.74702 12.7337 9.17911 12.4934 8.68954 12.1339C8.19996 11.7743 7.80245 11.3055 7.5291 10.7654C7.25575 10.2252 7.11423 9.62884 7.11596 9.02439C7.11518 8.7347 7.14776 8.44586 7.21306 8.1635C7.31792 7.71609 7.50441 7.2915 7.7633 6.91072L5.89896 5.16966C5.50537 5.38376 5.12295 5.61749 4.75316 5.86994C3.49958 6.74898 2.38847 7.81271 1.4582 9.02439C4.04756 12.3459 7.4461 14.164 11 14.164C11.8115 14.1645 12.6201 14.0675 13.4081 13.8749C13.8938 13.7643 14.3699 13.6161 14.8323 13.4316Z" fill="black"/>
</svg>
