<svg width="22" height="12" viewBox="0 0 22 12" fill="none" xmlns="http://www.w3.org/2000/svg">
<path d="M11 0C6.52726 0 2.55866 2.24356 0.094801 5.70312C0.0331737 5.78838 0 5.8909 0 5.99609C0 6.10129 0.0331737 6.20381 0.094801 6.28906C2.55866 9.74869 6.52726 12 11 12C15.4727 12 19.4413 9.74869 21.9052 6.28906C21.9668 6.20381 22 6.10129 22 5.99609C22 5.8909 21.9668 5.78838 21.9052 5.70312C19.4413 2.24356 15.4727 0 11 0ZM11 1C15.0071 1 18.5586 2.95827 20.8584 6C18.5585 9.0397 15.0055 11 11 11C6.99448 11 3.44148 9.0397 1.14158 6C3.44139 2.95827 6.99288 1 11 1Z" fill="black"/>
<path fill-rule="evenodd" clip-rule="evenodd" d="M11 8.4C12.35 8.4 13.4444 7.32548 13.4444 6C13.4444 4.67452 12.35 3.6 11 3.6C9.64997 3.6 8.55556 4.67452 8.55556 6C8.55556 7.32548 9.64997 8.4 11 8.4ZM11 9.6C13.025 9.6 14.6667 7.98823 14.6667 6C14.6667 4.01178 13.025 2.4 11 2.4C8.97496 2.4 7.33333 4.01178 7.33333 6C7.33333 7.98823 8.97496 9.6 11 9.6Z" fill="black"/>
</svg>
