<svg width="20" height="21" viewBox="0 0 20 21" fill="none" xmlns="http://www.w3.org/2000/svg">
<mask id="mask0_3459_1240" style="mask-type:alpha" maskUnits="userSpaceOnUse" x="0" y="0" width="20" height="21">
<rect y="0.775879" width="20" height="20" fill="#D9D9D9"/>
</mask>
<g mask="url(#mask0_3459_1240)">
<path d="M3.77083 16.7342C2.72917 16.0953 1.92361 15.2481 1.35417 14.1925C0.784722 13.137 0.5 11.9981 0.5 10.7759C0.5 9.55366 0.791667 8.41824 1.375 7.36963C1.95833 6.32102 2.77083 5.47727 3.8125 4.83838C4.07639 4.6856 4.34028 4.67518 4.60417 4.80713C4.86806 4.93907 5 5.15088 5 5.44255C5 5.59532 4.96181 5.73074 4.88542 5.8488C4.80903 5.96685 4.70796 6.05818 4.58221 6.12277C3.7774 6.61373 3.14583 7.27241 2.6875 8.0988C2.22917 8.92518 2 9.81784 2 10.7768C2 11.7357 2.22917 12.6211 2.6875 13.433C3.14583 14.2449 3.77778 14.9078 4.58333 15.4217C4.70833 15.505 4.80903 15.6057 4.88542 15.7238C4.96181 15.8419 5 15.9773 5 16.13C5 16.4217 4.86458 16.637 4.59375 16.7759C4.32292 16.9148 4.04861 16.9009 3.77083 16.7342ZM12.4862 17.7759C11.5187 17.7759 10.6124 17.5919 9.76746 17.2238C8.92249 16.8557 8.18506 16.3556 7.55519 15.7233C6.92533 15.0911 6.42533 14.348 6.05519 13.4942C5.68506 12.6403 5.5 11.7307 5.5 10.7655C5.5 9.80018 5.68472 8.89301 6.05417 8.04394C6.42361 7.19486 6.92269 6.45597 7.5514 5.82727C8.18009 5.19857 8.91898 4.69949 9.76806 4.33005C10.6171 3.9606 11.5278 3.77588 12.5 3.77588C13.4722 3.77588 14.3829 3.9606 15.2319 4.33005C16.081 4.69949 16.8199 5.19857 17.4486 5.82727C18.0773 6.45597 18.5764 7.19486 18.9458 8.04394C19.3153 8.89301 19.5 9.80366 19.5 10.7759C19.5 11.7481 19.3146 12.6587 18.9438 13.5078C18.5729 14.3569 18.072 15.0958 17.4409 15.7245C16.8098 16.3532 16.0682 16.8523 15.2159 17.2217C14.3636 17.5912 13.4537 17.7759 12.4862 17.7759ZM12.4956 13.7759C12.7069 13.7759 12.8845 13.704 13.0286 13.5603C13.1727 13.4165 13.2448 13.2384 13.2448 13.0259V11.5259H14.7483C14.9613 11.5259 15.1398 11.454 15.2839 11.3103C15.428 11.1665 15.5 10.9884 15.5 10.7759C15.5 10.5634 15.428 10.3853 15.2839 10.2415C15.1398 10.0978 14.9613 10.0259 14.7483 10.0259H13.2448V8.52588C13.2448 8.31338 13.1727 8.13525 13.0286 7.9915C12.8845 7.84775 12.7067 7.77588 12.4951 7.77588C12.2835 7.77588 12.1062 7.84775 11.9631 7.9915C11.8199 8.13525 11.7484 8.31338 11.7484 8.52588V10.0259H10.2549C10.0433 10.0259 9.86458 10.0973 9.71875 10.2402C9.57292 10.3832 9.5 10.5602 9.5 10.7715C9.5 10.9827 9.57188 11.1603 9.71563 11.304C9.85938 11.4478 10.0375 11.5196 10.25 11.5196H11.75V13.0196C11.75 13.2321 11.8215 13.4113 11.9644 13.5571C12.1073 13.703 12.2844 13.7759 12.4956 13.7759Z" fill="#6F27FF"/>
</g>
</svg>
