<svg width="16" height="17" viewBox="0 0 16 17" fill="none" xmlns="http://www.w3.org/2000/svg">
<path d="M7.37492 8.9008V11.6091C7.37492 11.7862 7.43485 11.9346 7.55471 12.0543C7.67457 12.1742 7.82304 12.2341 8.00013 12.2341C8.17735 12.2341 8.32575 12.1742 8.44534 12.0543C8.56506 11.9346 8.62492 11.7862 8.62492 11.6091V8.9008H11.3333C11.5103 8.9008 11.6587 8.84087 11.7785 8.72101C11.8983 8.60114 11.9583 8.45267 11.9583 8.27559C11.9583 8.09837 11.8983 7.94996 11.7785 7.83038C11.6587 7.71066 11.5103 7.6508 11.3333 7.6508H8.62492V4.94246C8.62492 4.76538 8.56499 4.61698 8.44513 4.49726C8.32527 4.37739 8.17679 4.31746 7.99971 4.31746C7.82249 4.31746 7.67409 4.37739 7.5545 4.49726C7.43478 4.61698 7.37492 4.76538 7.37492 4.94246V7.6508H4.66658C4.4895 7.6508 4.3411 7.71073 4.22138 7.83059C4.10152 7.95045 4.04159 8.09892 4.04159 8.27601C4.04159 8.45323 4.10152 8.60163 4.22138 8.72121C4.3411 8.84094 4.4895 8.9008 4.66658 8.9008H7.37492ZM8.00138 16.1925C6.90638 16.1925 5.87714 15.9847 4.91367 15.5691C3.9502 15.1536 3.11214 14.5896 2.3995 13.8773C1.68686 13.1649 1.12263 12.3272 0.706793 11.3641C0.291099 10.4011 0.083252 9.37212 0.083252 8.27726C0.083252 7.18226 0.29103 6.15302 0.706585 5.18955C1.12214 4.22607 1.6861 3.38802 2.39846 2.67538C3.11082 1.96274 3.94853 1.39851 4.91159 0.982672C5.87464 0.566978 6.9036 0.359131 7.99846 0.359131C9.09346 0.359131 10.1227 0.566908 11.0862 0.982464C12.0496 1.39802 12.8877 1.96198 13.6003 2.67434C14.313 3.3867 14.8772 4.22441 15.293 5.18746C15.7087 6.15052 15.9166 7.17948 15.9166 8.27434C15.9166 9.36934 15.7088 10.3986 15.2933 11.362C14.8777 12.3255 14.3137 13.1636 13.6014 13.8762C12.889 14.5889 12.0513 15.1531 11.0883 15.5689C10.1252 15.9846 9.09624 16.1925 8.00138 16.1925Z" fill="#6C27FF"/>
</svg>
