<svg width="20" height="21" viewBox="0 0 20 21" fill="none" xmlns="http://www.w3.org/2000/svg">
<g opacity="0.2">
<mask id="mask0_3868_1789" style="mask-type:alpha" maskUnits="userSpaceOnUse" x="0" y="0" width="20" height="21">
<rect y="0.5" width="20" height="20" fill="#D9D9D9"/>
</mask>
<g mask="url(#mask0_3868_1789)">
<path d="M10.8332 10.6459V8.00008C10.8332 7.76397 10.7533 7.56605 10.5936 7.40633C10.4339 7.24661 10.2359 7.16675 9.99984 7.16675C9.76373 7.16675 9.56581 7.24661 9.40609 7.40633C9.24637 7.56605 9.1665 7.76397 9.1665 8.00008V10.9792C9.1665 11.0904 9.18734 11.198 9.229 11.3022C9.27067 11.4063 9.33317 11.5001 9.4165 11.5834L11.5207 13.6876C11.6873 13.8542 11.8853 13.9376 12.1144 13.9376C12.3436 13.9376 12.5415 13.8542 12.7082 13.6876C12.8609 13.5209 12.9373 13.323 12.9373 13.0938C12.9373 12.8647 12.8609 12.6737 12.7082 12.5209L10.8332 10.6459ZM9.99984 5.50008C10.2359 5.50008 10.4339 5.42022 10.5936 5.2605C10.7533 5.10078 10.8332 4.90286 10.8332 4.66675C10.8332 4.43064 10.7533 4.23272 10.5936 4.073C10.4339 3.91328 10.2359 3.83341 9.99984 3.83341C9.76373 3.83341 9.56581 3.91328 9.40609 4.073C9.24637 4.23272 9.1665 4.43064 9.1665 4.66675C9.1665 4.90286 9.24637 5.10078 9.40609 5.2605C9.56581 5.42022 9.76373 5.50008 9.99984 5.50008ZM14.9998 10.5001C14.9998 10.7362 15.0797 10.9341 15.2394 11.0938C15.3991 11.2536 15.5971 11.3334 15.8332 11.3334C16.0693 11.3334 16.2672 11.2536 16.4269 11.0938C16.5866 10.9341 16.6665 10.7362 16.6665 10.5001C16.6665 10.264 16.5866 10.0661 16.4269 9.90633C16.2672 9.74661 16.0693 9.66675 15.8332 9.66675C15.5971 9.66675 15.3991 9.74661 15.2394 9.90633C15.0797 10.0661 14.9998 10.264 14.9998 10.5001ZM9.99984 15.5001C9.76373 15.5001 9.56581 15.5799 9.40609 15.7397C9.24637 15.8994 9.1665 16.0973 9.1665 16.3334C9.1665 16.5695 9.24637 16.7674 9.40609 16.9272C9.56581 17.0869 9.76373 17.1667 9.99984 17.1667C10.2359 17.1667 10.4339 17.0869 10.5936 16.9272C10.7533 16.7674 10.8332 16.5695 10.8332 16.3334C10.8332 16.0973 10.7533 15.8994 10.5936 15.7397C10.4339 15.5799 10.2359 15.5001 9.99984 15.5001ZM4.99984 10.5001C4.99984 10.264 4.91998 10.0661 4.76025 9.90633C4.60053 9.74661 4.40261 9.66675 4.1665 9.66675C3.93039 9.66675 3.73248 9.74661 3.57275 9.90633C3.41303 10.0661 3.33317 10.264 3.33317 10.5001C3.33317 10.7362 3.41303 10.9341 3.57275 11.0938C3.73248 11.2536 3.93039 11.3334 4.1665 11.3334C4.40261 11.3334 4.60053 11.2536 4.76025 11.0938C4.91998 10.9341 4.99984 10.7362 4.99984 10.5001ZM9.99984 18.8334C8.84706 18.8334 7.76373 18.6147 6.74984 18.1772C5.73595 17.7397 4.854 17.1459 4.104 16.3959C3.354 15.6459 2.76025 14.764 2.32275 13.7501C1.88525 12.7362 1.6665 11.6529 1.6665 10.5001C1.6665 9.3473 1.88525 8.26397 2.32275 7.25008C2.76025 6.23619 3.354 5.35425 4.104 4.60425C4.854 3.85425 5.73595 3.2605 6.74984 2.823C7.76373 2.3855 8.84706 2.16675 9.99984 2.16675C11.1526 2.16675 12.2359 2.3855 13.2498 2.823C14.2637 3.2605 15.1457 3.85425 15.8957 4.60425C16.6457 5.35425 17.2394 6.23619 17.6769 7.25008C18.1144 8.26397 18.3332 9.3473 18.3332 10.5001C18.3332 11.6529 18.1144 12.7362 17.6769 13.7501C17.2394 14.764 16.6457 15.6459 15.8957 16.3959C15.1457 17.1459 14.2637 17.7397 13.2498 18.1772C12.2359 18.6147 11.1526 18.8334 9.99984 18.8334Z" fill="#1C1B1F"/>
</g>
</g>
</svg>
