<svg width="16" height="16" viewBox="0 0 16 16" fill="none" xmlns="http://www.w3.org/2000/svg">
<path d="M7.99996 9.04992L10.5608 11.611C10.6762 11.7262 10.8039 11.7818 10.9439 11.7776C11.0838 11.7733 11.2141 11.7108 11.335 11.5901C11.4557 11.4693 11.516 11.3403 11.516 11.203C11.516 11.0658 11.4557 10.9371 11.335 10.817L8.77392 8.26554L11.335 5.71409C11.4502 5.59936 11.5093 5.472 11.512 5.332C11.5147 5.19214 11.4557 5.06179 11.335 4.94096C11.2141 4.82027 11.0851 4.75992 10.9479 4.75992C10.8107 4.75992 10.6816 4.82027 10.5608 4.94096L7.99996 7.502L5.43913 4.94096C5.32371 4.82568 5.19947 4.76665 5.06642 4.76388C4.9335 4.76124 4.80663 4.82027 4.68579 4.94096C4.5651 5.06179 4.50475 5.19082 4.50475 5.32804C4.50475 5.46527 4.56454 5.59429 4.68413 5.71513L7.226 8.27596L4.66496 10.8368C4.54968 10.9522 4.49413 11.0764 4.49829 11.2095C4.5026 11.3424 4.5651 11.4693 4.68579 11.5901C4.80663 11.7108 4.93565 11.7712 5.07288 11.7712C5.2101 11.7712 5.3385 11.7114 5.45808 11.5918L7.99996 9.04992ZM8.00704 15.8593C6.96385 15.8593 5.98135 15.6619 5.05954 15.2672C4.13774 14.8725 3.33093 14.3294 2.63913 13.6378C1.94732 12.9463 1.40392 12.1401 1.00892 11.2193C0.614056 10.2986 0.416626 9.31478 0.416626 8.26784C0.416626 7.22089 0.613987 6.23999 1.00871 5.32513C1.40343 4.41027 1.94656 3.60693 2.63808 2.91513C3.32961 2.22332 4.13579 1.67992 5.05663 1.28492C5.97732 0.890057 6.96114 0.692627 8.00808 0.692627C9.05503 0.692627 10.0359 0.889988 10.9508 1.28471C11.8657 1.67943 12.669 2.22256 13.3608 2.91409C14.0526 3.60561 14.596 4.41013 14.991 5.32763C15.3859 6.24527 15.5833 7.22568 15.5833 8.26888C15.5833 9.31207 15.3859 10.2946 14.9912 11.2164C14.5965 12.1382 14.0534 12.945 13.3618 13.6368C12.6703 14.3286 11.8658 14.872 10.9483 15.267C10.0307 15.6619 9.05024 15.8593 8.00704 15.8593Z" fill="#B7B5C4"/>
</svg>
