<svg width="20" height="20" viewBox="0 0 20 20" fill="none" xmlns="http://www.w3.org/2000/svg">
<mask id="mask0_3868_1794" style="mask-type:alpha" maskUnits="userSpaceOnUse" x="0" y="0" width="20" height="20">
<rect width="20" height="20" fill="#D9D9D9"/>
</mask>
<g mask="url(#mask0_3868_1794)">
<path d="M8.33317 10.0001H11.2498V11.0834C11.2498 11.2779 11.3332 11.4098 11.4998 11.4792C11.6665 11.5487 11.8193 11.514 11.9582 11.3751L13.5832 9.75008C13.7498 9.58341 13.8332 9.38897 13.8332 9.16675C13.8332 8.94453 13.7498 8.75008 13.5832 8.58341L11.9582 6.95841C11.8193 6.81953 11.6665 6.7848 11.4998 6.85425C11.3332 6.92369 11.2498 7.05564 11.2498 7.25008V8.33341H7.49984C7.26373 8.33341 7.06581 8.41328 6.90609 8.573C6.74636 8.73272 6.6665 8.93064 6.6665 9.16675V11.6667C6.6665 11.9029 6.74636 12.1008 6.90609 12.2605C7.06581 12.4202 7.26373 12.5001 7.49984 12.5001C7.73595 12.5001 7.93387 12.4202 8.09359 12.2605C8.25331 12.1008 8.33317 11.9029 8.33317 11.6667V10.0001ZM9.99984 18.3334C9.7915 18.3334 9.58664 18.2917 9.38525 18.2084C9.18386 18.1251 8.99984 18.0001 8.83317 17.8334L2.1665 11.1667C1.99984 11.0001 1.87484 10.8161 1.7915 10.6147C1.70817 10.4133 1.6665 10.2084 1.6665 10.0001C1.6665 9.79175 1.70817 9.58689 1.7915 9.3855C1.87484 9.18411 1.99984 9.00008 2.1665 8.83342L8.83317 2.16675C8.99984 2.00008 9.18386 1.87508 9.38525 1.79175C9.58664 1.70841 9.7915 1.66675 9.99984 1.66675C10.2082 1.66675 10.413 1.70841 10.6144 1.79175C10.8158 1.87508 10.9998 2.00008 11.1665 2.16675L17.8332 8.83342C17.9998 9.00008 18.1248 9.18411 18.2082 9.3855C18.2915 9.58689 18.3332 9.79175 18.3332 10.0001C18.3332 10.2084 18.2915 10.4133 18.2082 10.6147C18.1248 10.8161 17.9998 11.0001 17.8332 11.1667L11.1665 17.8334C10.9998 18.0001 10.8158 18.1251 10.6144 18.2084C10.413 18.2917 10.2082 18.3334 9.99984 18.3334Z" fill="#6F27FF"/>
</g>
</svg>
