<svg width="21" height="25" viewBox="0 0 21 25" fill="none" xmlns="http://www.w3.org/2000/svg">
<path d="M19.6463 8.6816C19.5071 8.7896 17.0495 10.1744 17.0495 13.2536C17.0495 16.8152 20.1767 18.0752 20.2703 18.1064C20.2559 18.1832 19.7735 19.832 18.6215 21.512C17.5943 22.9904 16.5215 24.4664 14.8895 24.4664C13.2575 24.4664 12.8375 23.5184 10.9535 23.5184C9.11753 23.5184 8.46473 24.4976 6.97193 24.4976C5.47913 24.4976 4.43753 23.1296 3.23993 21.4496C1.85273 19.4768 0.731934 16.412 0.731934 13.5032C0.731934 8.8376 3.76553 6.3632 6.75113 6.3632C8.33753 6.3632 9.65993 7.4048 10.6559 7.4048C11.6039 7.4048 13.0823 6.3008 14.8871 6.3008C15.5711 6.3008 18.0287 6.3632 19.6463 8.6816ZM14.0303 4.3256C14.7767 3.44 15.3047 2.2112 15.3047 0.9824C15.3047 0.812 15.2903 0.6392 15.2591 0.5C14.0447 0.5456 12.5999 1.3088 11.7287 2.3192C11.0447 3.0968 10.4063 4.3256 10.4063 5.5712C10.4063 5.7584 10.4375 5.9456 10.4519 6.0056C10.5287 6.02 10.6535 6.0368 10.7783 6.0368C11.8679 6.0368 13.2383 5.3072 14.0303 4.3256Z" fill="black"/>
</svg>
