<svg width="286" height="232" viewBox="0 0 286 232" fill="none" xmlns="http://www.w3.org/2000/svg">
<rect width="286" height="232" fill="#EFEEF1"/>
<circle cx="143" cy="116" r="59" fill="#B7C5DE"/>
<path d="M161.21 94C154.675 95.2523 145.468 98.9393 138.498 105.161C138.535 105.184 138.572 105.218 138.609 105.241C139.053 105.591 139.423 106.065 139.672 106.641C145.773 101.277 153.834 97.7931 159.916 96.3477V132.467H161.58V95.433C161.552 94.8458 161.293 94.0734 161.21 94ZM129.329 94.6425C127.604 94.6425 126.081 96.7204 126.081 99.4814C126.081 102.248 127.604 104.326 129.329 104.326C131.057 104.326 132.573 102.248 132.573 99.4814C132.573 96.7204 131.057 94.6425 129.329 94.6425ZM126.706 105.297C125.167 110.062 124.524 115.042 124.081 119.627C126.342 119.526 128.54 119.356 130.641 119.119C130.475 117.504 130.373 115.901 130.318 114.297C129.578 113.631 128.82 112.852 128.063 112.027L129.171 110.514C130.179 111.609 131.159 112.592 132.028 113.281C132.887 113.981 133.655 114.354 134.052 114.387H134.061C134.015 114.387 134.255 114.342 134.588 114.071C134.912 113.789 135.328 113.337 135.753 112.773C136.603 111.655 137.528 110.074 138.221 108.504C138.341 108.233 138.341 108.007 138.249 107.725C138.166 107.443 137.962 107.138 137.703 106.946C137.454 106.742 137.167 106.652 136.927 106.686C136.687 106.72 136.455 106.833 136.197 107.262L133.719 111.316L129.837 106.313C129.671 106.347 129.504 106.358 129.329 106.358C128.352 106.358 127.458 105.963 126.706 105.297ZM144.599 118.543C138.766 120.158 130.345 121.637 121.092 121.716V132.354H133.913C138.887 129.248 142.815 123.354 144.599 118.543ZM125.252 134.161C124.034 134.161 122.546 134.646 121.291 135.109C121.191 135.143 121.096 135.177 121 135.222V137.345C121.239 137.255 121.498 137.153 121.773 137.051C122.967 136.611 124.438 136.193 125.252 136.193C126.066 136.193 126.943 136.577 127.913 137.029C128.885 137.481 129.948 138 131.168 138C132.388 138 133.451 137.481 134.422 137.029C135.392 136.577 136.271 136.193 137.084 136.193C137.897 136.193 138.776 136.577 139.746 137.029C140.717 137.481 141.78 138 143 138C144.22 138 145.283 137.481 146.254 137.029C147.224 136.577 148.103 136.193 148.916 136.193C149.729 136.193 150.608 136.577 151.578 137.029C152.549 137.481 153.612 138 154.832 138C156.052 138 157.115 137.481 158.086 137.029C159.056 136.577 159.934 136.193 160.748 136.193C161.561 136.193 163.031 136.611 164.224 137.051C164.501 137.153 164.76 137.255 165 137.345V135.222C164.908 135.177 164.815 135.143 164.713 135.109C163.456 134.646 161.968 134.161 160.748 134.161C159.528 134.161 158.465 134.68 157.494 135.132C156.524 135.583 155.645 135.967 154.832 135.967C154.018 135.967 153.14 135.583 152.17 135.132C151.199 134.68 150.136 134.161 148.916 134.161C147.696 134.161 146.633 134.68 145.662 135.132C144.692 135.583 143.813 135.967 143 135.967C142.187 135.967 141.308 135.583 140.338 135.132C139.367 134.68 138.304 134.161 137.084 134.161C135.864 134.161 134.801 134.68 133.83 135.132C132.86 135.583 131.982 135.967 131.168 135.967C130.355 135.967 129.476 135.583 128.506 135.132C127.535 134.68 126.47 134.161 125.252 134.161Z" fill="#DFE5EE"/>
</svg>
