<svg width="50" height="50" viewBox="0 0 50 50" fill="none" xmlns="http://www.w3.org/2000/svg">
<circle cx="25" cy="25" r="24" stroke="black" stroke-width="2"/>
<path d="M34.8133 24.9629L27.1535 32.8242C27.0325 32.9399 26.8725 33.0029 26.7071 32.9999C26.5418 32.9969 26.384 32.9282 26.267 32.8081C26.1501 32.6881 26.0831 32.5262 26.0802 32.3565C26.0772 32.1867 26.1386 32.0225 26.2514 31.8983L32.8207 25.1551H15.6383C15.469 25.1551 15.3067 25.0861 15.187 24.9632C15.0673 24.8404 15 24.6737 15 24.5C15 24.3263 15.0673 24.1596 15.187 24.0368C15.3067 23.9139 15.469 23.8449 15.6383 23.8449H32.8207L26.2514 17.1017C26.1386 16.9775 26.0772 16.8133 26.0802 16.6435C26.0831 16.4738 26.1501 16.3119 26.267 16.1919C26.384 16.0718 26.5418 16.0031 26.7071 16.0001C26.8725 15.9971 27.0325 16.0601 27.1535 16.1758L34.8133 24.0371C34.9329 24.1599 35 24.3264 35 24.5C35 24.6736 34.9329 24.8401 34.8133 24.9629Z" fill="black"/>
</svg>
