<svg width="20" height="17" viewBox="0 0 20 17" fill="none" xmlns="http://www.w3.org/2000/svg">
<path d="M19.8133 8.96294L12.1535 16.8242C12.0325 16.9399 11.8725 17.0029 11.7071 16.9999C11.5418 16.9969 11.384 16.9282 11.267 16.8081C11.1501 16.6881 11.0831 16.5262 11.0802 16.3565C11.0772 16.1867 11.1386 16.0225 11.2514 15.8983L17.8207 9.1551H0.638316C0.469024 9.1551 0.306666 9.08608 0.186958 8.96323C0.0672509 8.84037 0 8.67374 0 8.5C0 8.32626 0.0672509 8.15963 0.186958 8.03677C0.306666 7.91392 0.469024 7.8449 0.638316 7.8449H17.8207L11.2514 1.1017C11.1386 0.977516 11.0772 0.813263 11.0802 0.643546C11.0831 0.47383 11.1501 0.311901 11.267 0.191875C11.384 0.0718489 11.5418 0.00309651 11.7071 0.000102063C11.8725 -0.00289238 12.0325 0.0601049 12.1535 0.175822L19.8133 8.03706C19.9329 8.15989 20 8.3264 20 8.5C20 8.6736 19.9329 8.84011 19.8133 8.96294Z" fill="black"/>
</svg>
