<svg width="286" height="232" viewBox="0 0 286 232" fill="none" xmlns="http://www.w3.org/2000/svg">
<rect width="286" height="232" fill="#EFEEF1"/>
<circle cx="143" cy="116" r="59" fill="#B7C5DE"/>
<path d="M147.681 110.892V104.589H157.384V94.9299H142.83V106.063L147.681 110.892ZM124.42 94.5918L121 97.9968L142.83 119.731V120.407C140.55 119.103 137.736 118.596 134.753 119.634C131.503 120.793 129.004 123.667 128.422 127.048C128.153 128.569 128.254 130.133 128.716 131.607C129.177 133.082 129.987 134.425 131.077 135.524C132.167 136.624 133.506 137.447 134.981 137.926C136.456 138.405 138.024 138.525 139.556 138.277C144.31 137.529 147.681 133.182 147.681 128.376V124.561L161.58 138.398L165 134.993L142.83 112.897L124.42 94.5918Z" fill="#DFE5EE"/>
</svg>
