<svg width="22" height="31" viewBox="0 0 22 31" fill="none" xmlns="http://www.w3.org/2000/svg">
<path d="M12.3618 12.7134C12.1027 12.7134 12.1027 12.5216 11.8435 12.5216V6.57531C14.9537 6.76713 17.5455 7.72621 17.5455 7.72621L19.8781 4.27352C19.6189 4.27352 15.9904 2.73898 11.8435 2.73898V-0.330078H9.25165V2.73898C7.17819 3.12262 5.6231 3.69807 4.06801 4.46533C2.51291 5.61623 1.47618 7.15076 1.47618 8.87711C1.47618 10.2198 1.99455 13.2889 9.25165 15.7825V23.2633C6.91901 22.8797 4.06801 21.9206 3.03128 21.537L0.439453 24.7979C0.957818 24.9897 5.10474 26.716 9.25165 27.0997V30.3605H11.8435V27.0997C17.8047 26.5242 21.174 23.0715 21.174 19.8106C21.174 16.9334 18.5822 14.6316 12.3618 12.7134ZM9.25165 11.5625C7.17819 10.6035 6.65983 9.64438 6.65983 9.06893C6.65983 8.30166 6.91901 7.72621 7.69656 7.34258L9.25165 6.76713V11.5625ZM11.8435 23.2633V16.7416C14.6945 17.7007 15.9904 18.8516 15.9904 19.8106C15.9904 20.9615 15.2128 22.8797 11.8435 23.2633Z" fill="#77C539"/>
</svg>
