<svg width="286" height="232" viewBox="0 0 286 232" fill="none" xmlns="http://www.w3.org/2000/svg">
<rect width="286" height="232" fill="#EFEEF1"/>
<circle cx="143" cy="116" r="59" fill="#B7C5DE"/>
<path d="M123.798 111.022V105.987H130.634V98.2701H120.38V107.164L123.798 111.022ZM107.41 98L105 100.72L120.38 118.083V118.623C118.774 117.582 116.792 117.176 114.69 118.006C112.4 118.932 110.639 121.228 110.229 123.929C110.04 125.144 110.111 126.393 110.436 127.571C110.761 128.749 111.332 129.822 112.1 130.7C112.868 131.578 113.811 132.236 114.85 132.619C115.889 133.002 116.994 133.098 118.073 132.9C121.423 132.302 123.798 128.829 123.798 124.99V121.942L133.59 132.996L136 130.276L120.38 112.623L107.41 98Z" fill="#DFE5EE"/>
<path d="M170.941 102.943C170.783 102.946 170.63 103.009 170.513 103.12L170.516 103.127C170.457 103.185 170.409 103.254 170.376 103.331C170.342 103.408 170.324 103.491 170.321 103.575C170.32 103.607 170.327 103.639 170.343 103.667C170.358 103.695 170.38 103.717 170.407 103.732C170.425 103.74 170.444 103.743 170.463 103.744H170.807C170.794 103.691 170.788 103.638 170.789 103.584C170.776 103.456 170.81 103.329 170.885 103.228C170.96 103.128 171.07 103.062 171.19 103.044C171.257 103.045 171.322 103.066 171.376 103.105C171.255 102.997 171.101 102.939 170.942 102.941M170.959 105.648C171.136 105.742 171.34 105.76 171.529 105.696C171.547 105.691 171.564 105.682 171.578 105.669C171.593 105.657 171.605 105.642 171.614 105.625C171.623 105.607 171.628 105.588 171.63 105.569C171.632 105.549 171.629 105.53 171.624 105.511C171.618 105.492 171.609 105.475 171.597 105.46C171.584 105.445 171.57 105.433 171.553 105.424C171.536 105.415 171.518 105.41 171.499 105.409C171.48 105.408 171.462 105.411 171.444 105.418C171.326 105.457 171.197 105.446 171.086 105.387C170.975 105.328 170.891 105.226 170.851 105.102C170.84 105.065 170.815 105.034 170.782 105.017C170.749 104.999 170.71 104.996 170.675 105.008C170.64 105.02 170.611 105.047 170.594 105.081C170.578 105.116 170.575 105.156 170.586 105.193C170.648 105.391 170.782 105.554 170.959 105.648Z" fill="#DFE5EE"/>
<path d="M171.398 103.464H171.413C171.439 103.556 171.438 103.655 171.411 103.747H171.007C170.993 103.7 170.986 103.652 170.986 103.603C170.986 103.416 171.086 103.264 171.208 103.264C171.253 103.264 171.295 103.282 171.328 103.314C171.323 103.329 171.32 103.345 171.32 103.361C171.318 103.385 171.324 103.41 171.339 103.429C171.353 103.448 171.375 103.46 171.398 103.464Z" fill="#DFE5EE"/>
<path d="M151.659 118.938L149.241 122.664C149.084 122.901 149 123.183 149 123.472C149 123.761 149.084 124.043 149.241 124.28L149.299 124.367L149.37 124.442C149.442 124.518 149.521 124.587 149.605 124.648C149.756 124.833 149.942 124.984 150.151 125.091C150.36 125.197 150.587 125.258 150.819 125.269C151.022 125.269 151.221 125.219 151.402 125.124L154.26 123.603L160.28 125.021C160.898 125.162 161.541 125.116 162.134 124.888C162.728 124.66 163.248 124.26 163.634 123.734L164.518 122.458L164.692 122.713C164.823 122.898 164.976 123.064 165.148 123.208C165.155 123.214 165.162 123.222 165.168 123.23C165.174 123.238 165.181 123.246 165.189 123.253H165.213C165.302 123.331 165.396 123.402 165.494 123.466C165.872 123.692 166.3 123.81 166.735 123.81C167.004 123.804 167.271 123.753 167.525 123.658L167.56 123.664L167.597 123.652C167.683 123.613 167.766 123.569 167.848 123.521C167.864 123.513 167.881 123.506 167.899 123.5C167.92 123.494 167.94 123.485 167.959 123.474L168.362 123.796L171.963 130.432L172.801 132.062C172.901 132.267 173.039 132.449 173.207 132.597C173.376 132.745 173.57 132.856 173.78 132.924C173.989 132.992 174.21 133.014 174.428 132.991C174.646 132.968 174.858 132.899 175.05 132.788C175.373 132.607 178.224 131 178.882 130.556C179.148 130.339 179.339 130.037 179.425 129.695C179.512 129.354 179.489 128.992 179.36 128.665C179.294 128.325 179.122 128.018 178.871 127.792C178.62 127.566 178.305 127.435 177.975 127.418H175.295L173.471 122.285C173.192 121.234 172.749 120.238 172.16 119.34L172.076 119.213L171.965 119.114L170.073 117.418L169.695 117.067C170.141 116.214 170.48 115.304 170.703 114.359C171.235 114.448 171.773 114.493 172.312 114.492C174.461 114.497 176.556 113.789 178.3 112.469L178.689 112.243L178.745 112.21L178.797 112.172C179.203 111.868 179.54 111.472 179.782 111.014L179.833 110.917L179.867 110.811C179.994 110.408 180.031 109.979 179.975 109.558C179.919 109.137 179.771 108.735 179.544 108.383L179.521 108.348L179.495 108.314C179.163 107.875 178.746 107.516 178.271 107.261L178.235 107.242L178.2 107.229C178.009 107.143 177.805 107.1 177.598 107.1C177.387 107.099 177.18 107.147 176.989 107.237C176.662 107.207 176.335 107.287 176.054 107.465C175.594 107.734 175.242 108.167 175.063 108.686C174.425 109.075 173.718 109.324 172.986 109.42C172.254 109.515 171.51 109.453 170.801 109.239C170.769 109.08 170.734 108.924 170.697 108.766L170.632 108.505C170.675 108.5 170.718 108.492 170.76 108.481L170.845 108.465C171.466 108.393 172.041 108.083 172.461 107.595C172.88 107.108 173.115 106.476 173.121 105.818C173.317 105.665 173.471 105.462 173.568 105.227C173.666 104.993 173.704 104.736 173.678 104.481C173.657 104.119 173.529 103.77 173.31 103.488L173.293 103.465C173.253 103.406 173.204 103.335 173.145 103.232V102.668C173.143 102.469 173.124 102.271 173.088 102.076C173.269 101.777 173.387 101.44 173.436 101.089C173.485 100.738 173.462 100.38 173.371 100.039C173.241 99.4852 172.946 98.9894 172.531 98.623C172.115 98.2566 171.599 98.0384 171.058 98C170.83 97.9989 170.604 98.0398 170.39 98.1228C170.236 98.179 170.104 98.2328 169.986 98.2819L169.971 98.2878C169.871 98.3392 169.765 98.3755 169.655 98.3954C169.524 98.3865 169.394 98.3598 169.27 98.3158C168.819 98.1796 168.352 98.1095 167.882 98.1076C167.439 98.0706 166.993 98.1329 166.575 98.2905C166.156 98.4482 165.774 98.6975 165.454 99.022C165.134 99.3464 164.883 99.7387 164.718 100.173C164.554 100.607 164.478 101.073 164.498 101.539C164.479 102.231 164.537 102.923 164.67 103.6C164.571 103.694 164.481 103.799 164.401 103.91C164.174 104.207 164.006 104.548 163.905 104.913L163.856 104.894L163.841 104.902L163.685 104.833C162.944 104.51 162.134 104.4 161.339 104.515C160.54 104.629 159.785 104.964 159.15 105.487L157.477 106.863L156.627 107.526L155.875 108.111C155.452 108.404 155.088 108.784 154.807 109.229L154.744 109.327L154.702 109.437C154.599 109.882 154.603 110.348 154.715 110.791C154.828 111.234 155.044 111.641 155.344 111.973C155.693 112.399 156.131 112.736 156.624 112.955L156.664 112.973L156.705 112.988C156.937 113.072 157.185 113.095 157.427 113.054C157.67 113.014 157.899 112.911 158.094 112.755H158.266C158.622 112.728 158.959 112.578 159.227 112.33C159.495 112.081 159.678 111.748 159.748 111.38L161.99 109.544L163.173 110.035L163.44 110.166C163.076 111.4 162.581 112.586 161.965 113.704C161.79 113.938 161.641 114.192 161.52 114.461L160.794 115.654L159.494 117.985C159.228 118.441 159.105 118.972 159.143 119.506L154.836 119.108L154.012 118.51L153.869 118.401C153.627 118.218 153.337 118.12 153.038 118.121C152.764 118.137 152.498 118.219 152.258 118.361C152.019 118.503 151.814 118.7 151.659 118.938ZM163.336 122.144L160.859 120.494C160.568 120.294 160.363 119.984 160.286 119.628C160.209 119.272 160.267 118.899 160.447 118.587L161.293 117.116L161.302 117.148L162.432 115.18C162.461 115.105 162.493 115.031 162.527 114.958C162.548 114.912 162.573 114.868 162.6 114.826L162.611 114.808L162.649 114.745L168.26 117.291V117.3L169.341 118.295L170.507 119.348L167.725 122.217C167.471 122.473 167.136 122.622 166.785 122.635H166.626C166.448 122.616 166.275 122.563 166.116 122.479C166.093 122.471 166.072 122.461 166.051 122.449C166.03 122.434 166.012 122.417 165.996 122.397C165.981 122.381 165.966 122.366 165.949 122.353C165.818 122.265 165.701 122.154 165.604 122.026L165.554 121.954L165.031 121.2L164.877 121.004C164.821 120.932 164.75 120.876 164.669 120.839C164.588 120.802 164.499 120.786 164.411 120.792C164.323 120.798 164.238 120.826 164.162 120.874C164.086 120.921 164.023 120.987 163.976 121.066L163.336 122.144ZM162.687 123.098C162.426 123.422 162.086 123.665 161.704 123.802C161.321 123.939 160.911 123.963 160.516 123.873L154.057 122.353L154.492 120.272L154.46 120.24L159.528 120.709C159.715 121.015 159.961 121.276 160.251 121.474L160.262 121.481L162.687 123.098ZM161.949 105.639C162.397 105.639 162.84 105.732 163.255 105.911L163.814 106.147C163.818 106.169 163.818 106.192 163.819 106.216C163.82 106.249 163.821 106.282 163.828 106.315C163.834 106.344 163.844 106.372 163.856 106.399C163.866 106.423 163.874 106.447 163.881 106.472C163.879 106.476 163.876 106.48 163.873 106.484C163.869 106.491 163.863 106.498 163.863 106.505L163.841 106.556L163.032 108.711L162.283 108.4H162.275C162.135 108.338 161.981 108.317 161.83 108.338C161.678 108.359 161.535 108.423 161.415 108.521L158.725 110.727C158.703 111.092 158.594 111.551 158.194 111.579H157.616C157.578 111.665 157.519 111.74 157.445 111.795C157.372 111.851 157.286 111.885 157.196 111.896C157.15 111.895 157.104 111.887 157.059 111.872C156.725 111.723 156.427 111.495 156.191 111.206C155.88 110.82 155.612 110.188 155.735 109.872C155.94 109.55 156.205 109.276 156.514 109.065L157.293 108.457L157.31 108.477L159.841 106.404C160.443 105.909 161.185 105.639 161.949 105.639ZM172.169 103.791C172.269 103.967 172.349 104.083 172.41 104.172C172.5 104.273 172.555 104.402 172.566 104.54C172.6 104.902 172.277 104.996 172.121 105.019C172.099 105.021 172.079 105.032 172.064 105.05C172.05 105.067 172.042 105.09 172.043 105.113C172.021 106.411 171.798 107.335 170.329 107.347H170.296C169.933 107.342 169.572 107.281 169.225 107.166L168.927 107.786C168.67 107.476 168.347 107.233 167.984 107.078C168.268 106.844 168.496 106.543 168.648 106.2C168.8 105.856 168.873 105.48 168.86 105.101L168.851 104.59C168.74 104.599 168.628 104.584 168.523 104.546C168.417 104.508 168.32 104.448 168.237 104.369C168.149 104.287 168.079 104.186 168.031 104.073C167.983 103.96 167.958 103.838 167.958 103.714C167.958 103.59 167.984 103.468 168.032 103.355C168.08 103.243 168.151 103.142 168.239 103.06C168.405 102.906 168.622 102.826 168.842 102.839C168.87 102.624 168.95 102.42 169.075 102.247C169.212 102.063 169.412 101.942 169.631 101.908H169.643C169.82 101.873 170.003 101.898 170.166 101.978C170.424 102.099 170.707 102.15 170.989 102.127C170.757 102.152 170.533 102.239 170.337 102.379C170.315 102.392 170.297 102.411 170.284 102.434C170.271 102.456 170.264 102.482 170.263 102.509C170.262 102.535 170.268 102.561 170.28 102.585C170.292 102.608 170.31 102.627 170.331 102.641C170.357 102.658 170.387 102.666 170.417 102.664C170.447 102.662 170.476 102.65 170.5 102.63C170.731 102.465 171.012 102.395 171.29 102.433C171.328 102.438 171.366 102.428 171.397 102.403C171.427 102.378 171.447 102.342 171.452 102.302C171.457 102.262 171.447 102.222 171.423 102.19C171.4 102.158 171.366 102.137 171.328 102.131C171.23 102.117 171.132 102.115 171.035 102.122C171.203 102.104 171.368 102.059 171.523 101.99C171.635 101.935 171.742 101.873 171.845 101.805C171.967 102.079 172.032 102.377 172.035 102.68V103.265C172.035 103.45 172.081 103.631 172.169 103.791ZM171.078 113.235C170.659 113.174 170.244 113.083 169.835 112.962H169.832C169.899 112.017 169.897 111.068 169.827 110.124C170.832 110.555 171.922 110.719 173.002 110.601C174.081 110.483 175.116 110.087 176.015 109.449C176.039 109.251 176.105 109.062 176.209 108.895C176.312 108.729 176.451 108.589 176.614 108.487C176.68 108.442 176.757 108.416 176.836 108.414V108.432C177.148 108.756 177.428 109.112 177.674 109.494C177.7 109.556 177.705 109.626 177.689 109.691C177.673 109.742 177.643 109.787 177.603 109.82C177.567 109.849 177.524 109.869 177.478 109.878C177.467 109.88 177.456 109.88 177.445 109.878C177.337 109.761 177.234 109.644 177.137 109.527C177.118 109.491 177.095 109.458 177.069 109.428C176.958 109.3 176.865 109.348 176.824 109.401C176.804 109.427 176.793 109.46 176.793 109.493C176.793 109.527 176.804 109.56 176.824 109.586L176.906 109.691L176.916 109.714C176.987 109.934 177.01 110.167 176.983 110.397C176.982 110.416 176.985 110.436 176.991 110.454C176.996 110.472 177.005 110.489 177.018 110.503C177.03 110.518 177.044 110.529 177.061 110.538C177.095 110.554 177.133 110.557 177.168 110.545C177.185 110.538 177.201 110.528 177.215 110.516C177.228 110.502 177.24 110.487 177.248 110.47C177.256 110.453 177.26 110.434 177.261 110.415V110.096C177.297 110.127 177.339 110.149 177.384 110.16C177.429 110.171 177.476 110.171 177.521 110.16C177.613 110.144 177.701 110.104 177.774 110.043C177.86 109.974 177.923 109.878 177.954 109.769C177.989 109.637 177.979 109.497 177.927 109.372L177.916 109.348C177.718 109.038 177.5 108.743 177.26 108.469C177.291 108.423 177.328 108.384 177.372 108.352C177.439 108.306 177.515 108.279 177.594 108.271C177.652 108.271 177.709 108.284 177.761 108.308C178.093 108.487 178.385 108.739 178.618 109.045C178.75 109.248 178.836 109.48 178.869 109.724C178.901 109.967 178.88 110.215 178.807 110.449C178.646 110.754 178.421 111.017 178.151 111.221L177.705 111.481C175.794 112.941 173.42 113.57 171.078 113.235ZM173.178 130.308L169.222 123.009L168.839 122.704L171.321 120.148C171.807 120.915 172.175 121.758 172.41 122.646L174.525 128.588H174.425L173.263 130.248L173.178 130.308Z" fill="#DFE5EE"/>
</svg>
