<svg width="85" height="85" viewBox="0 0 85 85" fill="none" xmlns="http://www.w3.org/2000/svg">
<path d="M22.25 42.5L39.6071 56.9643L62.75 28.0357M42.5 83C37.1815 83 31.915 81.9524 27.0013 79.9171C22.0876 77.8818 17.6229 74.8986 13.8622 71.1378C10.1014 67.377 7.11819 62.9124 5.08288 57.9987C3.04756 53.085 2 47.8185 2 42.5C2 37.1815 3.04756 31.915 5.08288 27.0013C7.11819 22.0876 10.1014 17.6229 13.8622 13.8622C17.6229 10.1014 22.0876 7.11819 27.0013 5.08288C31.915 3.04756 37.1815 2 42.5 2C53.2413 2 63.5426 6.26695 71.1378 13.8622C78.733 21.4574 83 31.7587 83 42.5C83 53.2413 78.733 63.5426 71.1378 71.1378C63.5426 78.733 53.2413 83 42.5 83Z" stroke="#77C539" stroke-width="4"/>
</svg>
