<svg width="15" height="16" viewBox="0 0 15 16" fill="none" xmlns="http://www.w3.org/2000/svg">
<path d="M7.5 0.5C8.49456 0.5 9.44839 0.895088 10.1517 1.59835C10.8549 2.30161 11.25 3.25544 11.25 4.25C11.25 5.24456 10.8549 6.19839 10.1517 6.90165C9.44839 7.60491 8.49456 8 7.5 8C6.50544 8 5.55161 7.60491 4.84835 6.90165C4.14509 6.19839 3.75 5.24456 3.75 4.25C3.75 3.25544 4.14509 2.30161 4.84835 1.59835C5.55161 0.895088 6.50544 0.5 7.5 0.5ZM7.5 2.375C7.00272 2.375 6.52581 2.57254 6.17418 2.92417C5.82254 3.27581 5.625 3.75272 5.625 4.25C5.625 4.74728 5.82254 5.22419 6.17418 5.57582C6.52581 5.92746 7.00272 6.125 7.5 6.125C7.99728 6.125 8.47419 5.92746 8.82582 5.57582C9.17746 5.22419 9.375 4.74728 9.375 4.25C9.375 3.75272 9.17746 3.27581 8.82582 2.92417C8.47419 2.57254 7.99728 2.375 7.5 2.375ZM7.5 8.9375C10.0031 8.9375 15 10.1844 15 12.6875V15.5H0V12.6875C0 10.1844 4.99687 8.9375 7.5 8.9375ZM7.5 10.7188C4.71562 10.7188 1.78125 12.0875 1.78125 12.6875V13.7188H13.2188V12.6875C13.2188 12.0875 10.2844 10.7188 7.5 10.7188Z" fill="#ED510C"/>
</svg>
