<svg width="20" height="20" viewBox="0 0 20 20" fill="none" xmlns="http://www.w3.org/2000/svg">
<path d="M19 10.1239C19.003 11.9107 18.4715 13.6575 17.474 15.1399C16.6514 16.3668 15.5391 17.3722 14.2355 18.0671C12.9319 18.7619 11.4772 19.1249 10 19.1239C8.52279 19.1249 7.06808 18.7619 5.76451 18.0671C4.46093 17.3722 3.34865 16.3668 2.526 15.1399C1.74273 13.9723 1.2439 12.6375 1.06951 11.2423C0.895109 9.84721 1.05 8.43064 1.52175 7.10617C1.9935 5.7817 2.769 4.58618 3.78607 3.61545C4.80314 2.64471 6.0335 1.92576 7.37851 1.51623C8.72352 1.1067 10.1458 1.01799 11.5312 1.2572C12.9167 1.49641 14.2269 2.05689 15.3567 2.89371C16.4865 3.73053 17.4046 4.82042 18.0373 6.07599C18.67 7.33157 18.9997 8.71791 19 10.1239Z" stroke="#F04722" stroke-width="1.5"/>
<mask id="path-2-inside-1_1_2757" fill="white">
<path d="M11.25 7.12402C11.25 7.81402 10.69 8.37402 9.99996 8.37402V9.87402C10.7293 9.87402 11.4288 9.58429 11.9445 9.06857C12.4602 8.55284 12.75 7.85337 12.75 7.12402H11.25ZM9.99996 8.37402C9.30996 8.37402 8.74996 7.81402 8.74996 7.12402H7.24996C7.24996 7.85337 7.53969 8.55284 8.05541 9.06857C8.57114 9.58429 9.27061 9.87402 9.99996 9.87402V8.37402ZM8.74996 7.12402C8.74996 6.43402 9.30996 5.87402 9.99996 5.87402V4.37402C9.27061 4.37402 8.57114 4.66375 8.05541 5.17948C7.53969 5.6952 7.24996 6.39468 7.24996 7.12402H8.74996ZM9.99996 5.87402C10.69 5.87402 11.25 6.43402 11.25 7.12402H12.75C12.75 6.39468 12.4602 5.6952 11.9445 5.17948C11.4288 4.66375 10.7293 4.37402 9.99996 4.37402V5.87402ZM3.16596 15.98L2.44696 15.766L2.32996 16.158L2.59696 16.468L3.16596 15.98ZM16.834 15.98L17.404 16.469L17.67 16.159L17.553 15.766L16.834 15.98ZM6.99996 13.874H13V12.374H6.99996V13.874ZM6.99996 12.374C5.97705 12.3741 4.98147 12.7042 4.16119 13.3153C3.3409 13.9264 2.73971 14.7859 2.44696 15.766L3.88496 16.194C4.08549 15.5237 4.49689 14.9359 5.05806 14.5179C5.61923 14.1 6.30024 13.8741 6.99996 13.874V12.374ZM9.99996 18.374C8.80937 18.3754 7.63267 18.1184 6.55104 17.6209C5.46941 17.1233 4.50862 16.397 3.73496 15.492L2.59696 16.468C3.51142 17.537 4.6468 18.396 5.92485 18.9838C7.20289 19.5716 8.5932 19.8754 9.99996 19.874V18.374ZM13 13.874C14.47 13.874 15.715 14.852 16.115 16.194L17.553 15.766C17.2602 14.7859 16.659 13.9264 15.8387 13.3153C15.0184 12.7042 14.0229 12.3741 13 12.374V13.874ZM16.265 15.492C15.4913 16.397 14.5305 17.1233 13.4489 17.6209C12.3672 18.1184 11.1905 18.3754 9.99996 18.374V19.874C11.4067 19.8754 12.797 19.5716 14.0751 18.9838C15.3531 18.396 16.4895 17.538 17.404 16.469L16.265 15.492Z"/>
</mask>
<path d="M11.25 7.12402C11.25 7.81402 10.69 8.37402 9.99996 8.37402V9.87402C10.7293 9.87402 11.4288 9.58429 11.9445 9.06857C12.4602 8.55284 12.75 7.85337 12.75 7.12402H11.25ZM9.99996 8.37402C9.30996 8.37402 8.74996 7.81402 8.74996 7.12402H7.24996C7.24996 7.85337 7.53969 8.55284 8.05541 9.06857C8.57114 9.58429 9.27061 9.87402 9.99996 9.87402V8.37402ZM8.74996 7.12402C8.74996 6.43402 9.30996 5.87402 9.99996 5.87402V4.37402C9.27061 4.37402 8.57114 4.66375 8.05541 5.17948C7.53969 5.6952 7.24996 6.39468 7.24996 7.12402H8.74996ZM9.99996 5.87402C10.69 5.87402 11.25 6.43402 11.25 7.12402H12.75C12.75 6.39468 12.4602 5.6952 11.9445 5.17948C11.4288 4.66375 10.7293 4.37402 9.99996 4.37402V5.87402ZM3.16596 15.98L2.44696 15.766L2.32996 16.158L2.59696 16.468L3.16596 15.98ZM16.834 15.98L17.404 16.469L17.67 16.159L17.553 15.766L16.834 15.98ZM6.99996 13.874H13V12.374H6.99996V13.874ZM6.99996 12.374C5.97705 12.3741 4.98147 12.7042 4.16119 13.3153C3.3409 13.9264 2.73971 14.7859 2.44696 15.766L3.88496 16.194C4.08549 15.5237 4.49689 14.9359 5.05806 14.5179C5.61923 14.1 6.30024 13.8741 6.99996 13.874V12.374ZM9.99996 18.374C8.80937 18.3754 7.63267 18.1184 6.55104 17.6209C5.46941 17.1233 4.50862 16.397 3.73496 15.492L2.59696 16.468C3.51142 17.537 4.6468 18.396 5.92485 18.9838C7.20289 19.5716 8.5932 19.8754 9.99996 19.874V18.374ZM13 13.874C14.47 13.874 15.715 14.852 16.115 16.194L17.553 15.766C17.2602 14.7859 16.659 13.9264 15.8387 13.3153C15.0184 12.7042 14.0229 12.3741 13 12.374V13.874ZM16.265 15.492C15.4913 16.397 14.5305 17.1233 13.4489 17.6209C12.3672 18.1184 11.1905 18.3754 9.99996 18.374V19.874C11.4067 19.8754 12.797 19.5716 14.0751 18.9838C15.3531 18.396 16.4895 17.538 17.404 16.469L16.265 15.492Z" fill="black"/>
<path d="M9.49996 8.37402V9.87402H10.5V8.37402H9.49996ZM12.75 6.62402H11.25V7.62402H12.75V6.62402ZM8.74996 6.62402H7.24996V7.62402H8.74996V6.62402ZM10.5 5.87402V4.37402H9.49996V5.87402H10.5ZM13.5 13.874V12.374H12.5V13.874H13.5ZM6.49996 12.374V13.874H7.49996V12.374H6.49996ZM10.5 19.874V18.374H9.49996V19.874H10.5ZM12.75 7.12402H13.75H12.75ZM7.24996 7.12402H6.24996H7.24996ZM3.16596 15.98L3.81697 16.7391L5.20941 15.5449L3.45123 15.0216L3.16596 15.98ZM2.44696 15.766L1.48878 15.4798L1.48873 15.48L2.44696 15.766ZM2.32996 16.158L1.37173 15.872L1.21529 16.3962L1.57226 16.8106L2.32996 16.158ZM16.834 15.98L16.5487 15.0216L14.7908 15.5448L16.1828 16.739L16.834 15.98ZM17.67 16.159L18.4289 16.8102L18.784 16.3964L18.6284 15.8737L17.67 16.159ZM17.553 15.766L18.5114 15.4807L18.5111 15.4798L17.553 15.766ZM6.99996 13.874V12.874H6.99978L6.99996 13.874ZM13 12.374L13 11.374H13V12.374ZM6.99996 12.374V11.374H6.99991L6.99996 12.374ZM3.88496 16.194L3.59969 17.1525L4.55681 17.4373L4.84301 16.4806L3.88496 16.194ZM9.99996 18.374L10.0011 17.374L9.99881 17.374L9.99996 18.374ZM3.73496 15.492L4.49505 14.8422L3.84421 14.0809L3.08395 14.733L3.73496 15.492ZM9.99996 19.874L10.0009 18.874L9.999 18.874L9.99996 19.874ZM16.115 16.194L15.1566 16.4797L15.4422 17.4376L16.4002 17.1525L16.115 16.194ZM16.265 15.492L16.916 14.733L16.1558 14.0809L15.5049 14.8422L16.265 15.492ZM10.25 7.12402C10.25 7.26174 10.1377 7.37402 9.99996 7.37402V9.37402C11.2422 9.37402 12.25 8.36631 12.25 7.12402H10.25ZM9.99996 10.874C10.9945 10.874 11.9483 10.4789 12.6516 9.77567L11.2374 8.36146C10.9092 8.68965 10.4641 8.87402 9.99996 8.87402V10.874ZM12.6516 9.77567C13.3549 9.07241 13.75 8.11859 13.75 7.12402H11.75C11.75 7.58815 11.5656 8.03327 11.2374 8.36146L12.6516 9.77567ZM9.99996 7.37402C9.86224 7.37402 9.74996 7.26174 9.74996 7.12402H7.74996C7.74996 8.36631 8.75767 9.37402 9.99996 9.37402V7.37402ZM6.24996 7.12402C6.24996 8.11859 6.64504 9.07241 7.34831 9.77567L8.76252 8.36146C8.43433 8.03327 8.24996 7.58815 8.24996 7.12402H6.24996ZM7.34831 9.77567C8.05157 10.4789 9.00539 10.874 9.99996 10.874V8.87402C9.53583 8.87402 9.09071 8.68965 8.76252 8.36146L7.34831 9.77567ZM9.74996 7.12402C9.74996 6.98631 9.86224 6.87402 9.99996 6.87402V4.87402C8.75767 4.87402 7.74996 5.88174 7.74996 7.12402H9.74996ZM9.99996 3.37402C9.00539 3.37402 8.05157 3.76911 7.34831 4.47237L8.76252 5.88659C9.09071 5.5584 9.53583 5.37402 9.99996 5.37402V3.37402ZM7.34831 4.47237C6.64504 5.17563 6.24996 6.12946 6.24996 7.12402H8.24996C8.24996 6.65989 8.43433 6.21477 8.76252 5.88659L7.34831 4.47237ZM9.99996 6.87402C10.1377 6.87402 10.25 6.98631 10.25 7.12402H12.25C12.25 5.88174 11.2422 4.87402 9.99996 4.87402V6.87402ZM13.75 7.12402C13.75 6.12946 13.3549 5.17563 12.6516 4.47237L11.2374 5.88659C11.5656 6.21477 11.75 6.65989 11.75 7.12402H13.75ZM12.6516 4.47237C11.9483 3.76911 10.9945 3.37402 9.99996 3.37402V5.37402C10.4641 5.37402 10.9092 5.5584 11.2374 5.88659L12.6516 4.47237ZM3.45123 15.0216L2.73223 14.8076L2.16169 16.7245L2.88069 16.9385L3.45123 15.0216ZM1.48873 15.48L1.37173 15.872L3.28819 16.444L3.40519 16.052L1.48873 15.48ZM1.57226 16.8106L1.83926 17.1206L3.35466 15.8154L3.08766 15.5054L1.57226 16.8106ZM3.24797 17.2271L3.81697 16.7391L2.51495 15.221L1.94595 15.709L3.24797 17.2271ZM16.1828 16.739L16.7528 17.228L18.0551 15.71L17.4851 15.221L16.1828 16.739ZM18.1629 17.1202L18.4289 16.8102L16.911 15.5078L16.645 15.8178L18.1629 17.1202ZM18.6284 15.8737L18.5114 15.4807L16.5945 16.0514L16.7115 16.4444L18.6284 15.8737ZM17.2677 14.8076L16.5487 15.0216L17.1192 16.9385L17.8382 16.7245L17.2677 14.8076ZM6.99996 14.874H13V12.874H6.99996V14.874ZM13 11.374H6.99996V13.374H13V11.374ZM6.99991 11.374C5.76175 11.3741 4.55666 11.7737 3.56375 12.5134L4.75862 14.1172C5.40629 13.6347 6.19236 13.3741 7 13.374L6.99991 11.374ZM3.56375 12.5134C2.57085 13.2531 1.84314 14.2935 1.48878 15.4798L3.40513 16.0522C3.63627 15.2784 4.11095 14.5997 4.75862 14.1172L3.56375 12.5134ZM2.16169 16.7245L3.59969 17.1525L4.17022 15.2356L2.73222 14.8076L2.16169 16.7245ZM4.84301 16.4806C4.98188 16.0164 5.26677 15.6093 5.65538 15.3199L4.46074 13.7159C3.72701 14.2624 3.1891 15.0309 2.9269 15.9074L4.84301 16.4806ZM5.65538 15.3199C6.04399 15.0305 6.51559 14.8741 7.00014 14.874L6.99978 12.874C6.0849 12.8742 5.19448 13.1694 4.46074 13.7159L5.65538 15.3199ZM9.99881 17.374C8.95289 17.3752 7.91916 17.1495 6.96896 16.7124L6.13312 18.5293C7.34618 19.0874 8.66586 19.3756 10.0011 19.374L9.99881 17.374ZM6.96896 16.7124C6.01876 16.2753 5.1747 15.6372 4.49505 14.8422L2.97487 16.1418C3.84253 17.1568 4.92007 17.9713 6.13312 18.5293L6.96896 16.7124ZM3.08395 14.733L1.94595 15.709L3.24797 17.2271L4.38597 16.2511L3.08395 14.733ZM1.83707 17.1181C2.84526 18.2966 4.09723 19.2439 5.50698 19.8923L6.34271 18.0753C5.19637 17.548 4.17758 16.7774 3.35685 15.818L1.83707 17.1181ZM5.50698 19.8923C6.91638 20.5406 8.44958 20.8755 10.0009 20.874L9.999 18.874C8.73683 18.8752 7.48941 18.6027 6.34271 18.0753L5.50698 19.8923ZM13 14.874C14.016 14.874 14.8796 15.5502 15.1566 16.4797L17.0733 15.9084C16.5503 14.1538 14.9239 12.874 13 12.874V14.874ZM16.4002 17.1525L17.8382 16.7245L17.2677 14.8076L15.8297 15.2356L16.4002 17.1525ZM18.5111 15.4798C18.1568 14.2935 17.4291 13.2531 16.4362 12.5134L15.2413 14.1172C15.889 14.5997 16.3636 15.2784 16.5948 16.0522L18.5111 15.4798ZM16.4362 12.5134C15.4433 11.7737 14.2382 11.3741 13 11.374L12.9999 13.374C13.8076 13.3741 14.5936 13.6347 15.2413 14.1172L16.4362 12.5134ZM15.5049 14.8422C14.8252 15.6372 13.9812 16.2753 13.031 16.7124L13.8668 18.5293C15.0798 17.9713 16.1574 17.1567 17.025 16.1418L15.5049 14.8422ZM13.031 16.7124C12.0808 17.1495 11.047 17.3752 10.0011 17.374L9.99881 19.374C11.3341 19.3756 12.6537 19.0874 13.8668 18.5293L13.031 16.7124ZM9.999 20.874C11.5503 20.8755 13.0835 20.5406 14.4929 19.8923L13.6572 18.0753C12.5105 18.6027 11.2631 18.8752 10.0009 18.874L9.999 20.874ZM14.4929 19.8923C15.9021 19.2442 17.1552 18.2981 18.1638 17.1191L16.6441 15.819C15.8238 16.7779 14.8042 17.5478 13.6572 18.0753L14.4929 19.8923ZM18.055 15.71L16.916 14.733L15.6139 16.251L16.7529 17.228L18.055 15.71Z" fill="#F04722" mask="url(#path-2-inside-1_1_2757)"/>
</svg>
