<svg width="68" height="68" viewBox="0 0 68 68" fill="none" xmlns="http://www.w3.org/2000/svg">
<path d="M41.8676 56.7695H18.574C14.7243 56.7695 11.5948 53.6401 11.5948 49.7904C11.5948 45.9407 14.7243 42.8112 18.574 42.8112H38.1156C43.5036 42.8112 47.8865 38.4283 47.8865 33.0404C47.8865 27.6524 43.5036 23.2695 38.1156 23.2695H24.5453C23.5201 25.2792 22.2505 27.1545 20.7654 28.8529H38.1156C40.4244 28.8529 42.3031 30.7317 42.3031 33.0404C42.3031 35.3491 40.4244 37.2279 38.1156 37.2279H18.574C11.6479 37.2279 6.01147 42.8642 6.01147 49.7904C6.01147 56.7165 11.6479 62.3529 18.574 62.3529H45.3544C43.9846 60.6297 42.8148 58.7566 41.8676 56.7695ZM14.3865 6.51953C9.76906 6.51953 6.01147 10.2771 6.01147 14.8945C6.01147 23.7944 14.3865 28.8529 14.3865 28.8529C14.3865 28.8529 22.7615 23.7916 22.7615 14.8945C22.7615 10.2771 19.0039 6.51953 14.3865 6.51953ZM14.3865 19.082C13.8364 19.0818 13.2917 18.9733 12.7836 18.7626C12.2754 18.552 11.8137 18.2432 11.4249 17.8541C11.036 17.465 10.7276 17.0032 10.5173 16.4949C10.307 15.9866 10.1988 15.4418 10.199 14.8917C10.1992 14.3416 10.3077 13.797 10.5184 13.2888C10.7291 12.7807 11.0378 12.319 11.4269 11.9302C11.816 11.5413 12.2778 11.2329 12.7861 11.0226C13.2944 10.8122 13.8392 10.7041 14.3893 10.7042C15.5002 10.7046 16.5655 11.1463 17.3509 11.9321C18.1362 12.718 18.5771 13.7836 18.5768 14.8945C18.5764 16.0055 18.1347 17.0708 17.3489 17.8561C16.563 18.6414 15.4974 19.0824 14.3865 19.082Z" fill="black"/>
<path d="M53.4698 40.0195C48.8524 40.0195 45.0948 43.7771 45.0948 48.3945C45.0948 57.2944 53.4698 62.3529 53.4698 62.3529C53.4698 62.3529 61.8448 57.2916 61.8448 48.3945C61.8448 43.7771 58.0873 40.0195 53.4698 40.0195ZM53.4698 52.582C52.9198 52.5818 52.3751 52.4733 51.8669 52.2626C51.3588 52.052 50.8971 51.7432 50.5083 51.3541C50.1194 50.965 49.811 50.5032 49.6007 49.9949C49.3903 49.4866 49.2822 48.9418 49.2823 48.3917C49.2825 47.8416 49.3911 47.297 49.6017 46.7888C49.8124 46.2807 50.1211 45.819 50.5102 45.4302C50.8993 45.0413 51.3612 44.7329 51.8695 44.5226C52.3778 44.3122 52.9225 44.2041 53.4726 44.2042C54.5836 44.2046 55.6489 44.6463 56.4342 45.4321C57.2195 46.218 57.6605 47.2836 57.6601 48.3945C57.6598 49.5055 57.2181 50.5708 56.4323 51.3561C55.6464 52.1414 54.5808 52.5824 53.4698 52.582Z" fill="black"/>
</svg>
