<svg width="22" height="22" viewBox="0 0 22 22" fill="none" xmlns="http://www.w3.org/2000/svg">
<path d="M1.94168 10.8005C1.98973 8.469 2.93861 6.24669 4.58934 4.59953C5.42073 3.76814 6.3877 3.11326 7.46467 2.65791C8.58001 2.18721 9.76443 1.94674 10.9847 1.94674C12.2074 1.94674 13.3918 2.18465 14.5046 2.65791C15.5816 3.11326 16.5486 3.76814 17.38 4.59953C17.6358 4.85535 17.8737 5.12395 18.0937 5.40279L16.8146 6.40302C16.7841 6.42659 16.7609 6.45829 16.7477 6.49446C16.7344 6.53063 16.7317 6.5698 16.7397 6.60748C16.7477 6.64516 16.7662 6.67981 16.793 6.70745C16.8198 6.73509 16.8539 6.7546 16.8914 6.76372L20.9025 7.74349C21.0304 7.77419 21.1558 7.67698 21.1558 7.54651L21.1762 3.41512C21.1762 3.24372 20.9792 3.14651 20.8462 3.25395L19.6234 4.2107C17.6179 1.64488 14.4944 0 10.9872 0C4.98841 0 0.110063 4.81186 6.39685e-05 10.7902C-0.000618808 10.8175 0.00417007 10.8447 0.0141486 10.8701C0.0241271 10.8955 0.0390932 10.9187 0.0581651 10.9383C0.077237 10.9578 0.100029 10.9733 0.125198 10.9839C0.150367 10.9946 0.177403 11 0.204714 11H1.73959C1.84959 11 1.93912 10.9105 1.94168 10.8005ZM21.7953 11H20.2604C20.1504 11 20.0583 11.0895 20.0558 11.1995C20.0077 13.531 19.0588 15.7533 17.4081 17.4005C16.5843 18.2277 15.6078 18.8871 14.5328 19.3421C13.4174 19.8128 12.233 20.0533 11.0128 20.0533C9.79257 20.0533 8.60559 19.8153 7.49281 19.3421C6.41774 18.8871 5.44123 18.2277 4.61748 17.4005C4.36167 17.1447 4.12376 16.876 3.90376 16.5972L5.18027 15.597C5.21074 15.5734 5.23393 15.5417 5.24719 15.5055C5.26045 15.4694 5.26323 15.4302 5.25522 15.3925C5.2472 15.3548 5.22871 15.3202 5.20188 15.2925C5.17504 15.2649 5.14095 15.2454 5.10352 15.2363L1.09238 14.2565C0.964477 14.2258 0.839129 14.323 0.839129 14.4535L0.818664 18.59C0.818664 18.7614 1.01564 18.8586 1.14866 18.7512L2.37145 17.7944C4.38213 20.3551 7.5056 22 11.0128 22C17.0116 22 21.8899 17.1881 21.9999 11.2098C22.0006 11.1825 21.9958 11.1553 21.9859 11.1299C21.9759 11.1045 21.9609 11.0813 21.9418 11.0617C21.9228 11.0422 21.9 11.0267 21.8748 11.0161C21.8496 11.0054 21.8226 11 21.7953 11Z" fill="#4C4C4C"/>
<path d="M13.6667 9.575H15C15 8.01465 13.1633 7.30295 11.6667 7.13905V6H10.3333V7.13905C8.83667 7.30295 7 8.01465 7 9.575C7 11.0633 8.77733 11.8372 10.3333 12.0115V14.745C9.368 14.6069 8.33333 14.1818 8.33333 13.425H7C7 14.849 8.61667 15.6905 10.3333 15.8648V17H11.6667V15.8615C13.1633 15.6976 15 14.9854 15 13.425C15 11.8647 13.1633 11.153 11.6667 10.9891V8.255C12.5533 8.38645 13.6667 8.77255 13.6667 9.575ZM8.33333 9.575C8.33333 8.77255 9.44667 8.38645 10.3333 8.255V10.8945C9.41933 10.7553 8.33333 10.3433 8.33333 9.575ZM13.6667 13.425C13.6667 14.2275 12.5533 14.6136 11.6667 14.745V12.105C12.5533 12.2365 13.6667 12.6226 13.6667 13.425Z" fill="#4C4C4C"/>
</svg>
