<svg width="362" height="288" viewBox="0 0 362 288" fill="none" xmlns="http://www.w3.org/2000/svg">
<path d="M34.5806 51.2762C-8.66358 87.8483 -2.37686 169.505 6.17203 205.762C30.4666 280.853 96.9416 236.195 177.413 268.818C260.754 302.603 276.21 284.715 317.483 257.783C361.824 228.848 373.116 127.731 351.021 85.9568C328.925 44.1826 269.741 3.5905 225.944 1.62002C182.148 -0.350464 88.6359 5.56098 34.5806 51.2762Z" fill="#F0E9FF"/>
<mask id="mask0_3694_5832" style="mask-type:alpha" maskUnits="userSpaceOnUse" x="0" y="0" width="362" height="287">
<path d="M34.5806 50.8777C-8.66358 87.4499 -2.37686 169.107 6.17203 205.364C30.4666 280.455 96.9416 235.797 177.413 268.419C260.754 302.205 276.21 284.317 317.483 257.384C361.824 228.45 373.116 127.333 351.021 85.5584C328.925 43.7841 269.741 3.19206 225.944 1.22158C182.148 -0.748901 88.6359 5.16255 34.5806 50.8777Z" fill="#F0E9FF"/>
</mask>
<g mask="url(#mask0_3694_5832)">
<path opacity="0.67" d="M432.186 166.228L432.302 166.118L432.378 165.978C442.412 147.562 443.996 118.823 439.802 86.2706C435.601 53.6665 425.575 17.0399 412.175 -17.301C398.777 -51.6384 381.987 -83.7421 364.229 -107.282C355.35 -119.051 346.207 -128.711 337.097 -135.436C327.993 -142.158 318.851 -146 310 -146C240.964 -146 185 -90.0356 185 -21C185 13.3518 191.898 43.9607 207.503 66.0089C223.145 88.1101 247.461 101.5 282 101.5C298.796 101.5 312.697 108.973 325.098 119.436C334.544 127.407 343.043 137.041 351.267 146.363C353.866 149.31 356.438 152.226 359.004 155.048C369.614 166.718 380.16 176.838 391.962 180.349C403.918 183.906 416.9 180.629 432.186 166.228Z" stroke="white" stroke-width="2"/>
<rect x="86" y="115" width="70" height="168" fill="#D5CCE8"/>
<rect x="86" y="115" width="70" height="52" fill="#C5B9DE"/>
<circle opacity="0.7" cx="-100" cy="217" r="144.5" stroke="#F7F4FE" stroke-width="41"/>
</g>
<rect x="11" y="29" width="219" height="129" fill="#041C59"/>
<rect x="11" y="29" width="219" height="20" fill="#133DA7"/>
<path d="M20.3553 43H18.1373V36.4545H20.4001C21.0499 36.4545 21.6082 36.5856 22.0748 36.8477C22.5435 37.1076 22.9036 37.4815 23.1551 37.9695C23.4065 38.4574 23.5322 39.0412 23.5322 39.7209C23.5322 40.4027 23.4054 40.9886 23.1519 41.4787C22.9004 41.9687 22.5372 42.3448 22.062 42.6069C21.589 42.869 21.0201 43 20.3553 43ZM19.323 41.9741H20.2978C20.7538 41.9741 21.1341 41.891 21.4388 41.7248C21.7435 41.5565 21.9725 41.3061 22.1259 40.9737C22.2793 40.6392 22.356 40.2216 22.356 39.7209C22.356 39.2202 22.2793 38.8047 22.1259 38.4744C21.9725 38.142 21.7456 37.8938 21.4452 37.7298C21.1469 37.5636 20.7761 37.4805 20.333 37.4805H19.323V41.9741ZM26.7809 43.0959C26.2888 43.0959 25.8637 42.9936 25.5057 42.7891C25.1499 42.5824 24.8761 42.2905 24.6843 41.9134C24.4926 41.5341 24.3967 41.0877 24.3967 40.5742C24.3967 40.0692 24.4926 39.6261 24.6843 39.2447C24.8782 38.8612 25.1488 38.5629 25.4961 38.3498C25.8434 38.1346 26.2515 38.027 26.7202 38.027C27.0228 38.027 27.3083 38.076 27.5767 38.174C27.8473 38.2699 28.086 38.419 28.2927 38.6214C28.5015 38.8239 28.6655 39.0817 28.7848 39.3949C28.9042 39.706 28.9638 40.0767 28.9638 40.5071V40.8619H24.94V40.082H27.8548C27.8527 39.8604 27.8047 39.6634 27.711 39.4908C27.6172 39.3161 27.4862 39.1786 27.3179 39.0785C27.1517 38.9783 26.9578 38.9283 26.7362 38.9283C26.4997 38.9283 26.2919 38.9858 26.113 39.1009C25.934 39.2138 25.7944 39.3629 25.6943 39.5483C25.5963 39.7315 25.5462 39.9329 25.5441 40.1523V40.8331C25.5441 41.1186 25.5963 41.3636 25.7007 41.5682C25.8051 41.7706 25.951 41.9261 26.1385 42.0348C26.326 42.1413 26.5455 42.1946 26.7969 42.1946C26.9652 42.1946 27.1176 42.1712 27.254 42.1243C27.3903 42.0753 27.5086 42.0039 27.6087 41.9102C27.7089 41.8164 27.7845 41.7003 27.8356 41.5618L28.9159 41.6832C28.8477 41.9687 28.7177 42.218 28.526 42.4311C28.3363 42.642 28.0934 42.8061 27.7973 42.9233C27.5011 43.0384 27.1623 43.0959 26.7809 43.0959ZM29.9426 44.8409V38.0909H31.0804V38.9027H31.1475C31.2072 38.7834 31.2913 38.6566 31.4 38.5224C31.5087 38.386 31.6557 38.2699 31.841 38.174C32.0264 38.076 32.2629 38.027 32.5506 38.027C32.9298 38.027 33.2718 38.1239 33.5765 38.3178C33.8833 38.5096 34.1262 38.794 34.3052 39.1712C34.4863 39.5462 34.5768 40.0064 34.5768 40.5518C34.5768 41.0909 34.4884 41.549 34.3116 41.9261C34.1347 42.3033 33.894 42.5909 33.5893 42.7891C33.2846 42.9872 32.9394 43.0863 32.5538 43.0863C32.2725 43.0863 32.0392 43.0394 31.8538 42.9457C31.6685 42.8519 31.5193 42.739 31.4064 42.6069C31.2956 42.4727 31.2093 42.3459 31.1475 42.2266H31.0996V44.8409H29.9426ZM31.0772 40.5455C31.0772 40.8629 31.1219 41.141 31.2114 41.3796C31.303 41.6183 31.4341 41.8047 31.6045 41.9389C31.7771 42.071 31.9859 42.1371 32.231 42.1371C32.4866 42.1371 32.7008 42.0689 32.8734 41.9325C33.0459 41.794 33.1759 41.6055 33.2633 41.3668C33.3528 41.1261 33.3975 40.8523 33.3975 40.5455C33.3975 40.2408 33.3538 39.9702 33.2665 39.7337C33.1791 39.4972 33.0491 39.3118 32.8766 39.1776C32.704 39.0433 32.4888 38.9762 32.231 38.9762C31.9838 38.9762 31.7739 39.0412 31.6013 39.1712C31.4288 39.3011 31.2977 39.4833 31.2082 39.7177C31.1209 39.9521 31.0772 40.228 31.0772 40.5455ZM36.9802 43.0991C36.6692 43.0991 36.389 43.0437 36.1397 42.9329C35.8925 42.82 35.6965 42.6538 35.5516 42.4343C35.4089 42.2148 35.3375 41.9442 35.3375 41.6225C35.3375 41.3455 35.3886 41.1165 35.4909 40.9354C35.5932 40.7543 35.7327 40.6094 35.9096 40.5007C36.0864 40.392 36.2856 40.31 36.5072 40.2546C36.731 40.1971 36.9621 40.1555 37.2008 40.13C37.4884 40.1001 37.7217 40.0735 37.9007 40.0501C38.0797 40.0245 38.2097 39.9862 38.2906 39.935C38.3737 39.8817 38.4153 39.7997 38.4153 39.6889V39.6697C38.4153 39.429 38.3439 39.2425 38.2011 39.1104C38.0584 38.9783 37.8528 38.9123 37.5843 38.9123C37.3009 38.9123 37.0761 38.9741 36.9099 39.0977C36.7459 39.2212 36.6351 39.3672 36.5775 39.5355L35.4973 39.3821C35.5825 39.0838 35.7231 38.8345 35.9192 38.6342C36.1152 38.4318 36.3549 38.2805 36.6383 38.1804C36.9217 38.0781 37.2349 38.027 37.5779 38.027C37.8144 38.027 38.0498 38.0547 38.2842 38.1101C38.5186 38.1655 38.7327 38.2571 38.9266 38.3849C39.1205 38.5107 39.2761 38.6822 39.3932 38.8995C39.5126 39.1168 39.5722 39.3885 39.5722 39.7145V43H38.46V42.3256H38.4217C38.3513 42.462 38.2523 42.5898 38.1244 42.7092C37.9987 42.8263 37.84 42.9212 37.6482 42.9936C37.4586 43.0639 37.2359 43.0991 36.9802 43.0991ZM37.2807 42.2489C37.5129 42.2489 37.7143 42.2031 37.8847 42.1115C38.0552 42.0178 38.1862 41.8942 38.2778 41.7408C38.3716 41.5874 38.4185 41.4201 38.4185 41.239V40.6605C38.3822 40.6903 38.3204 40.718 38.2331 40.7436C38.1479 40.7692 38.052 40.7915 37.9454 40.8107C37.8389 40.8299 37.7334 40.8469 37.629 40.8619C37.5246 40.8768 37.4341 40.8896 37.3574 40.9002C37.1848 40.9237 37.0303 40.962 36.894 41.0153C36.7576 41.0685 36.65 41.1431 36.5712 41.239C36.4923 41.3327 36.4529 41.4542 36.4529 41.6033C36.4529 41.8164 36.5307 41.9773 36.6862 42.0859C36.8418 42.1946 37.0399 42.2489 37.2807 42.2489ZM40.7356 43V38.0909H41.8574V38.9091H41.9085C41.998 38.6257 42.1514 38.4073 42.3687 38.2539C42.5882 38.0984 42.8386 38.0206 43.1198 38.0206C43.1837 38.0206 43.2551 38.0238 43.3339 38.0302C43.4149 38.0344 43.482 38.0419 43.5353 38.0526V39.1168C43.4863 39.0998 43.4085 39.0849 43.302 39.0721C43.1976 39.0572 43.0964 39.0497 42.9984 39.0497C42.7874 39.0497 42.5978 39.0955 42.4295 39.1871C42.2633 39.2766 42.1322 39.4013 42.0364 39.5611C41.9405 39.7209 41.8925 39.9052 41.8925 40.114V43H40.7356ZM47.019 38.0909V38.9858H44.1969V38.0909H47.019ZM44.8936 36.9148H46.0506V41.5234C46.0506 41.679 46.074 41.7983 46.1209 41.8814C46.1699 41.9624 46.2338 42.0178 46.3126 42.0476C46.3915 42.0774 46.4788 42.0923 46.5747 42.0923C46.6472 42.0923 46.7132 42.087 46.7729 42.0763C46.8347 42.0657 46.8815 42.0561 46.9135 42.0476L47.1084 42.9521C47.0467 42.9734 46.9582 42.9968 46.8432 43.0224C46.7302 43.0479 46.5918 43.0629 46.4277 43.0671C46.1379 43.0756 45.8769 43.032 45.6447 42.9361C45.4124 42.8381 45.2281 42.6868 45.0918 42.4822C44.9575 42.2777 44.8915 42.022 44.8936 41.7152V36.9148ZM51.1155 40.9354V38.0909H52.2724V43H51.1506V42.1275H51.0995C50.9887 42.4023 50.8065 42.6271 50.553 42.8018C50.3015 42.9766 49.9915 43.0639 49.6229 43.0639C49.3012 43.0639 49.0167 42.9925 48.7696 42.8498C48.5245 42.7049 48.3328 42.495 48.1943 42.2202C48.0558 41.9432 47.9866 41.6087 47.9866 41.2166V38.0909H49.1435V41.0376C49.1435 41.3487 49.2287 41.5959 49.3992 41.7791C49.5696 41.9624 49.7934 42.054 50.0704 42.054C50.2408 42.054 50.4059 42.0124 50.5657 41.9293C50.7255 41.8462 50.8566 41.7227 50.9589 41.5586C51.0633 41.3924 51.1155 41.1847 51.1155 40.9354ZM53.4621 43V38.0909H54.5839V38.9091H54.6351C54.7246 38.6257 54.878 38.4073 55.0953 38.2539C55.3148 38.0984 55.5651 38.0206 55.8464 38.0206C55.9103 38.0206 55.9817 38.0238 56.0605 38.0302C56.1415 38.0344 56.2086 38.0419 56.2619 38.0526V39.1168C56.2128 39.0998 56.1351 39.0849 56.0285 39.0721C55.9241 39.0572 55.8229 39.0497 55.7249 39.0497C55.514 39.0497 55.3244 39.0955 55.156 39.1871C54.9898 39.2766 54.8588 39.4013 54.7629 39.5611C54.667 39.7209 54.6191 39.9052 54.6191 40.114V43H53.4621ZM59.0016 43.0959C58.5095 43.0959 58.0844 42.9936 57.7264 42.7891C57.3706 42.5824 57.0968 42.2905 56.9051 41.9134C56.7133 41.5341 56.6174 41.0877 56.6174 40.5742C56.6174 40.0692 56.7133 39.6261 56.9051 39.2447C57.0989 38.8612 57.3695 38.5629 57.7168 38.3498C58.0641 38.1346 58.4722 38.027 58.9409 38.027C59.2435 38.027 59.529 38.076 59.7975 38.174C60.068 38.2699 60.3067 38.419 60.5134 38.6214C60.7222 38.8239 60.8862 39.0817 61.0055 39.3949C61.1249 39.706 61.1845 40.0767 61.1845 40.5071V40.8619H57.1607V40.082H60.0755C60.0734 39.8604 60.0254 39.6634 59.9317 39.4908C59.8379 39.3161 59.7069 39.1786 59.5386 39.0785C59.3724 38.9783 59.1785 38.9283 58.9569 38.9283C58.7204 38.9283 58.5127 38.9858 58.3337 39.1009C58.1547 39.2138 58.0151 39.3629 57.915 39.5483C57.817 39.7315 57.7669 39.9329 57.7648 40.1523V40.8331C57.7648 41.1186 57.817 41.3636 57.9214 41.5682C58.0258 41.7706 58.1717 41.9261 58.3592 42.0348C58.5467 42.1413 58.7662 42.1946 59.0176 42.1946C59.1859 42.1946 59.3383 42.1712 59.4747 42.1243C59.611 42.0753 59.7293 42.0039 59.8294 41.9102C59.9296 41.8164 60.0052 41.7003 60.0563 41.5618L61.1366 41.6832C61.0684 41.9687 60.9384 42.218 60.7467 42.4311C60.557 42.642 60.3141 42.8061 60.018 42.9233C59.7218 43.0384 59.383 43.0959 59.0016 43.0959ZM66.0433 39.3885L64.9886 39.5036C64.9588 39.397 64.9066 39.2969 64.832 39.2031C64.7595 39.1094 64.6615 39.0337 64.538 38.9762C64.4144 38.9187 64.2631 38.8899 64.0841 38.8899C63.8434 38.8899 63.6409 38.9421 63.4769 39.0465C63.3149 39.1509 63.235 39.2862 63.2372 39.4524C63.235 39.5952 63.2872 39.7113 63.3938 39.8008C63.5024 39.8903 63.6814 39.9638 63.9307 40.0213L64.7681 40.2003C65.2326 40.3004 65.5777 40.4592 65.8036 40.6765C66.0316 40.8938 66.1466 41.1783 66.1487 41.5298C66.1466 41.8388 66.0561 42.1115 65.8771 42.348C65.7002 42.5824 65.4541 42.7656 65.1388 42.8977C64.8235 43.0298 64.4612 43.0959 64.0522 43.0959C63.4513 43.0959 62.9676 42.9702 62.6012 42.7188C62.2347 42.4652 62.0163 42.1126 61.946 41.6609L63.0742 41.5522C63.1253 41.7738 63.234 41.9411 63.4002 42.054C63.5664 42.1669 63.7826 42.2234 64.049 42.2234C64.3238 42.2234 64.5443 42.1669 64.7105 42.054C64.8789 41.9411 64.963 41.8015 64.963 41.6353C64.963 41.4947 64.9087 41.3786 64.8 41.2869C64.6935 41.1953 64.5273 41.125 64.3014 41.076L63.4641 40.9002C62.9932 40.8022 62.6448 40.6371 62.419 40.4048C62.1931 40.1705 62.0813 39.8743 62.0834 39.5163C62.0813 39.2138 62.1633 38.9517 62.3295 38.7301C62.4978 38.5064 62.7311 38.3338 63.0294 38.2124C63.3299 38.0888 63.6761 38.027 64.0681 38.027C64.6434 38.027 65.0962 38.1495 65.4264 38.3945C65.7588 38.6396 65.9644 38.9709 66.0433 39.3885Z" fill="white"/>
<path d="M28.0245 60.4545V67H26.9698L23.8857 62.5415H23.8313V67H22.6456V60.4545H23.7067L26.7876 64.9162H26.8452V60.4545H28.0245ZM31.4387 67.0959C30.9465 67.0959 30.5214 66.9936 30.1634 66.7891C29.8076 66.5824 29.5338 66.2905 29.3421 65.9134C29.1503 65.5341 29.0544 65.0877 29.0544 64.5742C29.0544 64.0692 29.1503 63.6261 29.3421 63.2447C29.536 62.8612 29.8066 62.5629 30.1539 62.3498C30.5012 62.1346 30.9092 62.027 31.3779 62.027C31.6805 62.027 31.966 62.076 32.2345 62.174C32.5051 62.2699 32.7437 62.419 32.9504 62.6214C33.1592 62.8239 33.3232 63.0817 33.4426 63.3949C33.5619 63.706 33.6215 64.0767 33.6215 64.5071V64.8619H29.5977V64.082H32.5125C32.5104 63.8604 32.4624 63.6634 32.3687 63.4908C32.2749 63.3161 32.1439 63.1786 31.9756 63.0785C31.8094 62.9783 31.6155 62.9283 31.3939 62.9283C31.1574 62.9283 30.9497 62.9858 30.7707 63.1009C30.5917 63.2138 30.4521 63.3629 30.352 63.5483C30.254 63.7315 30.2039 63.9329 30.2018 64.1523V64.8331C30.2018 65.1186 30.254 65.3636 30.3584 65.5682C30.4628 65.7706 30.6088 65.9261 30.7963 66.0348C30.9838 66.1413 31.2032 66.1946 31.4546 66.1946C31.623 66.1946 31.7753 66.1712 31.9117 66.1243C32.048 66.0753 32.1663 66.0039 32.2664 65.9102C32.3666 65.8164 32.4422 65.7003 32.4933 65.5618L33.5736 65.6832C33.5054 65.9687 33.3754 66.218 33.1837 66.4311C32.9941 66.642 32.7512 66.8061 32.455 66.9233C32.1588 67.0384 31.82 67.0959 31.4387 67.0959ZM35.5871 67L34.2 62.0909H35.3794L36.2423 65.5426H36.287L37.1691 62.0909H38.3357L39.2178 65.5234H39.2657L40.1159 62.0909H41.2984L39.9081 67H38.7032L37.7828 63.6825H37.7156L36.7952 67H35.5871ZM43.9423 60.4545H45.2814L46.8826 63.3501H46.9466L48.5478 60.4545H49.8869L47.5059 64.5582V67H46.3233V64.5582L43.9423 60.4545ZM51.9028 67.0959C51.4234 67.0959 51.0079 66.9904 50.6563 66.7795C50.3048 66.5685 50.032 66.2734 49.8382 65.8942C49.6464 65.5149 49.5505 65.0717 49.5505 64.5646C49.5505 64.0575 49.6464 63.6133 49.8382 63.2319C50.032 62.8505 50.3048 62.5543 50.6563 62.3434C51.0079 62.1325 51.4234 62.027 51.9028 62.027C52.3822 62.027 52.7977 62.1325 53.1492 62.3434C53.5008 62.5543 53.7725 62.8505 53.9642 63.2319C54.1581 63.6133 54.2551 64.0575 54.2551 64.5646C54.2551 65.0717 54.1581 65.5149 53.9642 65.8942C53.7725 66.2734 53.5008 66.5685 53.1492 66.7795C52.7977 66.9904 52.3822 67.0959 51.9028 67.0959ZM51.9092 66.169C52.1691 66.169 52.3865 66.0977 52.5612 65.9549C52.7359 65.81 52.8659 65.6161 52.9511 65.3732C53.0384 65.1303 53.0821 64.8597 53.0821 64.5614C53.0821 64.261 53.0384 63.9893 52.9511 63.7464C52.8659 63.5014 52.7359 63.3065 52.5612 63.1616C52.3865 63.0167 52.1691 62.9442 51.9092 62.9442C51.6428 62.9442 51.4213 63.0167 51.2444 63.1616C51.0697 63.3065 50.9387 63.5014 50.8513 63.7464C50.7661 63.9893 50.7235 64.261 50.7235 64.5614C50.7235 64.8597 50.7661 65.1303 50.8513 65.3732C50.9387 65.6161 51.0697 65.81 51.2444 65.9549C51.4213 66.0977 51.6428 66.169 51.9092 66.169ZM55.237 67V62.0909H56.3588V62.9091H56.41C56.4995 62.6257 56.6529 62.4073 56.8702 62.2539C57.0897 62.0984 57.34 62.0206 57.6213 62.0206C57.6852 62.0206 57.7566 62.0238 57.8354 62.0302C57.9164 62.0344 57.9835 62.0419 58.0368 62.0526V63.1168C57.9877 63.0998 57.91 63.0849 57.8034 63.0721C57.699 63.0572 57.5978 63.0497 57.4998 63.0497C57.2889 63.0497 57.0993 63.0955 56.9309 63.1871C56.7647 63.2766 56.6337 63.4013 56.5378 63.5611C56.4419 63.7209 56.394 63.9052 56.394 64.114V67H55.237ZM59.8601 65.4595L59.8569 64.0629H60.0423L61.8065 62.0909H63.1584L60.9883 64.5071H60.7486L59.8601 65.4595ZM58.8054 67V60.4545H59.9624V67H58.8054ZM61.8864 67L60.2884 64.766L61.0682 63.951L63.2702 67H61.8864ZM71.8156 62.663H70.6203C70.5862 62.467 70.5233 62.2933 70.4317 62.142C70.3401 61.9886 70.2261 61.8587 70.0898 61.7521C69.9534 61.6456 69.7979 61.5657 69.6231 61.5124C69.4506 61.457 69.2641 61.4293 69.0638 61.4293C68.708 61.4293 68.3927 61.5188 68.1178 61.6978C67.843 61.8746 67.6278 62.1346 67.4722 62.4776C67.3167 62.8185 67.2389 63.2351 67.2389 63.7273C67.2389 64.228 67.3167 64.6499 67.4722 64.9929C67.6299 65.3338 67.8451 65.5916 68.1178 65.7663C68.3927 65.9389 68.7069 66.0252 69.0606 66.0252C69.2567 66.0252 69.4399 65.9996 69.6104 65.9485C69.7829 65.8952 69.9374 65.8175 70.0738 65.7152C70.2123 65.6129 70.3284 65.4872 70.4221 65.3381C70.518 65.1889 70.5841 65.0185 70.6203 64.8267L71.8156 64.8331C71.7709 65.1442 71.6739 65.4361 71.5248 65.7088C71.3778 65.9815 71.1849 66.2223 70.9463 66.4311C70.7077 66.6378 70.4285 66.7997 70.1089 66.9169C69.7893 67.032 69.4346 67.0895 69.0447 67.0895C68.4694 67.0895 67.9559 66.9563 67.5042 66.69C67.0525 66.4237 66.6966 66.0391 66.4367 65.5362C66.1768 65.0334 66.0468 64.4304 66.0468 63.7273C66.0468 63.022 66.1778 62.419 66.4399 61.9183C66.702 61.4155 67.0589 61.0309 67.5106 60.7646C67.9623 60.4982 68.4736 60.3651 69.0447 60.3651C69.409 60.3651 69.7478 60.4162 70.061 60.5185C70.3742 60.6207 70.6533 60.771 70.8983 60.9691C71.1434 61.1651 71.3447 61.4059 71.5024 61.6914C71.6622 61.9748 71.7666 62.2987 71.8156 62.663ZM72.8503 67V62.0909H74.0073V67H72.8503ZM73.432 61.3942C73.2488 61.3942 73.0911 61.3335 72.959 61.212C72.8269 61.0884 72.7608 60.9403 72.7608 60.7678C72.7608 60.593 72.8269 60.445 72.959 60.3235C73.0911 60.1999 73.2488 60.1381 73.432 60.1381C73.6174 60.1381 73.775 60.1999 73.905 60.3235C74.0371 60.445 74.1032 60.593 74.1032 60.7678C74.1032 60.9403 74.0371 61.0884 73.905 61.212C73.775 61.3335 73.6174 61.3942 73.432 61.3942ZM77.6483 62.0909V62.9858H74.8263V62.0909H77.6483ZM75.523 60.9148H76.68V65.5234C76.68 65.679 76.7034 65.7983 76.7503 65.8814C76.7993 65.9624 76.8632 66.0178 76.942 66.0476C77.0209 66.0774 77.1082 66.0923 77.2041 66.0923C77.2765 66.0923 77.3426 66.087 77.4023 66.0763C77.464 66.0657 77.5109 66.0561 77.5429 66.0476L77.7378 66.9521C77.676 66.9734 77.5876 66.9968 77.4726 67.0224C77.3596 67.0479 77.2211 67.0629 77.0571 67.0671C76.7673 67.0756 76.5063 67.032 76.2741 66.9361C76.0418 66.8381 75.8575 66.6868 75.7211 66.4822C75.5869 66.2777 75.5209 66.022 75.523 65.7152V60.9148ZM79.335 68.8409C79.1774 68.8409 79.0314 68.8281 78.8972 68.8026C78.7651 68.7791 78.6596 68.7514 78.5808 68.7195L78.8493 67.8182C79.0176 67.8672 79.1678 67.8906 79.2999 67.8885C79.432 67.8864 79.5481 67.8448 79.6483 67.7638C79.7505 67.685 79.8368 67.5529 79.9071 67.3675L80.0062 67.1023L78.226 62.0909H79.4533L80.5847 65.7983H80.6358L81.7704 62.0909H83.0009L81.0353 67.5945C80.9437 67.8544 80.8223 68.0771 80.671 68.2624C80.5197 68.4499 80.3343 68.5927 80.1149 68.6907C79.8975 68.7908 79.6376 68.8409 79.335 68.8409Z" fill="white"/>
<rect width="44" height="14" transform="translate(169 57)" fill="#F2300A"/>
<path d="M178.974 63.6268H178.044C178.018 63.4743 177.969 63.3393 177.898 63.2216C177.826 63.1023 177.738 63.0012 177.632 62.9183C177.526 62.8355 177.405 62.7733 177.269 62.7319C177.134 62.6888 176.989 62.6673 176.834 62.6673C176.557 62.6673 176.312 62.7369 176.098 62.8761C175.884 63.0136 175.717 63.2158 175.596 63.4826C175.475 63.7478 175.414 64.0717 175.414 64.4545C175.414 64.844 175.475 65.1721 175.596 65.4389C175.718 65.7041 175.886 65.9046 176.098 66.0405C176.312 66.1747 176.556 66.2418 176.831 66.2418C176.984 66.2418 177.126 66.2219 177.259 66.1822C177.393 66.1407 177.513 66.0803 177.619 66.0007C177.727 65.9212 177.817 65.8234 177.89 65.7074C177.965 65.5914 178.016 65.4588 178.044 65.3097L178.974 65.3146C178.939 65.5566 178.864 65.7836 178.748 65.9957C178.633 66.2079 178.483 66.3951 178.298 66.5575C178.112 66.7183 177.895 66.8442 177.647 66.9354C177.398 67.0249 177.122 67.0696 176.819 67.0696C176.371 67.0696 175.972 66.966 175.621 66.7589C175.269 66.5517 174.993 66.2526 174.79 65.8615C174.588 65.4704 174.487 65.0014 174.487 64.4545C174.487 63.906 174.589 63.437 174.793 63.0476C174.997 62.6565 175.274 62.3574 175.626 62.1502C175.977 61.9431 176.375 61.8395 176.819 61.8395C177.102 61.8395 177.366 61.8793 177.609 61.9588C177.853 62.0384 178.07 62.1552 178.261 62.3093C178.451 62.4618 178.608 62.649 178.73 62.8711C178.855 63.0915 178.936 63.3434 178.974 63.6268ZM180.877 67.0771C180.636 67.0771 180.418 67.034 180.224 66.9478C180.031 66.86 179.879 66.7307 179.766 66.56C179.655 66.3893 179.6 66.1789 179.6 65.9286C179.6 65.7132 179.64 65.535 179.719 65.3942C179.799 65.2533 179.907 65.1406 180.045 65.0561C180.182 64.9716 180.337 64.9078 180.51 64.8647C180.684 64.82 180.863 64.7876 181.049 64.7678C181.273 64.7446 181.454 64.7238 181.593 64.7056C181.733 64.6857 181.834 64.6559 181.897 64.6161C181.961 64.5747 181.994 64.5109 181.994 64.4247V64.4098C181.994 64.2225 181.938 64.0775 181.827 63.9748C181.716 63.872 181.556 63.8207 181.347 63.8207C181.127 63.8207 180.952 63.8687 180.823 63.9648C180.695 64.061 180.609 64.1745 180.564 64.3054L179.724 64.1861C179.79 63.9541 179.9 63.7602 180.052 63.6044C180.205 63.447 180.391 63.3293 180.612 63.2514C180.832 63.1719 181.076 63.1321 181.342 63.1321C181.526 63.1321 181.709 63.1536 181.892 63.1967C182.074 63.2398 182.241 63.3111 182.391 63.4105C182.542 63.5083 182.663 63.6417 182.754 63.8107C182.847 63.9798 182.893 64.1911 182.893 64.4446V67H182.028V66.4755H181.999C181.944 66.5816 181.867 66.681 181.767 66.7738C181.67 66.8649 181.546 66.9387 181.397 66.995C181.25 67.0497 181.076 67.0771 180.877 67.0771ZM181.111 66.4158C181.292 66.4158 181.448 66.3802 181.581 66.3089C181.714 66.236 181.815 66.1399 181.887 66.0206C181.96 65.9013 181.996 65.7712 181.996 65.6303V65.1804C181.968 65.2036 181.92 65.2251 181.852 65.245C181.786 65.2649 181.711 65.2823 181.628 65.2972C181.545 65.3121 181.463 65.3254 181.382 65.337C181.301 65.3486 181.23 65.3585 181.171 65.3668C181.037 65.3851 180.916 65.4149 180.81 65.4563C180.704 65.4978 180.621 65.5558 180.559 65.6303C180.498 65.7032 180.467 65.7977 180.467 65.9137C180.467 66.0794 180.528 66.2045 180.649 66.2891C180.77 66.3736 180.924 66.4158 181.111 66.4158ZM184.698 64.7628V67H183.798V63.1818H184.658V63.8306H184.703C184.791 63.6168 184.931 63.447 185.123 63.321C185.317 63.1951 185.557 63.1321 185.842 63.1321C186.105 63.1321 186.335 63.1884 186.53 63.3011C186.727 63.4138 186.88 63.5771 186.988 63.7908C187.097 64.0046 187.151 64.264 187.149 64.5689V67H186.249V64.7081C186.249 64.4529 186.183 64.2532 186.05 64.109C185.92 63.9648 185.738 63.8928 185.506 63.8928C185.349 63.8928 185.209 63.9276 185.086 63.9972C184.965 64.0651 184.87 64.1637 184.8 64.293C184.732 64.4222 184.698 64.5788 184.698 64.7628ZM189.729 67.0746C189.348 67.0746 189.021 66.9909 188.748 66.8235C188.476 66.6561 188.266 66.425 188.119 66.13C187.973 65.8333 187.9 65.492 187.9 65.1058C187.9 64.718 187.974 64.3758 188.124 64.0792C188.273 63.7809 188.483 63.5489 188.755 63.3832C189.028 63.2158 189.352 63.1321 189.724 63.1321C190.034 63.1321 190.309 63.1893 190.547 63.3036C190.788 63.4163 190.979 63.5762 191.121 63.7834C191.264 63.9889 191.345 64.2292 191.365 64.5043H190.505C190.47 64.3203 190.387 64.167 190.256 64.0444C190.127 63.9201 189.954 63.858 189.737 63.858C189.553 63.858 189.391 63.9077 189.252 64.0071C189.113 64.1049 189.004 64.2457 188.926 64.4297C188.85 64.6136 188.812 64.834 188.812 65.0909C188.812 65.3511 188.85 65.5748 188.926 65.7621C189.003 65.9477 189.11 66.091 189.247 66.1921C189.386 66.2915 189.55 66.3413 189.737 66.3413C189.869 66.3413 189.988 66.3164 190.092 66.2667C190.198 66.2153 190.287 66.1416 190.358 66.0455C190.43 65.9493 190.478 65.8325 190.505 65.695H191.365C191.344 65.9651 191.264 66.2045 191.126 66.4134C190.989 66.6205 190.802 66.7829 190.565 66.9006C190.328 67.0166 190.049 67.0746 189.729 67.0746ZM193.794 67.0746C193.411 67.0746 193.081 66.995 192.802 66.8359C192.526 66.6752 192.313 66.4482 192.164 66.1548C192.014 65.8598 191.94 65.5127 191.94 65.1133C191.94 64.7205 192.014 64.3758 192.164 64.0792C192.314 63.7809 192.525 63.5489 192.795 63.3832C193.065 63.2158 193.382 63.1321 193.747 63.1321C193.982 63.1321 194.204 63.1702 194.413 63.2464C194.624 63.321 194.809 63.437 194.97 63.5945C195.132 63.7519 195.26 63.9524 195.353 64.196C195.446 64.438 195.492 64.7263 195.492 65.0611V65.337H192.362V64.7305H194.63C194.628 64.5581 194.591 64.4048 194.518 64.2706C194.445 64.1347 194.343 64.0278 194.212 63.9499C194.083 63.872 193.932 63.8331 193.759 63.8331C193.576 63.8331 193.414 63.8778 193.275 63.9673C193.136 64.0552 193.027 64.1712 192.949 64.3153C192.873 64.4579 192.834 64.6145 192.832 64.7852V65.3146C192.832 65.5367 192.873 65.7273 192.954 65.8864C193.035 66.0438 193.149 66.1648 193.295 66.2493C193.44 66.3321 193.611 66.3736 193.807 66.3736C193.938 66.3736 194.056 66.3554 194.162 66.3189C194.268 66.2808 194.36 66.2253 194.438 66.1523C194.516 66.0794 194.575 65.9891 194.615 65.8814L195.455 65.9759C195.402 66.1979 195.301 66.3918 195.152 66.5575C195.004 66.7216 194.815 66.8492 194.585 66.9403C194.354 67.0298 194.091 67.0746 193.794 67.0746ZM197.153 61.9091V67H196.253V61.9091H197.153ZM198.978 61.9091V67H198.079V61.9091H198.978ZM201.594 67.0746C201.211 67.0746 200.881 66.995 200.602 66.8359C200.326 66.6752 200.113 66.4482 199.963 66.1548C199.814 65.8598 199.74 65.5127 199.74 65.1133C199.74 64.7205 199.814 64.3758 199.963 64.0792C200.114 63.7809 200.325 63.5489 200.595 63.3832C200.865 63.2158 201.182 63.1321 201.547 63.1321C201.782 63.1321 202.004 63.1702 202.213 63.2464C202.424 63.321 202.609 63.437 202.77 63.5945C202.932 63.7519 203.06 63.9524 203.153 64.196C203.246 64.438 203.292 64.7263 203.292 65.0611V65.337H200.162V64.7305H202.429C202.428 64.5581 202.39 64.4048 202.317 64.2706C202.245 64.1347 202.143 64.0278 202.012 63.9499C201.882 63.872 201.732 63.8331 201.559 63.8331C201.375 63.8331 201.214 63.8778 201.075 63.9673C200.935 64.0552 200.827 64.1712 200.749 64.3153C200.673 64.4579 200.634 64.6145 200.632 64.7852V65.3146C200.632 65.5367 200.673 65.7273 200.754 65.8864C200.835 66.0438 200.949 66.1648 201.094 66.2493C201.24 66.3321 201.411 66.3736 201.607 66.3736C201.737 66.3736 201.856 66.3554 201.962 66.3189C202.068 66.2808 202.16 66.2253 202.238 66.1523C202.316 66.0794 202.375 65.9891 202.414 65.8814L203.255 65.9759C203.202 66.1979 203.1 66.3918 202.951 66.5575C202.804 66.7216 202.615 66.8492 202.385 66.9403C202.154 67.0298 201.891 67.0746 201.594 67.0746ZM205.47 67.0671C205.17 67.0671 204.902 66.9901 204.665 66.8359C204.428 66.6818 204.24 66.4581 204.103 66.1648C203.965 65.8714 203.897 65.5152 203.897 65.0959C203.897 64.6716 203.966 64.3137 204.105 64.022C204.246 63.7287 204.436 63.5075 204.675 63.3583C204.913 63.2075 205.179 63.1321 205.473 63.1321C205.696 63.1321 205.88 63.1702 206.024 63.2464C206.169 63.321 206.283 63.4113 206.367 63.5174C206.452 63.6218 206.517 63.7204 206.564 63.8132H206.601V61.9091H207.503V67H206.619V66.3984H206.564C206.517 66.4912 206.45 66.5898 206.362 66.6942C206.275 66.797 206.159 66.8848 206.014 66.9577C205.87 67.0307 205.689 67.0671 205.47 67.0671ZM205.721 66.3288C205.912 66.3288 206.074 66.2775 206.208 66.1747C206.343 66.0703 206.445 65.9253 206.514 65.7397C206.584 65.5541 206.619 65.3378 206.619 65.0909C206.619 64.844 206.584 64.6294 206.514 64.4471C206.446 64.2648 206.345 64.1231 206.211 64.022C206.078 63.9209 205.915 63.8704 205.721 63.8704C205.521 63.8704 205.353 63.9226 205.219 64.027C205.085 64.1314 204.984 64.2756 204.916 64.4595C204.848 64.6435 204.814 64.8539 204.814 65.0909C204.814 65.3295 204.848 65.5425 204.916 65.7298C204.985 65.9154 205.087 66.062 205.222 66.1697C205.357 66.2758 205.524 66.3288 205.721 66.3288Z" fill="white"/>
<rect width="44" height="14" transform="translate(169 76)" fill="#F2300A"/>
<path d="M178.974 82.6268H178.044C178.018 82.4743 177.969 82.3393 177.898 82.2216C177.826 82.1023 177.738 82.0012 177.632 81.9183C177.526 81.8355 177.405 81.7733 177.269 81.7319C177.134 81.6888 176.989 81.6673 176.834 81.6673C176.557 81.6673 176.312 81.7369 176.098 81.8761C175.884 82.0136 175.717 82.2158 175.596 82.4826C175.475 82.7478 175.414 83.0717 175.414 83.4545C175.414 83.844 175.475 84.1721 175.596 84.4389C175.718 84.7041 175.886 84.9046 176.098 85.0405C176.312 85.1747 176.556 85.2418 176.831 85.2418C176.984 85.2418 177.126 85.2219 177.259 85.1822C177.393 85.1407 177.513 85.0803 177.619 85.0007C177.727 84.9212 177.817 84.8234 177.89 84.7074C177.965 84.5914 178.016 84.4588 178.044 84.3097L178.974 84.3146C178.939 84.5566 178.864 84.7836 178.748 84.9957C178.633 85.2079 178.483 85.3951 178.298 85.5575C178.112 85.7183 177.895 85.8442 177.647 85.9354C177.398 86.0249 177.122 86.0696 176.819 86.0696C176.371 86.0696 175.972 85.966 175.621 85.7589C175.269 85.5517 174.993 85.2526 174.79 84.8615C174.588 84.4704 174.487 84.0014 174.487 83.4545C174.487 82.906 174.589 82.437 174.793 82.0476C174.997 81.6565 175.274 81.3574 175.626 81.1502C175.977 80.9431 176.375 80.8395 176.819 80.8395C177.102 80.8395 177.366 80.8793 177.609 80.9588C177.853 81.0384 178.07 81.1552 178.261 81.3093C178.451 81.4618 178.608 81.649 178.73 81.8711C178.855 82.0915 178.936 82.3434 178.974 82.6268ZM180.877 86.0771C180.636 86.0771 180.418 86.034 180.224 85.9478C180.031 85.86 179.879 85.7307 179.766 85.56C179.655 85.3893 179.6 85.1789 179.6 84.9286C179.6 84.7132 179.64 84.535 179.719 84.3942C179.799 84.2533 179.907 84.1406 180.045 84.0561C180.182 83.9716 180.337 83.9078 180.51 83.8647C180.684 83.82 180.863 83.7876 181.049 83.7678C181.273 83.7446 181.454 83.7238 181.593 83.7056C181.733 83.6857 181.834 83.6559 181.897 83.6161C181.961 83.5747 181.994 83.5109 181.994 83.4247V83.4098C181.994 83.2225 181.938 83.0775 181.827 82.9748C181.716 82.872 181.556 82.8207 181.347 82.8207C181.127 82.8207 180.952 82.8687 180.823 82.9648C180.695 83.061 180.609 83.1745 180.564 83.3054L179.724 83.1861C179.79 82.9541 179.9 82.7602 180.052 82.6044C180.205 82.447 180.391 82.3293 180.612 82.2514C180.832 82.1719 181.076 82.1321 181.342 82.1321C181.526 82.1321 181.709 82.1536 181.892 82.1967C182.074 82.2398 182.241 82.3111 182.391 82.4105C182.542 82.5083 182.663 82.6417 182.754 82.8107C182.847 82.9798 182.893 83.1911 182.893 83.4446V86H182.028V85.4755H181.999C181.944 85.5816 181.867 85.681 181.767 85.7738C181.67 85.8649 181.546 85.9387 181.397 85.995C181.25 86.0497 181.076 86.0771 180.877 86.0771ZM181.111 85.4158C181.292 85.4158 181.448 85.3802 181.581 85.3089C181.714 85.236 181.815 85.1399 181.887 85.0206C181.96 84.9013 181.996 84.7712 181.996 84.6303V84.1804C181.968 84.2036 181.92 84.2251 181.852 84.245C181.786 84.2649 181.711 84.2823 181.628 84.2972C181.545 84.3121 181.463 84.3254 181.382 84.337C181.301 84.3486 181.23 84.3585 181.171 84.3668C181.037 84.3851 180.916 84.4149 180.81 84.4563C180.704 84.4978 180.621 84.5558 180.559 84.6303C180.498 84.7032 180.467 84.7977 180.467 84.9137C180.467 85.0794 180.528 85.2045 180.649 85.2891C180.77 85.3736 180.924 85.4158 181.111 85.4158ZM184.698 83.7628V86H183.798V82.1818H184.658V82.8306H184.703C184.791 82.6168 184.931 82.447 185.123 82.321C185.317 82.1951 185.557 82.1321 185.842 82.1321C186.105 82.1321 186.335 82.1884 186.53 82.3011C186.727 82.4138 186.88 82.5771 186.988 82.7908C187.097 83.0046 187.151 83.264 187.149 83.5689V86H186.249V83.7081C186.249 83.4529 186.183 83.2532 186.05 83.109C185.92 82.9648 185.738 82.8928 185.506 82.8928C185.349 82.8928 185.209 82.9276 185.086 82.9972C184.965 83.0651 184.87 83.1637 184.8 83.293C184.732 83.4222 184.698 83.5788 184.698 83.7628ZM189.729 86.0746C189.348 86.0746 189.021 85.9909 188.748 85.8235C188.476 85.6561 188.266 85.425 188.119 85.13C187.973 84.8333 187.9 84.492 187.9 84.1058C187.9 83.718 187.974 83.3758 188.124 83.0792C188.273 82.7809 188.483 82.5489 188.755 82.3832C189.028 82.2158 189.352 82.1321 189.724 82.1321C190.034 82.1321 190.309 82.1893 190.547 82.3036C190.788 82.4163 190.979 82.5762 191.121 82.7834C191.264 82.9889 191.345 83.2292 191.365 83.5043H190.505C190.47 83.3203 190.387 83.167 190.256 83.0444C190.127 82.9201 189.954 82.858 189.737 82.858C189.553 82.858 189.391 82.9077 189.252 83.0071C189.113 83.1049 189.004 83.2457 188.926 83.4297C188.85 83.6136 188.812 83.834 188.812 84.0909C188.812 84.3511 188.85 84.5748 188.926 84.7621C189.003 84.9477 189.11 85.091 189.247 85.1921C189.386 85.2915 189.55 85.3413 189.737 85.3413C189.869 85.3413 189.988 85.3164 190.092 85.2667C190.198 85.2153 190.287 85.1416 190.358 85.0455C190.43 84.9493 190.478 84.8325 190.505 84.695H191.365C191.344 84.9651 191.264 85.2045 191.126 85.4134C190.989 85.6205 190.802 85.7829 190.565 85.9006C190.328 86.0166 190.049 86.0746 189.729 86.0746ZM193.794 86.0746C193.411 86.0746 193.081 85.995 192.802 85.8359C192.526 85.6752 192.313 85.4482 192.164 85.1548C192.014 84.8598 191.94 84.5127 191.94 84.1133C191.94 83.7205 192.014 83.3758 192.164 83.0792C192.314 82.7809 192.525 82.5489 192.795 82.3832C193.065 82.2158 193.382 82.1321 193.747 82.1321C193.982 82.1321 194.204 82.1702 194.413 82.2464C194.624 82.321 194.809 82.437 194.97 82.5945C195.132 82.7519 195.26 82.9524 195.353 83.196C195.446 83.438 195.492 83.7263 195.492 84.0611V84.337H192.362V83.7305H194.63C194.628 83.5581 194.591 83.4048 194.518 83.2706C194.445 83.1347 194.343 83.0278 194.212 82.9499C194.083 82.872 193.932 82.8331 193.759 82.8331C193.576 82.8331 193.414 82.8778 193.275 82.9673C193.136 83.0552 193.027 83.1712 192.949 83.3153C192.873 83.4579 192.834 83.6145 192.832 83.7852V84.3146C192.832 84.5367 192.873 84.7273 192.954 84.8864C193.035 85.0438 193.149 85.1648 193.295 85.2493C193.44 85.3321 193.611 85.3736 193.807 85.3736C193.938 85.3736 194.056 85.3554 194.162 85.3189C194.268 85.2808 194.36 85.2253 194.438 85.1523C194.516 85.0794 194.575 84.9891 194.615 84.8814L195.455 84.9759C195.402 85.1979 195.301 85.3918 195.152 85.5575C195.004 85.7216 194.815 85.8492 194.585 85.9403C194.354 86.0298 194.091 86.0746 193.794 86.0746ZM197.153 80.9091V86H196.253V80.9091H197.153ZM198.978 80.9091V86H198.079V80.9091H198.978ZM201.594 86.0746C201.211 86.0746 200.881 85.995 200.602 85.8359C200.326 85.6752 200.113 85.4482 199.963 85.1548C199.814 84.8598 199.74 84.5127 199.74 84.1133C199.74 83.7205 199.814 83.3758 199.963 83.0792C200.114 82.7809 200.325 82.5489 200.595 82.3832C200.865 82.2158 201.182 82.1321 201.547 82.1321C201.782 82.1321 202.004 82.1702 202.213 82.2464C202.424 82.321 202.609 82.437 202.77 82.5945C202.932 82.7519 203.06 82.9524 203.153 83.196C203.246 83.438 203.292 83.7263 203.292 84.0611V84.337H200.162V83.7305H202.429C202.428 83.5581 202.39 83.4048 202.317 83.2706C202.245 83.1347 202.143 83.0278 202.012 82.9499C201.882 82.872 201.732 82.8331 201.559 82.8331C201.375 82.8331 201.214 82.8778 201.075 82.9673C200.935 83.0552 200.827 83.1712 200.749 83.3153C200.673 83.4579 200.634 83.6145 200.632 83.7852V84.3146C200.632 84.5367 200.673 84.7273 200.754 84.8864C200.835 85.0438 200.949 85.1648 201.094 85.2493C201.24 85.3321 201.411 85.3736 201.607 85.3736C201.737 85.3736 201.856 85.3554 201.962 85.3189C202.068 85.2808 202.16 85.2253 202.238 85.1523C202.316 85.0794 202.375 84.9891 202.414 84.8814L203.255 84.9759C203.202 85.1979 203.1 85.3918 202.951 85.5575C202.804 85.7216 202.615 85.8492 202.385 85.9403C202.154 86.0298 201.891 86.0746 201.594 86.0746ZM205.47 86.0671C205.17 86.0671 204.902 85.9901 204.665 85.8359C204.428 85.6818 204.24 85.4581 204.103 85.1648C203.965 84.8714 203.897 84.5152 203.897 84.0959C203.897 83.6716 203.966 83.3137 204.105 83.022C204.246 82.7287 204.436 82.5075 204.675 82.3583C204.913 82.2075 205.179 82.1321 205.473 82.1321C205.696 82.1321 205.88 82.1702 206.024 82.2464C206.169 82.321 206.283 82.4113 206.367 82.5174C206.452 82.6218 206.517 82.7204 206.564 82.8132H206.601V80.9091H207.503V86H206.619V85.3984H206.564C206.517 85.4912 206.45 85.5898 206.362 85.6942C206.275 85.797 206.159 85.8848 206.014 85.9577C205.87 86.0307 205.689 86.0671 205.47 86.0671ZM205.721 85.3288C205.912 85.3288 206.074 85.2775 206.208 85.1747C206.343 85.0703 206.445 84.9253 206.514 84.7397C206.584 84.5541 206.619 84.3378 206.619 84.0909C206.619 83.844 206.584 83.6294 206.514 83.4471C206.446 83.2648 206.345 83.1231 206.211 83.022C206.078 82.9209 205.915 82.8704 205.721 82.8704C205.521 82.8704 205.353 82.9226 205.219 83.027C205.085 83.1314 204.984 83.2756 204.916 83.4595C204.848 83.6435 204.814 83.8539 204.814 84.0909C204.814 84.3295 204.848 84.5425 204.916 84.7298C204.985 84.9154 205.087 85.062 205.222 85.1697C205.357 85.2758 205.524 85.3288 205.721 85.3288Z" fill="white"/>
<rect width="44" height="14" transform="translate(169 95)" fill="#F2300A"/>
<path d="M178.974 101.627H178.044C178.018 101.474 177.969 101.339 177.898 101.222C177.826 101.102 177.738 101.001 177.632 100.918C177.526 100.835 177.405 100.773 177.269 100.732C177.134 100.689 176.989 100.667 176.834 100.667C176.557 100.667 176.312 100.737 176.098 100.876C175.884 101.014 175.717 101.216 175.596 101.483C175.475 101.748 175.414 102.072 175.414 102.455C175.414 102.844 175.475 103.172 175.596 103.439C175.718 103.704 175.886 103.905 176.098 104.04C176.312 104.175 176.556 104.242 176.831 104.242C176.984 104.242 177.126 104.222 177.259 104.182C177.393 104.141 177.513 104.08 177.619 104.001C177.727 103.921 177.817 103.823 177.89 103.707C177.965 103.591 178.016 103.459 178.044 103.31L178.974 103.315C178.939 103.557 178.864 103.784 178.748 103.996C178.633 104.208 178.483 104.395 178.298 104.558C178.112 104.718 177.895 104.844 177.647 104.935C177.398 105.025 177.122 105.07 176.819 105.07C176.371 105.07 175.972 104.966 175.621 104.759C175.269 104.552 174.993 104.253 174.79 103.862C174.588 103.47 174.487 103.001 174.487 102.455C174.487 101.906 174.589 101.437 174.793 101.048C174.997 100.656 175.274 100.357 175.626 100.15C175.977 99.9431 176.375 99.8395 176.819 99.8395C177.102 99.8395 177.366 99.8793 177.609 99.9588C177.853 100.038 178.07 100.155 178.261 100.309C178.451 100.462 178.608 100.649 178.73 100.871C178.855 101.092 178.936 101.343 178.974 101.627ZM180.877 105.077C180.636 105.077 180.418 105.034 180.224 104.948C180.031 104.86 179.879 104.731 179.766 104.56C179.655 104.389 179.6 104.179 179.6 103.929C179.6 103.713 179.64 103.535 179.719 103.394C179.799 103.253 179.907 103.141 180.045 103.056C180.182 102.972 180.337 102.908 180.51 102.865C180.684 102.82 180.863 102.788 181.049 102.768C181.273 102.745 181.454 102.724 181.593 102.706C181.733 102.686 181.834 102.656 181.897 102.616C181.961 102.575 181.994 102.511 181.994 102.425V102.41C181.994 102.223 181.938 102.078 181.827 101.975C181.716 101.872 181.556 101.821 181.347 101.821C181.127 101.821 180.952 101.869 180.823 101.965C180.695 102.061 180.609 102.174 180.564 102.305L179.724 102.186C179.79 101.954 179.9 101.76 180.052 101.604C180.205 101.447 180.391 101.329 180.612 101.251C180.832 101.172 181.076 101.132 181.342 101.132C181.526 101.132 181.709 101.154 181.892 101.197C182.074 101.24 182.241 101.311 182.391 101.411C182.542 101.508 182.663 101.642 182.754 101.811C182.847 101.98 182.893 102.191 182.893 102.445V105H182.028V104.475H181.999C181.944 104.582 181.867 104.681 181.767 104.774C181.67 104.865 181.546 104.939 181.397 104.995C181.25 105.05 181.076 105.077 180.877 105.077ZM181.111 104.416C181.292 104.416 181.448 104.38 181.581 104.309C181.714 104.236 181.815 104.14 181.887 104.021C181.96 103.901 181.996 103.771 181.996 103.63V103.18C181.968 103.204 181.92 103.225 181.852 103.245C181.786 103.265 181.711 103.282 181.628 103.297C181.545 103.312 181.463 103.325 181.382 103.337C181.301 103.349 181.23 103.359 181.171 103.367C181.037 103.385 180.916 103.415 180.81 103.456C180.704 103.498 180.621 103.556 180.559 103.63C180.498 103.703 180.467 103.798 180.467 103.914C180.467 104.079 180.528 104.205 180.649 104.289C180.77 104.374 180.924 104.416 181.111 104.416ZM184.698 102.763V105H183.798V101.182H184.658V101.831H184.703C184.791 101.617 184.931 101.447 185.123 101.321C185.317 101.195 185.557 101.132 185.842 101.132C186.105 101.132 186.335 101.188 186.53 101.301C186.727 101.414 186.88 101.577 186.988 101.791C187.097 102.005 187.151 102.264 187.149 102.569V105H186.249V102.708C186.249 102.453 186.183 102.253 186.05 102.109C185.92 101.965 185.738 101.893 185.506 101.893C185.349 101.893 185.209 101.928 185.086 101.997C184.965 102.065 184.87 102.164 184.8 102.293C184.732 102.422 184.698 102.579 184.698 102.763ZM189.729 105.075C189.348 105.075 189.021 104.991 188.748 104.824C188.476 104.656 188.266 104.425 188.119 104.13C187.973 103.833 187.9 103.492 187.9 103.106C187.9 102.718 187.974 102.376 188.124 102.079C188.273 101.781 188.483 101.549 188.755 101.383C189.028 101.216 189.352 101.132 189.724 101.132C190.034 101.132 190.309 101.189 190.547 101.304C190.788 101.416 190.979 101.576 191.121 101.783C191.264 101.989 191.345 102.229 191.365 102.504H190.505C190.47 102.32 190.387 102.167 190.256 102.044C190.127 101.92 189.954 101.858 189.737 101.858C189.553 101.858 189.391 101.908 189.252 102.007C189.113 102.105 189.004 102.246 188.926 102.43C188.85 102.614 188.812 102.834 188.812 103.091C188.812 103.351 188.85 103.575 188.926 103.762C189.003 103.948 189.11 104.091 189.247 104.192C189.386 104.292 189.55 104.341 189.737 104.341C189.869 104.341 189.988 104.316 190.092 104.267C190.198 104.215 190.287 104.142 190.358 104.045C190.43 103.949 190.478 103.833 190.505 103.695H191.365C191.344 103.965 191.264 104.205 191.126 104.413C190.989 104.621 190.802 104.783 190.565 104.901C190.328 105.017 190.049 105.075 189.729 105.075ZM193.794 105.075C193.411 105.075 193.081 104.995 192.802 104.836C192.526 104.675 192.313 104.448 192.164 104.155C192.014 103.86 191.94 103.513 191.94 103.113C191.94 102.721 192.014 102.376 192.164 102.079C192.314 101.781 192.525 101.549 192.795 101.383C193.065 101.216 193.382 101.132 193.747 101.132C193.982 101.132 194.204 101.17 194.413 101.246C194.624 101.321 194.809 101.437 194.97 101.594C195.132 101.752 195.26 101.952 195.353 102.196C195.446 102.438 195.492 102.726 195.492 103.061V103.337H192.362V102.73H194.63C194.628 102.558 194.591 102.405 194.518 102.271C194.445 102.135 194.343 102.028 194.212 101.95C194.083 101.872 193.932 101.833 193.759 101.833C193.576 101.833 193.414 101.878 193.275 101.967C193.136 102.055 193.027 102.171 192.949 102.315C192.873 102.458 192.834 102.614 192.832 102.785V103.315C192.832 103.537 192.873 103.727 192.954 103.886C193.035 104.044 193.149 104.165 193.295 104.249C193.44 104.332 193.611 104.374 193.807 104.374C193.938 104.374 194.056 104.355 194.162 104.319C194.268 104.281 194.36 104.225 194.438 104.152C194.516 104.079 194.575 103.989 194.615 103.881L195.455 103.976C195.402 104.198 195.301 104.392 195.152 104.558C195.004 104.722 194.815 104.849 194.585 104.94C194.354 105.03 194.091 105.075 193.794 105.075ZM197.153 99.9091V105H196.253V99.9091H197.153ZM198.978 99.9091V105H198.079V99.9091H198.978ZM201.594 105.075C201.211 105.075 200.881 104.995 200.602 104.836C200.326 104.675 200.113 104.448 199.963 104.155C199.814 103.86 199.74 103.513 199.74 103.113C199.74 102.721 199.814 102.376 199.963 102.079C200.114 101.781 200.325 101.549 200.595 101.383C200.865 101.216 201.182 101.132 201.547 101.132C201.782 101.132 202.004 101.17 202.213 101.246C202.424 101.321 202.609 101.437 202.77 101.594C202.932 101.752 203.06 101.952 203.153 102.196C203.246 102.438 203.292 102.726 203.292 103.061V103.337H200.162V102.73H202.429C202.428 102.558 202.39 102.405 202.317 102.271C202.245 102.135 202.143 102.028 202.012 101.95C201.882 101.872 201.732 101.833 201.559 101.833C201.375 101.833 201.214 101.878 201.075 101.967C200.935 102.055 200.827 102.171 200.749 102.315C200.673 102.458 200.634 102.614 200.632 102.785V103.315C200.632 103.537 200.673 103.727 200.754 103.886C200.835 104.044 200.949 104.165 201.094 104.249C201.24 104.332 201.411 104.374 201.607 104.374C201.737 104.374 201.856 104.355 201.962 104.319C202.068 104.281 202.16 104.225 202.238 104.152C202.316 104.079 202.375 103.989 202.414 103.881L203.255 103.976C203.202 104.198 203.1 104.392 202.951 104.558C202.804 104.722 202.615 104.849 202.385 104.94C202.154 105.03 201.891 105.075 201.594 105.075ZM205.47 105.067C205.17 105.067 204.902 104.99 204.665 104.836C204.428 104.682 204.24 104.458 204.103 104.165C203.965 103.871 203.897 103.515 203.897 103.096C203.897 102.672 203.966 102.314 204.105 102.022C204.246 101.729 204.436 101.507 204.675 101.358C204.913 101.208 205.179 101.132 205.473 101.132C205.696 101.132 205.88 101.17 206.024 101.246C206.169 101.321 206.283 101.411 206.367 101.517C206.452 101.622 206.517 101.72 206.564 101.813H206.601V99.9091H207.503V105H206.619V104.398H206.564C206.517 104.491 206.45 104.59 206.362 104.694C206.275 104.797 206.159 104.885 206.014 104.958C205.87 105.031 205.689 105.067 205.47 105.067ZM205.721 104.329C205.912 104.329 206.074 104.277 206.208 104.175C206.343 104.07 206.445 103.925 206.514 103.74C206.584 103.554 206.619 103.338 206.619 103.091C206.619 102.844 206.584 102.629 206.514 102.447C206.446 102.265 206.345 102.123 206.211 102.022C206.078 101.921 205.915 101.87 205.721 101.87C205.521 101.87 205.353 101.923 205.219 102.027C205.085 102.131 204.984 102.276 204.916 102.46C204.848 102.643 204.814 102.854 204.814 103.091C204.814 103.33 204.848 103.542 204.916 103.73C204.985 103.915 205.087 104.062 205.222 104.17C205.357 104.276 205.524 104.329 205.721 104.329Z" fill="white"/>
<rect width="44" height="14" transform="translate(169 114)" fill="#F2300A"/>
<path d="M178.974 120.627H178.044C178.018 120.474 177.969 120.339 177.898 120.222C177.826 120.102 177.738 120.001 177.632 119.918C177.526 119.835 177.405 119.773 177.269 119.732C177.134 119.689 176.989 119.667 176.834 119.667C176.557 119.667 176.312 119.737 176.098 119.876C175.884 120.014 175.717 120.216 175.596 120.483C175.475 120.748 175.414 121.072 175.414 121.455C175.414 121.844 175.475 122.172 175.596 122.439C175.718 122.704 175.886 122.905 176.098 123.04C176.312 123.175 176.556 123.242 176.831 123.242C176.984 123.242 177.126 123.222 177.259 123.182C177.393 123.141 177.513 123.08 177.619 123.001C177.727 122.921 177.817 122.823 177.89 122.707C177.965 122.591 178.016 122.459 178.044 122.31L178.974 122.315C178.939 122.557 178.864 122.784 178.748 122.996C178.633 123.208 178.483 123.395 178.298 123.558C178.112 123.718 177.895 123.844 177.647 123.935C177.398 124.025 177.122 124.07 176.819 124.07C176.371 124.07 175.972 123.966 175.621 123.759C175.269 123.552 174.993 123.253 174.79 122.862C174.588 122.47 174.487 122.001 174.487 121.455C174.487 120.906 174.589 120.437 174.793 120.048C174.997 119.656 175.274 119.357 175.626 119.15C175.977 118.943 176.375 118.839 176.819 118.839C177.102 118.839 177.366 118.879 177.609 118.959C177.853 119.038 178.07 119.155 178.261 119.309C178.451 119.462 178.608 119.649 178.73 119.871C178.855 120.092 178.936 120.343 178.974 120.627ZM180.877 124.077C180.636 124.077 180.418 124.034 180.224 123.948C180.031 123.86 179.879 123.731 179.766 123.56C179.655 123.389 179.6 123.179 179.6 122.929C179.6 122.713 179.64 122.535 179.719 122.394C179.799 122.253 179.907 122.141 180.045 122.056C180.182 121.972 180.337 121.908 180.51 121.865C180.684 121.82 180.863 121.788 181.049 121.768C181.273 121.745 181.454 121.724 181.593 121.706C181.733 121.686 181.834 121.656 181.897 121.616C181.961 121.575 181.994 121.511 181.994 121.425V121.41C181.994 121.223 181.938 121.078 181.827 120.975C181.716 120.872 181.556 120.821 181.347 120.821C181.127 120.821 180.952 120.869 180.823 120.965C180.695 121.061 180.609 121.174 180.564 121.305L179.724 121.186C179.79 120.954 179.9 120.76 180.052 120.604C180.205 120.447 180.391 120.329 180.612 120.251C180.832 120.172 181.076 120.132 181.342 120.132C181.526 120.132 181.709 120.154 181.892 120.197C182.074 120.24 182.241 120.311 182.391 120.411C182.542 120.508 182.663 120.642 182.754 120.811C182.847 120.98 182.893 121.191 182.893 121.445V124H182.028V123.475H181.999C181.944 123.582 181.867 123.681 181.767 123.774C181.67 123.865 181.546 123.939 181.397 123.995C181.25 124.05 181.076 124.077 180.877 124.077ZM181.111 123.416C181.292 123.416 181.448 123.38 181.581 123.309C181.714 123.236 181.815 123.14 181.887 123.021C181.96 122.901 181.996 122.771 181.996 122.63V122.18C181.968 122.204 181.92 122.225 181.852 122.245C181.786 122.265 181.711 122.282 181.628 122.297C181.545 122.312 181.463 122.325 181.382 122.337C181.301 122.349 181.23 122.359 181.171 122.367C181.037 122.385 180.916 122.415 180.81 122.456C180.704 122.498 180.621 122.556 180.559 122.63C180.498 122.703 180.467 122.798 180.467 122.914C180.467 123.079 180.528 123.205 180.649 123.289C180.77 123.374 180.924 123.416 181.111 123.416ZM184.698 121.763V124H183.798V120.182H184.658V120.831H184.703C184.791 120.617 184.931 120.447 185.123 120.321C185.317 120.195 185.557 120.132 185.842 120.132C186.105 120.132 186.335 120.188 186.53 120.301C186.727 120.414 186.88 120.577 186.988 120.791C187.097 121.005 187.151 121.264 187.149 121.569V124H186.249V121.708C186.249 121.453 186.183 121.253 186.05 121.109C185.92 120.965 185.738 120.893 185.506 120.893C185.349 120.893 185.209 120.928 185.086 120.997C184.965 121.065 184.87 121.164 184.8 121.293C184.732 121.422 184.698 121.579 184.698 121.763ZM189.729 124.075C189.348 124.075 189.021 123.991 188.748 123.824C188.476 123.656 188.266 123.425 188.119 123.13C187.973 122.833 187.9 122.492 187.9 122.106C187.9 121.718 187.974 121.376 188.124 121.079C188.273 120.781 188.483 120.549 188.755 120.383C189.028 120.216 189.352 120.132 189.724 120.132C190.034 120.132 190.309 120.189 190.547 120.304C190.788 120.416 190.979 120.576 191.121 120.783C191.264 120.989 191.345 121.229 191.365 121.504H190.505C190.47 121.32 190.387 121.167 190.256 121.044C190.127 120.92 189.954 120.858 189.737 120.858C189.553 120.858 189.391 120.908 189.252 121.007C189.113 121.105 189.004 121.246 188.926 121.43C188.85 121.614 188.812 121.834 188.812 122.091C188.812 122.351 188.85 122.575 188.926 122.762C189.003 122.948 189.11 123.091 189.247 123.192C189.386 123.292 189.55 123.341 189.737 123.341C189.869 123.341 189.988 123.316 190.092 123.267C190.198 123.215 190.287 123.142 190.358 123.045C190.43 122.949 190.478 122.833 190.505 122.695H191.365C191.344 122.965 191.264 123.205 191.126 123.413C190.989 123.621 190.802 123.783 190.565 123.901C190.328 124.017 190.049 124.075 189.729 124.075ZM193.794 124.075C193.411 124.075 193.081 123.995 192.802 123.836C192.526 123.675 192.313 123.448 192.164 123.155C192.014 122.86 191.94 122.513 191.94 122.113C191.94 121.721 192.014 121.376 192.164 121.079C192.314 120.781 192.525 120.549 192.795 120.383C193.065 120.216 193.382 120.132 193.747 120.132C193.982 120.132 194.204 120.17 194.413 120.246C194.624 120.321 194.809 120.437 194.97 120.594C195.132 120.752 195.26 120.952 195.353 121.196C195.446 121.438 195.492 121.726 195.492 122.061V122.337H192.362V121.73H194.63C194.628 121.558 194.591 121.405 194.518 121.271C194.445 121.135 194.343 121.028 194.212 120.95C194.083 120.872 193.932 120.833 193.759 120.833C193.576 120.833 193.414 120.878 193.275 120.967C193.136 121.055 193.027 121.171 192.949 121.315C192.873 121.458 192.834 121.614 192.832 121.785V122.315C192.832 122.537 192.873 122.727 192.954 122.886C193.035 123.044 193.149 123.165 193.295 123.249C193.44 123.332 193.611 123.374 193.807 123.374C193.938 123.374 194.056 123.355 194.162 123.319C194.268 123.281 194.36 123.225 194.438 123.152C194.516 123.079 194.575 122.989 194.615 122.881L195.455 122.976C195.402 123.198 195.301 123.392 195.152 123.558C195.004 123.722 194.815 123.849 194.585 123.94C194.354 124.03 194.091 124.075 193.794 124.075ZM197.153 118.909V124H196.253V118.909H197.153ZM198.978 118.909V124H198.079V118.909H198.978ZM201.594 124.075C201.211 124.075 200.881 123.995 200.602 123.836C200.326 123.675 200.113 123.448 199.963 123.155C199.814 122.86 199.74 122.513 199.74 122.113C199.74 121.721 199.814 121.376 199.963 121.079C200.114 120.781 200.325 120.549 200.595 120.383C200.865 120.216 201.182 120.132 201.547 120.132C201.782 120.132 202.004 120.17 202.213 120.246C202.424 120.321 202.609 120.437 202.77 120.594C202.932 120.752 203.06 120.952 203.153 121.196C203.246 121.438 203.292 121.726 203.292 122.061V122.337H200.162V121.73H202.429C202.428 121.558 202.39 121.405 202.317 121.271C202.245 121.135 202.143 121.028 202.012 120.95C201.882 120.872 201.732 120.833 201.559 120.833C201.375 120.833 201.214 120.878 201.075 120.967C200.935 121.055 200.827 121.171 200.749 121.315C200.673 121.458 200.634 121.614 200.632 121.785V122.315C200.632 122.537 200.673 122.727 200.754 122.886C200.835 123.044 200.949 123.165 201.094 123.249C201.24 123.332 201.411 123.374 201.607 123.374C201.737 123.374 201.856 123.355 201.962 123.319C202.068 123.281 202.16 123.225 202.238 123.152C202.316 123.079 202.375 122.989 202.414 122.881L203.255 122.976C203.202 123.198 203.1 123.392 202.951 123.558C202.804 123.722 202.615 123.849 202.385 123.94C202.154 124.03 201.891 124.075 201.594 124.075ZM205.47 124.067C205.17 124.067 204.902 123.99 204.665 123.836C204.428 123.682 204.24 123.458 204.103 123.165C203.965 122.871 203.897 122.515 203.897 122.096C203.897 121.672 203.966 121.314 204.105 121.022C204.246 120.729 204.436 120.507 204.675 120.358C204.913 120.208 205.179 120.132 205.473 120.132C205.696 120.132 205.88 120.17 206.024 120.246C206.169 120.321 206.283 120.411 206.367 120.517C206.452 120.622 206.517 120.72 206.564 120.813H206.601V118.909H207.503V124H206.619V123.398H206.564C206.517 123.491 206.45 123.59 206.362 123.694C206.275 123.797 206.159 123.885 206.014 123.958C205.87 124.031 205.689 124.067 205.47 124.067ZM205.721 123.329C205.912 123.329 206.074 123.277 206.208 123.175C206.343 123.07 206.445 122.925 206.514 122.74C206.584 122.554 206.619 122.338 206.619 122.091C206.619 121.844 206.584 121.629 206.514 121.447C206.446 121.265 206.345 121.123 206.211 121.022C206.078 120.921 205.915 120.87 205.721 120.87C205.521 120.87 205.353 120.923 205.219 121.027C205.085 121.131 204.984 121.276 204.916 121.46C204.848 121.643 204.814 121.854 204.814 122.091C204.814 122.33 204.848 122.542 204.916 122.73C204.985 122.915 205.087 123.062 205.222 123.17C205.357 123.276 205.524 123.329 205.721 123.329Z" fill="white"/>
<rect width="44" height="14" transform="translate(169 133)" fill="#F2300A"/>
<path d="M178.974 139.627H178.044C178.018 139.474 177.969 139.339 177.898 139.222C177.826 139.102 177.738 139.001 177.632 138.918C177.526 138.835 177.405 138.773 177.269 138.732C177.134 138.689 176.989 138.667 176.834 138.667C176.557 138.667 176.312 138.737 176.098 138.876C175.884 139.014 175.717 139.216 175.596 139.483C175.475 139.748 175.414 140.072 175.414 140.455C175.414 140.844 175.475 141.172 175.596 141.439C175.718 141.704 175.886 141.905 176.098 142.04C176.312 142.175 176.556 142.242 176.831 142.242C176.984 142.242 177.126 142.222 177.259 142.182C177.393 142.141 177.513 142.08 177.619 142.001C177.727 141.921 177.817 141.823 177.89 141.707C177.965 141.591 178.016 141.459 178.044 141.31L178.974 141.315C178.939 141.557 178.864 141.784 178.748 141.996C178.633 142.208 178.483 142.395 178.298 142.558C178.112 142.718 177.895 142.844 177.647 142.935C177.398 143.025 177.122 143.07 176.819 143.07C176.371 143.07 175.972 142.966 175.621 142.759C175.269 142.552 174.993 142.253 174.79 141.862C174.588 141.47 174.487 141.001 174.487 140.455C174.487 139.906 174.589 139.437 174.793 139.048C174.997 138.656 175.274 138.357 175.626 138.15C175.977 137.943 176.375 137.839 176.819 137.839C177.102 137.839 177.366 137.879 177.609 137.959C177.853 138.038 178.07 138.155 178.261 138.309C178.451 138.462 178.608 138.649 178.73 138.871C178.855 139.092 178.936 139.343 178.974 139.627ZM180.877 143.077C180.636 143.077 180.418 143.034 180.224 142.948C180.031 142.86 179.879 142.731 179.766 142.56C179.655 142.389 179.6 142.179 179.6 141.929C179.6 141.713 179.64 141.535 179.719 141.394C179.799 141.253 179.907 141.141 180.045 141.056C180.182 140.972 180.337 140.908 180.51 140.865C180.684 140.82 180.863 140.788 181.049 140.768C181.273 140.745 181.454 140.724 181.593 140.706C181.733 140.686 181.834 140.656 181.897 140.616C181.961 140.575 181.994 140.511 181.994 140.425V140.41C181.994 140.223 181.938 140.078 181.827 139.975C181.716 139.872 181.556 139.821 181.347 139.821C181.127 139.821 180.952 139.869 180.823 139.965C180.695 140.061 180.609 140.174 180.564 140.305L179.724 140.186C179.79 139.954 179.9 139.76 180.052 139.604C180.205 139.447 180.391 139.329 180.612 139.251C180.832 139.172 181.076 139.132 181.342 139.132C181.526 139.132 181.709 139.154 181.892 139.197C182.074 139.24 182.241 139.311 182.391 139.411C182.542 139.508 182.663 139.642 182.754 139.811C182.847 139.98 182.893 140.191 182.893 140.445V143H182.028V142.475H181.999C181.944 142.582 181.867 142.681 181.767 142.774C181.67 142.865 181.546 142.939 181.397 142.995C181.25 143.05 181.076 143.077 180.877 143.077ZM181.111 142.416C181.292 142.416 181.448 142.38 181.581 142.309C181.714 142.236 181.815 142.14 181.887 142.021C181.96 141.901 181.996 141.771 181.996 141.63V141.18C181.968 141.204 181.92 141.225 181.852 141.245C181.786 141.265 181.711 141.282 181.628 141.297C181.545 141.312 181.463 141.325 181.382 141.337C181.301 141.349 181.23 141.359 181.171 141.367C181.037 141.385 180.916 141.415 180.81 141.456C180.704 141.498 180.621 141.556 180.559 141.63C180.498 141.703 180.467 141.798 180.467 141.914C180.467 142.079 180.528 142.205 180.649 142.289C180.77 142.374 180.924 142.416 181.111 142.416ZM184.698 140.763V143H183.798V139.182H184.658V139.831H184.703C184.791 139.617 184.931 139.447 185.123 139.321C185.317 139.195 185.557 139.132 185.842 139.132C186.105 139.132 186.335 139.188 186.53 139.301C186.727 139.414 186.88 139.577 186.988 139.791C187.097 140.005 187.151 140.264 187.149 140.569V143H186.249V140.708C186.249 140.453 186.183 140.253 186.05 140.109C185.92 139.965 185.738 139.893 185.506 139.893C185.349 139.893 185.209 139.928 185.086 139.997C184.965 140.065 184.87 140.164 184.8 140.293C184.732 140.422 184.698 140.579 184.698 140.763ZM189.729 143.075C189.348 143.075 189.021 142.991 188.748 142.824C188.476 142.656 188.266 142.425 188.119 142.13C187.973 141.833 187.9 141.492 187.9 141.106C187.9 140.718 187.974 140.376 188.124 140.079C188.273 139.781 188.483 139.549 188.755 139.383C189.028 139.216 189.352 139.132 189.724 139.132C190.034 139.132 190.309 139.189 190.547 139.304C190.788 139.416 190.979 139.576 191.121 139.783C191.264 139.989 191.345 140.229 191.365 140.504H190.505C190.47 140.32 190.387 140.167 190.256 140.044C190.127 139.92 189.954 139.858 189.737 139.858C189.553 139.858 189.391 139.908 189.252 140.007C189.113 140.105 189.004 140.246 188.926 140.43C188.85 140.614 188.812 140.834 188.812 141.091C188.812 141.351 188.85 141.575 188.926 141.762C189.003 141.948 189.11 142.091 189.247 142.192C189.386 142.292 189.55 142.341 189.737 142.341C189.869 142.341 189.988 142.316 190.092 142.267C190.198 142.215 190.287 142.142 190.358 142.045C190.43 141.949 190.478 141.833 190.505 141.695H191.365C191.344 141.965 191.264 142.205 191.126 142.413C190.989 142.621 190.802 142.783 190.565 142.901C190.328 143.017 190.049 143.075 189.729 143.075ZM193.794 143.075C193.411 143.075 193.081 142.995 192.802 142.836C192.526 142.675 192.313 142.448 192.164 142.155C192.014 141.86 191.94 141.513 191.94 141.113C191.94 140.721 192.014 140.376 192.164 140.079C192.314 139.781 192.525 139.549 192.795 139.383C193.065 139.216 193.382 139.132 193.747 139.132C193.982 139.132 194.204 139.17 194.413 139.246C194.624 139.321 194.809 139.437 194.97 139.594C195.132 139.752 195.26 139.952 195.353 140.196C195.446 140.438 195.492 140.726 195.492 141.061V141.337H192.362V140.73H194.63C194.628 140.558 194.591 140.405 194.518 140.271C194.445 140.135 194.343 140.028 194.212 139.95C194.083 139.872 193.932 139.833 193.759 139.833C193.576 139.833 193.414 139.878 193.275 139.967C193.136 140.055 193.027 140.171 192.949 140.315C192.873 140.458 192.834 140.614 192.832 140.785V141.315C192.832 141.537 192.873 141.727 192.954 141.886C193.035 142.044 193.149 142.165 193.295 142.249C193.44 142.332 193.611 142.374 193.807 142.374C193.938 142.374 194.056 142.355 194.162 142.319C194.268 142.281 194.36 142.225 194.438 142.152C194.516 142.079 194.575 141.989 194.615 141.881L195.455 141.976C195.402 142.198 195.301 142.392 195.152 142.558C195.004 142.722 194.815 142.849 194.585 142.94C194.354 143.03 194.091 143.075 193.794 143.075ZM197.153 137.909V143H196.253V137.909H197.153ZM198.978 137.909V143H198.079V137.909H198.978ZM201.594 143.075C201.211 143.075 200.881 142.995 200.602 142.836C200.326 142.675 200.113 142.448 199.963 142.155C199.814 141.86 199.74 141.513 199.74 141.113C199.74 140.721 199.814 140.376 199.963 140.079C200.114 139.781 200.325 139.549 200.595 139.383C200.865 139.216 201.182 139.132 201.547 139.132C201.782 139.132 202.004 139.17 202.213 139.246C202.424 139.321 202.609 139.437 202.77 139.594C202.932 139.752 203.06 139.952 203.153 140.196C203.246 140.438 203.292 140.726 203.292 141.061V141.337H200.162V140.73H202.429C202.428 140.558 202.39 140.405 202.317 140.271C202.245 140.135 202.143 140.028 202.012 139.95C201.882 139.872 201.732 139.833 201.559 139.833C201.375 139.833 201.214 139.878 201.075 139.967C200.935 140.055 200.827 140.171 200.749 140.315C200.673 140.458 200.634 140.614 200.632 140.785V141.315C200.632 141.537 200.673 141.727 200.754 141.886C200.835 142.044 200.949 142.165 201.094 142.249C201.24 142.332 201.411 142.374 201.607 142.374C201.737 142.374 201.856 142.355 201.962 142.319C202.068 142.281 202.16 142.225 202.238 142.152C202.316 142.079 202.375 141.989 202.414 141.881L203.255 141.976C203.202 142.198 203.1 142.392 202.951 142.558C202.804 142.722 202.615 142.849 202.385 142.94C202.154 143.03 201.891 143.075 201.594 143.075ZM205.47 143.067C205.17 143.067 204.902 142.99 204.665 142.836C204.428 142.682 204.24 142.458 204.103 142.165C203.965 141.871 203.897 141.515 203.897 141.096C203.897 140.672 203.966 140.314 204.105 140.022C204.246 139.729 204.436 139.507 204.675 139.358C204.913 139.208 205.179 139.132 205.473 139.132C205.696 139.132 205.88 139.17 206.024 139.246C206.169 139.321 206.283 139.411 206.367 139.517C206.452 139.622 206.517 139.72 206.564 139.813H206.601V137.909H207.503V143H206.619V142.398H206.564C206.517 142.491 206.45 142.59 206.362 142.694C206.275 142.797 206.159 142.885 206.014 142.958C205.87 143.031 205.689 143.067 205.47 143.067ZM205.721 142.329C205.912 142.329 206.074 142.277 206.208 142.175C206.343 142.07 206.445 141.925 206.514 141.74C206.584 141.554 206.619 141.338 206.619 141.091C206.619 140.844 206.584 140.629 206.514 140.447C206.446 140.265 206.345 140.123 206.211 140.022C206.078 139.921 205.915 139.87 205.721 139.87C205.521 139.87 205.353 139.923 205.219 140.027C205.085 140.131 204.984 140.276 204.916 140.46C204.848 140.643 204.814 140.854 204.814 141.091C204.814 141.33 204.848 141.542 204.916 141.73C204.985 141.915 205.087 142.062 205.222 142.17C205.357 142.276 205.524 142.329 205.721 142.329Z" fill="white"/>
<path d="M22.358 80.4485V79.4545H27.5803V80.4485H25.5572V86H24.381V80.4485H22.358ZM29.9653 86.0959C29.4859 86.0959 29.0704 85.9904 28.7188 85.7795C28.3673 85.5685 28.0945 85.2734 27.9007 84.8942C27.7089 84.5149 27.613 84.0717 27.613 83.5646C27.613 83.0575 27.7089 82.6133 27.9007 82.2319C28.0945 81.8505 28.3673 81.5543 28.7188 81.3434C29.0704 81.1325 29.4859 81.027 29.9653 81.027C30.4447 81.027 30.8602 81.1325 31.2117 81.3434C31.5633 81.5543 31.835 81.8505 32.0267 82.2319C32.2206 82.6133 32.3176 83.0575 32.3176 83.5646C32.3176 84.0717 32.2206 84.5149 32.0267 84.8942C31.835 85.2734 31.5633 85.5685 31.2117 85.7795C30.8602 85.9904 30.4447 86.0959 29.9653 86.0959ZM29.9717 85.169C30.2316 85.169 30.449 85.0977 30.6237 84.9549C30.7984 84.81 30.9284 84.6161 31.0136 84.3732C31.1009 84.1303 31.1446 83.8597 31.1446 83.5614C31.1446 83.261 31.1009 82.9893 31.0136 82.7464C30.9284 82.5014 30.7984 82.3065 30.6237 82.1616C30.449 82.0167 30.2316 81.9442 29.9717 81.9442C29.7053 81.9442 29.4838 82.0167 29.3069 82.1616C29.1322 82.3065 29.0012 82.5014 28.9138 82.7464C28.8286 82.9893 28.786 83.261 28.786 83.5614C28.786 83.8597 28.8286 84.1303 28.9138 84.3732C29.0012 84.6161 29.1322 84.81 29.3069 84.9549C29.4838 85.0977 29.7053 85.169 29.9717 85.169ZM34.3542 84.4595L34.351 83.0629H34.5364L36.3006 81.0909H37.6525L35.4824 83.5071H35.2427L34.3542 84.4595ZM33.2995 86V79.4545H34.4565V86H33.2995ZM36.3805 86L34.7825 83.766L35.5623 82.951L37.7644 86H36.3805ZM39.1954 87.8409C39.0377 87.8409 38.8918 87.8281 38.7575 87.8026C38.6254 87.7791 38.52 87.7514 38.4411 87.7195L38.7096 86.8182C38.8779 86.8672 39.0281 86.8906 39.1602 86.8885C39.2923 86.8864 39.4085 86.8448 39.5086 86.7638C39.6109 86.685 39.6972 86.5529 39.7675 86.3675L39.8666 86.1023L38.0864 81.0909H39.3137L40.445 84.7983H40.4962L41.6308 81.0909H42.8612L40.8957 86.5945C40.8041 86.8544 40.6826 87.0771 40.5313 87.2624C40.3801 87.4499 40.1947 87.5927 39.9752 87.6907C39.7579 87.7908 39.498 87.8409 39.1954 87.8409ZM45.6362 86.0959C45.1568 86.0959 44.7413 85.9904 44.3897 85.7795C44.0382 85.5685 43.7654 85.2734 43.5716 84.8942C43.3798 84.5149 43.2839 84.0717 43.2839 83.5646C43.2839 83.0575 43.3798 82.6133 43.5716 82.2319C43.7654 81.8505 44.0382 81.5543 44.3897 81.3434C44.7413 81.1325 45.1568 81.027 45.6362 81.027C46.1156 81.027 46.5311 81.1325 46.8826 81.3434C47.2342 81.5543 47.5059 81.8505 47.6976 82.2319C47.8915 82.6133 47.9885 83.0575 47.9885 83.5646C47.9885 84.0717 47.8915 84.5149 47.6976 84.8942C47.5059 85.2734 47.2342 85.5685 46.8826 85.7795C46.5311 85.9904 46.1156 86.0959 45.6362 86.0959ZM45.6426 85.169C45.9025 85.169 46.1199 85.0977 46.2946 84.9549C46.4693 84.81 46.5993 84.6161 46.6845 84.3732C46.7718 84.1303 46.8155 83.8597 46.8155 83.5614C46.8155 83.261 46.7718 82.9893 46.6845 82.7464C46.5993 82.5014 46.4693 82.3065 46.2946 82.1616C46.1199 82.0167 45.9025 81.9442 45.6426 81.9442C45.3762 81.9442 45.1547 82.0167 44.9778 82.1616C44.8031 82.3065 44.6721 82.5014 44.5847 82.7464C44.4995 82.9893 44.4569 83.261 44.4569 83.5614C44.4569 83.8597 44.4995 84.1303 44.5847 84.3732C44.6721 84.6161 44.8031 84.81 44.9778 84.9549C45.1547 85.0977 45.3762 85.169 45.6426 85.169Z" fill="white"/>
<path d="M22.6456 105V98.4545H25.1513C25.6243 98.4545 26.0174 98.5291 26.3306 98.6783C26.646 98.8253 26.8814 99.0266 27.0369 99.2823C27.1946 99.538 27.2734 99.8278 27.2734 100.152C27.2734 100.418 27.2223 100.646 27.12 100.836C27.0178 101.023 26.8803 101.175 26.7077 101.293C26.5352 101.41 26.3423 101.494 26.1293 101.545V101.609C26.3615 101.622 26.5842 101.693 26.7972 101.823C27.0124 101.951 27.1882 102.132 27.3246 102.366C27.4609 102.601 27.5291 102.884 27.5291 103.217C27.5291 103.555 27.4471 103.86 27.283 104.131C27.119 104.399 26.8718 104.611 26.5415 104.767C26.2113 104.922 25.7958 105 25.2951 105H22.6456ZM23.8313 104.009H25.1065C25.5369 104.009 25.8469 103.927 26.0366 103.763C26.2283 103.597 26.3242 103.384 26.3242 103.124C26.3242 102.93 26.2763 102.755 26.1804 102.6C26.0845 102.442 25.9482 102.319 25.7713 102.229C25.5945 102.137 25.3835 102.092 25.1385 102.092H23.8313V104.009ZM23.8313 101.238H25.0043C25.2088 101.238 25.3931 101.201 25.5572 101.126C25.7212 101.05 25.8501 100.942 25.9439 100.804C26.0398 100.663 26.0877 100.497 26.0877 100.305C26.0877 100.051 25.9982 99.8427 25.8192 99.6786C25.6424 99.5146 25.3793 99.4325 25.0298 99.4325H23.8313V101.238ZM29.9221 105.099C29.6111 105.099 29.3309 105.044 29.0816 104.933C28.8344 104.82 28.6384 104.654 28.4935 104.434C28.3508 104.215 28.2794 103.944 28.2794 103.623C28.2794 103.346 28.3305 103.116 28.4328 102.935C28.5351 102.754 28.6746 102.609 28.8515 102.501C29.0283 102.392 29.2275 102.31 29.4491 102.255C29.6729 102.197 29.904 102.156 30.1427 102.13C30.4303 102.1 30.6636 102.074 30.8426 102.05C31.0216 102.025 31.1515 101.986 31.2325 101.935C31.3156 101.882 31.3572 101.8 31.3572 101.689V101.67C31.3572 101.429 31.2858 101.243 31.143 101.11C31.0003 100.978 30.7947 100.912 30.5262 100.912C30.2428 100.912 30.018 100.974 29.8518 101.098C29.6878 101.221 29.577 101.367 29.5194 101.536L28.4392 101.382C28.5244 101.084 28.665 100.835 28.8611 100.634C29.0571 100.432 29.2968 100.281 29.5802 100.18C29.8635 100.078 30.1768 100.027 30.5198 100.027C30.7563 100.027 30.9917 100.055 31.2261 100.11C31.4605 100.165 31.6746 100.257 31.8685 100.385C32.0624 100.511 32.218 100.682 32.3351 100.9C32.4545 101.117 32.5141 101.388 32.5141 101.714V105H31.4019V104.326H31.3635C31.2932 104.462 31.1942 104.59 31.0663 104.709C30.9406 104.826 30.7819 104.921 30.5901 104.994C30.4005 105.064 30.1778 105.099 29.9221 105.099ZM30.2226 104.249C30.4548 104.249 30.6562 104.203 30.8266 104.112C30.9971 104.018 31.1281 103.894 31.2197 103.741C31.3135 103.587 31.3604 103.42 31.3604 103.239V102.661C31.3241 102.69 31.2623 102.718 31.175 102.744C31.0898 102.769 30.9939 102.792 30.8873 102.811C30.7808 102.83 30.6753 102.847 30.5709 102.862C30.4665 102.877 30.376 102.89 30.2993 102.9C30.1267 102.924 29.9722 102.962 29.8358 103.015C29.6995 103.069 29.5919 103.143 29.5131 103.239C29.4342 103.333 29.3948 103.454 29.3948 103.603C29.3948 103.816 29.4726 103.977 29.6281 104.086C29.7836 104.195 29.9818 104.249 30.2226 104.249ZM34.8344 102.124V105H33.6775V100.091H34.7833V100.925H34.8408C34.9537 100.65 35.1338 100.432 35.3809 100.27C35.6302 100.108 35.9381 100.027 36.3046 100.027C36.6434 100.027 36.9385 100.099 37.1899 100.244C37.4434 100.389 37.6395 100.599 37.778 100.874C37.9186 101.149 37.9878 101.482 37.9857 101.874V105H36.8287V102.053C36.8287 101.725 36.7435 101.468 36.5731 101.283C36.4047 101.098 36.1714 101.005 35.8731 101.005C35.6707 101.005 35.4907 101.05 35.333 101.139C35.1775 101.227 35.055 101.353 34.9655 101.52C34.8781 101.686 34.8344 101.887 34.8344 102.124ZM41.2968 106.943C40.8813 106.943 40.5244 106.887 40.2261 106.774C39.9278 106.663 39.6881 106.514 39.507 106.326C39.3259 106.139 39.2002 105.931 39.1299 105.703L40.1718 105.451C40.2187 105.547 40.2868 105.641 40.3763 105.735C40.4658 105.831 40.5862 105.91 40.7375 105.972C40.8909 106.036 41.0837 106.067 41.316 106.067C41.6441 106.067 41.9157 105.988 42.1309 105.828C42.3461 105.67 42.4537 105.41 42.4537 105.048V104.118H42.3962C42.3366 104.237 42.2492 104.36 42.1341 104.485C42.0212 104.611 41.871 104.717 41.6835 104.802C41.4981 104.887 41.2648 104.93 40.9836 104.93C40.6064 104.93 40.2645 104.841 39.9577 104.664C39.653 104.485 39.4101 104.219 39.229 103.865C39.05 103.51 38.9605 103.064 38.9605 102.529C38.9605 101.99 39.05 101.536 39.229 101.165C39.4101 100.792 39.654 100.51 39.9608 100.318C40.2677 100.124 40.6096 100.027 40.9868 100.027C41.2744 100.027 41.5109 100.076 41.6963 100.174C41.8838 100.27 42.0329 100.386 42.1437 100.522C42.2545 100.657 42.3387 100.783 42.3962 100.903H42.4601V100.091H43.6011V105.08C43.6011 105.5 43.501 105.847 43.3007 106.122C43.1004 106.397 42.8266 106.602 42.4793 106.739C42.132 106.875 41.7378 106.943 41.2968 106.943ZM41.3064 104.022C41.5514 104.022 41.7602 103.962 41.9328 103.843C42.1054 103.724 42.2364 103.552 42.3259 103.328C42.4154 103.105 42.4601 102.836 42.4601 102.523C42.4601 102.214 42.4154 101.944 42.3259 101.711C42.2385 101.479 42.1086 101.299 41.936 101.171C41.7655 101.041 41.5557 100.976 41.3064 100.976C41.0486 100.976 40.8334 101.043 40.6608 101.178C40.4882 101.312 40.3582 101.496 40.2709 101.73C40.1835 101.963 40.1398 102.227 40.1398 102.523C40.1398 102.824 40.1835 103.087 40.2709 103.312C40.3604 103.536 40.4914 103.711 40.664 103.837C40.8387 103.96 41.0528 104.022 41.3064 104.022ZM45.8415 103.46L45.8383 102.063H46.0237L47.7879 100.091H49.1398L46.9697 102.507H46.73L45.8415 103.46ZM44.7868 105V98.4545H45.9438V105H44.7868ZM47.8678 105L46.2698 102.766L47.0496 101.951L49.2517 105H47.8678ZM51.8501 105.096C51.3706 105.096 50.9552 104.99 50.6036 104.779C50.252 104.569 49.9793 104.273 49.7854 103.894C49.5937 103.515 49.4978 103.072 49.4978 102.565C49.4978 102.058 49.5937 101.613 49.7854 101.232C49.9793 100.85 50.252 100.554 50.6036 100.343C50.9552 100.132 51.3706 100.027 51.8501 100.027C52.3295 100.027 52.7449 100.132 53.0965 100.343C53.4481 100.554 53.7197 100.85 53.9115 101.232C54.1054 101.613 54.2023 102.058 54.2023 102.565C54.2023 103.072 54.1054 103.515 53.9115 103.894C53.7197 104.273 53.4481 104.569 53.0965 104.779C52.7449 104.99 52.3295 105.096 51.8501 105.096ZM51.8564 104.169C52.1164 104.169 52.3337 104.098 52.5084 103.955C52.6831 103.81 52.8131 103.616 52.8983 103.373C52.9857 103.13 53.0294 102.86 53.0294 102.561C53.0294 102.261 52.9857 101.989 52.8983 101.746C52.8131 101.501 52.6831 101.306 52.5084 101.162C52.3337 101.017 52.1164 100.944 51.8564 100.944C51.5901 100.944 51.3685 101.017 51.1917 101.162C51.017 101.306 50.8859 101.501 50.7986 101.746C50.7133 101.989 50.6707 102.261 50.6707 102.561C50.6707 102.86 50.7133 103.13 50.7986 103.373C50.8859 103.616 51.017 103.81 51.1917 103.955C51.3685 104.098 51.5901 104.169 51.8564 104.169ZM56.239 103.46L56.2358 102.063H56.4212L58.1854 100.091H59.5373L57.3672 102.507H57.1275L56.239 103.46ZM55.1843 105V98.4545H56.3413V105H55.1843ZM58.2653 105L56.6673 102.766L57.4471 101.951L59.6491 105H58.2653Z" fill="white"/>
<path d="M22.6456 124V117.455H23.8313V120.225H26.8643V117.455H28.0533V124H26.8643V121.219H23.8313V124H22.6456ZM30.7044 124.099C30.3933 124.099 30.1131 124.044 29.8638 123.933C29.6167 123.82 29.4206 123.654 29.2757 123.434C29.133 123.215 29.0616 122.944 29.0616 122.623C29.0616 122.346 29.1127 122.116 29.215 121.935C29.3173 121.754 29.4569 121.609 29.6337 121.501C29.8105 121.392 30.0098 121.31 30.2314 121.255C30.4551 121.197 30.6863 121.156 30.9249 121.13C31.2125 121.1 31.4458 121.074 31.6248 121.05C31.8038 121.025 31.9338 120.986 32.0147 120.935C32.0978 120.882 32.1394 120.8 32.1394 120.689V120.67C32.1394 120.429 32.068 120.243 31.9252 120.11C31.7825 119.978 31.5769 119.912 31.3084 119.912C31.025 119.912 30.8002 119.974 30.6341 120.098C30.47 120.221 30.3592 120.367 30.3017 120.536L29.2214 120.382C29.3066 120.084 29.4473 119.835 29.6433 119.634C29.8393 119.432 30.079 119.281 30.3624 119.18C30.6458 119.078 30.959 119.027 31.302 119.027C31.5385 119.027 31.774 119.055 32.0083 119.11C32.2427 119.165 32.4569 119.257 32.6507 119.385C32.8446 119.511 33.0002 119.682 33.1174 119.9C33.2367 120.117 33.2963 120.388 33.2963 120.714V124H32.1841V123.326H32.1458C32.0755 123.462 31.9764 123.59 31.8485 123.709C31.7228 123.826 31.5641 123.921 31.3723 123.994C31.1827 124.064 30.96 124.099 30.7044 124.099ZM31.0048 123.249C31.237 123.249 31.4384 123.203 31.6088 123.112C31.7793 123.018 31.9103 122.894 32.002 122.741C32.0957 122.587 32.1426 122.42 32.1426 122.239V121.661C32.1064 121.69 32.0446 121.718 31.9572 121.744C31.872 121.769 31.7761 121.792 31.6696 121.811C31.563 121.83 31.4576 121.847 31.3532 121.862C31.2488 121.877 31.1582 121.89 31.0815 121.9C30.9089 121.924 30.7544 121.962 30.6181 122.015C30.4817 122.069 30.3741 122.143 30.2953 122.239C30.2164 122.333 30.177 122.454 30.177 122.603C30.177 122.816 30.2548 122.977 30.4103 123.086C30.5659 123.195 30.764 123.249 31.0048 123.249ZM35.6167 121.124V124H34.4597V119.091H35.5655V119.925H35.623C35.736 119.65 35.916 119.432 36.1632 119.27C36.4125 119.108 36.7203 119.027 37.0868 119.027C37.4256 119.027 37.7207 119.099 37.9721 119.244C38.2257 119.389 38.4217 119.599 38.5602 119.874C38.7008 120.149 38.7701 120.482 38.7679 120.874V124H37.611V121.053C37.611 120.725 37.5257 120.468 37.3553 120.283C37.187 120.098 36.9537 120.005 36.6554 120.005C36.4529 120.005 36.2729 120.05 36.1152 120.139C35.9597 120.227 35.8372 120.353 35.7477 120.52C35.6603 120.686 35.6167 120.887 35.6167 121.124ZM42.0854 124.096C41.606 124.096 41.1905 123.99 40.839 123.779C40.4874 123.569 40.2147 123.273 40.0208 122.894C39.829 122.515 39.7331 122.072 39.7331 121.565C39.7331 121.058 39.829 120.613 40.0208 120.232C40.2147 119.85 40.4874 119.554 40.839 119.343C41.1905 119.132 41.606 119.027 42.0854 119.027C42.5648 119.027 42.9803 119.132 43.3319 119.343C43.6834 119.554 43.9551 119.85 44.1468 120.232C44.3407 120.613 44.4377 121.058 44.4377 121.565C44.4377 122.072 44.3407 122.515 44.1468 122.894C43.9551 123.273 43.6834 123.569 43.3319 123.779C42.9803 123.99 42.5648 124.096 42.0854 124.096ZM42.0918 123.169C42.3517 123.169 42.5691 123.098 42.7438 122.955C42.9185 122.81 43.0485 122.616 43.1337 122.373C43.2211 122.13 43.2647 121.86 43.2647 121.561C43.2647 121.261 43.2211 120.989 43.1337 120.746C43.0485 120.501 42.9185 120.306 42.7438 120.162C42.5691 120.017 42.3517 119.944 42.0918 119.944C41.8255 119.944 41.6039 120.017 41.427 120.162C41.2523 120.306 41.1213 120.501 41.0339 120.746C40.9487 120.989 40.9061 121.261 40.9061 121.561C40.9061 121.86 40.9487 122.13 41.0339 122.373C41.1213 122.616 41.2523 122.81 41.427 122.955C41.6039 123.098 41.8255 123.169 42.0918 123.169ZM45.4197 124V119.091H46.5766V124H45.4197ZM46.0013 118.394C45.8181 118.394 45.6604 118.333 45.5283 118.212C45.3962 118.088 45.3302 117.94 45.3302 117.768C45.3302 117.593 45.3962 117.445 45.5283 117.324C45.6604 117.2 45.8181 117.138 46.0013 117.138C46.1867 117.138 46.3444 117.2 46.4743 117.324C46.6064 117.445 46.6725 117.593 46.6725 117.768C46.6725 117.94 46.6064 118.088 46.4743 118.212C46.3444 118.333 46.1867 118.394 46.0013 118.394Z" fill="white"/>
<path d="M27.0305 138.545C26.9773 138.372 26.9038 138.218 26.81 138.081C26.7184 137.943 26.6076 137.825 26.4776 137.727C26.3498 137.629 26.2028 137.555 26.0366 137.506C25.8704 137.455 25.6893 137.429 25.4933 137.429C25.1417 137.429 24.8285 137.518 24.5536 137.695C24.2788 137.871 24.0625 138.131 23.9048 138.474C23.7493 138.815 23.6715 139.231 23.6715 139.721C23.6715 140.215 23.7493 140.634 23.9048 140.977C24.0604 141.32 24.2766 141.581 24.5536 141.76C24.8306 141.937 25.1523 142.025 25.5188 142.025C25.8512 142.025 26.1388 141.961 26.3817 141.833C26.6268 141.706 26.8153 141.525 26.9474 141.29C27.0795 141.054 27.1456 140.777 27.1456 140.459L27.4141 140.501H25.6371V139.574H28.293V140.36C28.293 140.92 28.1737 141.405 27.935 141.814C27.6964 142.223 27.3683 142.539 26.9506 142.76C26.533 142.98 26.0536 143.089 25.5124 143.089C24.9094 143.089 24.38 142.954 23.924 142.684C23.4702 142.411 23.1154 142.024 22.8597 141.523C22.6062 141.021 22.4794 140.424 22.4794 139.734C22.4794 139.205 22.554 138.733 22.7031 138.318C22.8544 137.902 23.0653 137.55 23.3359 137.26C23.6065 136.968 23.924 136.746 24.2884 136.595C24.6527 136.442 25.049 136.365 25.4773 136.365C25.8395 136.365 26.1772 136.418 26.4904 136.525C26.8036 136.629 27.0817 136.778 27.3246 136.972C27.5696 137.166 27.771 137.396 27.9286 137.663C28.0863 137.929 28.1896 138.223 28.2386 138.545H27.0305ZM31.5297 143.096C31.0503 143.096 30.6349 142.99 30.2833 142.779C29.9317 142.569 29.659 142.273 29.4651 141.894C29.2733 141.515 29.1775 141.072 29.1775 140.565C29.1775 140.058 29.2733 139.613 29.4651 139.232C29.659 138.85 29.9317 138.554 30.2833 138.343C30.6349 138.132 31.0503 138.027 31.5297 138.027C32.0091 138.027 32.4246 138.132 32.7762 138.343C33.1278 138.554 33.3994 138.85 33.5912 139.232C33.7851 139.613 33.882 140.058 33.882 140.565C33.882 141.072 33.7851 141.515 33.5912 141.894C33.3994 142.273 33.1278 142.569 32.7762 142.779C32.4246 142.99 32.0091 143.096 31.5297 143.096ZM31.5361 142.169C31.7961 142.169 32.0134 142.098 32.1881 141.955C32.3628 141.81 32.4928 141.616 32.578 141.373C32.6654 141.13 32.7091 140.86 32.7091 140.561C32.7091 140.261 32.6654 139.989 32.578 139.746C32.4928 139.501 32.3628 139.306 32.1881 139.162C32.0134 139.017 31.7961 138.944 31.5361 138.944C31.2698 138.944 31.0482 139.017 30.8714 139.162C30.6966 139.306 30.5656 139.501 30.4782 139.746C30.393 139.989 30.3504 140.261 30.3504 140.561C30.3504 140.86 30.393 141.13 30.4782 141.373C30.5656 141.616 30.6966 141.81 30.8714 141.955C31.0482 142.098 31.2698 142.169 31.5361 142.169ZM36.2766 143.099C35.9656 143.099 35.6854 143.044 35.4361 142.933C35.1889 142.82 34.9929 142.654 34.848 142.434C34.7053 142.215 34.6339 141.944 34.6339 141.623C34.6339 141.346 34.685 141.116 34.7873 140.935C34.8896 140.754 35.0291 140.609 35.206 140.501C35.3828 140.392 35.582 140.31 35.8036 140.255C36.0273 140.197 36.2585 140.156 36.4972 140.13C36.7848 140.1 37.0181 140.074 37.1971 140.05C37.3761 140.025 37.506 139.986 37.587 139.935C37.6701 139.882 37.7116 139.8 37.7116 139.689V139.67C37.7116 139.429 37.6403 139.243 37.4975 139.11C37.3548 138.978 37.1491 138.912 36.8807 138.912C36.5973 138.912 36.3725 138.974 36.2063 139.098C36.0423 139.221 35.9315 139.367 35.8739 139.536L34.7937 139.382C34.8789 139.084 35.0195 138.835 35.2156 138.634C35.4116 138.432 35.6513 138.281 35.9347 138.18C36.218 138.078 36.5313 138.027 36.8743 138.027C37.1108 138.027 37.3462 138.055 37.5806 138.11C37.815 138.165 38.0291 138.257 38.223 138.385C38.4169 138.511 38.5724 138.682 38.6896 138.9C38.8089 139.117 38.8686 139.388 38.8686 139.714V143H37.7564V142.326H37.718C37.6477 142.462 37.5487 142.59 37.4208 142.709C37.2951 142.826 37.1364 142.921 36.9446 142.994C36.755 143.064 36.5323 143.099 36.2766 143.099ZM36.5771 142.249C36.8093 142.249 37.0107 142.203 37.1811 142.112C37.3516 142.018 37.4826 141.894 37.5742 141.741C37.668 141.587 37.7148 141.42 37.7148 141.239V140.661C37.6786 140.69 37.6168 140.718 37.5295 140.744C37.4442 140.769 37.3484 140.792 37.2418 140.811C37.1353 140.83 37.0298 140.847 36.9254 140.862C36.821 140.877 36.7305 140.89 36.6538 140.9C36.4812 140.924 36.3267 140.962 36.1903 141.015C36.054 141.069 35.9464 141.143 35.8675 141.239C35.7887 141.333 35.7493 141.454 35.7493 141.603C35.7493 141.816 35.8271 141.977 35.9826 142.086C36.1381 142.195 36.3363 142.249 36.5771 142.249Z" fill="white"/>
<mask id="mask1_3694_5832" style="mask-type:alpha" maskUnits="userSpaceOnUse" x="0" y="1" width="362" height="287">
<path d="M34.5806 51.2762C-8.66358 87.8483 -2.37686 169.505 6.17203 205.762C30.4666 280.853 96.9416 236.195 177.413 268.818C260.753 302.603 276.21 284.715 317.483 257.783C361.824 228.848 373.116 127.731 351.021 85.9568C328.925 44.1826 269.741 3.5905 225.944 1.62002C182.147 -0.350464 88.6359 5.56099 34.5806 51.2762Z" fill="#F0E9FF"/>
</mask>
<g mask="url(#mask1_3694_5832)">
<path d="M230.463 171.342L229.463 187.342L230.463 189.342L240.963 190.842L253.963 183.842L252.463 179.342L249.463 164.842L252.463 154.842L247.463 141.842L231.963 130.842C230.463 133.342 227.263 138.842 226.463 140.842C225.663 142.842 223.796 145.342 222.963 146.342C221.963 147.009 219.763 148.842 218.963 150.842C218.163 152.842 220.63 155.009 221.963 155.842C221.796 156.842 221.563 160.042 221.963 164.842C222.363 169.642 227.796 171.176 230.463 171.342Z" fill="#F2BAA9"/>
<path d="M209.508 272.614C209.493 272.691 209.478 272.767 209.463 272.842C209.478 272.763 209.493 272.686 209.508 272.614C211.018 264.994 213.755 247.846 212.963 238.342C211.963 226.342 211.463 198.842 226.963 186.842L229.463 184.342C229.129 185.342 228.763 187.442 229.963 187.842C231.463 188.342 239.963 191.342 245.963 187.342C250.763 184.142 252.296 183.009 252.463 182.842C252.963 182.176 253.663 180.442 252.463 178.842C255.296 179.009 261.963 181.442 265.963 189.842C270.963 200.342 273.463 230.842 273.963 238.342C274.463 245.842 277.963 267.342 277.963 268.842C277.963 270.342 283.463 284.842 257.963 286.842C226.963 288.342 208.714 289.842 209.463 279.342C210.026 271.443 209.751 271.473 209.508 272.614Z" fill="#560EF0"/>
<path d="M254 277.5C230.4 274.3 218.5 245.833 215.5 232L224 227.5C224.167 229.333 225.8 235.2 231 244C236.2 252.8 244.833 258.333 248.5 260L254 277.5Z" fill="#ED7B3E"/>
<path d="M212.462 211.843L218.962 207.343C222.162 213.343 229.629 218.176 232.963 219.842C232.963 221.342 224.463 229.842 221.963 231.842C219.686 233.664 213.963 237.342 207.463 238.342C200.963 239.342 197.463 233.842 194.463 229.342C191.463 224.842 184.963 201.842 183.463 197.842C181.963 193.842 177.963 194.342 175.963 193.342C173.963 192.342 164.462 184.842 162.462 181.342C160.862 178.542 163.796 179.509 165.462 180.342L169.962 183.842L168.462 181.842C167.296 180.509 164.663 177.442 163.463 175.843C161.963 173.843 163.963 172.843 164.963 173.342C165.459 173.59 167.133 175.004 168.771 176.44C167.564 175.084 166.401 173.319 165.962 171.343C165.162 167.742 167.962 168.842 169.462 169.842C169.795 170.342 171.062 172.042 173.462 174.842C175.862 177.642 175.462 176.009 174.962 174.842C173.962 173.342 171.862 170.143 171.462 169.343C170.962 168.342 169.962 165.843 171.962 165.343C173.962 164.843 175.462 168.343 176.962 170.343L176.962 170.343C178.462 172.343 179.962 174.343 182.462 175.843C184.963 177.343 182.962 174.343 182.462 172.843C182.062 171.643 182.296 170.009 182.462 169.343C183.962 165.843 186.962 170.343 187.462 171.343C187.962 172.343 190.462 177.343 191.462 183.343C192.262 188.143 192.796 190.009 192.962 190.343C197.762 196.343 207.962 207.176 212.462 211.843Z" fill="#F2BAA9"/>
<path d="M236.963 145.342C238.563 148.142 238.296 151.509 237.963 152.842C239.963 150.342 245.463 148.842 247.463 152.342C249.463 155.842 246.963 159.342 245.463 160.342C244.263 161.142 243.296 162.009 242.963 162.342C243.296 163.176 244.363 165.642 245.963 168.842L247.963 172.842C251.963 173.242 250.963 170.009 249.963 168.342C250.463 168.342 251.663 169.142 252.463 172.342C253.463 176.342 258.963 180.842 264.963 179.342C270.963 177.842 268.963 169.842 268.963 168.342C268.963 167.142 267.296 163.176 266.463 161.342C267.63 160.509 270.363 157.342 271.963 151.342C273.963 143.842 270.963 136.842 265.963 129.342C260.963 121.842 251.963 122.842 247.463 123.342C243.863 123.742 237.63 126.509 234.963 127.842C233.963 126.509 231.663 124.342 230.463 126.342C228.963 128.842 229.963 133.342 230.463 134.842C230.963 136.342 234.963 141.842 236.963 145.342Z" fill="#C43748"/>
<path d="M226 164C225.2 163.2 223 163.667 222 164V161C223.5 158.5 230.5 159 230.5 164C230.5 169 227 165 226 164Z" fill="white"/>
<path d="M216 204C232 186.4 243.333 192.667 247 198L253.5 192L251.5 189.5C250.5 188 242.5 181.5 235.5 181.5C228.5 181.5 224.5 188.5 222.5 191C220.9 193 217.5 200.5 216 204Z" fill="#ED7B3E"/>
<g filter="url(#filter0_i_3694_5832)">
<path d="M242.5 235C242.5 249 246.5 264.167 248.5 270C248.5 273.2 253.5 278.667 256 281C272.5 286.5 286.5 282.5 295.5 278C302.7 274.4 303.833 261.5 303.5 255.5C302.333 251.333 299.9 242.4 299.5 240C299.1 237.6 297.667 231.667 297 229C298.5 226.5 298 223.5 297 219C296 214.5 289.5 199 285.5 194C281.5 189 272 186.5 266.5 186C261 185.5 253 188 248.5 192.5C244 197 242.5 217.5 242.5 235Z" fill="#EF864D"/>
</g>
<path opacity="0.2" d="M255 212.5C256.667 220.667 262.3 236.6 271.5 235C280.7 233.4 292 231 296.5 230M299 247.5C290 248.5 274 253.5 270.5 255C267.7 256.2 268 259.167 268.5 260.5L271.5 270.5C272.167 272.833 274.9 277.2 280.5 276C286.1 274.8 295.833 272.167 300 271M271.5 260.5C278.5 258.333 293.6 253.9 298 253.5" stroke="black"/>
<ellipse cx="283" cy="247" rx="3" ry="1" transform="rotate(-9.42423 283 247)" fill="#BF6B3E"/>
</g>
<path d="M306 87.4C306 100.323 295.926 110.8 283.5 110.8C271.074 110.8 261 100.323 261 87.4C261 74.4765 271.074 64 283.5 64C295.926 64 306 74.4765 306 87.4Z" fill="#EC4F54"/>
<path d="M266.902 116L270.959 104.857L279.074 107.829L266.902 116Z" fill="#EC4F54"/>
<path d="M279.825 79.6221C280.06 79.6839 280.283 79.7334 280.493 79.7705C280.703 79.7952 280.889 79.82 281.05 79.8447C281.235 79.8695 281.409 79.888 281.569 79.9004C281.743 79.9128 281.947 79.9251 282.182 79.9375C282.392 79.9499 282.646 79.9561 282.942 79.9561C283.239 79.9561 283.592 79.9561 284 79.9561C283.641 80.8096 283.351 81.5332 283.128 82.127C282.905 82.7083 282.732 83.1908 282.608 83.5742C282.472 84.0195 282.373 84.3844 282.312 84.6689C282.262 84.9535 282.2 85.2998 282.126 85.708C282.064 86.0667 281.978 86.5059 281.866 87.0254C281.755 87.5449 281.631 88.1634 281.495 88.8809L279.862 88.8066C279.961 88.151 280.029 87.5944 280.066 87.1367C280.104 86.6667 280.134 86.277 280.159 85.9678C280.184 85.609 280.196 85.3122 280.196 85.0771C280.196 84.8298 280.178 84.4587 280.141 83.9639C280.116 83.5557 280.079 83.0052 280.029 82.3125C279.98 81.6074 279.912 80.7106 279.825 79.6221ZM281.866 90.291C281.953 90.4271 282.002 90.5817 282.015 90.7549C282.039 90.9157 282.027 91.0827 281.978 91.2559C281.94 91.4167 281.86 91.5713 281.736 91.7197C281.625 91.8682 281.47 91.9857 281.272 92.0723C280.877 92.2578 280.524 92.3073 280.215 92.2207C279.906 92.1217 279.677 91.9609 279.528 91.7383C279.442 91.6146 279.392 91.4785 279.38 91.3301C279.38 91.1693 279.411 91.0146 279.473 90.8662C279.535 90.7054 279.633 90.557 279.77 90.4209C279.906 90.2848 280.079 90.1735 280.289 90.0869C280.697 89.9137 281.031 89.8519 281.291 89.9014C281.563 89.9508 281.755 90.0807 281.866 90.291ZM285.392 79.6221C285.627 79.6839 285.849 79.7334 286.06 79.7705C286.27 79.7952 286.455 79.82 286.616 79.8447C286.802 79.8695 286.975 79.888 287.136 79.9004C287.309 79.9128 287.513 79.9251 287.748 79.9375C287.958 79.9499 288.212 79.9561 288.509 79.9561C288.806 79.9561 289.158 79.9561 289.566 79.9561C289.208 80.8096 288.917 81.5332 288.694 82.127C288.472 82.7083 288.299 83.1908 288.175 83.5742C288.039 84.0195 287.94 84.3844 287.878 84.6689C287.828 84.9535 287.767 85.2998 287.692 85.708C287.631 86.0667 287.544 86.5059 287.433 87.0254C287.321 87.5449 287.198 88.1634 287.062 88.8809L285.429 88.8066C285.528 88.151 285.596 87.5944 285.633 87.1367C285.67 86.6667 285.701 86.277 285.726 85.9678C285.75 85.609 285.763 85.3122 285.763 85.0771C285.763 84.8298 285.744 84.4587 285.707 83.9639C285.682 83.5557 285.645 83.0052 285.596 82.3125C285.546 81.6074 285.478 80.7106 285.392 79.6221ZM287.433 90.291C287.519 90.4271 287.569 90.5817 287.581 90.7549C287.606 90.9157 287.593 91.0827 287.544 91.2559C287.507 91.4167 287.426 91.5713 287.303 91.7197C287.191 91.8682 287.037 91.9857 286.839 92.0723C286.443 92.2578 286.09 92.3073 285.781 92.2207C285.472 92.1217 285.243 91.9609 285.095 91.7383C285.008 91.6146 284.959 91.4785 284.946 91.3301C284.946 91.1693 284.977 91.0146 285.039 90.8662C285.101 90.7054 285.2 90.557 285.336 90.4209C285.472 90.2848 285.645 90.1735 285.855 90.0869C286.264 89.9137 286.598 89.8519 286.857 89.9014C287.13 89.9508 287.321 90.0807 287.433 90.291Z" fill="white"/>
<defs>
<filter id="filter0_i_3694_5832" x="242.5" y="185.937" width="61.0518" height="97.7329" filterUnits="userSpaceOnUse" color-interpolation-filters="sRGB">
<feFlood flood-opacity="0" result="BackgroundImageFix"/>
<feBlend mode="normal" in="SourceGraphic" in2="BackgroundImageFix" result="shape"/>
<feColorMatrix in="SourceAlpha" type="matrix" values="0 0 0 0 0 0 0 0 0 0 0 0 0 0 0 0 0 0 127 0" result="hardAlpha"/>
<feOffset dx="4" dy="-4"/>
<feComposite in2="hardAlpha" operator="arithmetic" k2="-1" k3="1"/>
<feColorMatrix type="matrix" values="0 0 0 0 0 0 0 0 0 0 0 0 0 0 0 0 0 0 0.19 0"/>
<feBlend mode="normal" in2="shape" result="effect1_innerShadow_3694_5832"/>
</filter>
</defs>
</svg>
