<svg width="216" height="169" viewBox="0 0 216 169" fill="none" xmlns="http://www.w3.org/2000/svg">
<path d="M7.25991 168.524C3.86077 159.285 -3.12524 134.596 5.38146 112.886C16.0463 85.6674 37.0344 77.1316 50.1818 71.7418C63.3292 66.3519 88.7708 59.6613 115.214 76.2724C141.658 92.8834 131.396 105.527 126.089 107.771C120.782 110.015 103.458 108.019 97.2995 90.4569C91.141 72.8943 95.6702 64.5394 99.0075 58.3832C102.345 52.2269 111.566 45.2775 124.675 44.9877C137.785 44.6979 153.44 49.7712 154.933 54.563C156.426 59.3548 152.75 63.6207 143.843 59.9303C134.936 56.2398 132.089 43.8863 132.177 39.9513C132.265 36.0163 131.137 21.7497 147.672 11.3687C164.207 0.987693 193.098 -3.26386 217.472 7.10464" stroke="#484DC1" stroke-width="1.00038" stroke-dasharray="4 4"/>
</svg>
