<svg width="218" height="133" viewBox="0 0 218 133" fill="none" xmlns="http://www.w3.org/2000/svg">
<path d="M0.921113 132.853C0.631648 123.894 1.67216 100.231 15.2594 81.3471C32.2936 57.6726 52.8974 52.5664 65.8163 49.3283C78.7353 46.0902 102.662 43.269 120.77 62.0471C138.878 80.8251 126.373 91.1248 121.139 92.4948C115.905 93.8648 101.492 89.7504 101.204 72.7611C100.915 55.7719 107.23 48.6697 111.883 43.4365C116.536 38.2034 126.506 33.0125 137.929 34.468C149.352 35.9235 161.439 42.6545 161.355 47.2653C161.271 51.876 156.868 55.3231 150.222 50.7529C143.577 46.1827 144.659 34.4274 145.864 30.8138C147.069 27.2001 150.186 13.9083 167.467 6.51692C184.748 -0.874407 210.959 -0.995208 229.068 11.7597" stroke="#484DC1" stroke-width="1.00038" stroke-dasharray="4 4"/>
</svg>
