<svg width="13" height="12" viewBox="0 0 13 12" fill="none" xmlns="http://www.w3.org/2000/svg">
<path d="M1.87024 10.6216H2.72309L8.32347 5.01727L7.47062 4.16444L1.87024 9.76871V10.6216ZM11.2008 4.07309L8.40236 1.30348L9.29429 0.407621C9.55537 0.14656 9.87495 0.0147273 10.253 0.0121228C10.6311 0.0095183 10.9559 0.141351 11.2274 0.407621L12.0881 1.26438C12.3596 1.53066 12.4969 1.84805 12.4999 2.21655C12.503 2.58506 12.374 2.89984 12.113 3.16091L11.2008 4.07309ZM1.24376 11.9879C1.03505 11.9879 0.85891 11.9161 0.715346 11.7725C0.571782 11.629 0.5 11.4528 0.5 11.2441V9.50256C0.5 9.40234 0.518951 9.30616 0.556852 9.214C0.594765 9.12185 0.65032 9.03917 0.723519 8.96597L7.45428 2.23522L10.2566 5.03362L3.52584 11.7644C3.45263 11.8376 3.3693 11.8931 3.27584 11.931C3.18239 11.9689 3.08556 11.9879 2.98535 11.9879H1.24376ZM7.90095 4.59084L7.47062 4.16444L8.32347 5.01727L7.90095 4.59084Z" fill="white"/>
</svg>
