<svg width="18" height="18" viewBox="0 0 18 18" fill="none" xmlns="http://www.w3.org/2000/svg">
<path d="M9.83317 9.14583V6.5C9.83317 6.26389 9.75331 6.06597 9.59359 5.90625C9.43387 5.74652 9.23595 5.66666 8.99984 5.66666C8.76373 5.66666 8.56581 5.74652 8.40609 5.90625C8.24637 6.06597 8.1665 6.26389 8.1665 6.5V9.47916C8.1665 9.59027 8.18734 9.69791 8.229 9.80208C8.27067 9.90625 8.33317 10 8.4165 10.0833L10.5207 12.1875C10.6873 12.3542 10.8853 12.4375 11.1144 12.4375C11.3436 12.4375 11.5415 12.3542 11.7082 12.1875C11.8609 12.0208 11.9373 11.8229 11.9373 11.5937C11.9373 11.3646 11.8609 11.1736 11.7082 11.0208L9.83317 9.14583ZM8.99984 4C9.23595 4 9.43387 3.92014 9.59359 3.76041C9.75331 3.60069 9.83317 3.40278 9.83317 3.16666C9.83317 2.93055 9.75331 2.73264 9.59359 2.57291C9.43387 2.41319 9.23595 2.33333 8.99984 2.33333C8.76373 2.33333 8.56581 2.41319 8.40609 2.57291C8.24637 2.73264 8.1665 2.93055 8.1665 3.16666C8.1665 3.40278 8.24637 3.60069 8.40609 3.76041C8.56581 3.92014 8.76373 4 8.99984 4ZM13.9998 9C13.9998 9.23611 14.0797 9.43403 14.2394 9.59375C14.3991 9.75347 14.5971 9.83333 14.8332 9.83333C15.0693 9.83333 15.2672 9.75347 15.4269 9.59375C15.5866 9.43403 15.6665 9.23611 15.6665 9C15.6665 8.76389 15.5866 8.56597 15.4269 8.40625C15.2672 8.24653 15.0693 8.16666 14.8332 8.16666C14.5971 8.16666 14.3991 8.24653 14.2394 8.40625C14.0797 8.56597 13.9998 8.76389 13.9998 9ZM8.99984 14C8.76373 14 8.56581 14.0799 8.40609 14.2396C8.24637 14.3993 8.1665 14.5972 8.1665 14.8333C8.1665 15.0694 8.24637 15.2674 8.40609 15.4271C8.56581 15.5868 8.76373 15.6667 8.99984 15.6667C9.23595 15.6667 9.43387 15.5868 9.59359 15.4271C9.75331 15.2674 9.83317 15.0694 9.83317 14.8333C9.83317 14.5972 9.75331 14.3993 9.59359 14.2396C9.43387 14.0799 9.23595 14 8.99984 14ZM3.99984 9C3.99984 8.76389 3.91998 8.56597 3.76025 8.40625C3.60053 8.24653 3.40261 8.16666 3.1665 8.16666C2.93039 8.16666 2.73248 8.24653 2.57275 8.40625C2.41303 8.56597 2.33317 8.76389 2.33317 9C2.33317 9.23611 2.41303 9.43403 2.57275 9.59375C2.73248 9.75347 2.93039 9.83333 3.1665 9.83333C3.40261 9.83333 3.60053 9.75347 3.76025 9.59375C3.91998 9.43403 3.99984 9.23611 3.99984 9ZM8.99984 17.3333C7.84706 17.3333 6.76373 17.1146 5.74984 16.6771C4.73595 16.2396 3.854 15.6458 3.104 14.8958C2.354 14.1458 1.76025 13.2639 1.32275 12.25C0.885254 11.2361 0.666504 10.1528 0.666504 9C0.666504 7.84722 0.885254 6.76389 1.32275 5.75C1.76025 4.73611 2.354 3.85416 3.104 3.10416C3.854 2.35416 4.73595 1.76041 5.74984 1.32291C6.76373 0.885414 7.84706 0.666664 8.99984 0.666664C10.1526 0.666664 11.2359 0.885414 12.2498 1.32291C13.2637 1.76041 14.1457 2.35416 14.8957 3.10416C15.6457 3.85416 16.2394 4.73611 16.6769 5.75C17.1144 6.76389 17.3332 7.84722 17.3332 9C17.3332 10.1528 17.1144 11.2361 16.6769 12.25C16.2394 13.2639 15.6457 14.1458 14.8957 14.8958C14.1457 15.6458 13.2637 16.2396 12.2498 16.6771C11.2359 17.1146 10.1526 17.3333 8.99984 17.3333Z" fill="#1C1B1F"/>
</svg>
