<svg width="21" height="20" viewBox="0 0 21 20" fill="none" xmlns="http://www.w3.org/2000/svg">
<path d="M10.8741 11.4L13.7741 14.3C13.9575 14.4833 14.1908 14.575 14.4741 14.575C14.7575 14.575 14.9908 14.4833 15.1741 14.3C15.3575 14.1167 15.4491 13.8833 15.4491 13.6C15.4491 13.3167 15.3575 13.0833 15.1741 12.9L12.2741 10L15.1741 7.1C15.3575 6.91667 15.4491 6.68333 15.4491 6.4C15.4491 6.11667 15.3575 5.88333 15.1741 5.7C14.9908 5.51667 14.7575 5.425 14.4741 5.425C14.1908 5.425 13.9575 5.51667 13.7741 5.7L10.8741 8.6L7.97415 5.7C7.79081 5.51667 7.55748 5.425 7.27415 5.425C6.99081 5.425 6.75748 5.51667 6.57415 5.7C6.39081 5.88333 6.29915 6.11667 6.29915 6.4C6.29915 6.68333 6.39081 6.91667 6.57415 7.1L9.47415 10L6.57415 12.9C6.39081 13.0833 6.29915 13.3167 6.29915 13.6C6.29915 13.8833 6.39081 14.1167 6.57415 14.3C6.75748 14.4833 6.99081 14.575 7.27415 14.575C7.55748 14.575 7.79081 14.4833 7.97415 14.3L10.8741 11.4ZM10.8741 20C9.49081 20 8.19081 19.7375 6.97415 19.2125C5.75748 18.6875 4.69915 17.975 3.79915 17.075C2.89915 16.175 2.18665 15.1167 1.66165 13.9C1.13665 12.6833 0.874146 11.3833 0.874146 10C0.874146 8.61667 1.13665 7.31667 1.66165 6.1C2.18665 4.88333 2.89915 3.825 3.79915 2.925C4.69915 2.025 5.75748 1.3125 6.97415 0.7875C8.19081 0.2625 9.49081 0 10.8741 0C12.2575 0 13.5575 0.2625 14.7741 0.7875C15.9908 1.3125 17.0491 2.025 17.9491 2.925C18.8491 3.825 19.5616 4.88333 20.0866 6.1C20.6116 7.31667 20.8741 8.61667 20.8741 10C20.8741 11.3833 20.6116 12.6833 20.0866 13.9C19.5616 15.1167 18.8491 16.175 17.9491 17.075C17.0491 17.975 15.9908 18.6875 14.7741 19.2125C13.5575 19.7375 12.2575 20 10.8741 20Z" fill="#F2300A"/>
</svg>
