<svg width="18" height="18" viewBox="0 0 18 18" fill="none" xmlns="http://www.w3.org/2000/svg">
<path d="M7.33341 8.99984H10.2501V10.0832C10.2501 10.2776 10.3334 10.4096 10.5001 10.479C10.6667 10.5484 10.8195 10.5137 10.9584 10.3748L12.5834 8.74984C12.7501 8.58317 12.8334 8.38873 12.8334 8.1665C12.8334 7.94428 12.7501 7.74984 12.5834 7.58317L10.9584 5.95817C10.8195 5.81928 10.6667 5.78456 10.5001 5.854C10.3334 5.92345 10.2501 6.05539 10.2501 6.24984V7.33317H6.50008C6.26397 7.33317 6.06605 7.41303 5.90633 7.57275C5.74661 7.73248 5.66675 7.93039 5.66675 8.1665V10.6665C5.66675 10.9026 5.74661 11.1005 5.90633 11.2603C6.06605 11.42 6.26397 11.4998 6.50008 11.4998C6.73619 11.4998 6.93411 11.42 7.09383 11.2603C7.25355 11.1005 7.33341 10.9026 7.33341 10.6665V8.99984ZM9.00008 17.3332C8.79175 17.3332 8.58689 17.2915 8.3855 17.2082C8.18411 17.1248 8.00008 16.9998 7.83342 16.8332L1.16675 10.1665C1.00008 9.99984 0.875081 9.81581 0.791748 9.61442C0.708415 9.41303 0.666748 9.20817 0.666748 8.99984C0.666748 8.7915 0.708415 8.58664 0.791748 8.38525C0.875081 8.18386 1.00008 7.99984 1.16675 7.83317L7.83342 1.1665C8.00008 0.999837 8.18411 0.874837 8.3855 0.791504C8.58689 0.708171 8.79175 0.666504 9.00008 0.666504C9.20841 0.666504 9.41328 0.708171 9.61467 0.791504C9.81605 0.874837 10.0001 0.999837 10.1667 1.1665L16.8334 7.83317C17.0001 7.99984 17.1251 8.18386 17.2084 8.38525C17.2917 8.58664 17.3334 8.7915 17.3334 8.99984C17.3334 9.20817 17.2917 9.41303 17.2084 9.61442C17.1251 9.81581 17.0001 9.99984 16.8334 10.1665L10.1667 16.8332C10.0001 16.9998 9.81605 17.1248 9.61467 17.2082C9.41328 17.2915 9.20841 17.3332 9.00008 17.3332Z" fill="#6F27FF"/>
</svg>
