<svg width="16" height="16" viewBox="0 0 16 16" fill="none" xmlns="http://www.w3.org/2000/svg">
<path d="M2.21122 13.8383H3.29818L10.4359 6.69564L9.34891 5.6087L2.21122 12.7513V13.8383ZM14.103 5.49229L10.5364 1.96241L11.6732 0.820639C12.0059 0.487917 12.4132 0.319896 12.8951 0.316577C13.377 0.313257 13.7909 0.481278 14.1369 0.820639L15.2339 1.91258C15.5799 2.25195 15.7549 2.65647 15.7588 3.12612C15.7627 3.59578 15.5983 3.99698 15.2656 4.3297L14.103 5.49229ZM1.41276 15.5797C1.14676 15.5797 0.922274 15.4882 0.739302 15.3052C0.55633 15.1223 0.464844 14.8978 0.464844 14.6318V12.4121C0.464844 12.2844 0.488997 12.1618 0.537302 12.0444C0.585622 11.9269 0.656427 11.8216 0.749719 11.7283L9.32807 3.14991L12.8996 6.71647L4.32128 15.2948C4.22798 15.3881 4.12177 15.4589 4.00266 15.5072C3.88355 15.5556 3.76014 15.5797 3.63243 15.5797H1.41276ZM9.89736 6.15216L9.34891 5.6087L10.4359 6.69564L9.89736 6.15216Z" fill="#6F27FF"/>
</svg>
