<svg width="28" height="21" viewBox="0 0 28 21" fill="none" xmlns="http://www.w3.org/2000/svg">
<g opacity="0.3">
<mask id="mask0_1794_771" style="mask-type:alpha" maskUnits="userSpaceOnUse" x="4" y="0" width="20" height="21">
<rect x="4" y="0.779785" width="20" height="20" fill="#D9D9D9"/>
</mask>
<g mask="url(#mask0_1794_771)">
<path d="M11.1354 8.77979C11.7951 8.77979 12.4375 8.86659 13.0625 9.0402C13.6875 9.21381 14.2604 9.47423 14.7812 9.82145C15.3021 10.1687 15.7431 10.5992 16.1042 11.1131C16.4653 11.627 16.7083 12.2173 16.8333 12.884C16.875 13.1201 16.8222 13.3284 16.6749 13.509C16.5276 13.6895 16.3374 13.7798 16.1042 13.7798H5.91667C5.68347 13.7798 5.49323 13.6895 5.34594 13.509C5.19865 13.3284 5.14583 13.1201 5.1875 12.884C5.32083 12.1873 5.58417 11.583 5.9775 11.0712C6.37083 10.5594 6.8375 10.1328 7.3775 9.79162C7.9175 9.4504 8.51389 9.19645 9.16667 9.02979C9.81944 8.86312 10.4757 8.77979 11.1354 8.77979ZM5.75 16.7798C5.5375 16.7798 5.35938 16.7083 5.21562 16.5654C5.07187 16.4225 5 16.2454 5 16.0342C5 15.8229 5.07187 15.6444 5.21562 15.4985C5.35938 15.3527 5.5375 15.2798 5.75 15.2798H16.25C16.4625 15.2798 16.6406 15.3512 16.7844 15.4941C16.9281 15.6371 17 15.8141 17 16.0254C17 16.2367 16.9281 16.4152 16.7844 16.561C16.6406 16.7069 16.4625 16.7798 16.25 16.7798H5.75ZM5.75 19.7798C5.5375 19.7798 5.35938 19.7083 5.21562 19.5654C5.07187 19.4225 5 19.2454 5 19.0342C5 18.8229 5.07187 18.6444 5.21562 18.4985C5.35938 18.3527 5.5375 18.2798 5.75 18.2798H16.25C16.4625 18.2798 16.6406 18.3512 16.7844 18.4941C16.9281 18.6371 17 18.8141 17 19.0254C17 19.2367 16.9281 19.4152 16.7844 19.561C16.6406 19.7069 16.4625 19.7798 16.25 19.7798H5.75ZM18.5 19.7798V13.6131C18.6389 12.1409 18.1806 10.8701 17.125 9.80062C16.0694 8.73117 14.7917 7.98812 13.2917 7.57145L13.0833 5.61312C13.0556 5.3909 13.1174 5.19645 13.2688 5.02979C13.4201 4.86312 13.6083 4.77979 13.8333 4.77979H17.25V2.53526C17.25 2.32328 17.3215 2.14437 17.4644 1.99854C17.6073 1.8527 17.7844 1.77979 17.9956 1.77979C18.2069 1.77979 18.3854 1.85166 18.5312 1.99541C18.6771 2.13916 18.75 2.31729 18.75 2.52979V4.77979H22.1667C22.3917 4.77979 22.5799 4.86185 22.7313 5.02599C22.8826 5.19013 22.9444 5.38584 22.9167 5.61312L21.5417 19.1131C21.5139 19.3076 21.4317 19.4673 21.295 19.5923C21.1583 19.7173 20.9905 19.7798 20.7917 19.7798H18.5Z" fill="#1C1B1F"/>
</g>
</g>
</svg>
