<svg width="16" height="14" viewBox="0 0 16 14" fill="none" xmlns="http://www.w3.org/2000/svg">
<path d="M12.7918 13.875C11.9168 13.875 11.1772 13.5729 10.5731 12.9688C9.96891 12.3646 9.66683 11.625 9.66683 10.75C9.66683 9.875 9.96891 9.13542 10.5731 8.53125C11.1772 7.92708 11.9168 7.625 12.7918 7.625C13.6668 7.625 14.4064 7.92708 15.0106 8.53125C15.6147 9.13542 15.9168 9.875 15.9168 10.75C15.9168 11.625 15.6147 12.3646 15.0106 12.9688C14.4064 13.5729 13.6668 13.875 12.7918 13.875ZM7.16683 11.5833H2.16683C1.93072 11.5833 1.7328 11.5035 1.57308 11.3438C1.41336 11.184 1.3335 10.9861 1.3335 10.75C1.3335 10.5139 1.41336 10.316 1.57308 10.1562C1.7328 9.99653 1.93072 9.91667 2.16683 9.91667H7.16683C7.40294 9.91667 7.60086 9.99653 7.76058 10.1562C7.9203 10.316 8.00016 10.5139 8.00016 10.75C8.00016 10.9861 7.9203 11.184 7.76058 11.3438C7.60086 11.5035 7.40294 11.5833 7.16683 11.5833ZM3.2085 6.375C2.3335 6.375 1.59391 6.07292 0.989746 5.46875C0.385579 4.86458 0.0834961 4.125 0.0834961 3.25C0.0834961 2.375 0.385579 1.63542 0.989746 1.03125C1.59391 0.427083 2.3335 0.125 3.2085 0.125C4.0835 0.125 4.82308 0.427083 5.42725 1.03125C6.03141 1.63542 6.3335 2.375 6.3335 3.25C6.3335 4.125 6.03141 4.86458 5.42725 5.46875C4.82308 6.07292 4.0835 6.375 3.2085 6.375ZM13.8335 4.08333H8.8335C8.59738 4.08333 8.39947 4.00347 8.23975 3.84375C8.08002 3.68403 8.00016 3.48611 8.00016 3.25C8.00016 3.01389 8.08002 2.81597 8.23975 2.65625C8.39947 2.49653 8.59738 2.41667 8.8335 2.41667H13.8335C14.0696 2.41667 14.2675 2.49653 14.4272 2.65625C14.587 2.81597 14.6668 3.01389 14.6668 3.25C14.6668 3.48611 14.587 3.68403 14.4272 3.84375C14.2675 4.00347 14.0696 4.08333 13.8335 4.08333Z" fill="#9F9BA3"/>
</svg>
