<svg width="120" height="120" viewBox="0 0 120 120" fill="none" xmlns="http://www.w3.org/2000/svg">
<circle cx="60" cy="60" r="60" fill="#EFEEF1"/>
<mask id="mask0_3661_5699" style="mask-type:alpha" maskUnits="userSpaceOnUse" x="40" y="40" width="40" height="40">
<rect x="40" y="40" width="40" height="40" fill="#D3CCE1"/>
</mask>
<g mask="url(#mask0_3661_5699)">
<path d="M60 60.0279C61.8241 60.0279 63.6991 59.9005 65.625 59.6458C67.5508 59.3911 69.347 59.0185 71.0137 58.5279C71.5879 58.3057 72.118 58.3751 72.6041 58.7362C73.0902 59.0973 73.3333 59.5787 73.3333 60.1804V72.125C73.3333 72.7083 73.169 73.2337 72.8404 73.7012C72.5115 74.169 72.0832 74.5093 71.5554 74.7221C69.8609 75.361 67.9837 75.8448 65.9237 76.1737C63.8634 76.5023 61.8888 76.6666 60 76.6666C58.1111 76.6666 56.1365 76.5023 54.0762 76.1737C52.0162 75.8448 50.139 75.361 48.4445 74.7221C47.9168 74.5093 47.4884 74.169 47.1595 73.7012C46.8309 73.2337 46.6666 72.7083 46.6666 72.125V60.1804C46.6666 59.5787 46.9097 59.0973 47.3958 58.7362C47.8819 58.3751 48.412 58.3057 48.9862 58.5279C50.6529 59.0185 52.4491 59.3911 54.375 59.6458C56.3008 59.9005 58.1758 60.0279 60 60.0279ZM60 43.3333C61.8147 43.3333 63.3518 43.9629 64.6112 45.2221C65.8704 46.4815 66.5 48.0186 66.5 49.8333C66.5 51.648 65.8704 53.1851 64.6112 54.4446C63.3518 55.7037 61.8147 56.3333 60 56.3333C58.1852 56.3333 56.6482 55.7037 55.3887 54.4446C54.1295 53.1851 53.5 51.648 53.5 49.8333C53.5 48.0186 54.1295 46.4815 55.3887 45.2221C56.6482 43.9629 58.1852 43.3333 60 43.3333Z" fill="#D3CCE1"/>
</g>
</svg>
