<svg width="25" height="24" viewBox="0 0 25 24" fill="none" xmlns="http://www.w3.org/2000/svg">
<rect x="0.874146" width="24" height="24" rx="12" fill="white"/>
<mask id="mask0_2995_1317" style="mask-type:alpha" maskUnits="userSpaceOnUse" x="0" y="0" width="25" height="24">
<rect x="0.874146" width="24" height="24" fill="#F2300A"/>
</mask>
<g mask="url(#mask0_2995_1317)">
<path d="M12.8741 13.4L15.7741 16.3C15.9575 16.4833 16.1908 16.575 16.4741 16.575C16.7575 16.575 16.9908 16.4833 17.1741 16.3C17.3575 16.1167 17.4491 15.8833 17.4491 15.6C17.4491 15.3167 17.3575 15.0833 17.1741 14.9L14.2741 12L17.1741 9.1C17.3575 8.91667 17.4491 8.68333 17.4491 8.4C17.4491 8.11667 17.3575 7.88333 17.1741 7.7C16.9908 7.51667 16.7575 7.425 16.4741 7.425C16.1908 7.425 15.9575 7.51667 15.7741 7.7L12.8741 10.6L9.97415 7.7C9.79081 7.51667 9.55748 7.425 9.27415 7.425C8.99081 7.425 8.75748 7.51667 8.57415 7.7C8.39081 7.88333 8.29915 8.11667 8.29915 8.4C8.29915 8.68333 8.39081 8.91667 8.57415 9.1L11.4741 12L8.57415 14.9C8.39081 15.0833 8.29915 15.3167 8.29915 15.6C8.29915 15.8833 8.39081 16.1167 8.57415 16.3C8.75748 16.4833 8.99081 16.575 9.27415 16.575C9.55748 16.575 9.79081 16.4833 9.97415 16.3L12.8741 13.4ZM12.8741 22C11.4908 22 10.1908 21.7375 8.97415 21.2125C7.75748 20.6875 6.69915 19.975 5.79915 19.075C4.89915 18.175 4.18665 17.1167 3.66165 15.9C3.13665 14.6833 2.87415 13.3833 2.87415 12C2.87415 10.6167 3.13665 9.31667 3.66165 8.1C4.18665 6.88333 4.89915 5.825 5.79915 4.925C6.69915 4.025 7.75748 3.3125 8.97415 2.7875C10.1908 2.2625 11.4908 2 12.8741 2C14.2575 2 15.5575 2.2625 16.7741 2.7875C17.9908 3.3125 19.0491 4.025 19.9491 4.925C20.8491 5.825 21.5616 6.88333 22.0866 8.1C22.6116 9.31667 22.8741 10.6167 22.8741 12C22.8741 13.3833 22.6116 14.6833 22.0866 15.9C21.5616 17.1167 20.8491 18.175 19.9491 19.075C19.0491 19.975 17.9908 20.6875 16.7741 21.2125C15.5575 21.7375 14.2575 22 12.8741 22Z" fill="#F2300A"/>
</g>
</svg>
