<svg width="14" height="15" viewBox="0 0 14 15" fill="none" xmlns="http://www.w3.org/2000/svg">
<path d="M3.20051 14.9024C2.72822 14.9024 2.32577 14.7361 1.99316 14.4035C1.66054 14.0709 1.49424 13.6684 1.49424 13.1961V3.54924C1.25484 3.54924 1.0528 3.46691 0.888126 3.30225C0.723451 3.13757 0.641113 2.93553 0.641113 2.69612C0.641113 2.45672 0.723451 2.25468 0.888126 2.09001C1.0528 1.92533 1.25484 1.84299 1.49424 1.84299H4.65118C4.65118 1.60359 4.73351 1.40156 4.89819 1.23688C5.06286 1.07221 5.2649 0.989868 5.5043 0.989868H8.49534C8.73474 0.989868 8.93677 1.07221 9.10145 1.23688C9.26612 1.40156 9.34846 1.60359 9.34846 1.84299H12.5054C12.7448 1.84299 12.9468 1.92533 13.1115 2.09001C13.2762 2.25468 13.3585 2.45672 13.3585 2.69612C13.3585 2.93553 13.2762 3.13757 13.1115 3.30225C12.9468 3.46691 12.7448 3.54924 12.5054 3.54924V13.1961C12.5054 13.6684 12.3391 14.0709 12.0065 14.4035C11.6739 14.7361 11.2714 14.9024 10.7991 14.9024H3.20051ZM4.66912 10.9461C4.66912 11.1706 4.74622 11.3599 4.90044 11.5141C5.05465 11.6683 5.24398 11.7454 5.46843 11.7454C5.69289 11.7454 5.88298 11.6683 6.03868 11.5141C6.19439 11.3599 6.27224 11.1706 6.27224 10.9461V5.79924C6.27224 5.57479 6.19439 5.38471 6.03868 5.229C5.88298 5.0733 5.69289 4.99545 5.46843 4.99545C5.24398 4.99545 5.05465 5.0733 4.90044 5.229C4.74622 5.38471 4.66912 5.57479 4.66912 5.79924V10.9461ZM7.72739 10.9461C7.72739 11.1706 7.80525 11.3599 7.96096 11.5141C8.11666 11.6683 8.30674 11.7454 8.53121 11.7454C8.75566 11.7454 8.94499 11.6683 9.0992 11.5141C9.25341 11.3599 9.33052 11.1706 9.33052 10.9461V5.79924C9.33052 5.57479 9.25341 5.38471 9.0992 5.229C8.94499 5.0733 8.75566 4.99545 8.53121 4.99545C8.30674 4.99545 8.11666 5.0733 7.96096 5.229C7.80525 5.38471 7.72739 5.57479 7.72739 5.79924V10.9461Z" fill="white"/>
</svg>
