<svg width="44" height="42" viewBox="0 0 44 42" fill="none" xmlns="http://www.w3.org/2000/svg">
<path d="M19.9 23.35L16.25 19.55C15.95 19.2167 15.5833 19.05 15.15 19.05C14.7167 19.05 14.3333 19.2 14 19.5C13.6667 19.8333 13.5 20.2167 13.5 20.65C13.5 21.0833 13.6667 21.4667 14 21.8L18.85 26.6C19.15 26.9 19.5 27.05 19.9 27.05C20.3 27.05 20.65 26.9 20.95 26.6L30.1 17.5C30.4 17.2 30.55 16.8333 30.55 16.4C30.55 15.9667 30.3833 15.6 30.05 15.3C29.75 15.0333 29.3917 14.9083 28.975 14.925C28.5583 14.9417 28.2167 15.0833 27.95 15.35L19.9 23.35ZM14.65 40.8L11.55 35.5L5.35 34.25C4.98333 34.1833 4.675 33.9833 4.425 33.65C4.175 33.3167 4.08333 32.9667 4.15 32.6L4.85 26.6L0.9 22C0.633333 21.7333 0.5 21.4 0.5 21C0.5 20.6 0.633333 20.2667 0.9 20L4.85 15.45L4.15 9.45001C4.08333 9.08335 4.175 8.73335 4.425 8.40001C4.675 8.06668 4.98333 7.86668 5.35 7.80001L11.55 6.55001L14.65 1.20001C14.85 0.86668 15.1333 0.633346 15.5 0.500013C15.8667 0.36668 16.2333 0.383346 16.6 0.550013L22.05 3.10001L27.5 0.550013C27.8667 0.383346 28.2333 0.358346 28.6 0.475013C28.9667 0.59168 29.25 0.81668 29.45 1.15001L32.6 6.55001L38.75 7.80001C39.1167 7.86668 39.425 8.06668 39.675 8.40001C39.925 8.73335 40.0167 9.08335 39.95 9.45001L39.25 15.45L43.2 20C43.4667 20.2667 43.6 20.6 43.6 21C43.6 21.4 43.4667 21.7333 43.2 22L39.25 26.6L39.95 32.6C40.0167 32.9667 39.925 33.3167 39.675 33.65C39.425 33.9833 39.1167 34.1833 38.75 34.25L32.6 35.5L29.45 40.85C29.25 41.1833 28.9667 41.4084 28.6 41.525C28.2333 41.6417 27.8667 41.6167 27.5 41.45L22.05 38.9L16.6 41.45C16.2333 41.6167 15.8667 41.6334 15.5 41.5C15.1333 41.3667 14.85 41.1333 14.65 40.8Z" fill="#6F27FF"/>
</svg>
