<svg width="21" height="20" viewBox="0 0 21 20" fill="none" xmlns="http://www.w3.org/2000/svg">
<path d="M15.85 6.85001C15.3409 5.68002 14.4621 4.70925 13.3484 4.08645C12.2347 3.46366 10.9476 3.22321 9.68417 3.40194C8.42076 3.58067 7.2508 4.16873 6.35358 5.07599C5.45635 5.98326 4.88135 7.15969 4.7167 8.42501C3.92219 8.61528 3.22522 9.09071 2.75815 9.761C2.29108 10.4313 2.08643 11.2498 2.18308 12.061C2.27973 12.8723 2.67094 13.6198 3.28242 14.1616C3.8939 14.7034 4.68306 15.0017 5.50003 15C5.72104 15 5.93301 14.9122 6.08929 14.7559C6.24557 14.5997 6.33336 14.3877 6.33336 14.1667C6.33336 13.9457 6.24557 13.7337 6.08929 13.5774C5.93301 13.4211 5.72104 13.3333 5.50003 13.3333C5.058 13.3333 4.63408 13.1578 4.32152 12.8452C4.00896 12.5326 3.83336 12.1087 3.83336 11.6667C3.83336 11.2247 4.00896 10.8007 4.32152 10.4882C4.63408 10.1756 5.058 10 5.50003 10C5.72104 10 5.93301 9.91222 6.08929 9.75594C6.24557 9.59966 6.33336 9.38769 6.33336 9.16668C6.33549 8.18108 6.68694 7.22814 7.32525 6.47717C7.96357 5.72619 8.84744 5.22581 9.81982 5.06491C10.7922 4.90401 11.7901 5.09302 12.6363 5.59835C13.4825 6.10369 14.1222 6.89263 14.4417 7.82501C14.4893 7.96821 14.575 8.09579 14.6894 8.19413C14.8039 8.29246 14.943 8.35786 15.0917 8.38335C15.6468 8.48824 16.1499 8.77802 16.5192 9.20546C16.8885 9.6329 17.1022 10.1728 17.1254 10.7372C17.1486 11.3016 16.9799 11.8572 16.6469 12.3135C16.314 12.7698 15.8363 13.0999 15.2917 13.25C15.0773 13.3053 14.8937 13.4434 14.7811 13.6341C14.6686 13.8247 14.6364 14.0523 14.6917 14.2667C14.747 14.4811 14.8851 14.6647 15.0758 14.7772C15.2664 14.8898 15.494 14.9219 15.7084 14.8667C16.5854 14.6349 17.3628 14.1233 17.9225 13.4096C18.4823 12.6958 18.7939 11.8189 18.8099 10.9119C18.8259 10.005 18.5455 9.11755 18.0113 8.38445C17.4771 7.65135 16.7183 7.1126 15.85 6.85001ZM11.0917 8.57501C11.0124 8.49915 10.919 8.43968 10.8167 8.40001C10.6138 8.31667 10.3862 8.31667 10.1834 8.40001C10.0811 8.43968 9.98762 8.49915 9.90836 8.57501L7.40836 11.075C7.25144 11.2319 7.16329 11.4448 7.16329 11.6667C7.16329 11.8886 7.25144 12.1014 7.40836 12.2583C7.56528 12.4153 7.77811 12.5034 8.00003 12.5034C8.22195 12.5034 8.43478 12.4153 8.5917 12.2583L9.6667 11.175V15.8333C9.6667 16.0544 9.75449 16.2663 9.91078 16.4226C10.0671 16.5789 10.279 16.6667 10.5 16.6667C10.721 16.6667 10.933 16.5789 11.0893 16.4226C11.2456 16.2663 11.3334 16.0544 11.3334 15.8333V11.175L12.4084 12.2583C12.4858 12.3365 12.578 12.3984 12.6796 12.4408C12.7811 12.4831 12.89 12.5048 13 12.5048C13.11 12.5048 13.219 12.4831 13.3205 12.4408C13.4221 12.3984 13.5142 12.3365 13.5917 12.2583C13.6698 12.1809 13.7318 12.0887 13.7741 11.9872C13.8164 11.8856 13.8382 11.7767 13.8382 11.6667C13.8382 11.5567 13.8164 11.4477 13.7741 11.3462C13.7318 11.2447 13.6698 11.1525 13.5917 11.075L11.0917 8.57501Z" fill="#6C27FF"/>
</svg>
