<svg width="18" height="17" viewBox="0 0 18 17" fill="none" xmlns="http://www.w3.org/2000/svg">
<path d="M2.28307 16.52C0.75517 16.512 -0.194741 14.8667 0.563137 13.54C2.40454 10.3165 5.35528 5.167 7.3511 1.76324C8.10121 0.483974 9.90044 0.483 10.651 1.76203C12.6637 5.19216 15.6447 10.398 17.4819 13.6166C18.229 14.9254 17.3127 16.5343 15.8057 16.5422C11.8716 16.5626 5.97762 16.5392 2.28307 16.52ZM9 14C9.28333 14 9.52083 13.9042 9.7125 13.7125C9.90417 13.5208 10 13.2833 10 13C10 12.7167 9.90417 12.4792 9.7125 12.2875C9.52083 12.0958 9.28333 12 9 12C8.71667 12 8.47917 12.0958 8.2875 12.2875C8.09583 12.4792 8 12.7167 8 13C8 13.2833 8.09583 13.5208 8.2875 13.7125C8.47917 13.9042 8.71667 14 9 14ZM9 11C9.28333 11 9.52083 10.9042 9.7125 10.7125C9.90417 10.5208 10 10.2833 10 10V7C10 6.71667 9.90417 6.47917 9.7125 6.2875C9.52083 6.09583 9.28333 6 9 6C8.71667 6 8.47917 6.09583 8.2875 6.2875C8.09583 6.47917 8 6.71667 8 7V10C8 10.2833 8.09583 10.5208 8.2875 10.7125C8.47917 10.9042 8.71667 11 9 11Z" fill="#F2300A"/>
<path d="M2.28307 16.52C0.75517 16.512 -0.194741 14.8667 0.563137 13.54C2.40454 10.3165 5.35528 5.167 7.3511 1.76324C8.10121 0.483974 9.90044 0.483 10.651 1.76203C12.6637 5.19216 15.6447 10.398 17.4819 13.6166C18.229 14.9254 17.3127 16.5343 15.8057 16.5422C11.8716 16.5626 5.97762 16.5392 2.28307 16.52ZM9 14C9.28333 14 9.52083 13.9042 9.7125 13.7125C9.90417 13.5208 10 13.2833 10 13C10 12.7167 9.90417 12.4792 9.7125 12.2875C9.52083 12.0958 9.28333 12 9 12C8.71667 12 8.47917 12.0958 8.2875 12.2875C8.09583 12.4792 8 12.7167 8 13C8 13.2833 8.09583 13.5208 8.2875 13.7125C8.47917 13.9042 8.71667 14 9 14ZM9 11C9.28333 11 9.52083 10.9042 9.7125 10.7125C9.90417 10.5208 10 10.2833 10 10V7C10 6.71667 9.90417 6.47917 9.7125 6.2875C9.52083 6.09583 9.28333 6 9 6C8.71667 6 8.47917 6.09583 8.2875 6.2875C8.09583 6.47917 8 6.71667 8 7V10C8 10.2833 8.09583 10.5208 8.2875 10.7125C8.47917 10.9042 8.71667 11 9 11Z" fill="black" fill-opacity="0.2"/>
</svg>
