<svg width="96" height="121" viewBox="0 0 96 121" fill="none" xmlns="http://www.w3.org/2000/svg">
<path d="M75.8781 43.9028L82.4158 48.5136L75.8781 43.9028ZM-107.619 110.608C-111.255 108.098 -112.168 103.116 -109.658 99.4796C-107.148 95.8434 -102.165 94.9305 -98.5293 97.4404L-107.619 110.608ZM95.4997 0.212919C95.8374 8.29424 95.2152 30.3649 82.4158 48.5136L69.3404 39.2921C79.0555 25.5168 79.8044 7.83741 79.5137 0.880941L95.4997 0.212919ZM82.4158 48.5136C66.5782 70.9701 46.8883 76.0116 35.7053 78.9274L31.6686 63.445C42.1266 60.7183 56.9517 56.8584 69.3404 39.2921L82.4158 48.5136ZM35.7053 78.9274C24.1893 81.93 0.251872 85.3855 -18.2567 66.5521L-6.84499 55.3372C5.35035 67.7466 21.5436 66.0849 31.6686 63.445L35.7053 78.9274ZM-18.2567 66.5521C-26.9829 57.6727 -30.2674 48.7201 -27.9161 40.5429C-25.781 33.1175 -19.6062 28.8626 -15.2018 27.6651L-11.004 43.1046C-10.7194 43.0273 -11.0948 43.1048 -11.6396 43.6007C-12.1053 44.0246 -12.4039 44.4939 -12.5392 44.9644C-12.654 45.3638 -13.4707 48.5952 -6.84499 55.3372L-18.2567 66.5521ZM-15.2018 27.6651C-10.3175 26.3372 -3.80561 27.675 1.34654 31.1803C7.09324 35.0901 11.5314 41.8682 11.7882 51.5827L-4.20622 52.0055C-4.32641 47.4588 -6.14352 45.4364 -7.65366 44.4089C-8.5404 43.8056 -9.49357 43.4409 -10.3059 43.2709C-11.2486 43.0736 -11.4837 43.2351 -11.004 43.1046L-15.2018 27.6651ZM11.7882 51.5827C12.0048 59.777 10.6058 66.0722 8.29662 71.1464C6.0192 76.151 3.03069 79.5287 1.08631 81.7576L-10.9708 71.2397C-9.05018 69.0381 -7.48357 67.1941 -6.26637 64.5193C-5.08089 61.9142 -4.04582 58.0723 -4.20622 52.0055L11.7882 51.5827ZM1.08631 81.7576C-4.38624 88.031 -15.2617 93.6426 -27.6741 92.1802L-25.802 76.2901C-19.0109 77.0902 -13.2281 73.8273 -10.9708 71.2397L1.08631 81.7576ZM-27.6741 92.1802C-33.5308 91.4902 -39.4441 89.4925 -44.0241 87.0301C-46.3041 85.8043 -48.5726 84.2936 -50.3908 82.5063C-51.9228 81.0003 -54.5444 77.9262 -54.5068 73.6077L-38.5074 73.7468C-38.4867 71.3642 -39.8457 70.4362 -39.1745 71.0961C-38.7894 71.4746 -37.9138 72.1494 -36.4476 72.9377C-33.5351 74.5036 -29.547 75.8489 -25.802 76.2901L-27.6741 92.1802ZM-54.5068 73.6077C-54.4691 69.2749 -52.3077 64.3297 -47.2705 62.0239C-42.1921 59.6993 -36.8497 61.2419 -32.7175 64.0265L-41.6588 77.295C-43.1421 76.2954 -42.4424 77.4105 -40.6111 76.5722C-38.8211 75.7528 -38.5114 74.2079 -38.5074 73.7468L-54.5068 73.6077ZM-32.7175 64.0265C-27.0154 67.869 -25.33 74.1914 -24.8553 78.3932C-24.3654 82.7306 -24.8824 87.1155 -25.7577 89.8252L-40.9831 84.9072C-40.9931 84.938 -40.9488 84.8006 -40.8879 84.4721C-40.8307 84.1633 -40.7729 83.7613 -40.7304 83.2887C-40.6441 82.3269 -40.636 81.2357 -40.7542 80.1892C-41.0303 77.7453 -41.7453 77.2367 -41.6588 77.295L-32.7175 64.0265ZM-25.7577 89.8252C-26.1237 90.9584 -27.3143 95.6968 -30.5673 100.746C-33.9111 105.937 -39.3317 111.413 -48.0993 115.262L-54.5303 100.611C-48.8481 98.1169 -45.7881 94.8295 -44.0179 92.0817C-42.1569 89.1928 -41.6001 86.8174 -40.9831 84.9072L-25.7577 89.8252ZM-48.0993 115.262C-64.5482 122.482 -89.5831 123.058 -107.619 110.608L-98.5293 97.4404C-85.9551 106.12 -66.9809 106.076 -54.5303 100.611L-48.0993 115.262Z" fill="#FF7632"/>
</svg>
