<svg width="7" height="11" viewBox="0 0 7 11" fill="none" xmlns="http://www.w3.org/2000/svg">
<path d="M1.16683 10.0001C0.986275 9.81953 0.895996 9.5973 0.895996 9.33342C0.895996 9.06953 0.986275 8.8473 1.16683 8.66675L4.3335 5.50008L1.16683 2.33341C0.986275 2.15286 0.895996 1.93064 0.895996 1.66675C0.895996 1.40286 0.986275 1.18064 1.16683 1.00008C1.34739 0.819526 1.56961 0.729248 1.8335 0.729248C2.09739 0.729248 2.31961 0.819526 2.50016 1.00008L6.3335 4.83341C6.43072 4.93064 6.50016 5.0348 6.54183 5.14591C6.5835 5.25703 6.60433 5.37508 6.60433 5.50008C6.60433 5.62508 6.5835 5.74314 6.54183 5.85425C6.50016 5.96536 6.43072 6.06953 6.3335 6.16675L2.50016 10.0001C2.31961 10.1806 2.09739 10.2709 1.8335 10.2709C1.56961 10.2709 1.34739 10.1806 1.16683 10.0001Z" fill="#241C2D"/>
</svg>
